<svg width="600" height="100" viewBox="0 0 600 100" fill="none" xmlns="http://www.w3.org/2000/svg">
<g clip-path="url(#clip0_10_142)">
<rect width="100" height="100" fill="#FDC830"/>
<path d="M19.2857 10.4286C20.4224 10.4286 21.5124 10.8801 22.3162 11.6838C23.1199 12.4876 23.5714 13.5776 23.5714 14.7143V23.2857C23.5714 24.4224 23.1199 25.5124 22.3162 26.3162C21.5124 27.1199 20.4224 27.5714 19.2857 27.5714H10.7143C9.57764 27.5714 8.48756 27.1199 7.68383 26.3162C6.8801 25.5124 6.42857 24.4224 6.42857 23.2857L6.42857 14.7143C6.42857 13.5776 6.8801 12.4876 7.68383 11.6838C8.48756 10.8801 9.57764 10.4286 10.7143 10.4286H19.2857ZM10.7143 9C9.19876 9 7.74531 9.60204 6.67368 10.6737C5.60204 11.7453 5 13.1988 5 14.7143L5 23.2857C5 24.8012 5.60204 26.2547 6.67368 27.3263C7.74531 28.398 9.19876 29 10.7143 29H19.2857C20.8012 29 22.2547 28.398 23.3263 27.3263C24.398 26.2547 25 24.8012 25 23.2857V14.7143C25 13.1988 24.398 11.7453 23.3263 10.6737C22.2547 9.60204 20.8012 9 19.2857 9H10.7143Z" fill="black" fill-opacity="0.08"/>
<path d="M25 38.75C22.6794 38.75 20.4538 37.8281 18.8128 36.1872C17.1719 34.5462 16.25 32.3206 16.25 30C16.25 27.6794 17.1719 25.4538 18.8128 23.8128C20.4538 22.1719 22.6794 21.25 25 21.25C27.3206 21.25 29.5462 22.1719 31.1872 23.8128C32.8281 25.4538 33.75 27.6794 33.75 30C33.75 32.3206 32.8281 34.5462 31.1872 36.1872C29.5462 37.8281 27.3206 38.75 25 38.75ZM25 40C27.6522 40 30.1957 38.9464 32.0711 37.0711C33.9464 35.1957 35 32.6522 35 30C35 27.3478 33.9464 24.8043 32.0711 22.9289C30.1957 21.0536 27.6522 20 25 20C22.3478 20 19.8043 21.0536 17.9289 22.9289C16.0536 24.8043 15 27.3478 15 30C15 32.6522 16.0536 35.1957 17.9289 37.0711C19.8043 38.9464 22.3478 40 25 40V40Z" fill="black" fill-opacity="0.08"/>
<path d="M84 23.75C81.6794 23.75 79.4538 22.8281 77.8128 21.1872C76.1719 19.5462 75.25 17.3206 75.25 15C75.25 12.6794 76.1719 10.4538 77.8128 8.81282C79.4538 7.17187 81.6794 6.25 84 6.25C86.3206 6.25 88.5462 7.17187 90.1872 8.81282C91.8281 10.4538 92.75 12.6794 92.75 15C92.75 17.3206 91.8281 19.5462 90.1872 21.1872C88.5462 22.8281 86.3206 23.75 84 23.75ZM84 25C86.6522 25 89.1957 23.9464 91.0711 22.0711C92.9464 20.1957 94 17.6522 94 15C94 12.3478 92.9464 9.8043 91.0711 7.92893C89.1957 6.05357 86.6522 5 84 5C81.3478 5 78.8043 6.05357 76.9289 7.92893C75.0536 9.8043 74 12.3478 74 15C74 17.6522 75.0536 20.1957 76.9289 22.0711C78.8043 23.9464 81.3478 25 84 25V25Z" fill="black" fill-opacity="0.08"/>
<path d="M53 90.75C50.6794 90.75 48.4538 89.8281 46.8128 88.1872C45.1719 86.5462 44.25 84.3206 44.25 82C44.25 79.6794 45.1719 77.4538 46.8128 75.8128C48.4538 74.1719 50.6794 73.25 53 73.25C55.3206 73.25 57.5462 74.1719 59.1872 75.8128C60.8281 77.4538 61.75 79.6794 61.75 82C61.75 84.3206 60.8281 86.5462 59.1872 88.1872C57.5462 89.8281 55.3206 90.75 53 90.75ZM53 92C55.6522 92 58.1957 90.9464 60.0711 89.0711C61.9464 87.1957 63 84.6522 63 82C63 79.3478 61.9464 76.8043 60.0711 74.9289C58.1957 73.0536 55.6522 72 53 72C50.3478 72 47.8043 73.0536 45.9289 74.9289C44.0536 76.8043 43 79.3478 43 82C43 84.6522 44.0536 87.1957 45.9289 89.0711C47.8043 90.9464 50.3478 92 53 92V92Z" fill="black" fill-opacity="0.08"/>
<path d="M40.5336 7.59231C40.5425 7.56481 40.5586 7.54107 40.5802 7.52339C40.6012 7.50561 40.627 7.49422 40.6552 7.49029C40.6897 7.48693 40.7257 7.49349 40.7592 7.50928L58.0364 14.7672C58.1259 14.804 58.1837 14.8748 58.2063 14.9659C58.2164 15.0026 58.2176 15.0401 58.2097 15.0749C58.2019 15.1041 58.1853 15.1291 58.1621 15.1465L45.0345 26.162C45.0133 26.1819 44.9858 26.1939 44.9557 26.1964C44.92 26.1981 44.8832 26.1904 44.8489 26.1741C44.8076 26.157 44.7703 26.1291 44.741 26.0935C44.7117 26.0579 44.6916 26.016 44.6828 25.9723L40.5343 7.69807C40.5246 7.66226 40.5244 7.62571 40.5336 7.59231V7.59231ZM41.1199 6.26122C40.8669 6.15205 40.5987 6.10995 40.3424 6.13917C40.0862 6.16838 39.8511 6.26788 39.6607 6.4276C39.4704 6.58733 39.3315 6.80164 39.2583 7.04888C39.185 7.29613 39.1799 7.56756 39.2435 7.83577L43.391 26.1108C43.6678 27.3292 45.1006 27.9712 45.9517 27.257L59.0803 16.2408C59.9314 15.5266 59.548 14.0023 58.3961 13.52L41.1199 6.26122Z" fill="black" fill-opacity="0.08"/>
<path d="M19.2857 46.4286C20.4224 46.4286 21.5124 46.8801 22.3162 47.6838C23.1199 48.4876 23.5714 49.5776 23.5714 50.7143V59.2857C23.5714 60.4224 23.1199 61.5124 22.3162 62.3162C21.5124 63.1199 20.4224 63.5714 19.2857 63.5714H10.7143C9.57764 63.5714 8.48756 63.1199 7.68383 62.3162C6.8801 61.5124 6.42857 60.4224 6.42857 59.2857L6.42857 50.7143C6.42857 49.5776 6.8801 48.4876 7.68383 47.6838C8.48756 46.8801 9.57764 46.4286 10.7143 46.4286H19.2857ZM10.7143 45C9.19876 45 7.74531 45.602 6.67368 46.6737C5.60204 47.7453 5 49.1988 5 50.7143L5 59.2857C5 60.8012 5.60204 62.2547 6.67368 63.3263C7.74531 64.398 9.19876 65 10.7143 65H19.2857C20.8012 65 22.2547 64.398 23.3263 63.3263C24.398 62.2547 25 60.8012 25 59.2857V50.7143C25 49.1988 24.398 47.7453 23.3263 46.6737C22.2547 45.602 20.8012 45 19.2857 45H10.7143Z" fill="black" fill-opacity="0.08"/>
<path d="M53.4113 30.0411C53.8 28.973 54.5972 28.1031 55.6273 27.6227C56.6575 27.1424 57.8363 27.0909 58.9043 27.4797L66.9589 30.4113C68.027 30.8 68.8969 31.5971 69.3772 32.6273C69.8576 33.6574 69.9091 34.8362 69.5203 35.9043L66.5887 43.9588C66.2 45.0269 65.4028 45.8968 64.3727 46.3772C63.3425 46.8576 62.1637 46.909 61.0957 46.5203L53.0411 43.5887C51.9731 43.1999 51.1031 42.4028 50.6228 41.3726C50.1424 40.3425 50.0909 39.1637 50.4797 38.0956L53.4113 30.0411ZM49.1373 37.607C48.6189 39.0311 48.6876 40.6028 49.328 41.9764C49.9685 43.3499 51.1284 44.4127 52.5525 44.9311L60.6071 47.8627C62.0312 48.381 63.6029 48.3124 64.9764 47.6719C66.3499 47.0314 67.4128 45.8715 67.9311 44.4474L70.8627 36.3929C71.3811 34.9688 71.3124 33.3971 70.672 32.0235C70.0315 30.65 68.8716 29.5872 67.4475 29.0688L59.3929 26.1372C57.9688 25.6189 56.3971 25.6875 55.0236 26.328C53.6501 26.9685 52.5872 28.1284 52.0689 29.5525L49.1373 37.607Z" fill="black" fill-opacity="0.08"/>
<path d="M15 89.75C12.6794 89.75 10.4538 88.8281 8.81282 87.1872C7.17187 85.5462 6.25 83.3206 6.25 81C6.25 78.6794 7.17187 76.4538 8.81282 74.8128C10.4538 73.1719 12.6794 72.25 15 72.25C17.3206 72.25 19.5462 73.1719 21.1872 74.8128C22.8281 76.4538 23.75 78.6794 23.75 81C23.75 83.3206 22.8281 85.5462 21.1872 87.1872C19.5462 88.8281 17.3206 89.75 15 89.75ZM15 91C17.6522 91 20.1957 89.9464 22.0711 88.0711C23.9464 86.1957 25 83.6522 25 81C25 78.3478 23.9464 75.8043 22.0711 73.9289C20.1957 72.0536 17.6522 71 15 71C12.3478 71 9.8043 72.0536 7.92893 73.9289C6.05357 75.8043 5 78.3478 5 81C5 83.6522 6.05357 86.1957 7.92893 88.0711C9.8043 89.9464 12.3478 91 15 91V91Z" fill="black" fill-opacity="0.08"/>
<path d="M43.0977 46.597C43.1192 46.5776 43.1449 46.5651 43.1725 46.5606C43.1996 46.5557 43.2276 46.5587 43.254 46.5694C43.2856 46.5838 43.3135 46.6074 43.3346 46.6379L54.6681 61.5621C54.7273 61.6386 54.7419 61.7289 54.716 61.8191C54.7063 61.8559 54.6886 61.8889 54.6644 61.9152C54.643 61.9366 54.6162 61.9499 54.5874 61.9534L37.7107 64.9292C37.6824 64.9358 37.6527 64.9325 37.6253 64.9196C37.5935 64.9032 37.5656 64.8782 37.5439 64.8469C37.5168 64.8115 37.4984 64.7687 37.4908 64.7232C37.4833 64.6777 37.4868 64.6313 37.501 64.5891L43.0454 46.6889C43.0549 46.6531 43.073 46.6213 43.0977 46.597V46.597ZM44.271 45.7374C44.1064 45.5163 43.8952 45.3458 43.6587 45.243C43.4222 45.1401 43.1688 45.1087 42.9241 45.1519C42.6794 45.195 42.452 45.3112 42.265 45.4887C42.0779 45.6662 41.9378 45.8987 41.8587 46.1628L36.3131 64.0632C35.9436 65.2568 36.8634 66.5291 37.9575 66.3362L54.8354 63.3601C55.9296 63.1672 56.3597 61.6554 55.6033 60.6618L44.271 45.7374Z" fill="black" fill-opacity="0.08"/>
<path d="M87.9204 31.4533C87.9449 31.438 87.9724 31.4301 88.0004 31.4305C88.0279 31.4303 88.055 31.4382 88.0791 31.4533C88.1077 31.4729 88.131 31.5011 88.1466 31.5347L96.7163 48.2002C96.7613 48.2859 96.7601 48.3773 96.7188 48.4616C96.703 48.4962 96.6798 48.5256 96.6513 48.5473C96.6266 48.5646 96.5979 48.5731 96.5688 48.5716H79.4319C79.4029 48.5732 79.3741 48.5647 79.3494 48.5473C79.321 48.5256 79.2978 48.4962 79.2819 48.4616C79.2613 48.4219 79.2506 48.3766 79.2511 48.3305C79.2515 48.2844 79.2631 48.2393 79.2844 48.2002L87.8529 31.5347C87.8685 31.5011 87.8918 31.4729 87.9204 31.4533V31.4533ZM89.2251 30.8105C89.1014 30.5642 88.923 30.3596 88.708 30.2172C88.4929 30.0749 88.2489 30 88.0004 30C87.7519 30 87.5078 30.0749 87.2927 30.2172C87.0777 30.3596 86.8993 30.5642 86.7756 30.8105L78.2058 47.476C77.6347 48.5873 78.3196 50 79.4306 50H96.5688C97.6799 50 98.366 48.5859 97.7936 47.476L89.2251 30.8105Z" fill="black" fill-opacity="0.08"/>
<path d="M49.4286 64.7143C49.4286 63.5776 49.8801 62.4876 50.6838 61.6838C51.4876 60.8801 52.5776 60.4286 53.7143 60.4286H62.2857C63.4224 60.4286 64.5124 60.8801 65.3162 61.6838C66.1199 62.4876 66.5714 63.5776 66.5714 64.7143V73.2857C66.5714 74.4224 66.1199 75.5124 65.3162 76.3162C64.5124 77.1199 63.4224 77.5714 62.2857 77.5714H53.7143C52.5776 77.5714 51.4876 77.1199 50.6838 76.3162C49.8801 75.5124 49.4286 74.4224 49.4286 73.2857V64.7143ZM48 73.2857C48 74.8012 48.602 76.2547 49.6737 77.3263C50.7453 78.398 52.1988 79 53.7143 79H62.2857C63.8012 79 65.2547 78.398 66.3263 77.3263C67.398 76.2547 68 74.8012 68 73.2857V64.7143C68 63.1988 67.398 61.7453 66.3263 60.6737C65.2547 59.602 63.8012 59 62.2857 59H53.7143C52.1988 59 50.7453 59.602 49.6737 60.6737C48.602 61.7453 48 63.1988 48 64.7143V73.2857Z" fill="black" fill-opacity="0.08"/>
<path d="M88.75 52C88.75 54.3206 87.8281 56.5462 86.1872 58.1872C84.5462 59.8281 82.3206 60.75 80 60.75C77.6794 60.75 75.4538 59.8281 73.8128 58.1872C72.1719 56.5462 71.25 54.3206 71.25 52C71.25 49.6794 72.1719 47.4538 73.8128 45.8128C75.4538 44.1719 77.6794 43.25 80 43.25C82.3206 43.25 84.5462 44.1719 86.1872 45.8128C87.8281 47.4538 88.75 49.6794 88.75 52ZM90 52C90 49.3478 88.9464 46.8043 87.0711 44.9289C85.1957 43.0536 82.6522 42 80 42C77.3478 42 74.8043 43.0536 72.9289 44.9289C71.0536 46.8043 70 49.3478 70 52C70 54.6522 71.0536 57.1957 72.9289 59.0711C74.8043 60.9464 77.3478 62 80 62C82.6522 62 85.1957 60.9464 87.0711 59.0711C88.9464 57.1957 90 54.6522 90 52V52Z" fill="black" fill-opacity="0.08"/>
<path d="M73.2188 73.4559C73.2177 73.427 73.2247 73.3992 73.239 73.3752C73.2526 73.3513 73.273 73.3318 73.2981 73.3185C73.3294 73.3035 73.3655 73.2974 73.4024 73.3007L92.12 74.2118C92.2167 74.2157 92.2952 74.2625 92.3476 74.3404C92.3696 74.3714 92.3836 74.4062 92.3881 74.4417C92.3907 74.4718 92.3837 74.5009 92.3679 74.5252L83.7994 89.3663C83.7863 89.3922 83.7646 89.4129 83.7371 89.4256C83.7042 89.4394 83.667 89.4448 83.6292 89.4412C83.5845 89.4392 83.5399 89.4258 83.5002 89.4023C83.4605 89.3789 83.4272 89.3464 83.404 89.3083L73.2556 73.5551C73.2342 73.5247 73.2215 73.4904 73.2188 73.4559V73.4559ZM73.3145 72.0046C73.0393 71.9885 72.7729 72.0407 72.5421 72.1558C72.3114 72.2709 72.1244 72.4448 72.0002 72.66C71.8759 72.8752 71.8188 73.1241 71.8345 73.3814C71.8502 73.6388 71.9383 73.8956 72.0897 74.1259L82.2376 89.8803C82.9144 90.9306 84.4803 91.0438 85.0358 90.0816L93.6049 75.2395C94.1605 74.2773 93.2788 72.976 92.0314 72.9168L73.3145 72.0046Z" fill="black" fill-opacity="0.08"/>
<path d="M17.2984 83.0026C17.2729 82.9891 17.2523 82.9691 17.2386 82.9448C17.2248 82.921 17.218 82.8936 17.2191 82.8652C17.2217 82.8306 17.2344 82.7963 17.2558 82.766L27.4037 67.0117C27.4554 66.9298 27.5352 66.8852 27.6288 66.8788C27.6667 66.8752 27.7038 66.8806 27.7368 66.8944C27.7642 66.9071 27.7859 66.9278 27.799 66.9537L36.3675 81.7947C36.3834 81.819 36.3905 81.8482 36.3877 81.8783C36.3832 81.9138 36.3693 81.9486 36.3473 81.9796C36.3232 82.0173 36.2893 82.0492 36.2491 82.0718C36.209 82.0945 36.1642 82.1071 36.1196 82.1081L17.4027 83.0203C17.3657 83.0236 17.3297 83.0175 17.2984 83.0026V83.0026ZM16.0894 82.194C15.9379 82.4243 15.8499 82.6811 15.8341 82.9385C15.8184 83.1959 15.8756 83.4448 15.9998 83.66C16.1241 83.8752 16.311 84.0491 16.5418 84.1642C16.7725 84.2793 17.039 84.3314 17.3141 84.3154L36.0317 83.4043C37.2797 83.3433 38.1607 82.0438 37.6052 81.0816L29.0361 66.2395C28.4806 65.2773 26.9128 65.3901 26.2378 66.4408L16.0894 82.194Z" fill="black" fill-opacity="0.08"/>
</g>
<g clip-path="url(#clip1_10_142)">
<rect width="100" height="100" transform="translate(500)" fill="#FDC830"/>
<path d="M519.286 10.4286C520.422 10.4286 521.512 10.8801 522.316 11.6838C523.12 12.4876 523.571 13.5776 523.571 14.7143V23.2857C523.571 24.4224 523.12 25.5124 522.316 26.3162C521.512 27.1199 520.422 27.5714 519.286 27.5714H510.714C509.578 27.5714 508.488 27.1199 507.684 26.3162C506.88 25.5124 506.429 24.4224 506.429 23.2857V14.7143C506.429 13.5776 506.88 12.4876 507.684 11.6838C508.488 10.8801 509.578 10.4286 510.714 10.4286H519.286ZM510.714 9C509.199 9 507.745 9.60204 506.674 10.6737C505.602 11.7453 505 13.1988 505 14.7143V23.2857C505 24.8012 505.602 26.2547 506.674 27.3263C507.745 28.398 509.199 29 510.714 29H519.286C520.801 29 522.255 28.398 523.326 27.3263C524.398 26.2547 525 24.8012 525 23.2857V14.7143C525 13.1988 524.398 11.7453 523.326 10.6737C522.255 9.60204 520.801 9 519.286 9H510.714Z" fill="black" fill-opacity="0.08"/>
<path d="M525 38.75C522.679 38.75 520.454 37.8281 518.813 36.1872C517.172 34.5462 516.25 32.3206 516.25 30C516.25 27.6794 517.172 25.4538 518.813 23.8128C520.454 22.1719 522.679 21.25 525 21.25C527.321 21.25 529.546 22.1719 531.187 23.8128C532.828 25.4538 533.75 27.6794 533.75 30C533.75 32.3206 532.828 34.5462 531.187 36.1872C529.546 37.8281 527.321 38.75 525 38.75ZM525 40C527.652 40 530.196 38.9464 532.071 37.0711C533.946 35.1957 535 32.6522 535 30C535 27.3478 533.946 24.8043 532.071 22.9289C530.196 21.0536 527.652 20 525 20C522.348 20 519.804 21.0536 517.929 22.9289C516.054 24.8043 515 27.3478 515 30C515 32.6522 516.054 35.1957 517.929 37.0711C519.804 38.9464 522.348 40 525 40V40Z" fill="black" fill-opacity="0.08"/>
<path d="M584 23.75C581.679 23.75 579.454 22.8281 577.813 21.1872C576.172 19.5462 575.25 17.3206 575.25 15C575.25 12.6794 576.172 10.4538 577.813 8.81282C579.454 7.17187 581.679 6.25 584 6.25C586.321 6.25 588.546 7.17187 590.187 8.81282C591.828 10.4538 592.75 12.6794 592.75 15C592.75 17.3206 591.828 19.5462 590.187 21.1872C588.546 22.8281 586.321 23.75 584 23.75ZM584 25C586.652 25 589.196 23.9464 591.071 22.0711C592.946 20.1957 594 17.6522 594 15C594 12.3478 592.946 9.8043 591.071 7.92893C589.196 6.05357 586.652 5 584 5C581.348 5 578.804 6.05357 576.929 7.92893C575.054 9.8043 574 12.3478 574 15C574 17.6522 575.054 20.1957 576.929 22.0711C578.804 23.9464 581.348 25 584 25V25Z" fill="black" fill-opacity="0.08"/>
<path d="M553 90.75C550.679 90.75 548.454 89.8281 546.813 88.1872C545.172 86.5462 544.25 84.3206 544.25 82C544.25 79.6794 545.172 77.4538 546.813 75.8128C548.454 74.1719 550.679 73.25 553 73.25C555.321 73.25 557.546 74.1719 559.187 75.8128C560.828 77.4538 561.75 79.6794 561.75 82C561.75 84.3206 560.828 86.5462 559.187 88.1872C557.546 89.8281 555.321 90.75 553 90.75ZM553 92C555.652 92 558.196 90.9464 560.071 89.0711C561.946 87.1957 563 84.6522 563 82C563 79.3478 561.946 76.8043 560.071 74.9289C558.196 73.0536 555.652 72 553 72C550.348 72 547.804 73.0536 545.929 74.9289C544.054 76.8043 543 79.3478 543 82C543 84.6522 544.054 87.1957 545.929 89.0711C547.804 90.9464 550.348 92 553 92V92Z" fill="black" fill-opacity="0.08"/>
<path d="M540.534 7.59231C540.543 7.56481 540.559 7.54107 540.58 7.52339C540.601 7.50561 540.627 7.49422 540.655 7.49029C540.69 7.48693 540.726 7.49349 540.759 7.50928L558.036 14.7672C558.126 14.804 558.184 14.8748 558.206 14.9659C558.216 15.0026 558.218 15.0401 558.21 15.0749C558.202 15.1041 558.185 15.1291 558.162 15.1465L545.034 26.162C545.013 26.1819 544.986 26.1939 544.956 26.1964C544.92 26.1981 544.883 26.1904 544.849 26.1741C544.808 26.157 544.77 26.1291 544.741 26.0935C544.712 26.0579 544.692 26.016 544.683 25.9723L540.534 7.69807C540.525 7.66226 540.524 7.62571 540.534 7.59231V7.59231ZM541.12 6.26122C540.867 6.15205 540.599 6.10995 540.342 6.13917C540.086 6.16838 539.851 6.26788 539.661 6.4276C539.47 6.58733 539.332 6.80164 539.258 7.04888C539.185 7.29613 539.18 7.56756 539.243 7.83577L543.391 26.1108C543.668 27.3292 545.101 27.9712 545.952 27.257L559.08 16.2408C559.931 15.5266 559.548 14.0023 558.396 13.52L541.12 6.26122Z" fill="black" fill-opacity="0.08"/>
<path d="M519.286 46.4286C520.422 46.4286 521.512 46.8801 522.316 47.6838C523.12 48.4876 523.571 49.5776 523.571 50.7143V59.2857C523.571 60.4224 523.12 61.5124 522.316 62.3162C521.512 63.1199 520.422 63.5714 519.286 63.5714H510.714C509.578 63.5714 508.488 63.1199 507.684 62.3162C506.88 61.5124 506.429 60.4224 506.429 59.2857V50.7143C506.429 49.5776 506.88 48.4876 507.684 47.6838C508.488 46.8801 509.578 46.4286 510.714 46.4286H519.286ZM510.714 45C509.199 45 507.745 45.602 506.674 46.6737C505.602 47.7453 505 49.1988 505 50.7143V59.2857C505 60.8012 505.602 62.2547 506.674 63.3263C507.745 64.398 509.199 65 510.714 65H519.286C520.801 65 522.255 64.398 523.326 63.3263C524.398 62.2547 525 60.8012 525 59.2857V50.7143C525 49.1988 524.398 47.7453 523.326 46.6737C522.255 45.602 520.801 45 519.286 45H510.714Z" fill="black" fill-opacity="0.08"/>
<path d="M553.411 30.0411C553.8 28.973 554.597 28.1031 555.627 27.6227C556.657 27.1424 557.836 27.0909 558.904 27.4797L566.959 30.4113C568.027 30.8 568.897 31.5971 569.377 32.6273C569.858 33.6574 569.909 34.8362 569.52 35.9043L566.589 43.9588C566.2 45.0269 565.403 45.8968 564.373 46.3772C563.343 46.8576 562.164 46.909 561.096 46.5203L553.041 43.5887C551.973 43.1999 551.103 42.4028 550.623 41.3726C550.142 40.3425 550.091 39.1637 550.48 38.0956L553.411 30.0411ZM549.137 37.607C548.619 39.0311 548.688 40.6028 549.328 41.9764C549.969 43.3499 551.128 44.4127 552.553 44.9311L560.607 47.8627C562.031 48.381 563.603 48.3124 564.976 47.6719C566.35 47.0314 567.413 45.8715 567.931 44.4474L570.863 36.3929C571.381 34.9688 571.312 33.3971 570.672 32.0235C570.031 30.65 568.872 29.5872 567.447 29.0688L559.393 26.1372C557.969 25.6189 556.397 25.6875 555.024 26.328C553.65 26.9685 552.587 28.1284 552.069 29.5525L549.137 37.607Z" fill="black" fill-opacity="0.08"/>
<path d="M515 89.75C512.679 89.75 510.454 88.8281 508.813 87.1872C507.172 85.5462 506.25 83.3206 506.25 81C506.25 78.6794 507.172 76.4538 508.813 74.8128C510.454 73.1719 512.679 72.25 515 72.25C517.321 72.25 519.546 73.1719 521.187 74.8128C522.828 76.4538 523.75 78.6794 523.75 81C523.75 83.3206 522.828 85.5462 521.187 87.1872C519.546 88.8281 517.321 89.75 515 89.75ZM515 91C517.652 91 520.196 89.9464 522.071 88.0711C523.946 86.1957 525 83.6522 525 81C525 78.3478 523.946 75.8043 522.071 73.9289C520.196 72.0536 517.652 71 515 71C512.348 71 509.804 72.0536 507.929 73.9289C506.054 75.8043 505 78.3478 505 81C505 83.6522 506.054 86.1957 507.929 88.0711C509.804 89.9464 512.348 91 515 91V91Z" fill="black" fill-opacity="0.08"/>
<path d="M543.098 46.597C543.119 46.5776 543.145 46.5651 543.173 46.5606C543.2 46.5557 543.228 46.5587 543.254 46.5694C543.286 46.5838 543.313 46.6074 543.335 46.6379L554.668 61.5621C554.727 61.6386 554.742 61.7289 554.716 61.8191C554.706 61.8559 554.689 61.8889 554.664 61.9152C554.643 61.9366 554.616 61.9499 554.587 61.9534L537.711 64.9292C537.682 64.9358 537.653 64.9325 537.625 64.9196C537.594 64.9032 537.566 64.8782 537.544 64.8469C537.517 64.8115 537.498 64.7687 537.491 64.7232C537.483 64.6777 537.487 64.6313 537.501 64.5891L543.045 46.6889C543.055 46.6531 543.073 46.6213 543.098 46.597V46.597ZM544.271 45.7374C544.106 45.5163 543.895 45.3458 543.659 45.243C543.422 45.1401 543.169 45.1087 542.924 45.1519C542.679 45.195 542.452 45.3112 542.265 45.4887C542.078 45.6662 541.938 45.8987 541.859 46.1628L536.313 64.0632C535.944 65.2568 536.863 66.5291 537.958 66.3362L554.835 63.3601C555.93 63.1672 556.36 61.6554 555.603 60.6618L544.271 45.7374Z" fill="black" fill-opacity="0.08"/>
<path d="M587.92 31.4533C587.945 31.438 587.972 31.4301 588 31.4305C588.028 31.4303 588.055 31.4382 588.079 31.4533C588.108 31.4729 588.131 31.5011 588.147 31.5347L596.716 48.2002C596.761 48.2859 596.76 48.3773 596.719 48.4616C596.703 48.4962 596.68 48.5256 596.651 48.5473C596.627 48.5646 596.598 48.5731 596.569 48.5716H579.432C579.403 48.5732 579.374 48.5647 579.349 48.5473C579.321 48.5256 579.298 48.4962 579.282 48.4616C579.261 48.4219 579.251 48.3766 579.251 48.3305C579.252 48.2844 579.263 48.2393 579.284 48.2002L587.853 31.5347C587.869 31.5011 587.892 31.4729 587.92 31.4533V31.4533ZM589.225 30.8105C589.101 30.5642 588.923 30.3596 588.708 30.2172C588.493 30.0749 588.249 30 588 30C587.752 30 587.508 30.0749 587.293 30.2172C587.078 30.3596 586.899 30.5642 586.776 30.8105L578.206 47.476C577.635 48.5873 578.32 50 579.431 50H596.569C597.68 50 598.366 48.5859 597.794 47.476L589.225 30.8105Z" fill="black" fill-opacity="0.08"/>
<path d="M549.429 64.7143C549.429 63.5776 549.88 62.4876 550.684 61.6838C551.488 60.8801 552.578 60.4286 553.714 60.4286H562.286C563.422 60.4286 564.512 60.8801 565.316 61.6838C566.12 62.4876 566.571 63.5776 566.571 64.7143V73.2857C566.571 74.4224 566.12 75.5124 565.316 76.3162C564.512 77.1199 563.422 77.5714 562.286 77.5714H553.714C552.578 77.5714 551.488 77.1199 550.684 76.3162C549.88 75.5124 549.429 74.4224 549.429 73.2857V64.7143ZM548 73.2857C548 74.8012 548.602 76.2547 549.674 77.3263C550.745 78.398 552.199 79 553.714 79H562.286C563.801 79 565.255 78.398 566.326 77.3263C567.398 76.2547 568 74.8012 568 73.2857V64.7143C568 63.1988 567.398 61.7453 566.326 60.6737C565.255 59.602 563.801 59 562.286 59H553.714C552.199 59 550.745 59.602 549.674 60.6737C548.602 61.7453 548 63.1988 548 64.7143V73.2857Z" fill="black" fill-opacity="0.08"/>
<path d="M588.75 52C588.75 54.3206 587.828 56.5462 586.187 58.1872C584.546 59.8281 582.321 60.75 580 60.75C577.679 60.75 575.454 59.8281 573.813 58.1872C572.172 56.5462 571.25 54.3206 571.25 52C571.25 49.6794 572.172 47.4538 573.813 45.8128C575.454 44.1719 577.679 43.25 580 43.25C582.321 43.25 584.546 44.1719 586.187 45.8128C587.828 47.4538 588.75 49.6794 588.75 52ZM590 52C590 49.3478 588.946 46.8043 587.071 44.9289C585.196 43.0536 582.652 42 580 42C577.348 42 574.804 43.0536 572.929 44.9289C571.054 46.8043 570 49.3478 570 52C570 54.6522 571.054 57.1957 572.929 59.0711C574.804 60.9464 577.348 62 580 62C582.652 62 585.196 60.9464 587.071 59.0711C588.946 57.1957 590 54.6522 590 52V52Z" fill="black" fill-opacity="0.08"/>
<path d="M573.219 73.4559C573.218 73.427 573.225 73.3992 573.239 73.3752C573.253 73.3513 573.273 73.3318 573.298 73.3185C573.329 73.3035 573.365 73.2974 573.402 73.3007L592.12 74.2118C592.217 74.2157 592.295 74.2625 592.348 74.3404C592.37 74.3714 592.384 74.4062 592.388 74.4417C592.391 74.4718 592.384 74.5009 592.368 74.5252L583.799 89.3663C583.786 89.3922 583.765 89.4129 583.737 89.4256C583.704 89.4394 583.667 89.4448 583.629 89.4412C583.585 89.4392 583.54 89.4258 583.5 89.4023C583.46 89.3789 583.427 89.3464 583.404 89.3083L573.256 73.5551C573.234 73.5247 573.222 73.4904 573.219 73.4559V73.4559ZM573.314 72.0046C573.039 71.9885 572.773 72.0407 572.542 72.1558C572.311 72.2709 572.124 72.4448 572 72.66C571.876 72.8752 571.819 73.1241 571.835 73.3814C571.85 73.6388 571.938 73.8956 572.09 74.1259L582.238 89.8803C582.914 90.9306 584.48 91.0438 585.036 90.0816L593.605 75.2395C594.16 74.2773 593.279 72.976 592.031 72.9168L573.314 72.0046Z" fill="black" fill-opacity="0.08"/>
<path d="M517.298 83.0026C517.273 82.9891 517.252 82.9691 517.239 82.9448C517.225 82.921 517.218 82.8936 517.219 82.8652C517.222 82.8306 517.234 82.7963 517.256 82.766L527.404 67.0117C527.455 66.9298 527.535 66.8852 527.629 66.8788C527.667 66.8752 527.704 66.8806 527.737 66.8944C527.764 66.9071 527.786 66.9278 527.799 66.9537L536.368 81.7947C536.383 81.819 536.39 81.8482 536.388 81.8783C536.383 81.9138 536.369 81.9486 536.347 81.9796C536.323 82.0173 536.289 82.0492 536.249 82.0718C536.209 82.0945 536.164 82.1071 536.12 82.1081L517.403 83.0203C517.366 83.0236 517.33 83.0175 517.298 83.0026V83.0026ZM516.089 82.194C515.938 82.4243 515.85 82.6811 515.834 82.9385C515.818 83.1959 515.876 83.4448 516 83.66C516.124 83.8752 516.311 84.0491 516.542 84.1642C516.773 84.2793 517.039 84.3314 517.314 84.3154L536.032 83.4043C537.28 83.3433 538.161 82.0438 537.605 81.0816L529.036 66.2395C528.481 65.2773 526.913 65.3901 526.238 66.4408L516.089 82.194Z" fill="black" fill-opacity="0.08"/>
</g>
<g clip-path="url(#clip2_10_142)">
<rect width="100" height="100" transform="translate(400)" fill="#FDC830"/>
<path d="M419.286 10.4286C420.422 10.4286 421.512 10.8801 422.316 11.6838C423.12 12.4876 423.571 13.5776 423.571 14.7143V23.2857C423.571 24.4224 423.12 25.5124 422.316 26.3162C421.512 27.1199 420.422 27.5714 419.286 27.5714H410.714C409.578 27.5714 408.488 27.1199 407.684 26.3162C406.88 25.5124 406.429 24.4224 406.429 23.2857V14.7143C406.429 13.5776 406.88 12.4876 407.684 11.6838C408.488 10.8801 409.578 10.4286 410.714 10.4286H419.286ZM410.714 9C409.199 9 407.745 9.60204 406.674 10.6737C405.602 11.7453 405 13.1988 405 14.7143V23.2857C405 24.8012 405.602 26.2547 406.674 27.3263C407.745 28.398 409.199 29 410.714 29H419.286C420.801 29 422.255 28.398 423.326 27.3263C424.398 26.2547 425 24.8012 425 23.2857V14.7143C425 13.1988 424.398 11.7453 423.326 10.6737C422.255 9.60204 420.801 9 419.286 9H410.714Z" fill="black" fill-opacity="0.08"/>
<path d="M425 38.75C422.679 38.75 420.454 37.8281 418.813 36.1872C417.172 34.5462 416.25 32.3206 416.25 30C416.25 27.6794 417.172 25.4538 418.813 23.8128C420.454 22.1719 422.679 21.25 425 21.25C427.321 21.25 429.546 22.1719 431.187 23.8128C432.828 25.4538 433.75 27.6794 433.75 30C433.75 32.3206 432.828 34.5462 431.187 36.1872C429.546 37.8281 427.321 38.75 425 38.75ZM425 40C427.652 40 430.196 38.9464 432.071 37.0711C433.946 35.1957 435 32.6522 435 30C435 27.3478 433.946 24.8043 432.071 22.9289C430.196 21.0536 427.652 20 425 20C422.348 20 419.804 21.0536 417.929 22.9289C416.054 24.8043 415 27.3478 415 30C415 32.6522 416.054 35.1957 417.929 37.0711C419.804 38.9464 422.348 40 425 40V40Z" fill="black" fill-opacity="0.08"/>
<path d="M484 23.75C481.679 23.75 479.454 22.8281 477.813 21.1872C476.172 19.5462 475.25 17.3206 475.25 15C475.25 12.6794 476.172 10.4538 477.813 8.81282C479.454 7.17187 481.679 6.25 484 6.25C486.321 6.25 488.546 7.17187 490.187 8.81282C491.828 10.4538 492.75 12.6794 492.75 15C492.75 17.3206 491.828 19.5462 490.187 21.1872C488.546 22.8281 486.321 23.75 484 23.75ZM484 25C486.652 25 489.196 23.9464 491.071 22.0711C492.946 20.1957 494 17.6522 494 15C494 12.3478 492.946 9.8043 491.071 7.92893C489.196 6.05357 486.652 5 484 5C481.348 5 478.804 6.05357 476.929 7.92893C475.054 9.8043 474 12.3478 474 15C474 17.6522 475.054 20.1957 476.929 22.0711C478.804 23.9464 481.348 25 484 25V25Z" fill="black" fill-opacity="0.08"/>
<path d="M453 90.75C450.679 90.75 448.454 89.8281 446.813 88.1872C445.172 86.5462 444.25 84.3206 444.25 82C444.25 79.6794 445.172 77.4538 446.813 75.8128C448.454 74.1719 450.679 73.25 453 73.25C455.321 73.25 457.546 74.1719 459.187 75.8128C460.828 77.4538 461.75 79.6794 461.75 82C461.75 84.3206 460.828 86.5462 459.187 88.1872C457.546 89.8281 455.321 90.75 453 90.75ZM453 92C455.652 92 458.196 90.9464 460.071 89.0711C461.946 87.1957 463 84.6522 463 82C463 79.3478 461.946 76.8043 460.071 74.9289C458.196 73.0536 455.652 72 453 72C450.348 72 447.804 73.0536 445.929 74.9289C444.054 76.8043 443 79.3478 443 82C443 84.6522 444.054 87.1957 445.929 89.0711C447.804 90.9464 450.348 92 453 92V92Z" fill="black" fill-opacity="0.08"/>
<path d="M440.534 7.59231C440.543 7.56481 440.559 7.54107 440.58 7.52339C440.601 7.50561 440.627 7.49422 440.655 7.49029C440.69 7.48693 440.726 7.49349 440.759 7.50928L458.036 14.7672C458.126 14.804 458.184 14.8748 458.206 14.9659C458.216 15.0026 458.218 15.0401 458.21 15.0749C458.202 15.1041 458.185 15.1291 458.162 15.1465L445.034 26.162C445.013 26.1819 444.986 26.1939 444.956 26.1964C444.92 26.1981 444.883 26.1904 444.849 26.1741C444.808 26.157 444.77 26.1291 444.741 26.0935C444.712 26.0579 444.692 26.016 444.683 25.9723L440.534 7.69807C440.525 7.66226 440.524 7.62571 440.534 7.59231V7.59231ZM441.12 6.26122C440.867 6.15205 440.599 6.10995 440.342 6.13917C440.086 6.16838 439.851 6.26788 439.661 6.4276C439.47 6.58733 439.332 6.80164 439.258 7.04888C439.185 7.29613 439.18 7.56756 439.243 7.83577L443.391 26.1108C443.668 27.3292 445.101 27.9712 445.952 27.257L459.08 16.2408C459.931 15.5266 459.548 14.0023 458.396 13.52L441.12 6.26122Z" fill="black" fill-opacity="0.08"/>
<path d="M419.286 46.4286C420.422 46.4286 421.512 46.8801 422.316 47.6838C423.12 48.4876 423.571 49.5776 423.571 50.7143V59.2857C423.571 60.4224 423.12 61.5124 422.316 62.3162C421.512 63.1199 420.422 63.5714 419.286 63.5714H410.714C409.578 63.5714 408.488 63.1199 407.684 62.3162C406.88 61.5124 406.429 60.4224 406.429 59.2857V50.7143C406.429 49.5776 406.88 48.4876 407.684 47.6838C408.488 46.8801 409.578 46.4286 410.714 46.4286H419.286ZM410.714 45C409.199 45 407.745 45.602 406.674 46.6737C405.602 47.7453 405 49.1988 405 50.7143V59.2857C405 60.8012 405.602 62.2547 406.674 63.3263C407.745 64.398 409.199 65 410.714 65H419.286C420.801 65 422.255 64.398 423.326 63.3263C424.398 62.2547 425 60.8012 425 59.2857V50.7143C425 49.1988 424.398 47.7453 423.326 46.6737C422.255 45.602 420.801 45 419.286 45H410.714Z" fill="black" fill-opacity="0.08"/>
<path d="M453.411 30.0411C453.8 28.973 454.597 28.1031 455.627 27.6227C456.657 27.1424 457.836 27.0909 458.904 27.4797L466.959 30.4113C468.027 30.8 468.897 31.5971 469.377 32.6273C469.858 33.6574 469.909 34.8362 469.52 35.9043L466.589 43.9588C466.2 45.0269 465.403 45.8968 464.373 46.3772C463.343 46.8576 462.164 46.909 461.096 46.5203L453.041 43.5887C451.973 43.1999 451.103 42.4028 450.623 41.3726C450.142 40.3425 450.091 39.1637 450.48 38.0956L453.411 30.0411ZM449.137 37.607C448.619 39.0311 448.688 40.6028 449.328 41.9764C449.969 43.3499 451.128 44.4127 452.553 44.9311L460.607 47.8627C462.031 48.381 463.603 48.3124 464.976 47.6719C466.35 47.0314 467.413 45.8715 467.931 44.4474L470.863 36.3929C471.381 34.9688 471.312 33.3971 470.672 32.0235C470.031 30.65 468.872 29.5872 467.447 29.0688L459.393 26.1372C457.969 25.6189 456.397 25.6875 455.024 26.328C453.65 26.9685 452.587 28.1284 452.069 29.5525L449.137 37.607Z" fill="black" fill-opacity="0.08"/>
<path d="M415 89.75C412.679 89.75 410.454 88.8281 408.813 87.1872C407.172 85.5462 406.25 83.3206 406.25 81C406.25 78.6794 407.172 76.4538 408.813 74.8128C410.454 73.1719 412.679 72.25 415 72.25C417.321 72.25 419.546 73.1719 421.187 74.8128C422.828 76.4538 423.75 78.6794 423.75 81C423.75 83.3206 422.828 85.5462 421.187 87.1872C419.546 88.8281 417.321 89.75 415 89.75ZM415 91C417.652 91 420.196 89.9464 422.071 88.0711C423.946 86.1957 425 83.6522 425 81C425 78.3478 423.946 75.8043 422.071 73.9289C420.196 72.0536 417.652 71 415 71C412.348 71 409.804 72.0536 407.929 73.9289C406.054 75.8043 405 78.3478 405 81C405 83.6522 406.054 86.1957 407.929 88.0711C409.804 89.9464 412.348 91 415 91V91Z" fill="black" fill-opacity="0.08"/>
<path d="M443.098 46.597C443.119 46.5776 443.145 46.5651 443.173 46.5606C443.2 46.5557 443.228 46.5587 443.254 46.5694C443.286 46.5838 443.313 46.6074 443.335 46.6379L454.668 61.5621C454.727 61.6386 454.742 61.7289 454.716 61.8191C454.706 61.8559 454.689 61.8889 454.664 61.9152C454.643 61.9366 454.616 61.9499 454.587 61.9534L437.711 64.9292C437.682 64.9358 437.653 64.9325 437.625 64.9196C437.594 64.9032 437.566 64.8782 437.544 64.8469C437.517 64.8115 437.498 64.7687 437.491 64.7232C437.483 64.6777 437.487 64.6313 437.501 64.5891L443.045 46.6889C443.055 46.6531 443.073 46.6213 443.098 46.597V46.597ZM444.271 45.7374C444.106 45.5163 443.895 45.3458 443.659 45.243C443.422 45.1401 443.169 45.1087 442.924 45.1519C442.679 45.195 442.452 45.3112 442.265 45.4887C442.078 45.6662 441.938 45.8987 441.859 46.1628L436.313 64.0632C435.944 65.2568 436.863 66.5291 437.958 66.3362L454.835 63.3601C455.93 63.1672 456.36 61.6554 455.603 60.6618L444.271 45.7374Z" fill="black" fill-opacity="0.08"/>
<path d="M487.92 31.4533C487.945 31.438 487.972 31.4301 488 31.4305C488.028 31.4303 488.055 31.4382 488.079 31.4533C488.108 31.4729 488.131 31.5011 488.147 31.5347L496.716 48.2002C496.761 48.2859 496.76 48.3773 496.719 48.4616C496.703 48.4962 496.68 48.5256 496.651 48.5473C496.627 48.5646 496.598 48.5731 496.569 48.5716H479.432C479.403 48.5732 479.374 48.5647 479.349 48.5473C479.321 48.5256 479.298 48.4962 479.282 48.4616C479.261 48.4219 479.251 48.3766 479.251 48.3305C479.252 48.2844 479.263 48.2393 479.284 48.2002L487.853 31.5347C487.869 31.5011 487.892 31.4729 487.92 31.4533V31.4533ZM489.225 30.8105C489.101 30.5642 488.923 30.3596 488.708 30.2172C488.493 30.0749 488.249 30 488 30C487.752 30 487.508 30.0749 487.293 30.2172C487.078 30.3596 486.899 30.5642 486.776 30.8105L478.206 47.476C477.635 48.5873 478.32 50 479.431 50H496.569C497.68 50 498.366 48.5859 497.794 47.476L489.225 30.8105Z" fill="black" fill-opacity="0.08"/>
<path d="M449.429 64.7143C449.429 63.5776 449.88 62.4876 450.684 61.6838C451.488 60.8801 452.578 60.4286 453.714 60.4286H462.286C463.422 60.4286 464.512 60.8801 465.316 61.6838C466.12 62.4876 466.571 63.5776 466.571 64.7143V73.2857C466.571 74.4224 466.12 75.5124 465.316 76.3162C464.512 77.1199 463.422 77.5714 462.286 77.5714H453.714C452.578 77.5714 451.488 77.1199 450.684 76.3162C449.88 75.5124 449.429 74.4224 449.429 73.2857V64.7143ZM448 73.2857C448 74.8012 448.602 76.2547 449.674 77.3263C450.745 78.398 452.199 79 453.714 79H462.286C463.801 79 465.255 78.398 466.326 77.3263C467.398 76.2547 468 74.8012 468 73.2857V64.7143C468 63.1988 467.398 61.7453 466.326 60.6737C465.255 59.602 463.801 59 462.286 59H453.714C452.199 59 450.745 59.602 449.674 60.6737C448.602 61.7453 448 63.1988 448 64.7143V73.2857Z" fill="black" fill-opacity="0.08"/>
<path d="M488.75 52C488.75 54.3206 487.828 56.5462 486.187 58.1872C484.546 59.8281 482.321 60.75 480 60.75C477.679 60.75 475.454 59.8281 473.813 58.1872C472.172 56.5462 471.25 54.3206 471.25 52C471.25 49.6794 472.172 47.4538 473.813 45.8128C475.454 44.1719 477.679 43.25 480 43.25C482.321 43.25 484.546 44.1719 486.187 45.8128C487.828 47.4538 488.75 49.6794 488.75 52ZM490 52C490 49.3478 488.946 46.8043 487.071 44.9289C485.196 43.0536 482.652 42 480 42C477.348 42 474.804 43.0536 472.929 44.9289C471.054 46.8043 470 49.3478 470 52C470 54.6522 471.054 57.1957 472.929 59.0711C474.804 60.9464 477.348 62 480 62C482.652 62 485.196 60.9464 487.071 59.0711C488.946 57.1957 490 54.6522 490 52V52Z" fill="black" fill-opacity="0.08"/>
<path d="M473.219 73.4559C473.218 73.427 473.225 73.3992 473.239 73.3752C473.253 73.3513 473.273 73.3318 473.298 73.3185C473.329 73.3035 473.365 73.2974 473.402 73.3007L492.12 74.2118C492.217 74.2157 492.295 74.2625 492.348 74.3404C492.37 74.3714 492.384 74.4062 492.388 74.4417C492.391 74.4718 492.384 74.5009 492.368 74.5252L483.799 89.3663C483.786 89.3922 483.765 89.4129 483.737 89.4256C483.704 89.4394 483.667 89.4448 483.629 89.4412C483.585 89.4392 483.54 89.4258 483.5 89.4023C483.46 89.3789 483.427 89.3464 483.404 89.3083L473.256 73.5551C473.234 73.5247 473.222 73.4904 473.219 73.4559V73.4559ZM473.314 72.0046C473.039 71.9885 472.773 72.0407 472.542 72.1558C472.311 72.2709 472.124 72.4448 472 72.66C471.876 72.8752 471.819 73.1241 471.835 73.3814C471.85 73.6388 471.938 73.8956 472.09 74.1259L482.238 89.8803C482.914 90.9306 484.48 91.0438 485.036 90.0816L493.605 75.2395C494.16 74.2773 493.279 72.976 492.031 72.9168L473.314 72.0046Z" fill="black" fill-opacity="0.08"/>
<path d="M417.298 83.0026C417.273 82.9891 417.252 82.9691 417.239 82.9448C417.225 82.921 417.218 82.8936 417.219 82.8652C417.222 82.8306 417.234 82.7963 417.256 82.766L427.404 67.0117C427.455 66.9298 427.535 66.8852 427.629 66.8788C427.667 66.8752 427.704 66.8806 427.737 66.8944C427.764 66.9071 427.786 66.9278 427.799 66.9537L436.368 81.7947C436.383 81.819 436.39 81.8482 436.388 81.8783C436.383 81.9138 436.369 81.9486 436.347 81.9796C436.323 82.0173 436.289 82.0492 436.249 82.0718C436.209 82.0945 436.164 82.1071 436.12 82.1081L417.403 83.0203C417.366 83.0236 417.33 83.0175 417.298 83.0026V83.0026ZM416.089 82.194C415.938 82.4243 415.85 82.6811 415.834 82.9385C415.818 83.1959 415.876 83.4448 416 83.66C416.124 83.8752 416.311 84.0491 416.542 84.1642C416.773 84.2793 417.039 84.3314 417.314 84.3154L436.032 83.4043C437.28 83.3433 438.161 82.0438 437.605 81.0816L429.036 66.2395C428.481 65.2773 426.913 65.3901 426.238 66.4408L416.089 82.194Z" fill="black" fill-opacity="0.08"/>
</g>
<g clip-path="url(#clip3_10_142)">
<rect width="100" height="100" transform="translate(300)" fill="#FDC830"/>
<path d="M319.286 10.4286C320.422 10.4286 321.512 10.8801 322.316 11.6838C323.12 12.4876 323.571 13.5776 323.571 14.7143V23.2857C323.571 24.4224 323.12 25.5124 322.316 26.3162C321.512 27.1199 320.422 27.5714 319.286 27.5714H310.714C309.578 27.5714 308.488 27.1199 307.684 26.3162C306.88 25.5124 306.429 24.4224 306.429 23.2857V14.7143C306.429 13.5776 306.88 12.4876 307.684 11.6838C308.488 10.8801 309.578 10.4286 310.714 10.4286H319.286ZM310.714 9C309.199 9 307.745 9.60204 306.674 10.6737C305.602 11.7453 305 13.1988 305 14.7143V23.2857C305 24.8012 305.602 26.2547 306.674 27.3263C307.745 28.398 309.199 29 310.714 29H319.286C320.801 29 322.255 28.398 323.326 27.3263C324.398 26.2547 325 24.8012 325 23.2857V14.7143C325 13.1988 324.398 11.7453 323.326 10.6737C322.255 9.60204 320.801 9 319.286 9H310.714Z" fill="black" fill-opacity="0.08"/>
<path d="M325 38.75C322.679 38.75 320.454 37.8281 318.813 36.1872C317.172 34.5462 316.25 32.3206 316.25 30C316.25 27.6794 317.172 25.4538 318.813 23.8128C320.454 22.1719 322.679 21.25 325 21.25C327.321 21.25 329.546 22.1719 331.187 23.8128C332.828 25.4538 333.75 27.6794 333.75 30C333.75 32.3206 332.828 34.5462 331.187 36.1872C329.546 37.8281 327.321 38.75 325 38.75ZM325 40C327.652 40 330.196 38.9464 332.071 37.0711C333.946 35.1957 335 32.6522 335 30C335 27.3478 333.946 24.8043 332.071 22.9289C330.196 21.0536 327.652 20 325 20C322.348 20 319.804 21.0536 317.929 22.9289C316.054 24.8043 315 27.3478 315 30C315 32.6522 316.054 35.1957 317.929 37.0711C319.804 38.9464 322.348 40 325 40V40Z" fill="black" fill-opacity="0.08"/>
<path d="M384 23.75C381.679 23.75 379.454 22.8281 377.813 21.1872C376.172 19.5462 375.25 17.3206 375.25 15C375.25 12.6794 376.172 10.4538 377.813 8.81282C379.454 7.17187 381.679 6.25 384 6.25C386.321 6.25 388.546 7.17187 390.187 8.81282C391.828 10.4538 392.75 12.6794 392.75 15C392.75 17.3206 391.828 19.5462 390.187 21.1872C388.546 22.8281 386.321 23.75 384 23.75ZM384 25C386.652 25 389.196 23.9464 391.071 22.0711C392.946 20.1957 394 17.6522 394 15C394 12.3478 392.946 9.8043 391.071 7.92893C389.196 6.05357 386.652 5 384 5C381.348 5 378.804 6.05357 376.929 7.92893C375.054 9.8043 374 12.3478 374 15C374 17.6522 375.054 20.1957 376.929 22.0711C378.804 23.9464 381.348 25 384 25V25Z" fill="black" fill-opacity="0.08"/>
<path d="M353 90.75C350.679 90.75 348.454 89.8281 346.813 88.1872C345.172 86.5462 344.25 84.3206 344.25 82C344.25 79.6794 345.172 77.4538 346.813 75.8128C348.454 74.1719 350.679 73.25 353 73.25C355.321 73.25 357.546 74.1719 359.187 75.8128C360.828 77.4538 361.75 79.6794 361.75 82C361.75 84.3206 360.828 86.5462 359.187 88.1872C357.546 89.8281 355.321 90.75 353 90.75ZM353 92C355.652 92 358.196 90.9464 360.071 89.0711C361.946 87.1957 363 84.6522 363 82C363 79.3478 361.946 76.8043 360.071 74.9289C358.196 73.0536 355.652 72 353 72C350.348 72 347.804 73.0536 345.929 74.9289C344.054 76.8043 343 79.3478 343 82C343 84.6522 344.054 87.1957 345.929 89.0711C347.804 90.9464 350.348 92 353 92V92Z" fill="black" fill-opacity="0.08"/>
<path d="M340.534 7.59231C340.543 7.56481 340.559 7.54107 340.58 7.52339C340.601 7.50561 340.627 7.49422 340.655 7.49029C340.69 7.48693 340.726 7.49349 340.759 7.50928L358.036 14.7672C358.126 14.804 358.184 14.8748 358.206 14.9659C358.216 15.0026 358.218 15.0401 358.21 15.0749C358.202 15.1041 358.185 15.1291 358.162 15.1465L345.034 26.162C345.013 26.1819 344.986 26.1939 344.956 26.1964C344.92 26.1981 344.883 26.1904 344.849 26.1741C344.808 26.157 344.77 26.1291 344.741 26.0935C344.712 26.0579 344.692 26.016 344.683 25.9723L340.534 7.69807C340.525 7.66226 340.524 7.62571 340.534 7.59231V7.59231ZM341.12 6.26122C340.867 6.15205 340.599 6.10995 340.342 6.13917C340.086 6.16838 339.851 6.26788 339.661 6.4276C339.47 6.58733 339.332 6.80164 339.258 7.04888C339.185 7.29613 339.18 7.56756 339.243 7.83577L343.391 26.1108C343.668 27.3292 345.101 27.9712 345.952 27.257L359.08 16.2408C359.931 15.5266 359.548 14.0023 358.396 13.52L341.12 6.26122Z" fill="black" fill-opacity="0.08"/>
<path d="M319.286 46.4286C320.422 46.4286 321.512 46.8801 322.316 47.6838C323.12 48.4876 323.571 49.5776 323.571 50.7143V59.2857C323.571 60.4224 323.12 61.5124 322.316 62.3162C321.512 63.1199 320.422 63.5714 319.286 63.5714H310.714C309.578 63.5714 308.488 63.1199 307.684 62.3162C306.88 61.5124 306.429 60.4224 306.429 59.2857V50.7143C306.429 49.5776 306.88 48.4876 307.684 47.6838C308.488 46.8801 309.578 46.4286 310.714 46.4286H319.286ZM310.714 45C309.199 45 307.745 45.602 306.674 46.6737C305.602 47.7453 305 49.1988 305 50.7143V59.2857C305 60.8012 305.602 62.2547 306.674 63.3263C307.745 64.398 309.199 65 310.714 65H319.286C320.801 65 322.255 64.398 323.326 63.3263C324.398 62.2547 325 60.8012 325 59.2857V50.7143C325 49.1988 324.398 47.7453 323.326 46.6737C322.255 45.602 320.801 45 319.286 45H310.714Z" fill="black" fill-opacity="0.08"/>
<path d="M353.411 30.0411C353.8 28.973 354.597 28.1031 355.627 27.6227C356.657 27.1424 357.836 27.0909 358.904 27.4797L366.959 30.4113C368.027 30.8 368.897 31.5971 369.377 32.6273C369.858 33.6574 369.909 34.8362 369.52 35.9043L366.589 43.9588C366.2 45.0269 365.403 45.8968 364.373 46.3772C363.343 46.8576 362.164 46.909 361.096 46.5203L353.041 43.5887C351.973 43.1999 351.103 42.4028 350.623 41.3726C350.142 40.3425 350.091 39.1637 350.48 38.0956L353.411 30.0411ZM349.137 37.607C348.619 39.0311 348.688 40.6028 349.328 41.9764C349.969 43.3499 351.128 44.4127 352.553 44.9311L360.607 47.8627C362.031 48.381 363.603 48.3124 364.976 47.6719C366.35 47.0314 367.413 45.8715 367.931 44.4474L370.863 36.3929C371.381 34.9688 371.312 33.3971 370.672 32.0235C370.031 30.65 368.872 29.5872 367.447 29.0688L359.393 26.1372C357.969 25.6189 356.397 25.6875 355.024 26.328C353.65 26.9685 352.587 28.1284 352.069 29.5525L349.137 37.607Z" fill="black" fill-opacity="0.08"/>
<path d="M315 89.75C312.679 89.75 310.454 88.8281 308.813 87.1872C307.172 85.5462 306.25 83.3206 306.25 81C306.25 78.6794 307.172 76.4538 308.813 74.8128C310.454 73.1719 312.679 72.25 315 72.25C317.321 72.25 319.546 73.1719 321.187 74.8128C322.828 76.4538 323.75 78.6794 323.75 81C323.75 83.3206 322.828 85.5462 321.187 87.1872C319.546 88.8281 317.321 89.75 315 89.75ZM315 91C317.652 91 320.196 89.9464 322.071 88.0711C323.946 86.1957 325 83.6522 325 81C325 78.3478 323.946 75.8043 322.071 73.9289C320.196 72.0536 317.652 71 315 71C312.348 71 309.804 72.0536 307.929 73.9289C306.054 75.8043 305 78.3478 305 81C305 83.6522 306.054 86.1957 307.929 88.0711C309.804 89.9464 312.348 91 315 91V91Z" fill="black" fill-opacity="0.08"/>
<path d="M343.098 46.597C343.119 46.5776 343.145 46.5651 343.173 46.5606C343.2 46.5557 343.228 46.5587 343.254 46.5694C343.286 46.5838 343.313 46.6074 343.335 46.6379L354.668 61.5621C354.727 61.6386 354.742 61.7289 354.716 61.8191C354.706 61.8559 354.689 61.8889 354.664 61.9152C354.643 61.9366 354.616 61.9499 354.587 61.9534L337.711 64.9292C337.682 64.9358 337.653 64.9325 337.625 64.9196C337.594 64.9032 337.566 64.8782 337.544 64.8469C337.517 64.8115 337.498 64.7687 337.491 64.7232C337.483 64.6777 337.487 64.6313 337.501 64.5891L343.045 46.6889C343.055 46.6531 343.073 46.6213 343.098 46.597V46.597ZM344.271 45.7374C344.106 45.5163 343.895 45.3458 343.659 45.243C343.422 45.1401 343.169 45.1087 342.924 45.1519C342.679 45.195 342.452 45.3112 342.265 45.4887C342.078 45.6662 341.938 45.8987 341.859 46.1628L336.313 64.0632C335.944 65.2568 336.863 66.5291 337.958 66.3362L354.835 63.3601C355.93 63.1672 356.36 61.6554 355.603 60.6618L344.271 45.7374Z" fill="black" fill-opacity="0.08"/>
<path d="M387.92 31.4533C387.945 31.438 387.972 31.4301 388 31.4305C388.028 31.4303 388.055 31.4382 388.079 31.4533C388.108 31.4729 388.131 31.5011 388.147 31.5347L396.716 48.2002C396.761 48.2859 396.76 48.3773 396.719 48.4616C396.703 48.4962 396.68 48.5256 396.651 48.5473C396.627 48.5646 396.598 48.5731 396.569 48.5716H379.432C379.403 48.5732 379.374 48.5647 379.349 48.5473C379.321 48.5256 379.298 48.4962 379.282 48.4616C379.261 48.4219 379.251 48.3766 379.251 48.3305C379.252 48.2844 379.263 48.2393 379.284 48.2002L387.853 31.5347C387.869 31.5011 387.892 31.4729 387.92 31.4533V31.4533ZM389.225 30.8105C389.101 30.5642 388.923 30.3596 388.708 30.2172C388.493 30.0749 388.249 30 388 30C387.752 30 387.508 30.0749 387.293 30.2172C387.078 30.3596 386.899 30.5642 386.776 30.8105L378.206 47.476C377.635 48.5873 378.32 50 379.431 50H396.569C397.68 50 398.366 48.5859 397.794 47.476L389.225 30.8105Z" fill="black" fill-opacity="0.08"/>
<path d="M349.429 64.7143C349.429 63.5776 349.88 62.4876 350.684 61.6838C351.488 60.8801 352.578 60.4286 353.714 60.4286H362.286C363.422 60.4286 364.512 60.8801 365.316 61.6838C366.12 62.4876 366.571 63.5776 366.571 64.7143V73.2857C366.571 74.4224 366.12 75.5124 365.316 76.3162C364.512 77.1199 363.422 77.5714 362.286 77.5714H353.714C352.578 77.5714 351.488 77.1199 350.684 76.3162C349.88 75.5124 349.429 74.4224 349.429 73.2857V64.7143ZM348 73.2857C348 74.8012 348.602 76.2547 349.674 77.3263C350.745 78.398 352.199 79 353.714 79H362.286C363.801 79 365.255 78.398 366.326 77.3263C367.398 76.2547 368 74.8012 368 73.2857V64.7143C368 63.1988 367.398 61.7453 366.326 60.6737C365.255 59.602 363.801 59 362.286 59H353.714C352.199 59 350.745 59.602 349.674 60.6737C348.602 61.7453 348 63.1988 348 64.7143V73.2857Z" fill="black" fill-opacity="0.08"/>
<path d="M388.75 52C388.75 54.3206 387.828 56.5462 386.187 58.1872C384.546 59.8281 382.321 60.75 380 60.75C377.679 60.75 375.454 59.8281 373.813 58.1872C372.172 56.5462 371.25 54.3206 371.25 52C371.25 49.6794 372.172 47.4538 373.813 45.8128C375.454 44.1719 377.679 43.25 380 43.25C382.321 43.25 384.546 44.1719 386.187 45.8128C387.828 47.4538 388.75 49.6794 388.75 52ZM390 52C390 49.3478 388.946 46.8043 387.071 44.9289C385.196 43.0536 382.652 42 380 42C377.348 42 374.804 43.0536 372.929 44.9289C371.054 46.8043 370 49.3478 370 52C370 54.6522 371.054 57.1957 372.929 59.0711C374.804 60.9464 377.348 62 380 62C382.652 62 385.196 60.9464 387.071 59.0711C388.946 57.1957 390 54.6522 390 52V52Z" fill="black" fill-opacity="0.08"/>
<path d="M373.219 73.4559C373.218 73.427 373.225 73.3992 373.239 73.3752C373.253 73.3513 373.273 73.3318 373.298 73.3185C373.329 73.3035 373.365 73.2974 373.402 73.3007L392.12 74.2118C392.217 74.2157 392.295 74.2625 392.348 74.3404C392.37 74.3714 392.384 74.4062 392.388 74.4417C392.391 74.4718 392.384 74.5009 392.368 74.5252L383.799 89.3663C383.786 89.3922 383.765 89.4129 383.737 89.4256C383.704 89.4394 383.667 89.4448 383.629 89.4412C383.585 89.4392 383.54 89.4258 383.5 89.4023C383.46 89.3789 383.427 89.3464 383.404 89.3083L373.256 73.5551C373.234 73.5247 373.222 73.4904 373.219 73.4559V73.4559ZM373.314 72.0046C373.039 71.9885 372.773 72.0407 372.542 72.1558C372.311 72.2709 372.124 72.4448 372 72.66C371.876 72.8752 371.819 73.1241 371.835 73.3814C371.85 73.6388 371.938 73.8956 372.09 74.1259L382.238 89.8803C382.914 90.9306 384.48 91.0438 385.036 90.0816L393.605 75.2395C394.16 74.2773 393.279 72.976 392.031 72.9168L373.314 72.0046Z" fill="black" fill-opacity="0.08"/>
<path d="M317.298 83.0026C317.273 82.9891 317.252 82.9691 317.239 82.9448C317.225 82.921 317.218 82.8936 317.219 82.8652C317.222 82.8306 317.234 82.7963 317.256 82.766L327.404 67.0117C327.455 66.9298 327.535 66.8852 327.629 66.8788C327.667 66.8752 327.704 66.8806 327.737 66.8944C327.764 66.9071 327.786 66.9278 327.799 66.9537L336.368 81.7947C336.383 81.819 336.39 81.8482 336.388 81.8783C336.383 81.9138 336.369 81.9486 336.347 81.9796C336.323 82.0173 336.289 82.0492 336.249 82.0718C336.209 82.0945 336.164 82.1071 336.12 82.1081L317.403 83.0203C317.366 83.0236 317.33 83.0175 317.298 83.0026V83.0026ZM316.089 82.194C315.938 82.4243 315.85 82.6811 315.834 82.9385C315.818 83.1959 315.876 83.4448 316 83.66C316.124 83.8752 316.311 84.0491 316.542 84.1642C316.773 84.2793 317.039 84.3314 317.314 84.3154L336.032 83.4043C337.28 83.3433 338.161 82.0438 337.605 81.0816L329.036 66.2395C328.481 65.2773 326.913 65.3901 326.238 66.4408L316.089 82.194Z" fill="black" fill-opacity="0.08"/>
</g>
<g clip-path="url(#clip4_10_142)">
<rect width="100" height="100" transform="translate(200)" fill="#FDC830"/>
<path d="M219.286 10.4286C220.422 10.4286 221.512 10.8801 222.316 11.6838C223.12 12.4876 223.571 13.5776 223.571 14.7143V23.2857C223.571 24.4224 223.12 25.5124 222.316 26.3162C221.512 27.1199 220.422 27.5714 219.286 27.5714H210.714C209.578 27.5714 208.488 27.1199 207.684 26.3162C206.88 25.5124 206.429 24.4224 206.429 23.2857V14.7143C206.429 13.5776 206.88 12.4876 207.684 11.6838C208.488 10.8801 209.578 10.4286 210.714 10.4286H219.286ZM210.714 9C209.199 9 207.745 9.60204 206.674 10.6737C205.602 11.7453 205 13.1988 205 14.7143V23.2857C205 24.8012 205.602 26.2547 206.674 27.3263C207.745 28.398 209.199 29 210.714 29H219.286C220.801 29 222.255 28.398 223.326 27.3263C224.398 26.2547 225 24.8012 225 23.2857V14.7143C225 13.1988 224.398 11.7453 223.326 10.6737C222.255 9.60204 220.801 9 219.286 9H210.714Z" fill="black" fill-opacity="0.08"/>
<path d="M225 38.75C222.679 38.75 220.454 37.8281 218.813 36.1872C217.172 34.5462 216.25 32.3206 216.25 30C216.25 27.6794 217.172 25.4538 218.813 23.8128C220.454 22.1719 222.679 21.25 225 21.25C227.321 21.25 229.546 22.1719 231.187 23.8128C232.828 25.4538 233.75 27.6794 233.75 30C233.75 32.3206 232.828 34.5462 231.187 36.1872C229.546 37.8281 227.321 38.75 225 38.75ZM225 40C227.652 40 230.196 38.9464 232.071 37.0711C233.946 35.1957 235 32.6522 235 30C235 27.3478 233.946 24.8043 232.071 22.9289C230.196 21.0536 227.652 20 225 20C222.348 20 219.804 21.0536 217.929 22.9289C216.054 24.8043 215 27.3478 215 30C215 32.6522 216.054 35.1957 217.929 37.0711C219.804 38.9464 222.348 40 225 40V40Z" fill="black" fill-opacity="0.08"/>
<path d="M284 23.75C281.679 23.75 279.454 22.8281 277.813 21.1872C276.172 19.5462 275.25 17.3206 275.25 15C275.25 12.6794 276.172 10.4538 277.813 8.81282C279.454 7.17187 281.679 6.25 284 6.25C286.321 6.25 288.546 7.17187 290.187 8.81282C291.828 10.4538 292.75 12.6794 292.75 15C292.75 17.3206 291.828 19.5462 290.187 21.1872C288.546 22.8281 286.321 23.75 284 23.75ZM284 25C286.652 25 289.196 23.9464 291.071 22.0711C292.946 20.1957 294 17.6522 294 15C294 12.3478 292.946 9.8043 291.071 7.92893C289.196 6.05357 286.652 5 284 5C281.348 5 278.804 6.05357 276.929 7.92893C275.054 9.8043 274 12.3478 274 15C274 17.6522 275.054 20.1957 276.929 22.0711C278.804 23.9464 281.348 25 284 25V25Z" fill="black" fill-opacity="0.08"/>
<path d="M253 90.75C250.679 90.75 248.454 89.8281 246.813 88.1872C245.172 86.5462 244.25 84.3206 244.25 82C244.25 79.6794 245.172 77.4538 246.813 75.8128C248.454 74.1719 250.679 73.25 253 73.25C255.321 73.25 257.546 74.1719 259.187 75.8128C260.828 77.4538 261.75 79.6794 261.75 82C261.75 84.3206 260.828 86.5462 259.187 88.1872C257.546 89.8281 255.321 90.75 253 90.75ZM253 92C255.652 92 258.196 90.9464 260.071 89.0711C261.946 87.1957 263 84.6522 263 82C263 79.3478 261.946 76.8043 260.071 74.9289C258.196 73.0536 255.652 72 253 72C250.348 72 247.804 73.0536 245.929 74.9289C244.054 76.8043 243 79.3478 243 82C243 84.6522 244.054 87.1957 245.929 89.0711C247.804 90.9464 250.348 92 253 92V92Z" fill="black" fill-opacity="0.08"/>
<path d="M240.534 7.59231C240.543 7.56481 240.559 7.54107 240.58 7.52339C240.601 7.50561 240.627 7.49422 240.655 7.49029C240.69 7.48693 240.726 7.49349 240.759 7.50928L258.036 14.7672C258.126 14.804 258.184 14.8748 258.206 14.9659C258.216 15.0026 258.218 15.0401 258.21 15.0749C258.202 15.1041 258.185 15.1291 258.162 15.1465L245.034 26.162C245.013 26.1819 244.986 26.1939 244.956 26.1964C244.92 26.1981 244.883 26.1904 244.849 26.1741C244.808 26.157 244.77 26.1291 244.741 26.0935C244.712 26.0579 244.692 26.016 244.683 25.9723L240.534 7.69807C240.525 7.66226 240.524 7.62571 240.534 7.59231V7.59231ZM241.12 6.26122C240.867 6.15205 240.599 6.10995 240.342 6.13917C240.086 6.16838 239.851 6.26788 239.661 6.4276C239.47 6.58733 239.332 6.80164 239.258 7.04888C239.185 7.29613 239.18 7.56756 239.243 7.83577L243.391 26.1108C243.668 27.3292 245.101 27.9712 245.952 27.257L259.08 16.2408C259.931 15.5266 259.548 14.0023 258.396 13.52L241.12 6.26122Z" fill="black" fill-opacity="0.08"/>
<path d="M219.286 46.4286C220.422 46.4286 221.512 46.8801 222.316 47.6838C223.12 48.4876 223.571 49.5776 223.571 50.7143V59.2857C223.571 60.4224 223.12 61.5124 222.316 62.3162C221.512 63.1199 220.422 63.5714 219.286 63.5714H210.714C209.578 63.5714 208.488 63.1199 207.684 62.3162C206.88 61.5124 206.429 60.4224 206.429 59.2857V50.7143C206.429 49.5776 206.88 48.4876 207.684 47.6838C208.488 46.8801 209.578 46.4286 210.714 46.4286H219.286ZM210.714 45C209.199 45 207.745 45.602 206.674 46.6737C205.602 47.7453 205 49.1988 205 50.7143V59.2857C205 60.8012 205.602 62.2547 206.674 63.3263C207.745 64.398 209.199 65 210.714 65H219.286C220.801 65 222.255 64.398 223.326 63.3263C224.398 62.2547 225 60.8012 225 59.2857V50.7143C225 49.1988 224.398 47.7453 223.326 46.6737C222.255 45.602 220.801 45 219.286 45H210.714Z" fill="black" fill-opacity="0.08"/>
<path d="M253.411 30.0411C253.8 28.973 254.597 28.1031 255.627 27.6227C256.657 27.1424 257.836 27.0909 258.904 27.4797L266.959 30.4113C268.027 30.8 268.897 31.5971 269.377 32.6273C269.858 33.6574 269.909 34.8362 269.52 35.9043L266.589 43.9588C266.2 45.0269 265.403 45.8968 264.373 46.3772C263.343 46.8576 262.164 46.909 261.096 46.5203L253.041 43.5887C251.973 43.1999 251.103 42.4028 250.623 41.3726C250.142 40.3425 250.091 39.1637 250.48 38.0956L253.411 30.0411ZM249.137 37.607C248.619 39.0311 248.688 40.6028 249.328 41.9764C249.969 43.3499 251.128 44.4127 252.553 44.9311L260.607 47.8627C262.031 48.381 263.603 48.3124 264.976 47.6719C266.35 47.0314 267.413 45.8715 267.931 44.4474L270.863 36.3929C271.381 34.9688 271.312 33.3971 270.672 32.0235C270.031 30.65 268.872 29.5872 267.447 29.0688L259.393 26.1372C257.969 25.6189 256.397 25.6875 255.024 26.328C253.65 26.9685 252.587 28.1284 252.069 29.5525L249.137 37.607Z" fill="black" fill-opacity="0.08"/>
<path d="M215 89.75C212.679 89.75 210.454 88.8281 208.813 87.1872C207.172 85.5462 206.25 83.3206 206.25 81C206.25 78.6794 207.172 76.4538 208.813 74.8128C210.454 73.1719 212.679 72.25 215 72.25C217.321 72.25 219.546 73.1719 221.187 74.8128C222.828 76.4538 223.75 78.6794 223.75 81C223.75 83.3206 222.828 85.5462 221.187 87.1872C219.546 88.8281 217.321 89.75 215 89.75ZM215 91C217.652 91 220.196 89.9464 222.071 88.0711C223.946 86.1957 225 83.6522 225 81C225 78.3478 223.946 75.8043 222.071 73.9289C220.196 72.0536 217.652 71 215 71C212.348 71 209.804 72.0536 207.929 73.9289C206.054 75.8043 205 78.3478 205 81C205 83.6522 206.054 86.1957 207.929 88.0711C209.804 89.9464 212.348 91 215 91V91Z" fill="black" fill-opacity="0.08"/>
<path d="M243.098 46.597C243.119 46.5776 243.145 46.5651 243.173 46.5606C243.2 46.5557 243.228 46.5587 243.254 46.5694C243.286 46.5838 243.313 46.6074 243.335 46.6379L254.668 61.5621C254.727 61.6386 254.742 61.7289 254.716 61.8191C254.706 61.8559 254.689 61.8889 254.664 61.9152C254.643 61.9366 254.616 61.9499 254.587 61.9534L237.711 64.9292C237.682 64.9358 237.653 64.9325 237.625 64.9196C237.594 64.9032 237.566 64.8782 237.544 64.8469C237.517 64.8115 237.498 64.7687 237.491 64.7232C237.483 64.6777 237.487 64.6313 237.501 64.5891L243.045 46.6889C243.055 46.6531 243.073 46.6213 243.098 46.597V46.597ZM244.271 45.7374C244.106 45.5163 243.895 45.3458 243.659 45.243C243.422 45.1401 243.169 45.1087 242.924 45.1519C242.679 45.195 242.452 45.3112 242.265 45.4887C242.078 45.6662 241.938 45.8987 241.859 46.1628L236.313 64.0632C235.944 65.2568 236.863 66.5291 237.958 66.3362L254.835 63.3601C255.93 63.1672 256.36 61.6554 255.603 60.6618L244.271 45.7374Z" fill="black" fill-opacity="0.08"/>
<path d="M287.92 31.4533C287.945 31.438 287.972 31.4301 288 31.4305C288.028 31.4303 288.055 31.4382 288.079 31.4533C288.108 31.4729 288.131 31.5011 288.147 31.5347L296.716 48.2002C296.761 48.2859 296.76 48.3773 296.719 48.4616C296.703 48.4962 296.68 48.5256 296.651 48.5473C296.627 48.5646 296.598 48.5731 296.569 48.5716H279.432C279.403 48.5732 279.374 48.5647 279.349 48.5473C279.321 48.5256 279.298 48.4962 279.282 48.4616C279.261 48.4219 279.251 48.3766 279.251 48.3305C279.252 48.2844 279.263 48.2393 279.284 48.2002L287.853 31.5347C287.869 31.5011 287.892 31.4729 287.92 31.4533V31.4533ZM289.225 30.8105C289.101 30.5642 288.923 30.3596 288.708 30.2172C288.493 30.0749 288.249 30 288 30C287.752 30 287.508 30.0749 287.293 30.2172C287.078 30.3596 286.899 30.5642 286.776 30.8105L278.206 47.476C277.635 48.5873 278.32 50 279.431 50H296.569C297.68 50 298.366 48.5859 297.794 47.476L289.225 30.8105Z" fill="black" fill-opacity="0.08"/>
<path d="M249.429 64.7143C249.429 63.5776 249.88 62.4876 250.684 61.6838C251.488 60.8801 252.578 60.4286 253.714 60.4286H262.286C263.422 60.4286 264.512 60.8801 265.316 61.6838C266.12 62.4876 266.571 63.5776 266.571 64.7143V73.2857C266.571 74.4224 266.12 75.5124 265.316 76.3162C264.512 77.1199 263.422 77.5714 262.286 77.5714H253.714C252.578 77.5714 251.488 77.1199 250.684 76.3162C249.88 75.5124 249.429 74.4224 249.429 73.2857V64.7143ZM248 73.2857C248 74.8012 248.602 76.2547 249.674 77.3263C250.745 78.398 252.199 79 253.714 79H262.286C263.801 79 265.255 78.398 266.326 77.3263C267.398 76.2547 268 74.8012 268 73.2857V64.7143C268 63.1988 267.398 61.7453 266.326 60.6737C265.255 59.602 263.801 59 262.286 59H253.714C252.199 59 250.745 59.602 249.674 60.6737C248.602 61.7453 248 63.1988 248 64.7143V73.2857Z" fill="black" fill-opacity="0.08"/>
<path d="M288.75 52C288.75 54.3206 287.828 56.5462 286.187 58.1872C284.546 59.8281 282.321 60.75 280 60.75C277.679 60.75 275.454 59.8281 273.813 58.1872C272.172 56.5462 271.25 54.3206 271.25 52C271.25 49.6794 272.172 47.4538 273.813 45.8128C275.454 44.1719 277.679 43.25 280 43.25C282.321 43.25 284.546 44.1719 286.187 45.8128C287.828 47.4538 288.75 49.6794 288.75 52ZM290 52C290 49.3478 288.946 46.8043 287.071 44.9289C285.196 43.0536 282.652 42 280 42C277.348 42 274.804 43.0536 272.929 44.9289C271.054 46.8043 270 49.3478 270 52C270 54.6522 271.054 57.1957 272.929 59.0711C274.804 60.9464 277.348 62 280 62C282.652 62 285.196 60.9464 287.071 59.0711C288.946 57.1957 290 54.6522 290 52V52Z" fill="black" fill-opacity="0.08"/>
<path d="M273.219 73.4559C273.218 73.427 273.225 73.3992 273.239 73.3752C273.253 73.3513 273.273 73.3318 273.298 73.3185C273.329 73.3035 273.365 73.2974 273.402 73.3007L292.12 74.2118C292.217 74.2157 292.295 74.2625 292.348 74.3404C292.37 74.3714 292.384 74.4062 292.388 74.4417C292.391 74.4718 292.384 74.5009 292.368 74.5252L283.799 89.3663C283.786 89.3922 283.765 89.4129 283.737 89.4256C283.704 89.4394 283.667 89.4448 283.629 89.4412C283.585 89.4392 283.54 89.4258 283.5 89.4023C283.46 89.3789 283.427 89.3464 283.404 89.3083L273.256 73.5551C273.234 73.5247 273.222 73.4904 273.219 73.4559V73.4559ZM273.314 72.0046C273.039 71.9885 272.773 72.0407 272.542 72.1558C272.311 72.2709 272.124 72.4448 272 72.66C271.876 72.8752 271.819 73.1241 271.835 73.3814C271.85 73.6388 271.938 73.8956 272.09 74.1259L282.238 89.8803C282.914 90.9306 284.48 91.0438 285.036 90.0816L293.605 75.2395C294.16 74.2773 293.279 72.976 292.031 72.9168L273.314 72.0046Z" fill="black" fill-opacity="0.08"/>
<path d="M217.298 83.0026C217.273 82.9891 217.252 82.9691 217.239 82.9448C217.225 82.921 217.218 82.8936 217.219 82.8652C217.222 82.8306 217.234 82.7963 217.256 82.766L227.404 67.0117C227.455 66.9298 227.535 66.8852 227.629 66.8788C227.667 66.8752 227.704 66.8806 227.737 66.8944C227.764 66.9071 227.786 66.9278 227.799 66.9537L236.368 81.7947C236.383 81.819 236.39 81.8482 236.388 81.8783C236.383 81.9138 236.369 81.9486 236.347 81.9796C236.323 82.0173 236.289 82.0492 236.249 82.0718C236.209 82.0945 236.164 82.1071 236.12 82.1081L217.403 83.0203C217.366 83.0236 217.33 83.0175 217.298 83.0026V83.0026ZM216.089 82.194C215.938 82.4243 215.85 82.6811 215.834 82.9385C215.818 83.1959 215.876 83.4448 216 83.66C216.124 83.8752 216.311 84.0491 216.542 84.1642C216.773 84.2793 217.039 84.3314 217.314 84.3154L236.032 83.4043C237.28 83.3433 238.161 82.0438 237.605 81.0816L229.036 66.2395C228.481 65.2773 226.913 65.3901 226.238 66.4408L216.089 82.194Z" fill="black" fill-opacity="0.08"/>
</g>
<g clip-path="url(#clip5_10_142)">
<rect width="100" height="100" transform="translate(100)" fill="#FDC830"/>
<path d="M119.286 10.4286C120.422 10.4286 121.512 10.8801 122.316 11.6838C123.12 12.4876 123.571 13.5776 123.571 14.7143V23.2857C123.571 24.4224 123.12 25.5124 122.316 26.3162C121.512 27.1199 120.422 27.5714 119.286 27.5714H110.714C109.578 27.5714 108.488 27.1199 107.684 26.3162C106.88 25.5124 106.429 24.4224 106.429 23.2857V14.7143C106.429 13.5776 106.88 12.4876 107.684 11.6838C108.488 10.8801 109.578 10.4286 110.714 10.4286H119.286ZM110.714 9C109.199 9 107.745 9.60204 106.674 10.6737C105.602 11.7453 105 13.1988 105 14.7143V23.2857C105 24.8012 105.602 26.2547 106.674 27.3263C107.745 28.398 109.199 29 110.714 29H119.286C120.801 29 122.255 28.398 123.326 27.3263C124.398 26.2547 125 24.8012 125 23.2857V14.7143C125 13.1988 124.398 11.7453 123.326 10.6737C122.255 9.60204 120.801 9 119.286 9H110.714Z" fill="black" fill-opacity="0.08"/>
<path d="M125 38.75C122.679 38.75 120.454 37.8281 118.813 36.1872C117.172 34.5462 116.25 32.3206 116.25 30C116.25 27.6794 117.172 25.4538 118.813 23.8128C120.454 22.1719 122.679 21.25 125 21.25C127.321 21.25 129.546 22.1719 131.187 23.8128C132.828 25.4538 133.75 27.6794 133.75 30C133.75 32.3206 132.828 34.5462 131.187 36.1872C129.546 37.8281 127.321 38.75 125 38.75ZM125 40C127.652 40 130.196 38.9464 132.071 37.0711C133.946 35.1957 135 32.6522 135 30C135 27.3478 133.946 24.8043 132.071 22.9289C130.196 21.0536 127.652 20 125 20C122.348 20 119.804 21.0536 117.929 22.9289C116.054 24.8043 115 27.3478 115 30C115 32.6522 116.054 35.1957 117.929 37.0711C119.804 38.9464 122.348 40 125 40V40Z" fill="black" fill-opacity="0.08"/>
<path d="M184 23.75C181.679 23.75 179.454 22.8281 177.813 21.1872C176.172 19.5462 175.25 17.3206 175.25 15C175.25 12.6794 176.172 10.4538 177.813 8.81282C179.454 7.17187 181.679 6.25 184 6.25C186.321 6.25 188.546 7.17187 190.187 8.81282C191.828 10.4538 192.75 12.6794 192.75 15C192.75 17.3206 191.828 19.5462 190.187 21.1872C188.546 22.8281 186.321 23.75 184 23.75ZM184 25C186.652 25 189.196 23.9464 191.071 22.0711C192.946 20.1957 194 17.6522 194 15C194 12.3478 192.946 9.8043 191.071 7.92893C189.196 6.05357 186.652 5 184 5C181.348 5 178.804 6.05357 176.929 7.92893C175.054 9.8043 174 12.3478 174 15C174 17.6522 175.054 20.1957 176.929 22.0711C178.804 23.9464 181.348 25 184 25V25Z" fill="black" fill-opacity="0.08"/>
<path d="M153 90.75C150.679 90.75 148.454 89.8281 146.813 88.1872C145.172 86.5462 144.25 84.3206 144.25 82C144.25 79.6794 145.172 77.4538 146.813 75.8128C148.454 74.1719 150.679 73.25 153 73.25C155.321 73.25 157.546 74.1719 159.187 75.8128C160.828 77.4538 161.75 79.6794 161.75 82C161.75 84.3206 160.828 86.5462 159.187 88.1872C157.546 89.8281 155.321 90.75 153 90.75ZM153 92C155.652 92 158.196 90.9464 160.071 89.0711C161.946 87.1957 163 84.6522 163 82C163 79.3478 161.946 76.8043 160.071 74.9289C158.196 73.0536 155.652 72 153 72C150.348 72 147.804 73.0536 145.929 74.9289C144.054 76.8043 143 79.3478 143 82C143 84.6522 144.054 87.1957 145.929 89.0711C147.804 90.9464 150.348 92 153 92V92Z" fill="black" fill-opacity="0.08"/>
<path d="M140.534 7.59231C140.543 7.56481 140.559 7.54107 140.58 7.52339C140.601 7.50561 140.627 7.49422 140.655 7.49029C140.69 7.48693 140.726 7.49349 140.759 7.50928L158.036 14.7672C158.126 14.804 158.184 14.8748 158.206 14.9659C158.216 15.0026 158.218 15.0401 158.21 15.0749C158.202 15.1041 158.185 15.1291 158.162 15.1465L145.034 26.162C145.013 26.1819 144.986 26.1939 144.956 26.1964C144.92 26.1981 144.883 26.1904 144.849 26.1741C144.808 26.157 144.77 26.1291 144.741 26.0935C144.712 26.0579 144.692 26.016 144.683 25.9723L140.534 7.69807C140.525 7.66226 140.524 7.62571 140.534 7.59231V7.59231ZM141.12 6.26122C140.867 6.15205 140.599 6.10995 140.342 6.13917C140.086 6.16838 139.851 6.26788 139.661 6.4276C139.47 6.58733 139.332 6.80164 139.258 7.04888C139.185 7.29613 139.18 7.56756 139.243 7.83577L143.391 26.1108C143.668 27.3292 145.101 27.9712 145.952 27.257L159.08 16.2408C159.931 15.5266 159.548 14.0023 158.396 13.52L141.12 6.26122Z" fill="black" fill-opacity="0.08"/>
<path d="M119.286 46.4286C120.422 46.4286 121.512 46.8801 122.316 47.6838C123.12 48.4876 123.571 49.5776 123.571 50.7143V59.2857C123.571 60.4224 123.12 61.5124 122.316 62.3162C121.512 63.1199 120.422 63.5714 119.286 63.5714H110.714C109.578 63.5714 108.488 63.1199 107.684 62.3162C106.88 61.5124 106.429 60.4224 106.429 59.2857V50.7143C106.429 49.5776 106.88 48.4876 107.684 47.6838C108.488 46.8801 109.578 46.4286 110.714 46.4286H119.286ZM110.714 45C109.199 45 107.745 45.602 106.674 46.6737C105.602 47.7453 105 49.1988 105 50.7143V59.2857C105 60.8012 105.602 62.2547 106.674 63.3263C107.745 64.398 109.199 65 110.714 65H119.286C120.801 65 122.255 64.398 123.326 63.3263C124.398 62.2547 125 60.8012 125 59.2857V50.7143C125 49.1988 124.398 47.7453 123.326 46.6737C122.255 45.602 120.801 45 119.286 45H110.714Z" fill="black" fill-opacity="0.08"/>
<path d="M153.411 30.0411C153.8 28.973 154.597 28.1031 155.627 27.6227C156.657 27.1424 157.836 27.0909 158.904 27.4797L166.959 30.4113C168.027 30.8 168.897 31.5971 169.377 32.6273C169.858 33.6574 169.909 34.8362 169.52 35.9043L166.589 43.9588C166.2 45.0269 165.403 45.8968 164.373 46.3772C163.343 46.8576 162.164 46.909 161.096 46.5203L153.041 43.5887C151.973 43.1999 151.103 42.4028 150.623 41.3726C150.142 40.3425 150.091 39.1637 150.48 38.0956L153.411 30.0411ZM149.137 37.607C148.619 39.0311 148.688 40.6028 149.328 41.9764C149.969 43.3499 151.128 44.4127 152.553 44.9311L160.607 47.8627C162.031 48.381 163.603 48.3124 164.976 47.6719C166.35 47.0314 167.413 45.8715 167.931 44.4474L170.863 36.3929C171.381 34.9688 171.312 33.3971 170.672 32.0235C170.031 30.65 168.872 29.5872 167.447 29.0688L159.393 26.1372C157.969 25.6189 156.397 25.6875 155.024 26.328C153.65 26.9685 152.587 28.1284 152.069 29.5525L149.137 37.607Z" fill="black" fill-opacity="0.08"/>
<path d="M115 89.75C112.679 89.75 110.454 88.8281 108.813 87.1872C107.172 85.5462 106.25 83.3206 106.25 81C106.25 78.6794 107.172 76.4538 108.813 74.8128C110.454 73.1719 112.679 72.25 115 72.25C117.321 72.25 119.546 73.1719 121.187 74.8128C122.828 76.4538 123.75 78.6794 123.75 81C123.75 83.3206 122.828 85.5462 121.187 87.1872C119.546 88.8281 117.321 89.75 115 89.75ZM115 91C117.652 91 120.196 89.9464 122.071 88.0711C123.946 86.1957 125 83.6522 125 81C125 78.3478 123.946 75.8043 122.071 73.9289C120.196 72.0536 117.652 71 115 71C112.348 71 109.804 72.0536 107.929 73.9289C106.054 75.8043 105 78.3478 105 81C105 83.6522 106.054 86.1957 107.929 88.0711C109.804 89.9464 112.348 91 115 91V91Z" fill="black" fill-opacity="0.08"/>
<path d="M143.098 46.597C143.119 46.5776 143.145 46.5651 143.173 46.5606C143.2 46.5557 143.228 46.5587 143.254 46.5694C143.286 46.5838 143.313 46.6074 143.335 46.6379L154.668 61.5621C154.727 61.6386 154.742 61.7289 154.716 61.8191C154.706 61.8559 154.689 61.8889 154.664 61.9152C154.643 61.9366 154.616 61.9499 154.587 61.9534L137.711 64.9292C137.682 64.9358 137.653 64.9325 137.625 64.9196C137.594 64.9032 137.566 64.8782 137.544 64.8469C137.517 64.8115 137.498 64.7687 137.491 64.7232C137.483 64.6777 137.487 64.6313 137.501 64.5891L143.045 46.6889C143.055 46.6531 143.073 46.6213 143.098 46.597V46.597ZM144.271 45.7374C144.106 45.5163 143.895 45.3458 143.659 45.243C143.422 45.1401 143.169 45.1087 142.924 45.1519C142.679 45.195 142.452 45.3112 142.265 45.4887C142.078 45.6662 141.938 45.8987 141.859 46.1628L136.313 64.0632C135.944 65.2568 136.863 66.5291 137.958 66.3362L154.835 63.3601C155.93 63.1672 156.36 61.6554 155.603 60.6618L144.271 45.7374Z" fill="black" fill-opacity="0.08"/>
<path d="M187.92 31.4533C187.945 31.438 187.972 31.4301 188 31.4305C188.028 31.4303 188.055 31.4382 188.079 31.4533C188.108 31.4729 188.131 31.5011 188.147 31.5347L196.716 48.2002C196.761 48.2859 196.76 48.3773 196.719 48.4616C196.703 48.4962 196.68 48.5256 196.651 48.5473C196.627 48.5646 196.598 48.5731 196.569 48.5716H179.432C179.403 48.5732 179.374 48.5647 179.349 48.5473C179.321 48.5256 179.298 48.4962 179.282 48.4616C179.261 48.4219 179.251 48.3766 179.251 48.3305C179.252 48.2844 179.263 48.2393 179.284 48.2002L187.853 31.5347C187.869 31.5011 187.892 31.4729 187.92 31.4533V31.4533ZM189.225 30.8105C189.101 30.5642 188.923 30.3596 188.708 30.2172C188.493 30.0749 188.249 30 188 30C187.752 30 187.508 30.0749 187.293 30.2172C187.078 30.3596 186.899 30.5642 186.776 30.8105L178.206 47.476C177.635 48.5873 178.32 50 179.431 50H196.569C197.68 50 198.366 48.5859 197.794 47.476L189.225 30.8105Z" fill="black" fill-opacity="0.08"/>
<path d="M149.429 64.7143C149.429 63.5776 149.88 62.4876 150.684 61.6838C151.488 60.8801 152.578 60.4286 153.714 60.4286H162.286C163.422 60.4286 164.512 60.8801 165.316 61.6838C166.12 62.4876 166.571 63.5776 166.571 64.7143V73.2857C166.571 74.4224 166.12 75.5124 165.316 76.3162C164.512 77.1199 163.422 77.5714 162.286 77.5714H153.714C152.578 77.5714 151.488 77.1199 150.684 76.3162C149.88 75.5124 149.429 74.4224 149.429 73.2857V64.7143ZM148 73.2857C148 74.8012 148.602 76.2547 149.674 77.3263C150.745 78.398 152.199 79 153.714 79H162.286C163.801 79 165.255 78.398 166.326 77.3263C167.398 76.2547 168 74.8012 168 73.2857V64.7143C168 63.1988 167.398 61.7453 166.326 60.6737C165.255 59.602 163.801 59 162.286 59H153.714C152.199 59 150.745 59.602 149.674 60.6737C148.602 61.7453 148 63.1988 148 64.7143V73.2857Z" fill="black" fill-opacity="0.08"/>
<path d="M188.75 52C188.75 54.3206 187.828 56.5462 186.187 58.1872C184.546 59.8281 182.321 60.75 180 60.75C177.679 60.75 175.454 59.8281 173.813 58.1872C172.172 56.5462 171.25 54.3206 171.25 52C171.25 49.6794 172.172 47.4538 173.813 45.8128C175.454 44.1719 177.679 43.25 180 43.25C182.321 43.25 184.546 44.1719 186.187 45.8128C187.828 47.4538 188.75 49.6794 188.75 52ZM190 52C190 49.3478 188.946 46.8043 187.071 44.9289C185.196 43.0536 182.652 42 180 42C177.348 42 174.804 43.0536 172.929 44.9289C171.054 46.8043 170 49.3478 170 52C170 54.6522 171.054 57.1957 172.929 59.0711C174.804 60.9464 177.348 62 180 62C182.652 62 185.196 60.9464 187.071 59.0711C188.946 57.1957 190 54.6522 190 52V52Z" fill="black" fill-opacity="0.08"/>
<path d="M173.219 73.4559C173.218 73.427 173.225 73.3992 173.239 73.3752C173.253 73.3513 173.273 73.3318 173.298 73.3185C173.329 73.3035 173.365 73.2974 173.402 73.3007L192.12 74.2118C192.217 74.2157 192.295 74.2625 192.348 74.3404C192.37 74.3714 192.384 74.4062 192.388 74.4417C192.391 74.4718 192.384 74.5009 192.368 74.5252L183.799 89.3663C183.786 89.3922 183.765 89.4129 183.737 89.4256C183.704 89.4394 183.667 89.4448 183.629 89.4412C183.585 89.4392 183.54 89.4258 183.5 89.4023C183.46 89.3789 183.427 89.3464 183.404 89.3083L173.256 73.5551C173.234 73.5247 173.222 73.4904 173.219 73.4559V73.4559ZM173.314 72.0046C173.039 71.9885 172.773 72.0407 172.542 72.1558C172.311 72.2709 172.124 72.4448 172 72.66C171.876 72.8752 171.819 73.1241 171.835 73.3814C171.85 73.6388 171.938 73.8956 172.09 74.1259L182.238 89.8803C182.914 90.9306 184.48 91.0438 185.036 90.0816L193.605 75.2395C194.16 74.2773 193.279 72.976 192.031 72.9168L173.314 72.0046Z" fill="black" fill-opacity="0.08"/>
<path d="M117.298 83.0026C117.273 82.9891 117.252 82.9691 117.239 82.9448C117.225 82.921 117.218 82.8936 117.219 82.8652C117.222 82.8306 117.234 82.7963 117.256 82.766L127.404 67.0117C127.455 66.9298 127.535 66.8852 127.629 66.8788C127.667 66.8752 127.704 66.8806 127.737 66.8944C127.764 66.9071 127.786 66.9278 127.799 66.9537L136.368 81.7947C136.383 81.819 136.39 81.8482 136.388 81.8783C136.383 81.9138 136.369 81.9486 136.347 81.9796C136.323 82.0173 136.289 82.0492 136.249 82.0718C136.209 82.0945 136.164 82.1071 136.12 82.1081L117.403 83.0203C117.366 83.0236 117.33 83.0175 117.298 83.0026V83.0026ZM116.089 82.194C115.938 82.4243 115.85 82.6811 115.834 82.9385C115.818 83.1959 115.876 83.4448 116 83.66C116.124 83.8752 116.311 84.0491 116.542 84.1642C116.773 84.2793 117.039 84.3314 117.314 84.3154L136.032 83.4043C137.28 83.3433 138.161 82.0438 137.605 81.0816L129.036 66.2395C128.481 65.2773 126.913 65.3901 126.238 66.4408L116.089 82.194Z" fill="black" fill-opacity="0.08"/>
</g>
<defs>
<clipPath id="clip0_10_142">
<rect width="100" height="100" fill="white"/>
</clipPath>
<clipPath id="clip1_10_142">
<rect width="100" height="100" fill="white" transform="translate(500)"/>
</clipPath>
<clipPath id="clip2_10_142">
<rect width="100" height="100" fill="white" transform="translate(400)"/>
</clipPath>
<clipPath id="clip3_10_142">
<rect width="100" height="100" fill="white" transform="translate(300)"/>
</clipPath>
<clipPath id="clip4_10_142">
<rect width="100" height="100" fill="white" transform="translate(200)"/>
</clipPath>
<clipPath id="clip5_10_142">
<rect width="100" height="100" fill="white" transform="translate(100)"/>
</clipPath>
</defs>
</svg>
