<svg width="500" height="509" viewBox="0 0 500 509" fill="none" xmlns="http://www.w3.org/2000/svg">
<path d="M331.22 408.432H322.53V408.686H331.22V408.432Z" fill="#EBEBEB"/>
<path d="M415.78 396.216H396.59V396.47H415.78V396.216Z" fill="#EBEBEB"/>
<path d="M445.42 119.289H203.14V357.033H445.42V119.289Z" fill="#E0E0E0"/>
<path d="M445.42 123.605H207.03V352.879H445.42V123.605Z" fill="#F5F5F5"/>
<path d="M208.79 297.358V228.388H215.82V219.277L231.66 211.744V202.419H234.3V228.388H236.94V297.358H240.46V261.524H248.38V242.722H251.02V297.358H257.17V276.754H261.57V271.379H271.25V252.576H276.53V240.034H282.69V221.222H285.33V240.034H291.49V252.576H296.76V271.379H306.44V276.754H310.84V297.358H316.12V271.379H325.8V214.065H328.44V207.794H349.55V214.065H353.95V255.264H371.55V259.733H377.7V262.42H371.55V278.545H390.02V224.805H393.54V214.065H402.34V172.867H404.98V214.065H411.14V224.805H445.42V352.88H207.03V297.358H208.79Z" fill="#E6E6E6"/>
<path d="M427.1 227.615H424.61V230.15H427.1V227.615Z" fill="#F0F0F0"/>
<path d="M427.1 231.87H424.61V234.405H427.1V231.87Z" fill="#F0F0F0"/>
<path d="M427.1 248.891H424.61V251.426H427.1V248.891Z" fill="#F0F0F0"/>
<path d="M427.1 253.136H424.61V255.671H427.1V253.136Z" fill="#F0F0F0"/>
<path d="M427.1 257.391H424.61V259.926H427.1V257.391Z" fill="#F0F0F0"/>
<path d="M427.1 270.157H424.61V272.692H427.1V270.157Z" fill="#F0F0F0"/>
<path d="M427.1 274.412H424.61V276.947H427.1V274.412Z" fill="#F0F0F0"/>
<path d="M423.14 244.635H420.65V247.17H423.14V244.635Z" fill="#F0F0F0"/>
<path d="M423.14 248.891H420.65V251.426H423.14V248.891Z" fill="#F0F0F0"/>
<path d="M423.14 253.136H420.65V255.671H423.14V253.136Z" fill="#F0F0F0"/>
<path d="M423.14 257.391H420.65V259.926H423.14V257.391Z" fill="#F0F0F0"/>
<path d="M423.14 261.646H420.65V264.181H423.14V261.646Z" fill="#F0F0F0"/>
<path d="M423.14 270.157H420.65V272.692H423.14V270.157Z" fill="#F0F0F0"/>
<path d="M423.14 274.412H420.65V276.947H423.14V274.412Z" fill="#F0F0F0"/>
<path d="M419.18 227.615H416.69V230.15H419.18V227.615Z" fill="#F0F0F0"/>
<path d="M419.18 231.87H416.69V234.405H419.18V231.87Z" fill="#F0F0F0"/>
<path d="M419.18 236.125H416.69V238.66H419.18V236.125Z" fill="#F0F0F0"/>
<path d="M419.18 240.38H416.69V242.915H419.18V240.38Z" fill="#F0F0F0"/>
<path d="M419.18 244.635H416.69V247.17H419.18V244.635Z" fill="#F0F0F0"/>
<path d="M419.18 248.891H416.69V251.426H419.18V248.891Z" fill="#F0F0F0"/>
<path d="M419.18 253.136H416.69V255.671H419.18V253.136Z" fill="#F0F0F0"/>
<path d="M419.18 257.391H416.69V259.926H419.18V257.391Z" fill="#F0F0F0"/>
<path d="M419.18 261.646H416.69V264.181H419.18V261.646Z" fill="#F0F0F0"/>
<path d="M419.18 265.902H416.69V268.436H419.18V265.902Z" fill="#F0F0F0"/>
<path d="M419.18 274.412H416.69V276.947H419.18V274.412Z" fill="#F0F0F0"/>
<path d="M415.22 227.615H412.73V230.15H415.22V227.615Z" fill="#F0F0F0"/>
<path d="M415.22 231.87H412.73V234.405H415.22V231.87Z" fill="#F0F0F0"/>
<path d="M415.22 236.125H412.73V238.66H415.22V236.125Z" fill="#F0F0F0"/>
<path d="M415.22 240.38H412.73V242.915H415.22V240.38Z" fill="#F0F0F0"/>
<path d="M415.22 244.635H412.73V247.17H415.22V244.635Z" fill="#F0F0F0"/>
<path d="M415.22 248.891H412.73V251.426H415.22V248.891Z" fill="#F0F0F0"/>
<path d="M415.22 253.136H412.73V255.671H415.22V253.136Z" fill="#F0F0F0"/>
<path d="M415.22 291.433H412.73V293.968H415.22V291.433Z" fill="#F0F0F0"/>
<path d="M411.26 227.615H408.77V230.15H411.26V227.615Z" fill="#F0F0F0"/>
<path d="M411.26 231.87H408.77V234.405H411.26V231.87Z" fill="#F0F0F0"/>
<path d="M411.26 236.125H408.77V238.66H411.26V236.125Z" fill="#F0F0F0"/>
<path d="M411.26 240.38H408.77V242.915H411.26V240.38Z" fill="#F0F0F0"/>
<path d="M411.26 244.635H408.77V247.17H411.26V244.635Z" fill="#F0F0F0"/>
<path d="M411.26 248.891H408.77V251.426H411.26V248.891Z" fill="#F0F0F0"/>
<path d="M411.26 253.136H408.77V255.671H411.26V253.136Z" fill="#F0F0F0"/>
<path d="M411.26 257.391H408.77V259.926H411.26V257.391Z" fill="#F0F0F0"/>
<path d="M411.26 282.923H408.77V285.457H411.26V282.923Z" fill="#F0F0F0"/>
<path d="M411.26 287.178H408.77V289.713H411.26V287.178Z" fill="#F0F0F0"/>
<path d="M411.26 291.433H408.77V293.968H411.26V291.433Z" fill="#F0F0F0"/>
<path d="M411.26 295.678H408.77V298.213H411.26V295.678Z" fill="#F0F0F0"/>
<path d="M411.26 312.699H408.77V315.234H411.26V312.699Z" fill="#F0F0F0"/>
<path d="M407.3 227.615H404.81V230.15H407.3V227.615Z" fill="#F0F0F0"/>
<path d="M407.3 231.87H404.81V234.405H407.3V231.87Z" fill="#F0F0F0"/>
<path d="M407.3 236.125H404.81V238.66H407.3V236.125Z" fill="#F0F0F0"/>
<path d="M407.3 240.38H404.81V242.915H407.3V240.38Z" fill="#F0F0F0"/>
<path d="M407.3 244.635H404.81V247.17H407.3V244.635Z" fill="#F0F0F0"/>
<path d="M407.3 248.891H404.81V251.426H407.3V248.891Z" fill="#F0F0F0"/>
<path d="M407.3 253.136H404.81V255.671H407.3V253.136Z" fill="#F0F0F0"/>
<path d="M407.3 257.391H404.81V259.926H407.3V257.391Z" fill="#F0F0F0"/>
<path d="M407.3 261.646H404.81V264.181H407.3V261.646Z" fill="#F0F0F0"/>
<path d="M407.3 265.902H404.81V268.436H407.3V265.902Z" fill="#F0F0F0"/>
<path d="M407.3 278.667H404.81V281.202H407.3V278.667Z" fill="#F0F0F0"/>
<path d="M407.3 282.923H404.81V285.457H407.3V282.923Z" fill="#F0F0F0"/>
<path d="M407.3 287.178H404.81V289.713H407.3V287.178Z" fill="#F0F0F0"/>
<path d="M407.3 291.433H404.81V293.968H407.3V291.433Z" fill="#F0F0F0"/>
<path d="M407.3 295.678H404.81V298.213H407.3V295.678Z" fill="#F0F0F0"/>
<path d="M407.3 312.699H404.81V315.234H407.3V312.699Z" fill="#F0F0F0"/>
<path d="M403.34 227.615H400.85V230.15H403.34V227.615Z" fill="#F0F0F0"/>
<path d="M403.34 231.87H400.85V234.405H403.34V231.87Z" fill="#F0F0F0"/>
<path d="M403.34 236.125H400.85V238.66H403.34V236.125Z" fill="#F0F0F0"/>
<path d="M403.34 240.38H400.85V242.915H403.34V240.38Z" fill="#F0F0F0"/>
<path d="M403.34 244.635H400.85V247.17H403.34V244.635Z" fill="#F0F0F0"/>
<path d="M403.34 248.891H400.85V251.426H403.34V248.891Z" fill="#F0F0F0"/>
<path d="M403.34 253.136H400.85V255.671H403.34V253.136Z" fill="#F0F0F0"/>
<path d="M403.34 257.391H400.85V259.926H403.34V257.391Z" fill="#F0F0F0"/>
<path d="M403.34 261.646H400.85V264.181H403.34V261.646Z" fill="#F0F0F0"/>
<path d="M403.34 265.902H400.85V268.436H403.34V265.902Z" fill="#F0F0F0"/>
<path d="M403.34 270.157H400.85V272.692H403.34V270.157Z" fill="#F0F0F0"/>
<path d="M403.34 274.412H400.85V276.947H403.34V274.412Z" fill="#F0F0F0"/>
<path d="M403.34 278.667H400.85V281.202H403.34V278.667Z" fill="#F0F0F0"/>
<path d="M403.34 282.923H400.85V285.457H403.34V282.923Z" fill="#F0F0F0"/>
<path d="M403.34 287.178H400.85V289.713H403.34V287.178Z" fill="#F0F0F0"/>
<path d="M403.34 291.433H400.85V293.968H403.34V291.433Z" fill="#F0F0F0"/>
<path d="M403.34 295.678H400.85V298.213H403.34V295.678Z" fill="#F0F0F0"/>
<path d="M403.34 299.933H400.85V302.468H403.34V299.933Z" fill="#F0F0F0"/>
<path d="M399.38 227.615H396.89V230.15H399.38V227.615Z" fill="#F0F0F0"/>
<path d="M399.38 231.87H396.89V234.405H399.38V231.87Z" fill="#F0F0F0"/>
<path d="M399.38 236.125H396.89V238.66H399.38V236.125Z" fill="#F0F0F0"/>
<path d="M399.38 240.38H396.89V242.915H399.38V240.38Z" fill="#F0F0F0"/>
<path d="M399.38 244.635H396.89V247.17H399.38V244.635Z" fill="#F0F0F0"/>
<path d="M399.38 248.891H396.89V251.426H399.38V248.891Z" fill="#F0F0F0"/>
<path d="M399.38 253.136H396.89V255.671H399.38V253.136Z" fill="#F0F0F0"/>
<path d="M399.38 257.391H396.89V259.926H399.38V257.391Z" fill="#F0F0F0"/>
<path d="M399.38 261.646H396.89V264.181H399.38V261.646Z" fill="#F0F0F0"/>
<path d="M399.38 265.902H396.89V268.436H399.38V265.902Z" fill="#F0F0F0"/>
<path d="M399.38 278.667H396.89V281.202H399.38V278.667Z" fill="#F0F0F0"/>
<path d="M399.38 282.923H396.89V285.457H399.38V282.923Z" fill="#F0F0F0"/>
<path d="M399.38 287.178H396.89V289.713H399.38V287.178Z" fill="#F0F0F0"/>
<path d="M399.38 291.433H396.89V293.968H399.38V291.433Z" fill="#F0F0F0"/>
<path d="M395.43 227.615H392.94V230.15H395.43V227.615Z" fill="#F0F0F0"/>
<path d="M395.43 231.87H392.94V234.405H395.43V231.87Z" fill="#F0F0F0"/>
<path d="M395.43 236.125H392.94V238.66H395.43V236.125Z" fill="#F0F0F0"/>
<path d="M395.43 240.38H392.94V242.915H395.43V240.38Z" fill="#F0F0F0"/>
<path d="M395.43 244.635H392.94V247.17H395.43V244.635Z" fill="#F0F0F0"/>
<path d="M395.43 248.891H392.94V251.426H395.43V248.891Z" fill="#F0F0F0"/>
<path d="M395.43 253.136H392.94V255.671H395.43V253.136Z" fill="#F0F0F0"/>
<path d="M395.43 257.391H392.94V259.926H395.43V257.391Z" fill="#F0F0F0"/>
<path d="M395.43 261.646H392.94V264.181H395.43V261.646Z" fill="#F0F0F0"/>
<path d="M395.43 265.902H392.94V268.436H395.43V265.902Z" fill="#F0F0F0"/>
<path d="M395.43 278.667H392.94V281.202H395.43V278.667Z" fill="#F0F0F0"/>
<path d="M395.43 282.923H392.94V285.457H395.43V282.923Z" fill="#F0F0F0"/>
<path d="M395.43 287.178H392.94V289.713H395.43V287.178Z" fill="#F0F0F0"/>
<path d="M350.85 216.569H348.36V219.104H350.85V216.569Z" fill="#F0F0F0"/>
<path d="M350.85 220.824H348.36V223.359H350.85V220.824Z" fill="#F0F0F0"/>
<path d="M350.85 225.08H348.36V227.615H350.85V225.08Z" fill="#F0F0F0"/>
<path d="M350.85 229.335H348.36V231.87H350.85V229.335Z" fill="#F0F0F0"/>
<path d="M350.85 233.59H348.36V236.125H350.85V233.59Z" fill="#F0F0F0"/>
<path d="M350.85 237.845H348.36V240.38H350.85V237.845Z" fill="#F0F0F0"/>
<path d="M350.85 242.091H348.36V244.625H350.85V242.091Z" fill="#F0F0F0"/>
<path d="M350.85 246.346H348.36V248.881H350.85V246.346Z" fill="#F0F0F0"/>
<path d="M350.85 259.112H348.36V261.646H350.85V259.112Z" fill="#F0F0F0"/>
<path d="M350.85 263.367H348.36V265.902H350.85V263.367Z" fill="#F0F0F0"/>
<path d="M346.89 216.569H344.4V219.104H346.89V216.569Z" fill="#F0F0F0"/>
<path d="M346.89 220.824H344.4V223.359H346.89V220.824Z" fill="#F0F0F0"/>
<path d="M346.89 225.08H344.4V227.615H346.89V225.08Z" fill="#F0F0F0"/>
<path d="M346.89 229.335H344.4V231.87H346.89V229.335Z" fill="#F0F0F0"/>
<path d="M346.89 233.59H344.4V236.125H346.89V233.59Z" fill="#F0F0F0"/>
<path d="M346.89 237.845H344.4V240.38H346.89V237.845Z" fill="#F0F0F0"/>
<path d="M346.89 242.091H344.4V244.625H346.89V242.091Z" fill="#F0F0F0"/>
<path d="M346.89 246.346H344.4V248.881H346.89V246.346Z" fill="#F0F0F0"/>
<path d="M346.89 263.367H344.4V265.902H346.89V263.367Z" fill="#F0F0F0"/>
<path d="M342.93 216.569H340.44V219.104H342.93V216.569Z" fill="#F0F0F0"/>
<path d="M342.93 220.824H340.44V223.359H342.93V220.824Z" fill="#F0F0F0"/>
<path d="M342.93 225.08H340.44V227.615H342.93V225.08Z" fill="#F0F0F0"/>
<path d="M342.93 229.335H340.44V231.87H342.93V229.335Z" fill="#F0F0F0"/>
<path d="M342.93 233.59H340.44V236.125H342.93V233.59Z" fill="#F0F0F0"/>
<path d="M342.93 237.845H340.44V240.38H342.93V237.845Z" fill="#F0F0F0"/>
<path d="M342.93 242.091H340.44V244.625H342.93V242.091Z" fill="#F0F0F0"/>
<path d="M342.93 246.346H340.44V248.881H342.93V246.346Z" fill="#F0F0F0"/>
<path d="M338.97 216.569H336.48V219.104H338.97V216.569Z" fill="#F0F0F0"/>
<path d="M338.97 220.824H336.48V223.359H338.97V220.824Z" fill="#F0F0F0"/>
<path d="M338.97 225.08H336.48V227.615H338.97V225.08Z" fill="#F0F0F0"/>
<path d="M338.97 229.335H336.48V231.87H338.97V229.335Z" fill="#F0F0F0"/>
<path d="M338.97 233.59H336.48V236.125H338.97V233.59Z" fill="#F0F0F0"/>
<path d="M338.97 237.845H336.48V240.38H338.97V237.845Z" fill="#F0F0F0"/>
<path d="M338.97 246.346H336.48V248.881H338.97V246.346Z" fill="#F0F0F0"/>
<path d="M338.97 250.601H336.48V253.136H338.97V250.601Z" fill="#F0F0F0"/>
<path d="M338.97 263.367H336.48V265.902H338.97V263.367Z" fill="#F0F0F0"/>
<path d="M338.97 267.622H336.48V270.157H338.97V267.622Z" fill="#F0F0F0"/>
<path d="M338.97 271.877H336.48V274.412H338.97V271.877Z" fill="#F0F0F0"/>
<path d="M338.97 276.133H336.48V278.667H338.97V276.133Z" fill="#F0F0F0"/>
<path d="M338.97 280.388H336.48V282.923H338.97V280.388Z" fill="#F0F0F0"/>
<path d="M338.97 284.633H336.48V287.168H338.97V284.633Z" fill="#F0F0F0"/>
<path d="M338.97 288.888H336.48V291.423H338.97V288.888Z" fill="#F0F0F0"/>
<path d="M335.01 216.569H332.52V219.104H335.01V216.569Z" fill="#F0F0F0"/>
<path d="M335.01 220.824H332.52V223.359H335.01V220.824Z" fill="#F0F0F0"/>
<path d="M335.01 225.08H332.52V227.615H335.01V225.08Z" fill="#F0F0F0"/>
<path d="M335.01 229.335H332.52V231.87H335.01V229.335Z" fill="#F0F0F0"/>
<path d="M335.01 233.59H332.52V236.125H335.01V233.59Z" fill="#F0F0F0"/>
<path d="M335.01 237.845H332.52V240.38H335.01V237.845Z" fill="#F0F0F0"/>
<path d="M335.01 250.601H332.52V253.136H335.01V250.601Z" fill="#F0F0F0"/>
<path d="M335.01 254.856H332.52V257.391H335.01V254.856Z" fill="#F0F0F0"/>
<path d="M335.01 259.112H332.52V261.646H335.01V259.112Z" fill="#F0F0F0"/>
<path d="M335.01 263.367H332.52V265.902H335.01V263.367Z" fill="#F0F0F0"/>
<path d="M335.01 267.622H332.52V270.157H335.01V267.622Z" fill="#F0F0F0"/>
<path d="M335.01 271.877H332.52V274.412H335.01V271.877Z" fill="#F0F0F0"/>
<path d="M335.01 276.133H332.52V278.667H335.01V276.133Z" fill="#F0F0F0"/>
<path d="M335.01 280.388H332.52V282.923H335.01V280.388Z" fill="#F0F0F0"/>
<path d="M335.01 284.633H332.52V287.168H335.01V284.633Z" fill="#F0F0F0"/>
<path d="M335.01 288.888H332.52V291.423H335.01V288.888Z" fill="#F0F0F0"/>
<path d="M335.01 293.143H332.52V295.678H335.01V293.143Z" fill="#F0F0F0"/>
<path d="M335.01 301.654H332.52V304.189H335.01V301.654Z" fill="#F0F0F0"/>
<path d="M331.05 216.569H328.56V219.104H331.05V216.569Z" fill="#F0F0F0"/>
<path d="M331.05 220.824H328.56V223.359H331.05V220.824Z" fill="#F0F0F0"/>
<path d="M331.05 225.08H328.56V227.615H331.05V225.08Z" fill="#F0F0F0"/>
<path d="M331.05 229.335H328.56V231.87H331.05V229.335Z" fill="#F0F0F0"/>
<path d="M331.05 233.59H328.56V236.125H331.05V233.59Z" fill="#F0F0F0"/>
<path d="M331.05 237.845H328.56V240.38H331.05V237.845Z" fill="#F0F0F0"/>
<path d="M331.05 250.601H328.56V253.136H331.05V250.601Z" fill="#F0F0F0"/>
<path d="M331.05 254.856H328.56V257.391H331.05V254.856Z" fill="#F0F0F0"/>
<path d="M331.05 259.112H328.56V261.646H331.05V259.112Z" fill="#F0F0F0"/>
<path d="M331.05 263.367H328.56V265.902H331.05V263.367Z" fill="#F0F0F0"/>
<path d="M331.05 276.133H328.56V278.667H331.05V276.133Z" fill="#F0F0F0"/>
<path d="M331.05 280.388H328.56V282.923H331.05V280.388Z" fill="#F0F0F0"/>
<path d="M331.05 284.633H328.56V287.168H331.05V284.633Z" fill="#F0F0F0"/>
<path d="M331.05 288.888H328.56V291.423H331.05V288.888Z" fill="#F0F0F0"/>
<path d="M331.05 293.143H328.56V295.678H331.05V293.143Z" fill="#F0F0F0"/>
<path d="M331.05 301.654H328.56V304.189H331.05V301.654Z" fill="#F0F0F0"/>
<path d="M331.05 305.909H328.56V308.444H331.05V305.909Z" fill="#F0F0F0"/>
<path d="M295.13 256.129H292.64V258.664H295.13V256.129Z" fill="#F0F0F0"/>
<path d="M295.13 260.384H292.64V262.919H295.13V260.384Z" fill="#F0F0F0"/>
<path d="M295.13 264.639H292.64V267.174H295.13V264.639Z" fill="#F0F0F0"/>
<path d="M295.13 268.884H292.64V271.419H295.13V268.884Z" fill="#F0F0F0"/>
<path d="M295.13 273.14H292.64V275.674H295.13V273.14Z" fill="#F0F0F0"/>
<path d="M295.13 277.395H292.64V279.93H295.13V277.395Z" fill="#F0F0F0"/>
<path d="M295.13 281.65H292.64V284.185H295.13V281.65Z" fill="#F0F0F0"/>
<path d="M295.13 294.416H292.64V296.951H295.13V294.416Z" fill="#F0F0F0"/>
<path d="M295.13 298.671H292.64V301.206H295.13V298.671Z" fill="#F0F0F0"/>
<path d="M295.13 302.926H292.64V305.461H295.13V302.926Z" fill="#F0F0F0"/>
<path d="M291.17 256.129H288.68V258.664H291.17V256.129Z" fill="#F0F0F0"/>
<path d="M291.17 260.384H288.68V262.919H291.17V260.384Z" fill="#F0F0F0"/>
<path d="M291.17 264.639H288.68V267.174H291.17V264.639Z" fill="#F0F0F0"/>
<path d="M291.17 268.884H288.68V271.419H291.17V268.884Z" fill="#F0F0F0"/>
<path d="M291.17 273.14H288.68V275.674H291.17V273.14Z" fill="#F0F0F0"/>
<path d="M291.17 277.395H288.68V279.93H291.17V277.395Z" fill="#F0F0F0"/>
<path d="M291.17 281.65H288.68V284.185H291.17V281.65Z" fill="#F0F0F0"/>
<path d="M287.21 256.129H284.72V258.664H287.21V256.129Z" fill="#F0F0F0"/>
<path d="M287.21 260.384H284.72V262.919H287.21V260.384Z" fill="#F0F0F0"/>
<path d="M287.21 264.639H284.72V267.174H287.21V264.639Z" fill="#F0F0F0"/>
<path d="M287.21 268.884H284.72V271.419H287.21V268.884Z" fill="#F0F0F0"/>
<path d="M287.21 273.14H284.72V275.674H287.21V273.14Z" fill="#F0F0F0"/>
<path d="M287.21 277.395H284.72V279.93H287.21V277.395Z" fill="#F0F0F0"/>
<path d="M287.21 281.65H284.72V284.185H287.21V281.65Z" fill="#F0F0F0"/>
<path d="M283.25 256.129H280.76V258.664H283.25V256.129Z" fill="#F0F0F0"/>
<path d="M283.25 260.384H280.76V262.919H283.25V260.384Z" fill="#F0F0F0"/>
<path d="M283.25 264.639H280.76V267.174H283.25V264.639Z" fill="#F0F0F0"/>
<path d="M283.25 268.884H280.76V271.419H283.25V268.884Z" fill="#F0F0F0"/>
<path d="M283.25 273.14H280.76V275.674H283.25V273.14Z" fill="#F0F0F0"/>
<path d="M283.25 277.395H280.76V279.93H283.25V277.395Z" fill="#F0F0F0"/>
<path d="M283.25 281.65H280.76V284.185H283.25V281.65Z" fill="#F0F0F0"/>
<path d="M283.25 285.905H280.76V288.44H283.25V285.905Z" fill="#F0F0F0"/>
<path d="M283.25 290.161H280.76V292.695H283.25V290.161Z" fill="#F0F0F0"/>
<path d="M283.25 294.416H280.76V296.951H283.25V294.416Z" fill="#F0F0F0"/>
<path d="M283.25 298.671H280.76V301.206H283.25V298.671Z" fill="#F0F0F0"/>
<path d="M279.29 256.129H276.8V258.664H279.29V256.129Z" fill="#F0F0F0"/>
<path d="M279.29 260.384H276.8V262.919H279.29V260.384Z" fill="#F0F0F0"/>
<path d="M279.29 264.639H276.8V267.174H279.29V264.639Z" fill="#F0F0F0"/>
<path d="M279.29 268.884H276.8V271.419H279.29V268.884Z" fill="#F0F0F0"/>
<path d="M279.29 273.14H276.8V275.674H279.29V273.14Z" fill="#F0F0F0"/>
<path d="M279.29 277.395H276.8V279.93H279.29V277.395Z" fill="#F0F0F0"/>
<path d="M279.29 281.65H276.8V284.185H279.29V281.65Z" fill="#F0F0F0"/>
<path d="M279.29 285.905H276.8V288.44H279.29V285.905Z" fill="#F0F0F0"/>
<path d="M279.29 290.161H276.8V292.695H279.29V290.161Z" fill="#F0F0F0"/>
<path d="M279.29 294.416H276.8V296.951H279.29V294.416Z" fill="#F0F0F0"/>
<path d="M279.29 298.671H276.8V301.206H279.29V298.671Z" fill="#F0F0F0"/>
<path d="M279.29 302.926H276.8V305.461H279.29V302.926Z" fill="#F0F0F0"/>
<path d="M279.29 315.682H276.8V318.217H279.29V315.682Z" fill="#F0F0F0"/>
<path d="M279.29 319.937H276.8V322.472H279.29V319.937Z" fill="#F0F0F0"/>
<path d="M275.33 256.129H272.84V258.664H275.33V256.129Z" fill="#F0F0F0"/>
<path d="M275.33 260.384H272.84V262.919H275.33V260.384Z" fill="#F0F0F0"/>
<path d="M275.33 264.639H272.84V267.174H275.33V264.639Z" fill="#F0F0F0"/>
<path d="M275.33 277.395H272.84V279.93H275.33V277.395Z" fill="#F0F0F0"/>
<path d="M275.33 281.65H272.84V284.185H275.33V281.65Z" fill="#F0F0F0"/>
<path d="M275.33 285.905H272.84V288.44H275.33V285.905Z" fill="#F0F0F0"/>
<path d="M275.33 290.161H272.84V292.695H275.33V290.161Z" fill="#F0F0F0"/>
<path d="M275.33 294.416H272.84V296.951H275.33V294.416Z" fill="#F0F0F0"/>
<path d="M275.33 298.671H272.84V301.206H275.33V298.671Z" fill="#F0F0F0"/>
<path d="M275.33 302.926H272.84V305.461H275.33V302.926Z" fill="#F0F0F0"/>
<path d="M275.33 315.682H272.84V318.217H275.33V315.682Z" fill="#F0F0F0"/>
<path d="M275.33 319.937H272.84V322.472H275.33V319.937Z" fill="#F0F0F0"/>
<path d="M275.33 324.192H272.84V326.727H275.33V324.192Z" fill="#F0F0F0"/>
<path d="M233.84 230.597H231.35V233.132H233.84V230.597Z" fill="#F0F0F0"/>
<path d="M233.84 234.853H231.35V237.387H233.84V234.853Z" fill="#F0F0F0"/>
<path d="M233.84 239.108H231.35V241.643H233.84V239.108Z" fill="#F0F0F0"/>
<path d="M233.84 243.363H231.35V245.898H233.84V243.363Z" fill="#F0F0F0"/>
<path d="M233.84 247.618H231.35V250.153H233.84V247.618Z" fill="#F0F0F0"/>
<path d="M233.84 251.874H231.35V254.408H233.84V251.874Z" fill="#F0F0F0"/>
<path d="M233.84 256.129H231.35V258.664H233.84V256.129Z" fill="#F0F0F0"/>
<path d="M233.84 260.384H231.35V262.919H233.84V260.384Z" fill="#F0F0F0"/>
<path d="M233.84 264.639H231.35V267.174H233.84V264.639Z" fill="#F0F0F0"/>
<path d="M233.84 268.884H231.35V271.419H233.84V268.884Z" fill="#F0F0F0"/>
<path d="M233.84 273.14H231.35V275.674H233.84V273.14Z" fill="#F0F0F0"/>
<path d="M233.84 277.395H231.35V279.93H233.84V277.395Z" fill="#F0F0F0"/>
<path d="M233.84 281.65H231.35V284.185H233.84V281.65Z" fill="#F0F0F0"/>
<path d="M233.84 285.905H231.35V288.44H233.84V285.905Z" fill="#F0F0F0"/>
<path d="M233.84 290.161H231.35V292.695H233.84V290.161Z" fill="#F0F0F0"/>
<path d="M233.84 294.416H231.35V296.951H233.84V294.416Z" fill="#F0F0F0"/>
<path d="M233.84 298.671H231.35V301.206H233.84V298.671Z" fill="#F0F0F0"/>
<path d="M233.84 302.926H231.35V305.461H233.84V302.926Z" fill="#F0F0F0"/>
<path d="M233.84 307.182H231.35V309.716H233.84V307.182Z" fill="#F0F0F0"/>
<path d="M233.84 311.427H231.35V313.961H233.84V311.427Z" fill="#F0F0F0"/>
<path d="M233.84 315.682H231.35V318.217H233.84V315.682Z" fill="#F0F0F0"/>
<path d="M233.84 319.937H231.35V322.472H233.84V319.937Z" fill="#F0F0F0"/>
<path d="M233.84 324.192H231.35V326.727H233.84V324.192Z" fill="#F0F0F0"/>
<path d="M229.88 230.597H227.39V233.132H229.88V230.597Z" fill="#F0F0F0"/>
<path d="M229.88 234.853H227.39V237.387H229.88V234.853Z" fill="#F0F0F0"/>
<path d="M229.88 239.108H227.39V241.643H229.88V239.108Z" fill="#F0F0F0"/>
<path d="M229.88 243.363H227.39V245.898H229.88V243.363Z" fill="#F0F0F0"/>
<path d="M229.88 247.618H227.39V250.153H229.88V247.618Z" fill="#F0F0F0"/>
<path d="M229.88 251.874H227.39V254.408H229.88V251.874Z" fill="#F0F0F0"/>
<path d="M229.88 256.129H227.39V258.664H229.88V256.129Z" fill="#F0F0F0"/>
<path d="M229.88 260.384H227.39V262.919H229.88V260.384Z" fill="#F0F0F0"/>
<path d="M229.88 264.639H227.39V267.174H229.88V264.639Z" fill="#F0F0F0"/>
<path d="M229.88 268.884H227.39V271.419H229.88V268.884Z" fill="#F0F0F0"/>
<path d="M229.88 273.14H227.39V275.674H229.88V273.14Z" fill="#F0F0F0"/>
<path d="M229.88 277.395H227.39V279.93H229.88V277.395Z" fill="#F0F0F0"/>
<path d="M229.88 281.65H227.39V284.185H229.88V281.65Z" fill="#F0F0F0"/>
<path d="M229.88 285.905H227.39V288.44H229.88V285.905Z" fill="#F0F0F0"/>
<path d="M229.88 290.161H227.39V292.695H229.88V290.161Z" fill="#F0F0F0"/>
<path d="M229.88 294.416H227.39V296.951H229.88V294.416Z" fill="#F0F0F0"/>
<path d="M229.88 298.671H227.39V301.206H229.88V298.671Z" fill="#F0F0F0"/>
<path d="M229.88 302.926H227.39V305.461H229.88V302.926Z" fill="#F0F0F0"/>
<path d="M229.88 307.182H227.39V309.716H229.88V307.182Z" fill="#F0F0F0"/>
<path d="M225.92 230.597H223.43V233.132H225.92V230.597Z" fill="#F0F0F0"/>
<path d="M225.92 234.853H223.43V237.387H225.92V234.853Z" fill="#F0F0F0"/>
<path d="M225.92 239.108H223.43V241.643H225.92V239.108Z" fill="#F0F0F0"/>
<path d="M225.92 243.363H223.43V245.898H225.92V243.363Z" fill="#F0F0F0"/>
<path d="M225.92 247.618H223.43V250.153H225.92V247.618Z" fill="#F0F0F0"/>
<path d="M225.92 251.874H223.43V254.408H225.92V251.874Z" fill="#F0F0F0"/>
<path d="M225.92 256.129H223.43V258.664H225.92V256.129Z" fill="#F0F0F0"/>
<path d="M225.92 260.384H223.43V262.919H225.92V260.384Z" fill="#F0F0F0"/>
<path d="M225.92 264.639H223.43V267.174H225.92V264.639Z" fill="#F0F0F0"/>
<path d="M225.92 268.884H223.43V271.419H225.92V268.884Z" fill="#F0F0F0"/>
<path d="M225.92 273.14H223.43V275.674H225.92V273.14Z" fill="#F0F0F0"/>
<path d="M225.92 277.395H223.43V279.93H225.92V277.395Z" fill="#F0F0F0"/>
<path d="M225.92 281.65H223.43V284.185H225.92V281.65Z" fill="#F0F0F0"/>
<path d="M225.92 285.905H223.43V288.44H225.92V285.905Z" fill="#F0F0F0"/>
<path d="M225.92 290.161H223.43V292.695H225.92V290.161Z" fill="#F0F0F0"/>
<path d="M225.92 294.416H223.43V296.951H225.92V294.416Z" fill="#F0F0F0"/>
<path d="M225.92 298.671H223.43V301.206H225.92V298.671Z" fill="#F0F0F0"/>
<path d="M225.92 302.926H223.43V305.461H225.92V302.926Z" fill="#F0F0F0"/>
<path d="M225.92 307.182H223.43V309.716H225.92V307.182Z" fill="#F0F0F0"/>
<path d="M221.96 230.597H219.47V233.132H221.96V230.597Z" fill="#F0F0F0"/>
<path d="M221.96 234.853H219.47V237.387H221.96V234.853Z" fill="#F0F0F0"/>
<path d="M221.96 239.108H219.47V241.643H221.96V239.108Z" fill="#F0F0F0"/>
<path d="M221.96 243.363H219.47V245.898H221.96V243.363Z" fill="#F0F0F0"/>
<path d="M221.96 247.618H219.47V250.153H221.96V247.618Z" fill="#F0F0F0"/>
<path d="M221.96 251.874H219.47V254.408H221.96V251.874Z" fill="#F0F0F0"/>
<path d="M221.96 256.129H219.47V258.664H221.96V256.129Z" fill="#F0F0F0"/>
<path d="M221.96 260.384H219.47V262.919H221.96V260.384Z" fill="#F0F0F0"/>
<path d="M221.96 264.639H219.47V267.174H221.96V264.639Z" fill="#F0F0F0"/>
<path d="M221.96 268.884H219.47V271.419H221.96V268.884Z" fill="#F0F0F0"/>
<path d="M221.96 273.14H219.47V275.674H221.96V273.14Z" fill="#F0F0F0"/>
<path d="M221.96 277.395H219.47V279.93H221.96V277.395Z" fill="#F0F0F0"/>
<path d="M221.96 281.65H219.47V284.185H221.96V281.65Z" fill="#F0F0F0"/>
<path d="M221.96 285.905H219.47V288.44H221.96V285.905Z" fill="#F0F0F0"/>
<path d="M221.96 290.161H219.47V292.695H221.96V290.161Z" fill="#F0F0F0"/>
<path d="M218 230.597H215.51V233.132H218V230.597Z" fill="#F0F0F0"/>
<path d="M218 234.853H215.51V237.387H218V234.853Z" fill="#F0F0F0"/>
<path d="M218 239.108H215.51V241.643H218V239.108Z" fill="#F0F0F0"/>
<path d="M218 243.363H215.51V245.898H218V243.363Z" fill="#F0F0F0"/>
<path d="M218 247.618H215.51V250.153H218V247.618Z" fill="#F0F0F0"/>
<path d="M218 251.874H215.51V254.408H218V251.874Z" fill="#F0F0F0"/>
<path d="M218 256.129H215.51V258.664H218V256.129Z" fill="#F0F0F0"/>
<path d="M218 260.384H215.51V262.919H218V260.384Z" fill="#F0F0F0"/>
<path d="M218 264.639H215.51V267.174H218V264.639Z" fill="#F0F0F0"/>
<path d="M218 268.884H215.51V271.419H218V268.884Z" fill="#F0F0F0"/>
<path d="M218 273.14H215.51V275.674H218V273.14Z" fill="#F0F0F0"/>
<path d="M218 277.395H215.51V279.93H218V277.395Z" fill="#F0F0F0"/>
<path d="M218 281.65H215.51V284.185H218V281.65Z" fill="#F0F0F0"/>
<path d="M214.04 230.597H211.55V233.132H214.04V230.597Z" fill="#F0F0F0"/>
<path d="M214.04 234.853H211.55V237.387H214.04V234.853Z" fill="#F0F0F0"/>
<path d="M214.04 239.108H211.55V241.643H214.04V239.108Z" fill="#F0F0F0"/>
<path d="M214.04 243.363H211.55V245.898H214.04V243.363Z" fill="#F0F0F0"/>
<path d="M214.04 247.618H211.55V250.153H214.04V247.618Z" fill="#F0F0F0"/>
<path d="M214.04 251.874H211.55V254.408H214.04V251.874Z" fill="#F0F0F0"/>
<path d="M214.04 256.129H211.55V258.664H214.04V256.129Z" fill="#F0F0F0"/>
<path d="M214.04 260.384H211.55V262.919H214.04V260.384Z" fill="#F0F0F0"/>
<path d="M214.04 264.639H211.55V267.174H214.04V264.639Z" fill="#F0F0F0"/>
<path d="M214.04 268.884H211.55V271.419H214.04V268.884Z" fill="#F0F0F0"/>
<path d="M214.04 273.14H211.55V275.674H214.04V273.14Z" fill="#F0F0F0"/>
<path d="M214.04 277.395H211.55V279.93H214.04V277.395Z" fill="#F0F0F0"/>
<path d="M445.13 229.335H442.64V231.87H445.13V229.335Z" fill="#F0F0F0"/>
<path d="M445.13 233.59H442.64V236.125H445.13V233.59Z" fill="#F0F0F0"/>
<path d="M445.13 237.845H442.64V240.38H445.13V237.845Z" fill="#F0F0F0"/>
<path d="M445.13 242.091H442.64V244.625H445.13V242.091Z" fill="#F0F0F0"/>
<path d="M445.13 246.346H442.64V248.881H445.13V246.346Z" fill="#F0F0F0"/>
<path d="M445.13 250.601H442.64V253.136H445.13V250.601Z" fill="#F0F0F0"/>
<path d="M445.13 254.856H442.64V257.391H445.13V254.856Z" fill="#F0F0F0"/>
<path d="M445.13 259.112H442.64V261.646H445.13V259.112Z" fill="#F0F0F0"/>
<path d="M445.13 263.367H442.64V265.902H445.13V263.367Z" fill="#F0F0F0"/>
<path d="M445.13 267.622H442.64V270.157H445.13V267.622Z" fill="#F0F0F0"/>
<path d="M445.13 271.877H442.64V274.412H445.13V271.877Z" fill="#F0F0F0"/>
<path d="M445.13 276.133H442.64V278.667H445.13V276.133Z" fill="#F0F0F0"/>
<path d="M445.13 280.388H442.64V282.923H445.13V280.388Z" fill="#F0F0F0"/>
<path d="M445.13 284.633H442.64V287.168H445.13V284.633Z" fill="#F0F0F0"/>
<path d="M445.13 288.888H442.64V291.423H445.13V288.888Z" fill="#F0F0F0"/>
<path d="M445.13 293.143H442.64V295.678H445.13V293.143Z" fill="#F0F0F0"/>
<path d="M445.13 297.398H442.64V299.933H445.13V297.398Z" fill="#F0F0F0"/>
<path d="M445.13 305.909H442.64V308.444H445.13V305.909Z" fill="#F0F0F0"/>
<path d="M445.13 310.164H442.64V312.699H445.13V310.164Z" fill="#F0F0F0"/>
<path d="M445.13 314.419H442.64V316.954H445.13V314.419Z" fill="#F0F0F0"/>
<path d="M445.13 318.675H442.64V321.21H445.13V318.675Z" fill="#F0F0F0"/>
<path d="M445.13 322.92H442.64V325.454H445.13V322.92Z" fill="#F0F0F0"/>
<path d="M441.17 229.335H438.68V231.87H441.17V229.335Z" fill="#F0F0F0"/>
<path d="M441.17 233.59H438.68V236.125H441.17V233.59Z" fill="#F0F0F0"/>
<path d="M441.17 237.845H438.68V240.38H441.17V237.845Z" fill="#F0F0F0"/>
<path d="M441.17 242.091H438.68V244.625H441.17V242.091Z" fill="#F0F0F0"/>
<path d="M441.17 246.346H438.68V248.881H441.17V246.346Z" fill="#F0F0F0"/>
<path d="M441.17 250.601H438.68V253.136H441.17V250.601Z" fill="#F0F0F0"/>
<path d="M441.17 254.856H438.68V257.391H441.17V254.856Z" fill="#F0F0F0"/>
<path d="M441.17 259.112H438.68V261.646H441.17V259.112Z" fill="#F0F0F0"/>
<path d="M441.17 263.367H438.68V265.902H441.17V263.367Z" fill="#F0F0F0"/>
<path d="M441.17 267.622H438.68V270.157H441.17V267.622Z" fill="#F0F0F0"/>
<path d="M441.17 271.877H438.68V274.412H441.17V271.877Z" fill="#F0F0F0"/>
<path d="M441.17 276.133H438.68V278.667H441.17V276.133Z" fill="#F0F0F0"/>
<path d="M441.17 280.388H438.68V282.923H441.17V280.388Z" fill="#F0F0F0"/>
<path d="M441.17 284.633H438.68V287.168H441.17V284.633Z" fill="#F0F0F0"/>
<path d="M441.17 288.888H438.68V291.423H441.17V288.888Z" fill="#F0F0F0"/>
<path d="M441.17 293.143H438.68V295.678H441.17V293.143Z" fill="#F0F0F0"/>
<path d="M441.17 318.675H438.68V321.21H441.17V318.675Z" fill="#F0F0F0"/>
<path d="M441.17 322.92H438.68V325.454H441.17V322.92Z" fill="#F0F0F0"/>
<path d="M437.22 229.335H434.73V231.87H437.22V229.335Z" fill="#F0F0F0"/>
<path d="M437.22 233.59H434.73V236.125H437.22V233.59Z" fill="#F0F0F0"/>
<path d="M437.22 237.845H434.73V240.38H437.22V237.845Z" fill="#F0F0F0"/>
<path d="M437.22 242.091H434.73V244.625H437.22V242.091Z" fill="#F0F0F0"/>
<path d="M437.22 246.346H434.73V248.881H437.22V246.346Z" fill="#F0F0F0"/>
<path d="M437.22 250.601H434.73V253.136H437.22V250.601Z" fill="#F0F0F0"/>
<path d="M437.22 254.856H434.73V257.391H437.22V254.856Z" fill="#F0F0F0"/>
<path d="M437.22 259.112H434.73V261.646H437.22V259.112Z" fill="#F0F0F0"/>
<path d="M437.22 263.367H434.73V265.902H437.22V263.367Z" fill="#F0F0F0"/>
<path d="M437.22 267.622H434.73V270.157H437.22V267.622Z" fill="#F0F0F0"/>
<path d="M437.22 271.877H434.73V274.412H437.22V271.877Z" fill="#F0F0F0"/>
<path d="M437.22 276.133H434.73V278.667H437.22V276.133Z" fill="#F0F0F0"/>
<path d="M437.22 280.388H434.73V282.923H437.22V280.388Z" fill="#F0F0F0"/>
<path d="M437.22 284.633H434.73V287.168H437.22V284.633Z" fill="#F0F0F0"/>
<path d="M437.22 288.888H434.73V291.423H437.22V288.888Z" fill="#F0F0F0"/>
<path d="M437.22 293.143H434.73V295.678H437.22V293.143Z" fill="#F0F0F0"/>
<path d="M437.22 301.654H434.73V304.189H437.22V301.654Z" fill="#F0F0F0"/>
<path d="M437.22 305.909H434.73V308.444H437.22V305.909Z" fill="#F0F0F0"/>
<path d="M437.22 310.164H434.73V312.699H437.22V310.164Z" fill="#F0F0F0"/>
<path d="M437.22 314.419H434.73V316.954H437.22V314.419Z" fill="#F0F0F0"/>
<path d="M437.22 322.92H434.73V325.454H437.22V322.92Z" fill="#F0F0F0"/>
<path d="M368.15 259.112H365.66V261.646H368.15V259.112Z" fill="#F0F0F0"/>
<path d="M368.15 263.367H365.66V265.902H368.15V263.367Z" fill="#F0F0F0"/>
<path d="M368.15 267.622H365.66V270.157H368.15V267.622Z" fill="#F0F0F0"/>
<path d="M368.15 271.877H365.66V274.412H368.15V271.877Z" fill="#F0F0F0"/>
<path d="M368.15 276.133H365.66V278.667H368.15V276.133Z" fill="#F0F0F0"/>
<path d="M368.15 280.388H365.66V282.923H368.15V280.388Z" fill="#F0F0F0"/>
<path d="M368.15 284.633H365.66V287.168H368.15V284.633Z" fill="#F0F0F0"/>
<path d="M368.15 288.888H365.66V291.423H368.15V288.888Z" fill="#F0F0F0"/>
<path d="M368.15 293.143H365.66V295.678H368.15V293.143Z" fill="#F0F0F0"/>
<path d="M368.15 297.398H365.66V299.933H368.15V297.398Z" fill="#F0F0F0"/>
<path d="M368.15 301.654H365.66V304.189H368.15V301.654Z" fill="#F0F0F0"/>
<path d="M368.15 305.909H365.66V308.444H368.15V305.909Z" fill="#F0F0F0"/>
<path d="M368.15 310.164H365.66V312.699H368.15V310.164Z" fill="#F0F0F0"/>
<path d="M368.15 318.675H365.66V321.21H368.15V318.675Z" fill="#F0F0F0"/>
<path d="M368.15 322.92H365.66V325.454H368.15V322.92Z" fill="#F0F0F0"/>
<path d="M368.15 327.175H365.66V329.71H368.15V327.175Z" fill="#F0F0F0"/>
<path d="M368.15 331.43H365.66V333.965H368.15V331.43Z" fill="#F0F0F0"/>
<path d="M368.15 339.941H365.66V342.475H368.15V339.941Z" fill="#F0F0F0"/>
<path d="M368.15 344.196H365.66V346.731H368.15V344.196Z" fill="#F0F0F0"/>
<path d="M368.15 348.451H365.66V350.986H368.15V348.451Z" fill="#F0F0F0"/>
<path d="M364.19 259.112H361.7V261.646H364.19V259.112Z" fill="#F0F0F0"/>
<path d="M364.19 263.367H361.7V265.902H364.19V263.367Z" fill="#F0F0F0"/>
<path d="M364.19 267.622H361.7V270.157H364.19V267.622Z" fill="#F0F0F0"/>
<path d="M364.19 271.877H361.7V274.412H364.19V271.877Z" fill="#F0F0F0"/>
<path d="M364.19 276.133H361.7V278.667H364.19V276.133Z" fill="#F0F0F0"/>
<path d="M364.19 280.388H361.7V282.923H364.19V280.388Z" fill="#F0F0F0"/>
<path d="M364.19 284.633H361.7V287.168H364.19V284.633Z" fill="#F0F0F0"/>
<path d="M364.19 288.888H361.7V291.423H364.19V288.888Z" fill="#F0F0F0"/>
<path d="M364.19 293.143H361.7V295.678H364.19V293.143Z" fill="#F0F0F0"/>
<path d="M364.19 297.398H361.7V299.933H364.19V297.398Z" fill="#F0F0F0"/>
<path d="M364.19 301.654H361.7V304.189H364.19V301.654Z" fill="#F0F0F0"/>
<path d="M364.19 305.909H361.7V308.444H364.19V305.909Z" fill="#F0F0F0"/>
<path d="M364.19 310.164H361.7V312.699H364.19V310.164Z" fill="#F0F0F0"/>
<path d="M364.19 322.92H361.7V325.454H364.19V322.92Z" fill="#F0F0F0"/>
<path d="M364.19 327.175H361.7V329.71H364.19V327.175Z" fill="#F0F0F0"/>
<path d="M364.19 335.686H361.7V338.22H364.19V335.686Z" fill="#F0F0F0"/>
<path d="M364.19 339.941H361.7V342.475H364.19V339.941Z" fill="#F0F0F0"/>
<path d="M364.19 344.196H361.7V346.731H364.19V344.196Z" fill="#F0F0F0"/>
<path d="M364.19 348.451H361.7V350.986H364.19V348.451Z" fill="#F0F0F0"/>
<path d="M360.23 259.112H357.74V261.646H360.23V259.112Z" fill="#F0F0F0"/>
<path d="M360.23 263.367H357.74V265.902H360.23V263.367Z" fill="#F0F0F0"/>
<path d="M360.23 267.622H357.74V270.157H360.23V267.622Z" fill="#F0F0F0"/>
<path d="M360.23 271.877H357.74V274.412H360.23V271.877Z" fill="#F0F0F0"/>
<path d="M360.23 276.133H357.74V278.667H360.23V276.133Z" fill="#F0F0F0"/>
<path d="M360.23 280.388H357.74V282.923H360.23V280.388Z" fill="#F0F0F0"/>
<path d="M360.23 284.633H357.74V287.168H360.23V284.633Z" fill="#F0F0F0"/>
<path d="M360.23 288.888H357.74V291.423H360.23V288.888Z" fill="#F0F0F0"/>
<path d="M360.23 293.143H357.74V295.678H360.23V293.143Z" fill="#F0F0F0"/>
<path d="M360.23 297.398H357.74V299.933H360.23V297.398Z" fill="#F0F0F0"/>
<path d="M360.23 301.654H357.74V304.189H360.23V301.654Z" fill="#F0F0F0"/>
<path d="M360.23 305.909H357.74V308.444H360.23V305.909Z" fill="#F0F0F0"/>
<path d="M360.23 310.164H357.74V312.699H360.23V310.164Z" fill="#F0F0F0"/>
<path d="M360.23 314.419H357.74V316.954H360.23V314.419Z" fill="#F0F0F0"/>
<path d="M360.23 322.92H357.74V325.454H360.23V322.92Z" fill="#F0F0F0"/>
<path d="M360.23 331.43H357.74V333.965H360.23V331.43Z" fill="#F0F0F0"/>
<path d="M360.23 335.686H357.74V338.22H360.23V335.686Z" fill="#F0F0F0"/>
<path d="M360.23 339.941H357.74V342.475H360.23V339.941Z" fill="#F0F0F0"/>
<path d="M360.23 344.196H357.74V346.731H360.23V344.196Z" fill="#F0F0F0"/>
<path d="M360.23 348.451H357.74V350.986H360.23V348.451Z" fill="#F0F0F0"/>
<path d="M384.28 283.37H381.79V285.905H384.28V283.37Z" fill="#F0F0F0"/>
<path d="M384.28 287.626H381.79V290.161H384.28V287.626Z" fill="#F0F0F0"/>
<path d="M384.28 291.881H381.79V294.416H384.28V291.881Z" fill="#F0F0F0"/>
<path d="M384.28 296.126H381.79V298.661H384.28V296.126Z" fill="#F0F0F0"/>
<path d="M384.28 300.381H381.79V302.916H384.28V300.381Z" fill="#F0F0F0"/>
<path d="M384.28 304.636H381.79V307.171H384.28V304.636Z" fill="#F0F0F0"/>
<path d="M384.28 317.402H381.79V319.937H384.28V317.402Z" fill="#F0F0F0"/>
<path d="M384.28 321.657H381.79V324.192H384.28V321.657Z" fill="#F0F0F0"/>
<path d="M384.28 325.913H381.79V328.447H384.28V325.913Z" fill="#F0F0F0"/>
<path d="M384.28 330.168H381.79V332.703H384.28V330.168Z" fill="#F0F0F0"/>
<path d="M384.28 334.423H381.79V336.958H384.28V334.423Z" fill="#F0F0F0"/>
<path d="M384.28 338.668H381.79V341.203H384.28V338.668Z" fill="#F0F0F0"/>
<path d="M384.28 342.923H381.79V345.458H384.28V342.923Z" fill="#F0F0F0"/>
<path d="M380.32 283.37H377.83V285.905H380.32V283.37Z" fill="#F0F0F0"/>
<path d="M380.32 287.626H377.83V290.161H380.32V287.626Z" fill="#F0F0F0"/>
<path d="M380.32 291.881H377.83V294.416H380.32V291.881Z" fill="#F0F0F0"/>
<path d="M380.32 296.126H377.83V298.661H380.32V296.126Z" fill="#F0F0F0"/>
<path d="M380.32 300.381H377.83V302.916H380.32V300.381Z" fill="#F0F0F0"/>
<path d="M380.32 304.636H377.83V307.171H380.32V304.636Z" fill="#F0F0F0"/>
<path d="M380.32 317.402H377.83V319.937H380.32V317.402Z" fill="#F0F0F0"/>
<path d="M380.32 321.657H377.83V324.192H380.32V321.657Z" fill="#F0F0F0"/>
<path d="M380.32 325.913H377.83V328.447H380.32V325.913Z" fill="#F0F0F0"/>
<path d="M380.32 330.168H377.83V332.703H380.32V330.168Z" fill="#F0F0F0"/>
<path d="M380.32 334.423H377.83V336.958H380.32V334.423Z" fill="#F0F0F0"/>
<path d="M380.32 338.668H377.83V341.203H380.32V338.668Z" fill="#F0F0F0"/>
<path d="M380.32 347.179H377.83V349.714H380.32V347.179Z" fill="#F0F0F0"/>
<path d="M248.79 264.639H246.3V267.174H248.79V264.639Z" fill="#F0F0F0"/>
<path d="M248.79 268.884H246.3V271.419H248.79V268.884Z" fill="#F0F0F0"/>
<path d="M248.79 273.14H246.3V275.674H248.79V273.14Z" fill="#F0F0F0"/>
<path d="M248.79 277.395H246.3V279.93H248.79V277.395Z" fill="#F0F0F0"/>
<path d="M248.79 281.65H246.3V284.185H248.79V281.65Z" fill="#F0F0F0"/>
<path d="M248.79 285.905H246.3V288.44H248.79V285.905Z" fill="#F0F0F0"/>
<path d="M248.79 290.161H246.3V292.695H248.79V290.161Z" fill="#F0F0F0"/>
<path d="M248.79 294.416H246.3V296.951H248.79V294.416Z" fill="#F0F0F0"/>
<path d="M248.79 298.671H246.3V301.206H248.79V298.671Z" fill="#F0F0F0"/>
<path d="M248.79 302.926H246.3V305.461H248.79V302.926Z" fill="#F0F0F0"/>
<path d="M248.79 307.182H246.3V309.716H248.79V307.182Z" fill="#F0F0F0"/>
<path d="M248.79 315.682H246.3V318.217H248.79V315.682Z" fill="#F0F0F0"/>
<path d="M248.79 319.937H246.3V322.472H248.79V319.937Z" fill="#F0F0F0"/>
<path d="M248.79 324.192H246.3V326.727H248.79V324.192Z" fill="#F0F0F0"/>
<path d="M248.79 328.448H246.3V330.982H248.79V328.448Z" fill="#F0F0F0"/>
<path d="M248.79 332.703H246.3V335.238H248.79V332.703Z" fill="#F0F0F0"/>
<path d="M248.79 336.958H246.3V339.493H248.79V336.958Z" fill="#F0F0F0"/>
<path d="M248.79 341.213H246.3V343.748H248.79V341.213Z" fill="#F0F0F0"/>
<path d="M248.79 345.469H246.3V348.003H248.79V345.469Z" fill="#F0F0F0"/>
<path d="M244.84 264.639H242.35V267.174H244.84V264.639Z" fill="#F0F0F0"/>
<path d="M244.84 268.884H242.35V271.419H244.84V268.884Z" fill="#F0F0F0"/>
<path d="M244.84 273.14H242.35V275.674H244.84V273.14Z" fill="#F0F0F0"/>
<path d="M244.84 277.395H242.35V279.93H244.84V277.395Z" fill="#F0F0F0"/>
<path d="M244.84 281.65H242.35V284.185H244.84V281.65Z" fill="#F0F0F0"/>
<path d="M244.84 285.905H242.35V288.44H244.84V285.905Z" fill="#F0F0F0"/>
<path d="M244.84 290.161H242.35V292.695H244.84V290.161Z" fill="#F0F0F0"/>
<path d="M244.84 294.416H242.35V296.951H244.84V294.416Z" fill="#F0F0F0"/>
<path d="M244.84 298.671H242.35V301.206H244.84V298.671Z" fill="#F0F0F0"/>
<path d="M244.84 302.926H242.35V305.461H244.84V302.926Z" fill="#F0F0F0"/>
<path d="M244.84 307.182H242.35V309.716H244.84V307.182Z" fill="#F0F0F0"/>
<path d="M244.84 311.427H242.35V313.961H244.84V311.427Z" fill="#F0F0F0"/>
<path d="M244.84 315.682H242.35V318.217H244.84V315.682Z" fill="#F0F0F0"/>
<path d="M244.84 319.937H242.35V322.472H244.84V319.937Z" fill="#F0F0F0"/>
<path d="M244.84 324.192H242.35V326.727H244.84V324.192Z" fill="#F0F0F0"/>
<path d="M244.84 328.448H242.35V330.982H244.84V328.448Z" fill="#F0F0F0"/>
<path d="M244.84 332.703H242.35V335.238H244.84V332.703Z" fill="#F0F0F0"/>
<path d="M244.84 336.958H242.35V339.493H244.84V336.958Z" fill="#F0F0F0"/>
<path d="M244.84 341.213H242.35V343.748H244.84V341.213Z" fill="#F0F0F0"/>
<path d="M244.84 345.469H242.35V348.003H244.84V345.469Z" fill="#F0F0F0"/>
<path d="M268.3 281.202H265.81V283.737H268.3V281.202Z" fill="#F0F0F0"/>
<path d="M268.3 285.457H265.81V287.992H268.3V285.457Z" fill="#F0F0F0"/>
<path d="M268.3 289.713H265.81V292.247H268.3V289.713Z" fill="#F0F0F0"/>
<path d="M268.3 293.968H265.81V296.503H268.3V293.968Z" fill="#F0F0F0"/>
<path d="M268.3 298.223H265.81V300.758H268.3V298.223Z" fill="#F0F0F0"/>
<path d="M268.3 302.478H265.81V305.013H268.3V302.478Z" fill="#F0F0F0"/>
<path d="M268.3 306.734H265.81V309.268H268.3V306.734Z" fill="#F0F0F0"/>
<path d="M268.3 310.979H265.81V313.514H268.3V310.979Z" fill="#F0F0F0"/>
<path d="M268.3 315.234H265.81V317.769H268.3V315.234Z" fill="#F0F0F0"/>
<path d="M268.3 319.489H265.81V322.024H268.3V319.489Z" fill="#F0F0F0"/>
<path d="M264.34 281.202H261.85V283.737H264.34V281.202Z" fill="#F0F0F0"/>
<path d="M264.34 285.457H261.85V287.992H264.34V285.457Z" fill="#F0F0F0"/>
<path d="M264.34 289.713H261.85V292.247H264.34V289.713Z" fill="#F0F0F0"/>
<path d="M264.34 293.968H261.85V296.503H264.34V293.968Z" fill="#F0F0F0"/>
<path d="M264.34 298.223H261.85V300.758H264.34V298.223Z" fill="#F0F0F0"/>
<path d="M264.34 302.478H261.85V305.013H264.34V302.478Z" fill="#F0F0F0"/>
<path d="M264.34 306.734H261.85V309.268H264.34V306.734Z" fill="#F0F0F0"/>
<path d="M264.34 310.979H261.85V313.514H264.34V310.979Z" fill="#F0F0F0"/>
<path d="M264.34 315.234H261.85V317.769H264.34V315.234Z" fill="#F0F0F0"/>
<path d="M287.89 119.758H283.71V357.033H287.89V119.758Z" fill="#E0E0E0"/>
<path d="M366.6 119.758H362.42V357.033H366.6V119.758Z" fill="#E0E0E0"/>
<path d="M445.3 119.758H441.12V357.033H445.3V119.758Z" fill="#E0E0E0"/>
<path d="M147.82 333.904H173.6C174.77 333.904 175.891 334.377 176.718 335.219C177.545 336.061 178.01 337.203 178.01 338.393V389.12H143.42V338.434C143.415 337.842 143.525 337.255 143.743 336.706C143.962 336.157 144.285 335.658 144.694 335.237C145.103 334.816 145.59 334.481 146.126 334.253C146.663 334.024 147.238 333.905 147.82 333.904Z" fill="#F0F0F0"/>
<path d="M178.01 341.417H143.42V345.377H178.01V341.417Z" fill="#E6E6E6"/>
<path d="M163.09 382.473H171.71C172.339 382.473 172.941 382.727 173.386 383.179C173.83 383.632 174.08 384.245 174.08 384.885V389.161H160.71V384.885C160.71 384.568 160.772 384.253 160.891 383.96C161.011 383.666 161.187 383.4 161.408 383.176C161.629 382.952 161.891 382.774 162.18 382.653C162.469 382.533 162.778 382.471 163.09 382.473V382.473Z" fill="#E0E0E0"/>
<path d="M174.12 389.161H164.54C164.132 389.161 163.74 388.996 163.451 388.702C163.162 388.408 163 388.009 163 387.593V387.593C163.003 387.179 163.166 386.783 163.455 386.491C163.743 386.199 164.133 386.036 164.54 386.036H174.12C174.527 386.036 174.917 386.199 175.205 386.491C175.494 386.783 175.657 387.179 175.66 387.593V387.593C175.66 388.009 175.498 388.408 175.209 388.702C174.92 388.996 174.528 389.161 174.12 389.161Z" fill="#E6E6E6"/>
<path d="M327.714 108.625C340.372 105.584 348.212 92.6719 345.225 79.7855C342.237 66.8992 329.553 58.9183 316.895 61.9598C304.236 65.0012 296.396 77.9132 299.384 90.7996C302.372 103.686 315.055 111.667 327.714 108.625Z" fill="#E0E0E0"/>
<path d="M325.507 105.392C336.427 103.587 343.842 93.1134 342.069 81.9975C340.297 70.8816 330.008 63.3331 319.089 65.1375C308.17 66.9418 300.754 77.4157 302.527 88.5316C304.299 99.6475 314.588 107.196 325.507 105.392Z" fill="#F0F0F0"/>
<path d="M323.25 71.2905V85.5425L332.52 80.198" fill="#F0F0F0"/>
<path d="M323.25 86.5299C323.071 86.5299 322.894 86.4807 322.74 86.3874C322.591 86.2973 322.467 86.1692 322.381 86.0157C322.295 85.8622 322.25 85.6886 322.25 85.5119V71.2599C322.25 70.99 322.355 70.731 322.543 70.5401C322.73 70.3492 322.985 70.2419 323.25 70.2419C323.515 70.2419 323.77 70.3492 323.957 70.5401C324.145 70.731 324.25 70.99 324.25 71.2599V83.7915L332.03 79.3123C332.261 79.1804 332.534 79.1471 332.789 79.2196C333.043 79.2921 333.26 79.4646 333.39 79.6992C333.52 79.9329 333.555 80.2097 333.485 80.469C333.416 80.7284 333.249 80.9494 333.02 81.0836L323.74 86.4281C323.587 86.5003 323.419 86.5351 323.25 86.5299V86.5299Z" fill="#E0E0E0"/>
<path d="M96.9302 319.286C95.1302 316.232 92.1702 318.889 92.1702 318.889C92.5902 313.106 87.3702 309.157 87.3702 309.157C87.3702 309.157 93.4402 309.157 94.2802 303.262C95.1202 297.368 92.1702 300.107 89.3902 300.066C86.6102 300.025 83.7002 308.291 87.3902 312.944C91.0802 317.596 90.0702 325.536 81.6002 333.171C79.5747 335.101 78.0553 337.516 77.1802 340.195C77.8202 333.181 78.1802 323.297 76.1802 316.7C72.7402 305.502 79.3002 302.448 81.1802 296.869C83.0602 291.291 76.1802 286.526 76.1802 286.526C76.1802 286.526 82.6902 283.472 79.5102 280.062C76.3302 276.652 69.7702 277.079 69.7702 281.589C69.7702 286.099 74.2202 287.819 74.2202 287.819C74.2202 287.819 79.3002 293.205 79.3002 295.963C79.3002 298.722 74.2202 304.8 74.2202 304.8C74.2202 304.8 76.5502 299.638 71.8902 299.424C67.2302 299.211 65.7502 305.451 67.6602 308.251C69.5702 311.05 72.7402 308.688 72.7402 308.688C72.939 311.956 73.4243 315.2 74.1902 318.38C74.6702 319.998 74.4502 326.32 74.0502 332.896C73.1658 330.522 71.752 328.389 69.9202 326.666C61.4502 319.031 60.4702 311.091 64.1402 306.438C67.8102 301.786 64.9002 293.52 62.1402 293.561C59.3802 293.602 56.3902 290.853 57.2402 296.747C58.0902 302.641 64.1602 302.652 64.1602 302.652C64.1602 302.652 58.9302 306.601 59.3502 312.384C59.3502 312.384 56.3502 309.757 54.5902 312.781C51.3802 318.166 58.8302 321.505 60.0802 318.889C60.0802 318.889 75.8702 330.27 72.0802 346.649L72.9602 347.983C72.8502 349.306 72.7802 350.101 72.7802 350.101L74.0102 349.561L75.4202 351.668C75.3709 354.049 75.4912 356.431 75.7802 358.794L79.5502 353.114C75.7402 336.734 91.5502 325.353 91.5502 325.353C92.7002 328.02 100.14 324.671 96.9302 319.286Z" fill="#E0E0E0"/>
<path opacity="0.2" d="M96.9302 319.286C95.1302 316.232 92.1702 318.889 92.1702 318.889C92.5902 313.106 87.3702 309.157 87.3702 309.157C87.3702 309.157 93.4402 309.157 94.2802 303.262C95.1202 297.368 92.1702 300.107 89.3902 300.066C86.6102 300.025 83.7002 308.291 87.3902 312.944C91.0802 317.596 90.0702 325.536 81.6002 333.171C79.5747 335.101 78.0553 337.516 77.1802 340.195C77.8202 333.181 78.1802 323.297 76.1802 316.7C72.7402 305.502 79.3002 302.448 81.1802 296.869C83.0602 291.291 76.1802 286.526 76.1802 286.526C76.1802 286.526 82.6902 283.472 79.5102 280.062C76.3302 276.652 69.7702 277.079 69.7702 281.589C69.7702 286.099 74.2202 287.819 74.2202 287.819C74.2202 287.819 79.3002 293.205 79.3002 295.963C79.3002 298.722 74.2202 304.8 74.2202 304.8C74.2202 304.8 76.5502 299.638 71.8902 299.424C67.2302 299.211 65.7502 305.451 67.6602 308.251C69.5702 311.05 72.7402 308.688 72.7402 308.688C72.939 311.956 73.4243 315.2 74.1902 318.38C74.6702 319.998 74.4502 326.32 74.0502 332.896C73.1658 330.522 71.752 328.389 69.9202 326.666C61.4502 319.031 60.4702 311.091 64.1402 306.438C67.8102 301.786 64.9002 293.52 62.1402 293.561C59.3802 293.602 56.3902 290.853 57.2402 296.747C58.0902 302.641 64.1602 302.652 64.1602 302.652C64.1602 302.652 58.9302 306.601 59.3502 312.384C59.3502 312.384 56.3502 309.757 54.5902 312.781C51.3802 318.166 58.8302 321.505 60.0802 318.889C60.0802 318.889 75.8702 330.27 72.0802 346.649L72.9602 347.983C72.8502 349.306 72.7802 350.101 72.7802 350.101L74.0102 349.561L75.4202 351.668C75.3709 354.049 75.4912 356.431 75.7802 358.794L79.5502 353.114C75.7402 336.734 91.5502 325.353 91.5502 325.353C92.7002 328.02 100.14 324.671 96.9302 319.286Z" fill="#E0E0E0"/>
<path d="M93.84 389.161H57.67L53.77 348.848H97.75L93.84 389.161Z" fill="#E6E6E6"/>
<path d="M99.6701 344.4H51.8301V353.297H99.6701V344.4Z" fill="#F0F0F0"/>
<path d="M250 435.256C357.083 435.256 443.89 430.097 443.89 423.732C443.89 417.368 357.083 412.208 250 412.208C142.918 412.208 56.1101 417.368 56.1101 423.732C56.1101 430.097 142.918 435.256 250 435.256Z" fill="#F5F5F5"/>
<path d="M410.45 391.645C410.6 390.627 414.1 366.022 407.09 357.532C406.392 356.637 405.508 355.911 404.502 355.406C403.496 354.901 402.392 354.629 401.27 354.61C387.11 354.274 385.18 365.808 385.16 365.961L386.83 366.225C386.89 365.808 388.57 356.045 401.23 356.33C402.112 356.343 402.98 356.556 403.771 356.954C404.561 357.352 405.255 357.925 405.8 358.631C412.32 366.541 408.8 391.136 408.8 391.39L410.45 391.645Z" fill="#4F46E5"/>
<path d="M411.3 390.525L412.99 390.464C412.99 390.24 412.43 367.814 423.28 363.182C433.92 358.652 438.71 367.976 438.9 368.373L440.41 367.6C440.36 367.488 434.74 356.402 422.63 361.604C410.71 366.684 411.27 389.548 411.3 390.525Z" fill="#4F46E5"/>
<path d="M411.25 392.286C411.25 391.93 411.36 356.463 418.15 346.089C424.67 336.123 435.15 340.816 435.64 340.999L436.33 339.432C436.21 339.381 424.07 333.924 416.74 345.112C409.67 355.913 409.57 390.78 409.57 392.266L411.25 392.286Z" fill="#4F46E5"/>
<path d="M399.24 355.465C399.24 355.465 405.42 357.786 403.58 363.253C401.74 368.72 382.21 377.739 382.21 377.739C382.21 377.739 374.02 370.104 381.54 357.685C389.06 345.265 399.07 351.546 399.24 355.465Z" fill="#4F46E5"/>
<path d="M418.45 344.216C418.45 344.216 414.07 343.738 414.45 341.02C414.83 338.302 431.51 331.298 441.36 342.618C441.36 342.618 435.05 353.653 425.93 353.816C416.81 353.979 418.45 344.216 418.45 344.216Z" fill="#4F46E5"/>
<path d="M423 362.408C423 362.408 420 359.924 423.24 358.713C426.48 357.501 442.54 357.837 442.7 373.983C442.7 373.983 424.03 377.149 421.7 370.99C419.37 364.831 423 362.408 423 362.408Z" fill="#4F46E5"/>
<path opacity="0.2" d="M399.24 355.465C399.24 355.465 405.42 357.786 403.58 363.253C401.74 368.72 382.21 377.739 382.21 377.739C382.21 377.739 374.02 370.104 381.54 357.685C389.06 345.265 399.07 351.546 399.24 355.465Z" fill="black"/>
<path opacity="0.2" d="M418.45 344.216C418.45 344.216 414.07 343.738 414.45 341.02C414.83 338.302 431.51 331.298 441.36 342.618C441.36 342.618 435.05 353.653 425.93 353.816C416.81 353.979 418.45 344.216 418.45 344.216Z" fill="black"/>
<path opacity="0.2" d="M423 362.408C423 362.408 420 359.924 423.24 358.713C426.48 357.501 442.54 357.837 442.7 373.983C442.7 373.983 424.03 377.149 421.7 370.99C419.37 364.831 423 362.408 423 362.408Z" fill="black"/>
<path d="M395.92 424.577H424.9L428.02 392.286H392.8L395.92 424.577Z" fill="#4F46E5"/>
<path opacity="0.5" d="M395.92 424.577H424.9L428.02 392.286H392.8L395.92 424.577Z" fill="white"/>
<path d="M391.25 395.839H429.57V388.713H391.25V395.839Z" fill="#4F46E5"/>
<path opacity="0.2" d="M391.25 395.839H429.57V388.713H391.25V395.839Z" fill="white"/>
<path d="M363.12 401.428L334.31 398.547V357.318H322.89V398.527L294 401.428C292.615 401.567 291.329 402.225 290.394 403.275C289.459 404.325 288.941 405.691 288.94 407.108V411.516H368.22V407.108C368.221 405.684 367.697 404.311 366.754 403.26C365.81 402.209 364.513 401.555 363.12 401.428V401.428Z" fill="#263238"/>
<path opacity="0.2" d="M363.12 401.428L334.31 398.547V357.318H322.89V398.527L294 401.428C292.615 401.567 291.329 402.225 290.394 403.275C289.459 404.325 288.941 405.691 288.94 407.108V411.516H368.22V407.108C368.221 405.684 367.697 404.311 366.754 403.26C365.81 402.209 364.513 401.555 363.12 401.428V401.428Z" fill="white"/>
<path d="M291.95 424.587C296.076 424.587 299.42 421.183 299.42 416.983C299.42 412.783 296.076 409.378 291.95 409.378C287.824 409.378 284.48 412.783 284.48 416.983C284.48 421.183 287.824 424.587 291.95 424.587Z" fill="#263238"/>
<path d="M365.14 424.587C369.265 424.587 372.61 421.183 372.61 416.983C372.61 412.783 369.265 409.378 365.14 409.378C361.014 409.378 357.67 412.783 357.67 416.983C357.67 421.183 361.014 424.587 365.14 424.587Z" fill="#263238"/>
<path d="M320.93 329.466H336.28V361.97C336.28 363.085 335.845 364.155 335.07 364.943C334.296 365.732 333.245 366.175 332.15 366.175H325.06C323.965 366.175 322.914 365.732 322.14 364.943C321.365 364.155 320.93 363.085 320.93 361.97V329.466V329.466Z" fill="#263238"/>
<path opacity="0.3" d="M320.93 329.466H336.28V361.97C336.28 363.085 335.845 364.155 335.07 364.943C334.296 365.732 333.245 366.175 332.15 366.175H325.06C323.965 366.175 322.914 365.732 322.14 364.943C321.365 364.155 320.93 363.085 320.93 361.97V329.466V329.466Z" fill="white"/>
<path d="M355.9 265.036C355.9 265.036 358.08 320.008 343.04 329.466H360.21C360.21 329.466 373.51 310.745 369.75 265.036H355.9Z" fill="#263238"/>
<path opacity="0.3" d="M355.9 265.036C355.9 265.036 358.08 320.008 343.04 329.466H360.21C360.21 329.466 373.51 310.745 369.75 265.036H355.9Z" fill="white"/>
<path d="M366.05 333.68H289.13V326.869C289.13 325.52 289.657 324.225 290.595 323.27C291.532 322.316 292.804 321.779 294.13 321.779H361.05C362.376 321.779 363.648 322.316 364.586 323.27C365.523 324.225 366.05 325.52 366.05 326.869V333.68Z" fill="#263238"/>
<path d="M287.93 333.68H367.24C368.35 333.68 369.25 332.764 369.25 331.634V329.781C369.25 328.651 368.35 327.735 367.24 327.735H287.93C286.82 327.735 285.92 328.651 285.92 329.781V331.634C285.92 332.764 286.82 333.68 287.93 333.68Z" fill="#263238"/>
<path opacity="0.6" d="M287.93 333.68H367.24C368.35 333.68 369.25 332.764 369.25 331.634V329.781C369.25 328.651 368.35 327.735 367.24 327.735H287.93C286.82 327.735 285.92 328.651 285.92 329.781V331.634C285.92 332.764 286.82 333.68 287.93 333.68Z" fill="white"/>
<path d="M373.96 235.565H346.46C338.408 235.565 331.88 242.21 331.88 250.408V261.361C331.88 269.559 338.408 276.204 346.46 276.204H373.96C382.012 276.204 388.54 269.559 388.54 261.361V250.408C388.54 242.21 382.012 235.565 373.96 235.565Z" fill="#263238"/>
<path d="M263.05 190.651L257.56 175.921C257.56 175.921 259.92 173.701 258.3 171.452C256.68 169.202 246.56 162.88 244.72 163.99C242.88 165.099 238.77 169.293 240.99 171.625C243.21 173.956 252.99 177.834 252.99 177.834L257.85 197.176L263.05 190.651Z" fill="#E4897B"/>
<path d="M301.38 218.656C301.38 218.656 276.38 213.434 273.71 212.182C271.04 210.93 261 180.97 261 180.97L253.29 184.635C253.29 184.635 259.49 214.706 265.83 221.853C272.17 228.999 299.23 235.087 299.23 235.087L301.38 218.656Z" fill="#4F46E5"/>
<path opacity="0.2" d="M299.17 235.056L298.71 234.944C297.35 234.629 293.08 233.611 288.01 232.094C279.78 229.661 269.4 225.986 265.78 221.863C259.45 214.737 253.24 184.635 253.24 184.635L260.94 180.97C260.94 180.97 270.99 210.94 273.71 212.182C276.43 213.424 301.38 218.656 301.38 218.656L299.17 235.056Z" fill="black"/>
<path d="M261.07 180.379L262.66 183.505L252.76 186.976L253.14 183.159L261.07 180.379Z" fill="#4F46E5"/>
<path opacity="0.2" d="M299.36 234.639C297.98 234.435 293.65 233.753 288.47 232.603C291.42 227.411 300.06 224.744 300.06 224.744L299.36 234.639Z" fill="black"/>
<path d="M336.58 197.909C336.58 197.909 338.05 211.988 332.93 215.449C327.81 218.911 302.6 214.859 299.74 209.189C296.88 203.519 307.64 188.147 307.64 188.147L336.58 197.909Z" fill="#263238"/>
<path d="M234.59 383.165L241.17 384.784L244.5 375.54L247.52 367.131L240.03 363.884L237.15 374.084L234.59 383.165Z" fill="#E4897B"/>
<path opacity="0.2" d="M237.15 374.084L244.5 375.54L247.52 367.131L240.03 363.884L237.15 374.084Z" fill="black"/>
<path d="M237.81 369.208L246.93 372.659C246.93 372.659 271.26 310.734 276.26 310.561C281.26 310.388 332.17 334.169 344.93 320.955C357.69 307.741 339.24 275.878 339.24 275.878C339.24 275.878 308.55 271.419 306.24 278.474C305.671 280.553 305.237 282.669 304.94 284.806C304.59 286.964 304.35 288.776 304.35 288.776C303.4 288.532 272.59 280.439 260.45 288.776C248.1 297.256 237.81 369.208 237.81 369.208Z" fill="#4F46E5"/>
<path opacity="0.6" d="M237.81 369.208L246.93 372.659C246.93 372.659 271.26 310.734 276.26 310.561C281.26 310.388 332.17 334.169 344.93 320.955C357.69 307.741 339.24 275.878 339.24 275.878C339.24 275.878 308.55 271.419 306.24 278.474C305.671 280.553 305.237 282.669 304.94 284.806C304.59 286.964 304.35 288.776 304.35 288.776C303.4 288.532 272.59 280.439 260.45 288.776C248.1 297.256 237.81 369.208 237.81 369.208Z" fill="white"/>
<path d="M290.27 409.582L296.82 407.882L295.56 398.303L294.39 389.528L286.29 390.271L288.39 400.502L290.27 409.582Z" fill="#E4897B"/>
<path opacity="0.2" d="M288.44 400.705L295.6 398.486L294.41 389.619L286.3 390.322L288.44 400.705Z" fill="black"/>
<path d="M250.7 369.218L237.41 364.627L236.84 370.165L246.92 373.789L250.7 369.218Z" fill="#4F46E5"/>
<path d="M322.89 324.09C322.89 324.09 320.81 324.141 288.62 322.614C288.62 322.614 293.43 363.579 296.06 394.251L286.43 395.921C286.43 395.921 263.43 330.249 263.68 319.815C263.93 309.38 275.68 306.326 275.68 306.326C275.68 306.326 298.61 319.815 322.89 324.09Z" fill="#4F46E5"/>
<path opacity="0.6" d="M322.89 324.09C322.89 324.09 320.81 324.141 288.62 322.614C288.62 322.614 293.43 363.579 296.06 394.251L286.43 395.921C286.43 395.921 263.43 330.249 263.68 319.815C263.93 309.38 275.68 306.326 275.68 306.326C275.68 306.326 298.61 319.815 322.89 324.09Z" fill="white"/>
<path opacity="0.1" d="M322.89 324.09C322.89 324.09 320.81 324.141 288.62 322.614C288.62 322.614 293.43 363.579 296.06 394.251L286.43 395.921C286.43 395.921 263.43 330.249 263.68 319.815C263.93 309.38 275.68 306.326 275.68 306.326C275.68 306.326 298.61 319.815 322.89 324.09Z" fill="black"/>
<path d="M297.46 391.279L284.23 392.816L286.79 398.089L297.5 396.694L297.46 391.279Z" fill="#4F46E5"/>
<path opacity="0.1" d="M304.35 288.776L322.3 292.583C322.3 292.583 312.38 287.005 304.94 284.806C304.59 286.964 304.35 288.776 304.35 288.776Z" fill="black"/>
<path d="M338.5 271.022L339.24 275.878L306.24 278.474L305.37 272.722L338.5 271.022Z" fill="#263238"/>
<path opacity="0.2" d="M338.5 271.022L339.24 275.878L306.24 278.474L305.37 272.722L338.5 271.022Z" fill="black"/>
<path d="M328.092 279.158L329.723 278.987L328.869 270.531L327.238 270.702L328.092 279.158Z" fill="#4F46E5"/>
<path d="M313.431 278.313L320.656 277.84L320.304 272.263L313.079 272.736L313.431 278.313Z" fill="white"/>
<path d="M307.844 280.046L309.476 279.875L308.622 271.42L306.99 271.591L307.844 280.046Z" fill="#4F46E5"/>
<path opacity="0.6" d="M328.092 279.158L329.723 278.987L328.869 270.531L327.238 270.702L328.092 279.158Z" fill="white"/>
<path opacity="0.6" d="M307.844 280.046L309.476 279.875L308.622 271.42L306.99 271.591L307.844 280.046Z" fill="white"/>
<path d="M300.78 218.198C306.961 219.936 313.376 220.655 319.78 220.326C330.38 219.776 343 224.978 343 224.978L338.46 270.992L305.32 272.692C305.32 272.692 294.23 234.303 300.78 218.198Z" fill="#4F46E5"/>
<path d="M306.11 192.209C306.11 192.209 307.97 169.874 326.31 177.957C349.31 188.137 331.03 215.358 319.78 209.779C308.53 204.201 306.11 192.209 306.11 192.209Z" fill="#263238"/>
<path opacity="0.2" d="M311.25 221.578L311.78 234.201L315.89 228.266C315.89 228.266 314.42 242.223 315.28 249.827C315.28 249.827 316.07 236.196 317.93 228.266L322.3 234.201L328.57 221.659C328.57 221.659 318.42 217.944 311.25 221.578Z" fill="black"/>
<path d="M316.93 223.96L326.42 221.232C320.57 217.16 323.52 207.998 323.52 207.998L314.12 211.357C314.552 212.687 314.887 214.048 315.12 215.429C316.12 221.395 313.46 221.873 313.46 221.873L316.93 223.96Z" fill="#E4897B"/>
<path opacity="0.2" d="M314.12 211.306C314.552 212.636 314.886 213.998 315.12 215.378C319.62 213.536 323.51 207.927 323.51 207.927L314.12 211.306Z" fill="black"/>
<path d="M320.26 182.68C311.93 180.807 308.26 184.716 305.76 193.328C302.63 204.068 303.32 212.355 314.23 212.375C329.05 212.395 334.08 185.795 320.26 182.68Z" fill="#E4897B"/>
<path d="M311.24 194.072C310.302 195.187 309.234 196.182 308.06 197.034C308.228 197.442 308.504 197.794 308.857 198.051C309.21 198.308 309.627 198.46 310.06 198.49L311.24 194.072Z" fill="#DE5753"/>
<path d="M316.49 194.52C316.32 195.212 316.55 195.873 317.01 195.985C317.47 196.097 317.96 195.629 318.13 194.967C318.3 194.306 318.07 193.624 317.61 193.501C317.15 193.379 316.66 193.827 316.49 194.52Z" fill="#263238"/>
<path d="M317.79 193.552L316.46 192.595C316.46 192.595 316.89 194.051 317.79 193.552Z" fill="#263238"/>
<path d="M308.07 192.259C307.9 192.952 308.13 193.613 308.59 193.725C309.05 193.837 309.59 193.369 309.71 192.707C309.83 192.046 309.65 191.364 309.19 191.241C308.73 191.119 308.24 191.567 308.07 192.259Z" fill="#263238"/>
<path d="M309.37 191.292L308 190.366C308 190.366 308.47 191.781 309.37 191.292Z" fill="#263238"/>
<path d="M321.18 191.15C321.113 191.151 321.047 191.134 320.988 191.1C320.93 191.066 320.882 191.016 320.85 190.956C320.52 190.433 320.08 189.991 319.561 189.663C319.042 189.336 318.457 189.13 317.85 189.063C317.754 189.05 317.667 189.001 317.606 188.926C317.545 188.85 317.514 188.754 317.52 188.656C317.53 188.558 317.577 188.467 317.652 188.404C317.727 188.342 317.823 188.311 317.92 188.32C318.657 188.392 319.367 188.638 319.995 189.037C320.623 189.436 321.152 189.978 321.54 190.62C321.562 190.664 321.576 190.711 321.58 190.76C321.584 190.809 321.578 190.858 321.563 190.904C321.548 190.951 321.524 190.994 321.493 191.031C321.461 191.068 321.423 191.098 321.38 191.119C321.316 191.145 321.248 191.155 321.18 191.15Z" fill="#263238"/>
<path d="M311.87 187.312C311.802 187.311 311.736 187.29 311.68 187.251C311.188 187.011 310.65 186.886 310.105 186.886C309.56 186.886 309.022 187.011 308.53 187.251C308.487 187.269 308.44 187.278 308.394 187.277C308.347 187.277 308.301 187.267 308.258 187.248C308.215 187.229 308.176 187.201 308.144 187.167C308.112 187.133 308.087 187.092 308.07 187.047C308.052 187.003 308.043 186.955 308.043 186.906C308.044 186.858 308.054 186.81 308.072 186.766C308.091 186.721 308.118 186.681 308.152 186.647C308.186 186.613 308.226 186.587 308.27 186.569C308.867 186.286 309.521 186.146 310.179 186.16C310.838 186.174 311.485 186.342 312.07 186.65C312.11 186.676 312.145 186.71 312.172 186.75C312.2 186.789 312.219 186.834 312.229 186.881C312.24 186.929 312.24 186.978 312.232 187.025C312.224 187.073 312.206 187.119 312.18 187.159C312.144 187.208 312.098 187.248 312.044 187.275C311.989 187.301 311.93 187.314 311.87 187.312V187.312Z" fill="#263238"/>
<path d="M326.25 199.009C326.25 199.009 323.87 191.17 325.63 185.927C325.63 185.927 310.63 175.35 306.11 192.208C306.11 192.208 307.78 176.715 322.17 179.606C336.56 182.497 331.85 203.783 323.08 208.466C323.08 208.466 327.71 203.905 326.25 199.009Z" fill="#263238"/>
<path d="M324.5 200.546C324.793 199.583 325.449 198.777 326.324 198.306C327.2 197.834 328.223 197.736 329.17 198.032C331.69 198.897 331.74 204.567 325.05 204.414C324.08 204.343 323.76 203.315 324.5 200.546Z" fill="#E4897B"/>
<path d="M308.55 201.706C308.772 202.746 308.919 203.801 308.99 204.862H309.53C312.02 205.076 313.24 204.333 313.84 203.457C314.127 203.022 314.305 202.523 314.36 202.002C314.402 201.708 314.402 201.41 314.36 201.116C312.755 201.679 311.049 201.884 309.36 201.717C308.88 201.747 308.55 201.706 308.55 201.706Z" fill="#263238"/>
<path d="M309.4 201.768L309.55 202.694C311.89 202.887 313.55 202.694 314.36 202.053C314.402 201.759 314.402 201.461 314.36 201.167C312.767 201.724 311.076 201.929 309.4 201.768V201.768Z" fill="white"/>
<path d="M309.53 204.913C312.02 205.127 313.24 204.384 313.84 203.508C312.895 203.446 311.948 203.552 311.04 203.824C310.436 204.016 309.908 204.397 309.53 204.913Z" fill="#DE5753"/>
<path d="M320.29 183.362C320.29 183.362 320.61 198.052 329.29 199.823C337.97 201.594 328.49 180.929 328.49 180.929C328.49 180.929 315.59 172.358 306.99 178.404C298.39 184.451 306.13 192.209 306.13 192.209C306.13 192.209 307.92 181.296 320.29 183.362Z" fill="#263238"/>
<path d="M323.6 196.81C323.541 196.809 323.485 196.788 323.44 196.749C317.28 191.822 320.32 182.395 320.35 182.303C320.373 182.24 320.419 182.187 320.478 182.157C320.538 182.127 320.606 182.121 320.67 182.141C320.732 182.164 320.783 182.211 320.811 182.272C320.839 182.333 320.843 182.403 320.82 182.466C320.82 182.558 317.87 191.628 323.75 196.352C323.774 196.375 323.793 196.402 323.806 196.433C323.819 196.464 323.826 196.497 323.826 196.53C323.826 196.563 323.819 196.596 323.806 196.627C323.793 196.658 323.774 196.685 323.75 196.708C323.733 196.735 323.712 196.758 323.686 196.775C323.66 196.793 323.631 196.805 323.6 196.81Z" fill="#263238"/>
<path d="M331.8 202.837C330.7 205.829 327.87 207.509 325.48 206.603C323.09 205.697 322.05 202.531 323.15 199.538C324.25 196.545 327.08 194.866 329.47 195.782C331.86 196.698 332.9 199.854 331.8 202.837Z" fill="#4F46E5"/>
<path opacity="0.4" d="M331.8 202.837C330.7 205.829 327.87 207.509 325.48 206.603C323.09 205.697 322.05 202.531 323.15 199.538C324.25 196.545 327.08 194.866 329.47 195.782C331.86 196.698 332.9 199.854 331.8 202.837Z" fill="black"/>
<path d="M329 197.94C329 197.94 332.59 181.581 324.54 177.295C325.457 177.417 326.365 177.597 327.26 177.834C328.26 178.14 334.73 184.777 331.48 199.477L329 197.94Z" fill="#4F46E5"/>
<path opacity="0.2" d="M329 197.94C329 197.94 332.59 181.581 324.54 177.295C325.457 177.417 326.365 177.597 327.26 177.834C328.26 178.14 334.73 184.777 331.48 199.477L329 197.94Z" fill="black"/>
<path d="M314 207.306L313.4 207.214L313.56 206.196C317.976 206.887 322.489 205.914 326.25 203.458L326.84 204.272C323.058 206.823 318.499 207.9 314 207.306V207.306Z" fill="#4F46E5"/>
<g opacity="0.2">
<path opacity="0.2" d="M314 207.306L313.4 207.214L313.56 206.196C317.976 206.887 322.489 205.914 326.25 203.458L326.84 204.272C323.058 206.823 318.499 207.9 314 207.306V207.306Z" fill="black"/>
</g>
<path d="M331.46 202.429C330.74 204.404 328.86 205.483 327.29 204.913C325.72 204.343 325.02 202.226 325.75 200.251C326.48 198.276 328.35 197.197 329.92 197.767C331.49 198.337 332.19 200.454 331.46 202.429Z" fill="#4F46E5"/>
<path d="M313.06 207.672L312.25 207.56C312.108 207.541 311.972 207.494 311.849 207.421C311.725 207.349 311.617 207.252 311.531 207.136C311.444 207.021 311.381 206.889 311.345 206.749C311.309 206.608 311.3 206.462 311.32 206.318C311.337 206.173 311.383 206.033 311.453 205.906C311.524 205.78 311.619 205.668 311.733 205.579C311.846 205.49 311.976 205.425 312.115 205.388C312.253 205.35 312.398 205.341 312.54 205.361L313.34 205.473C313.625 205.514 313.883 205.667 314.059 205.899C314.235 206.131 314.314 206.424 314.28 206.715V206.715C314.24 207.005 314.09 207.268 313.862 207.447C313.634 207.626 313.346 207.707 313.06 207.672V207.672Z" fill="#4F46E5"/>
<path opacity="0.4" d="M313.06 207.672L312.25 207.56C312.108 207.541 311.972 207.494 311.849 207.421C311.725 207.349 311.617 207.252 311.531 207.136C311.444 207.021 311.381 206.889 311.345 206.749C311.309 206.608 311.3 206.462 311.32 206.318C311.337 206.173 311.383 206.033 311.453 205.906C311.524 205.78 311.619 205.668 311.733 205.579C311.846 205.49 311.976 205.425 312.115 205.388C312.253 205.35 312.398 205.341 312.54 205.361L313.34 205.473C313.625 205.514 313.883 205.667 314.059 205.899C314.235 206.131 314.314 206.424 314.28 206.715V206.715C314.24 207.005 314.09 207.268 313.862 207.447C313.634 207.626 313.346 207.707 313.06 207.672V207.672Z" fill="black"/>
<path d="M323.87 217.699L317.93 223.634L320.31 230.923L328.57 221.659L323.87 217.699Z" fill="#4F46E5"/>
<path d="M315.28 218.941L316.24 223.512L313.17 229.976L311.25 221.578L315.28 218.941Z" fill="#4F46E5"/>
<path d="M322.6 222.85L326.05 209.993C326.05 209.993 324.38 206.797 324.74 206.125C325.1 205.453 326.9 196.82 328.18 195.884C329.46 194.947 334.73 196.545 335.26 197.421C335.79 198.296 330.21 209.993 330.21 209.993L328.21 223.929L322.6 222.85Z" fill="#E4897B"/>
<path d="M343 224.978C352.5 234.873 333.47 257.289 322.56 256.332C311.65 255.375 322.84 214.737 322.84 214.737L329.84 215.908C329.84 215.908 327.39 233.499 328.16 234.873C328.93 236.247 339.85 221.69 343 224.978Z" fill="#4F46E5"/>
<path opacity="0.2" d="M343 224.978C352.5 234.873 333.47 257.289 322.56 256.332C311.65 255.375 322.84 214.737 322.84 214.737L329.84 215.908C329.84 215.908 327.39 233.499 328.16 234.873C328.93 236.247 339.85 221.69 343 224.978Z" fill="black"/>
<path d="M322.3 213.464L321.27 216.824L331 217.699V214.767L322.3 213.464Z" fill="#4F46E5"/>
<path opacity="0.6" d="M307.55 240.044H303.61C303.173 240.044 302.82 240.404 302.82 240.849V248.423C302.82 248.867 303.173 249.227 303.61 249.227H307.55C307.986 249.227 308.34 248.867 308.34 248.423V240.849C308.34 240.404 307.986 240.044 307.55 240.044Z" fill="white"/>
<path opacity="0.2" d="M307.63 240.655H303.15V246.896H307.63V240.655Z" fill="black"/>
<path d="M305.99 237.835H305V241.51H305.99V237.835Z" fill="#263238"/>
<path d="M223.71 396.175C224.707 395.703 225.782 395.423 226.88 395.35V395.35C226.88 395.35 230.68 393.08 234.44 384.234H238.67C239.387 384.239 240.085 384.47 240.669 384.894C241.252 385.319 241.693 385.917 241.93 386.606C242 386.795 242.041 386.994 242.05 387.196C242 388.237 241.89 389.274 241.72 390.301C241.101 393.743 240.276 397.142 239.25 400.481L238.53 400.298L239.83 393.864C240.27 391.686 238.01 393.793 236.97 395.992C235.93 398.191 234.32 400.42 229.64 399.331C224.19 397.967 222 397.173 223.71 396.175Z" fill="#4F46E5"/>
<path d="M235.21 381.923C235.21 381.923 229.92 393.182 226.88 395.351C226.88 395.351 230.96 397.824 235.21 392.297C240.7 385.171 242.05 387.156 242.05 387.156C241.935 385.926 241.711 384.71 241.38 383.521C240.56 381.241 235.21 381.923 235.21 381.923Z" fill="#E4897B"/>
<path d="M281.93 422.999C282.794 422.306 283.773 421.775 284.82 421.432V421.432C284.82 421.432 287.98 418.306 289.57 408.808L293.68 407.79C294.378 407.627 295.108 407.686 295.771 407.959C296.435 408.232 297 408.706 297.39 409.317C297.502 409.487 297.59 409.672 297.65 409.867C297.85 410.875 297.987 411.895 298.06 412.921C298.252 416.4 298.235 419.888 298.01 423.366H297.27L297.04 416.81C296.95 414.58 295.26 417.176 294.75 419.569C294.24 421.961 293.21 424.496 288.41 424.567C282.82 424.628 280.5 424.384 281.93 422.999Z" fill="#4F46E5"/>
<path d="M289.78 406.375C289.78 406.375 287.27 418.591 284.78 421.432C284.78 421.432 289.32 422.857 292.16 416.474C295.84 408.228 297.61 409.837 297.61 409.837C297.214 408.67 296.716 407.542 296.12 406.467C294.82 404.431 289.78 406.375 289.78 406.375Z" fill="#E4897B"/>
<path d="M382.76 159.979H347.85C345.05 159.979 342.78 162.29 342.78 165.14V180.339C342.78 183.189 345.05 185.5 347.85 185.5H382.76C385.56 185.5 387.83 183.189 387.83 180.339V165.14C387.83 162.29 385.56 159.979 382.76 159.979Z" fill="#4F46E5"/>
<path d="M354.85 182.589L344.33 197.146L361.3 183.566L354.85 182.589Z" fill="#4F46E5"/>
<path d="M355.24 172.734C355.242 173.033 355.157 173.326 354.995 173.575C354.833 173.824 354.602 174.019 354.331 174.134C354.06 174.25 353.762 174.28 353.474 174.223C353.186 174.165 352.921 174.021 352.714 173.81C352.506 173.598 352.365 173.329 352.308 173.036C352.251 172.743 352.281 172.439 352.395 172.163C352.508 171.887 352.699 171.652 352.944 171.487C353.189 171.323 353.476 171.236 353.77 171.238C354.16 171.238 354.534 171.395 354.809 171.676C355.085 171.957 355.24 172.337 355.24 172.734V172.734Z" fill="white"/>
<path d="M362.93 172.734C362.932 173.033 362.847 173.326 362.685 173.575C362.523 173.824 362.292 174.019 362.021 174.134C361.75 174.25 361.452 174.28 361.164 174.223C360.876 174.165 360.611 174.021 360.403 173.81C360.196 173.598 360.055 173.329 359.998 173.036C359.941 172.743 359.971 172.439 360.085 172.163C360.198 171.887 360.389 171.652 360.634 171.487C360.879 171.323 361.166 171.236 361.46 171.238C361.85 171.238 362.224 171.395 362.499 171.676C362.775 171.957 362.93 172.337 362.93 172.734V172.734Z" fill="white"/>
<path d="M370.62 172.734C370.622 173.033 370.537 173.326 370.375 173.575C370.213 173.824 369.982 174.019 369.711 174.134C369.44 174.25 369.142 174.28 368.854 174.223C368.566 174.165 368.301 174.021 368.094 173.81C367.886 173.598 367.745 173.329 367.688 173.036C367.631 172.743 367.661 172.439 367.775 172.163C367.888 171.887 368.079 171.652 368.324 171.487C368.569 171.323 368.857 171.236 369.15 171.238C369.54 171.238 369.914 171.395 370.19 171.676C370.465 171.957 370.62 172.337 370.62 172.734V172.734Z" fill="white"/>
<path d="M378.31 172.734C378.312 173.033 378.227 173.326 378.065 173.575C377.903 173.824 377.672 174.019 377.401 174.134C377.13 174.25 376.832 174.28 376.544 174.223C376.256 174.165 375.991 174.021 375.784 173.81C375.576 173.598 375.435 173.329 375.378 173.036C375.321 172.743 375.351 172.439 375.465 172.163C375.578 171.887 375.769 171.652 376.014 171.487C376.259 171.323 376.546 171.236 376.84 171.238C377.23 171.238 377.604 171.395 377.88 171.676C378.155 171.957 378.31 172.337 378.31 172.734V172.734Z" fill="white"/>
<path d="M251.674 147.944L226.767 134.286C226.096 133.918 225.259 134.174 224.898 134.857L216.949 149.878C216.588 150.561 216.839 151.413 217.51 151.781L242.416 165.439C243.087 165.806 243.924 165.551 244.286 164.868L252.234 149.847C252.595 149.164 252.345 148.312 251.674 147.944Z" fill="#4F46E5"/>
<path opacity="0.7" d="M251.674 147.944L226.767 134.286C226.096 133.918 225.259 134.174 224.898 134.857L216.949 149.878C216.588 150.561 216.839 151.413 217.51 151.781L242.416 165.439C243.087 165.806 243.924 165.551 244.286 164.868L252.234 149.847C252.595 149.164 252.345 148.312 251.674 147.944Z" fill="white"/>
<path opacity="0.2" d="M224.25 136.096L232 150.908C232.298 151.473 232.753 151.934 233.308 152.235C233.864 152.536 234.494 152.662 235.12 152.598L251.33 150.969L234.83 153.443C234.109 153.552 233.373 153.42 232.731 153.068C232.09 152.716 231.577 152.162 231.27 151.489L224.25 136.096Z" fill="black"/>
<path d="M205.34 133.358C205.61 127.698 209.73 116.286 214.74 112.794C219.75 109.303 216.45 114.138 216.45 114.138C216.45 114.138 221.2 109.435 223.7 109.578C226.2 109.72 223.7 112.632 223.7 112.632C223.7 112.632 228.85 109.404 231.22 109.578C233.59 109.751 231.22 112.54 231.22 112.54C231.22 112.54 235.44 109.486 237.15 110.921C238.86 112.357 215.26 128.227 212.63 134.681C210 141.136 205.07 139.069 205.34 133.358Z" fill="#4F46E5"/>
<path opacity="0.4" d="M205.34 133.358C205.61 127.698 209.73 116.286 214.74 112.794C219.75 109.303 216.45 114.138 216.45 114.138C216.45 114.138 221.2 109.435 223.7 109.578C226.2 109.72 223.7 112.632 223.7 112.632C223.7 112.632 228.85 109.404 231.22 109.578C233.59 109.751 231.22 112.54 231.22 112.54C231.22 112.54 235.44 109.486 237.15 110.921C238.86 112.357 215.26 128.227 212.63 134.681C210 141.136 205.07 139.069 205.34 133.358Z" fill="white"/>
<path d="M225.62 132.503L228.77 134.539C228.82 134.57 228.858 134.618 228.877 134.674C228.897 134.73 228.898 134.791 228.88 134.848C228.861 134.904 228.824 134.953 228.776 134.985C228.727 135.018 228.668 135.033 228.61 135.028L225.3 134.763L225.58 137.349C225.588 137.41 225.577 137.472 225.547 137.525C225.518 137.579 225.472 137.622 225.417 137.647C225.362 137.672 225.3 137.679 225.241 137.665C225.182 137.652 225.129 137.619 225.09 137.573L223.18 135.394L225.62 132.503Z" fill="#4F46E5"/>
<path opacity="0.3" d="M225.62 132.503L228.77 134.539C228.82 134.57 228.858 134.618 228.877 134.674C228.897 134.73 228.898 134.791 228.88 134.848C228.861 134.904 228.824 134.953 228.776 134.985C228.727 135.018 228.668 135.033 228.61 135.028L225.3 134.763L225.58 137.349C225.588 137.41 225.577 137.472 225.547 137.525C225.518 137.579 225.472 137.622 225.417 137.647C225.362 137.672 225.3 137.679 225.241 137.665C225.182 137.652 225.129 137.619 225.09 137.573L223.18 135.394L225.62 132.503Z" fill="white"/>
<path d="M181.37 119.758C181.37 119.758 185.73 116.704 192.32 118.679C192.32 118.679 194.21 127.545 199.4 130.498C202.25 132.116 209.22 131.974 214.74 130.162C221.29 128.003 224.49 128.003 225.68 130.498C226.87 132.992 225.55 135.588 220.54 136.799C215.53 138.01 211.54 146.867 202.47 146.979C193.4 147.091 188.58 137.817 190.87 129.673C188.702 125.51 185.404 122.068 181.37 119.758Z" fill="#4F46E5"/>
<path opacity="0.5" d="M181.37 119.758C181.37 119.758 185.73 116.704 192.32 118.679C192.32 118.679 194.21 127.545 199.4 130.498C202.25 132.116 209.22 131.974 214.74 130.162C221.29 128.003 224.49 128.003 225.68 130.498C226.87 132.992 225.55 135.588 220.54 136.799C215.53 138.01 211.54 146.867 202.47 146.979C193.4 147.091 188.58 137.817 190.87 129.673C188.702 125.51 185.404 122.068 181.37 119.758Z" fill="white"/>
<path d="M223.18 132.177C223.18 132.268 223.154 132.356 223.104 132.432C223.055 132.507 222.984 132.566 222.902 132.6C222.82 132.635 222.73 132.644 222.642 132.626C222.555 132.609 222.475 132.565 222.412 132.501C222.349 132.437 222.306 132.355 222.289 132.266C222.271 132.178 222.28 132.085 222.314 132.002C222.348 131.918 222.406 131.847 222.48 131.796C222.554 131.746 222.641 131.719 222.73 131.719C222.849 131.719 222.964 131.767 223.048 131.853C223.133 131.939 223.18 132.056 223.18 132.177V132.177Z" fill="#263238"/>
<path d="M200.36 139.629C194.99 141.115 183.05 140.647 178.25 136.88C173.45 133.114 178.97 134.844 178.97 134.844C178.97 134.844 173.12 131.699 172.47 129.235C171.82 126.772 175.35 128.278 175.35 128.278C175.35 128.278 170.75 124.298 170.15 121.956C169.55 119.615 172.91 121.04 172.91 121.04C172.91 121.04 168.72 117.905 169.57 115.798C170.42 113.69 192.51 131.648 199.34 132.208C206.17 132.768 205.8 138.122 200.36 139.629Z" fill="#4F46E5"/>
<path opacity="0.4" d="M200.36 139.629C194.99 141.115 183.05 140.647 178.25 136.88C173.45 133.114 178.97 134.844 178.97 134.844C178.97 134.844 173.12 131.699 172.47 129.235C171.82 126.772 175.35 128.278 175.35 128.278C175.35 128.278 170.75 124.298 170.15 121.956C169.55 119.615 172.91 121.04 172.91 121.04C172.91 121.04 168.72 117.905 169.57 115.798C170.42 113.69 192.51 131.648 199.34 132.208C206.17 132.768 205.8 138.122 200.36 139.629Z" fill="white"/>
<path d="M165.16 114.861C165.12 114.871 165.079 114.871 165.04 114.861C164.11 114.525 163.16 114.209 162.2 113.914C162.105 113.884 162.026 113.816 161.979 113.727C161.932 113.637 161.922 113.533 161.95 113.436C161.98 113.339 162.046 113.258 162.134 113.211C162.222 113.163 162.324 113.152 162.42 113.181C163.42 113.476 164.35 113.802 165.29 114.199C165.374 114.228 165.444 114.287 165.489 114.365C165.534 114.442 165.55 114.534 165.534 114.622C165.519 114.711 165.472 114.791 165.404 114.848C165.335 114.905 165.248 114.935 165.16 114.932V114.861Z" fill="#4F46E5"/>
<path d="M104.72 197.492C104.621 197.492 104.526 197.453 104.455 197.382C104.384 197.312 104.343 197.216 104.34 197.115C104.34 197.014 104.379 196.918 104.448 196.845C104.517 196.773 104.611 196.731 104.71 196.729C106.699 196.7 108.683 196.502 110.64 196.138C110.738 196.12 110.839 196.142 110.921 196.199C111.004 196.256 111.061 196.344 111.08 196.443C111.09 196.493 111.09 196.544 111.081 196.594C111.071 196.643 111.052 196.69 111.024 196.732C110.996 196.774 110.96 196.81 110.918 196.837C110.876 196.864 110.829 196.883 110.78 196.891C108.78 197.264 106.753 197.465 104.72 197.492V197.492ZM98.7201 197.166C96.7022 196.947 94.6987 196.607 92.7201 196.148C92.6222 196.126 92.5367 196.066 92.4824 195.98C92.4281 195.894 92.4093 195.79 92.4301 195.69C92.4539 195.592 92.5142 195.508 92.5982 195.455C92.6823 195.401 92.7834 195.384 92.8801 195.405C94.8275 195.852 96.797 196.192 98.7801 196.423C98.8691 196.438 98.9499 196.484 99.0083 196.554C99.0666 196.624 99.0987 196.713 99.0987 196.805C99.0987 196.897 99.0666 196.985 99.0083 197.055C98.9499 197.125 98.8691 197.172 98.7801 197.187L98.7201 197.166ZM116.49 195.13C116.418 195.131 116.348 195.11 116.287 195.07C116.227 195.03 116.179 194.973 116.15 194.906C116.129 194.86 116.116 194.81 116.114 194.76C116.112 194.709 116.12 194.658 116.138 194.61C116.156 194.563 116.183 194.519 116.218 194.483C116.252 194.446 116.294 194.417 116.34 194.397C118.156 193.6 119.842 192.526 121.34 191.211C121.417 191.151 121.513 191.124 121.608 191.134C121.704 191.143 121.793 191.19 121.856 191.263C121.92 191.337 121.953 191.433 121.95 191.531C121.947 191.629 121.908 191.722 121.84 191.791C120.282 193.152 118.533 194.267 116.65 195.1C116.595 195.131 116.533 195.148 116.47 195.151L116.49 195.13ZM87.0001 194.438C86.9607 194.448 86.9195 194.448 86.8801 194.438C84.9801 193.797 83.0701 193.043 81.2201 192.219C81.1381 192.171 81.0765 192.094 81.0473 192.003C81.0181 191.911 81.0233 191.812 81.062 191.724C81.1007 191.637 81.1701 191.567 81.2566 191.528C81.3431 191.49 81.4406 191.486 81.5301 191.516C83.3501 192.331 85.2301 193.074 87.1201 193.715C87.2137 193.75 87.2902 193.82 87.3332 193.912C87.3762 194.003 87.3823 194.108 87.3501 194.204C87.3218 194.274 87.2733 194.334 87.2108 194.376C87.1483 194.418 87.0749 194.44 87.0001 194.438V194.438ZM76.0001 189.491C75.9414 189.509 75.8788 189.509 75.8201 189.491C74.0301 188.473 72.2901 187.373 70.6701 186.223C70.6301 186.194 70.596 186.158 70.5698 186.115C70.5436 186.073 70.5258 186.026 70.5174 185.977C70.5091 185.928 70.5103 185.878 70.5211 185.829C70.5318 185.78 70.5519 185.734 70.5801 185.693C70.6083 185.653 70.6442 185.618 70.6856 185.591C70.727 185.565 70.7732 185.546 70.8215 185.538C70.8698 185.529 70.9192 185.531 70.967 185.542C71.0148 185.553 71.0601 185.573 71.1001 185.602C72.7001 186.732 74.4101 187.821 76.1901 188.829C76.2332 188.853 76.271 188.886 76.3015 188.925C76.3319 188.965 76.3543 189.01 76.3674 189.058C76.3804 189.107 76.3838 189.157 76.3774 189.207C76.371 189.257 76.3549 189.305 76.3301 189.348C76.2878 189.414 76.2272 189.466 76.156 189.497C76.0848 189.527 76.0061 189.536 75.9301 189.521L76.0001 189.491ZM125.44 187.159C125.381 187.177 125.319 187.177 125.26 187.159C125.217 187.135 125.179 187.102 125.149 187.063C125.118 187.023 125.096 186.978 125.083 186.93C125.07 186.881 125.066 186.831 125.073 186.781C125.079 186.731 125.095 186.683 125.12 186.64C125.43 186.09 125.72 185.52 125.98 184.93C126.537 183.683 126.972 182.384 127.28 181.051C127.306 180.953 127.368 180.868 127.454 180.815C127.54 180.762 127.642 180.744 127.74 180.766C127.837 180.793 127.919 180.856 127.969 180.944C128.02 181.032 128.035 181.136 128.01 181.235C127.684 182.611 127.232 183.954 126.66 185.245C126.39 185.856 126.09 186.457 125.77 187.027C125.727 187.092 125.666 187.143 125.595 187.172C125.524 187.201 125.445 187.207 125.37 187.19L125.44 187.159ZM66.1401 182.456C66.0521 182.455 65.9673 182.422 65.9001 182.365C64.3772 180.995 62.9504 179.519 61.6301 177.946C61.5611 177.874 61.5225 177.777 61.5225 177.677C61.5225 177.576 61.5611 177.479 61.6301 177.407C61.6994 177.337 61.7928 177.298 61.8901 177.298C61.9874 177.298 62.0809 177.337 62.1501 177.407C63.4465 178.946 64.8465 180.392 66.3401 181.733C66.4091 181.806 66.4478 181.902 66.4478 182.003C66.4478 182.104 66.4091 182.201 66.3401 182.273C66.3153 182.328 66.2778 182.376 66.2308 182.413C66.1838 182.451 66.1287 182.476 66.0701 182.487L66.1401 182.456ZM128.32 175.391C128.271 175.391 128.222 175.381 128.176 175.362C128.131 175.342 128.089 175.313 128.055 175.277C128.02 175.241 127.993 175.199 127.975 175.152C127.957 175.105 127.949 175.055 127.95 175.004C127.936 172.98 127.752 170.96 127.4 168.968C127.382 168.868 127.404 168.765 127.46 168.681C127.516 168.597 127.602 168.539 127.7 168.52C127.799 168.505 127.9 168.529 127.982 168.588C128.064 168.647 128.121 168.735 128.14 168.835C128.5 170.872 128.687 172.935 128.7 175.004C128.7 175.107 128.66 175.205 128.589 175.278C128.518 175.35 128.421 175.391 128.32 175.391V175.391ZM126.32 163.318C126.239 163.317 126.161 163.29 126.096 163.24C126.031 163.191 125.984 163.122 125.96 163.043C125.45 161.261 124.82 159.368 124.05 157.25C124.031 157.203 124.022 157.152 124.022 157.101C124.023 157.05 124.034 157 124.055 156.953C124.075 156.906 124.105 156.864 124.142 156.83C124.179 156.795 124.223 156.769 124.27 156.752C124.363 156.718 124.465 156.723 124.555 156.765C124.644 156.807 124.714 156.882 124.75 156.976C125.53 159.113 126.16 161.048 126.68 162.819C126.708 162.916 126.698 163.021 126.651 163.11C126.604 163.2 126.525 163.267 126.43 163.297L126.32 163.318ZM122.18 151.763C122.111 151.764 122.043 151.744 121.984 151.706C121.926 151.668 121.879 151.614 121.85 151.55C121.21 149.921 120.34 148.048 119.43 146.063V145.961C119.404 145.872 119.41 145.777 119.447 145.692C119.484 145.608 119.55 145.539 119.632 145.5C119.715 145.461 119.808 145.453 119.896 145.477C119.984 145.502 120.06 145.558 120.11 145.635V145.737C121.03 147.773 121.89 149.615 122.53 151.214C122.57 151.31 122.572 151.418 122.535 151.515C122.497 151.612 122.424 151.69 122.33 151.733L122.18 151.763ZM117.18 140.565C117.107 140.568 117.034 140.548 116.972 140.508C116.909 140.468 116.86 140.41 116.83 140.341C115.93 138.214 115.21 136.331 114.64 134.59C114.608 134.494 114.614 134.389 114.657 134.298C114.7 134.206 114.777 134.136 114.87 134.101C114.966 134.069 115.07 134.076 115.16 134.122C115.25 134.168 115.318 134.248 115.35 134.345C115.91 136.066 116.62 137.929 117.52 140.036C117.54 140.082 117.55 140.132 117.551 140.182C117.551 140.232 117.542 140.282 117.523 140.328C117.505 140.375 117.477 140.417 117.442 140.452C117.407 140.488 117.366 140.516 117.32 140.535C117.287 140.571 117.246 140.599 117.2 140.616L117.18 140.565ZM113.52 128.899C113.431 128.898 113.344 128.865 113.277 128.805C113.209 128.745 113.164 128.663 113.15 128.573C112.978 127.483 112.892 126.38 112.89 125.275C112.882 124.288 112.969 123.303 113.15 122.333C113.179 122.243 113.239 122.166 113.32 122.119C113.401 122.071 113.496 122.055 113.587 122.073C113.678 122.092 113.76 122.145 113.816 122.221C113.872 122.297 113.898 122.391 113.89 122.486C113.717 123.405 113.633 124.339 113.64 125.275C113.644 126.342 113.727 127.407 113.89 128.461C113.902 128.561 113.877 128.661 113.819 128.742C113.762 128.823 113.676 128.879 113.58 128.899H113.52ZM116.13 117.335C116.043 117.337 115.958 117.308 115.89 117.253C115.821 117.181 115.782 117.084 115.782 116.983C115.782 116.883 115.821 116.786 115.89 116.714C117.233 115.117 118.866 113.8 120.7 112.835C120.788 112.788 120.89 112.777 120.986 112.806C121.081 112.834 121.162 112.9 121.21 112.988C121.253 113.079 121.261 113.183 121.231 113.28C121.201 113.376 121.137 113.457 121.05 113.507C119.304 114.426 117.748 115.681 116.47 117.202C116.437 117.259 116.39 117.305 116.334 117.337C116.278 117.369 116.215 117.386 116.15 117.386L116.13 117.335ZM156.45 112.346H156.37C154.45 111.939 152.46 111.593 150.45 111.328C150.401 111.322 150.354 111.306 150.312 111.281C150.269 111.256 150.232 111.223 150.202 111.183C150.172 111.143 150.15 111.098 150.138 111.049C150.126 111.001 150.123 110.95 150.13 110.901C150.136 110.851 150.152 110.803 150.177 110.76C150.201 110.717 150.234 110.679 150.273 110.648C150.312 110.618 150.357 110.596 150.404 110.583C150.452 110.571 150.501 110.568 150.55 110.575C152.55 110.84 154.55 111.186 156.55 111.593C156.64 111.614 156.719 111.668 156.773 111.744C156.827 111.82 156.852 111.913 156.843 112.006C156.835 112.099 156.793 112.186 156.726 112.251C156.66 112.315 156.572 112.353 156.48 112.357L156.45 112.346ZM126.45 111.481C126.402 111.487 126.352 111.482 126.305 111.468C126.259 111.454 126.215 111.431 126.177 111.4C126.139 111.368 126.107 111.33 126.084 111.286C126.06 111.243 126.045 111.195 126.04 111.145C126.035 111.096 126.039 111.046 126.053 110.998C126.067 110.95 126.09 110.906 126.12 110.867C126.151 110.828 126.189 110.796 126.232 110.772C126.274 110.748 126.322 110.733 126.37 110.728C128.345 110.277 130.351 109.981 132.37 109.842C132.469 109.837 132.567 109.871 132.641 109.937C132.716 110.004 132.762 110.098 132.77 110.198C132.774 110.249 132.768 110.299 132.753 110.347C132.737 110.395 132.712 110.44 132.68 110.478C132.647 110.516 132.607 110.546 132.563 110.568C132.518 110.59 132.47 110.603 132.42 110.606C130.434 110.736 128.461 111.026 126.52 111.471L126.45 111.481ZM144.45 110.769C142.71 110.646 140.64 110.514 138.45 110.473C138.351 110.471 138.257 110.429 138.188 110.357C138.119 110.284 138.08 110.187 138.08 110.087C138.08 110.036 138.09 109.986 138.109 109.94C138.128 109.894 138.157 109.852 138.192 109.817C138.227 109.781 138.269 109.754 138.315 109.736C138.361 109.717 138.411 109.708 138.46 109.71C140.67 109.761 142.76 109.883 144.46 110.005C144.51 110.008 144.558 110.02 144.603 110.042C144.647 110.064 144.687 110.095 144.72 110.133C144.752 110.171 144.777 110.215 144.793 110.263C144.808 110.311 144.814 110.362 144.81 110.412C144.817 110.504 144.792 110.596 144.739 110.67C144.686 110.745 144.608 110.798 144.52 110.819L144.45 110.769Z" fill="#4F46E5"/>
<path d="M58.36 173.06C58.2929 173.061 58.2268 173.044 58.1687 173.01C58.1105 172.976 58.0626 172.926 58.03 172.867C57.5243 171.973 57.0734 171.048 56.68 170.098C56.6604 170.052 56.65 170.002 56.6494 169.952C56.6489 169.902 56.6582 169.852 56.6768 169.805C56.6955 169.759 56.723 169.717 56.7579 169.681C56.7928 169.646 56.8343 169.618 56.88 169.599C56.9716 169.561 57.0741 169.561 57.1655 169.599C57.257 169.637 57.3303 169.71 57.37 169.802C57.7562 170.723 58.1935 171.62 58.68 172.49C58.7174 172.547 58.7384 172.613 58.7408 172.681C58.7432 172.749 58.7269 172.817 58.6936 172.876C58.6604 172.935 58.6115 172.984 58.5526 173.016C58.4936 173.049 58.4269 173.064 58.36 173.06V173.06Z" fill="#4F46E5"/>
<path d="M179.81 253.523H141.85V261.443H179.81V253.523Z" fill="white"/>
<path opacity="0.1" d="M179.81 253.523H141.85V261.443H179.81V253.523Z" fill="black"/>
<path opacity="0.1" d="M157.84 253.523H141.85V261.443H157.84V253.523Z" fill="black"/>
<path opacity="0.1" d="M141.85 254.663H175.64L141.85 255.64V254.663Z" fill="black"/>
<path opacity="0.1" d="M179.81 256.037L150.52 256.78H179.81V256.037Z" fill="black"/>
<path opacity="0.1" d="M143.4 258.256L157.84 257.656L179.07 258.256L157.84 258.592L143.4 258.256Z" fill="black"/>
<path opacity="0.1" d="M141.85 259.936H166.87L141.85 260.537V259.936Z" fill="black"/>
<path opacity="0.1" d="M179.75 260.537L163.04 260.852H179.81L179.75 260.537Z" fill="black"/>
<path d="M174.53 245.603H136.57V253.523H174.53V245.603Z" fill="white"/>
<path opacity="0.1" d="M174.53 245.603H136.57V253.523H174.53V245.603Z" fill="black"/>
<path opacity="0.1" d="M152.56 245.603H136.57V253.523H152.56V245.603Z" fill="black"/>
<path opacity="0.1" d="M136.57 246.743H170.36L136.57 247.71V246.743Z" fill="black"/>
<path opacity="0.1" d="M174.53 248.117L145.24 248.86H174.53V248.117Z" fill="black"/>
<path opacity="0.1" d="M138.11 250.336L152.55 249.726L173.78 250.336L152.55 250.672L138.11 250.336Z" fill="black"/>
<path opacity="0.1" d="M136.57 252.006H161.59L136.57 252.617V252.006Z" fill="black"/>
<path opacity="0.1" d="M174.47 252.617L157.76 252.932H174.53L174.47 252.617Z" fill="black"/>
<path d="M178.86 237.672H140.9V245.592H178.86V237.672Z" fill="white"/>
<path opacity="0.1" d="M178.86 237.672H140.9V245.592H178.86V237.672Z" fill="black"/>
<path opacity="0.1" d="M156.89 237.672H140.9V245.592H156.89V237.672Z" fill="black"/>
<path opacity="0.1" d="M140.9 238.812H174.69L140.9 239.79V238.812Z" fill="black"/>
<path opacity="0.1" d="M178.86 240.187L149.57 240.93H178.86V240.187Z" fill="black"/>
<path opacity="0.1" d="M142.45 242.406L156.89 241.805L178.12 242.406L156.89 242.742L142.45 242.406Z" fill="black"/>
<path opacity="0.1" d="M140.9 244.086H165.92L140.9 244.687V244.086Z" fill="black"/>
<path opacity="0.1" d="M178.81 244.687L162.1 245.002H178.86L178.81 244.687Z" fill="black"/>
<path d="M204.15 261.28L205.13 257.483H245.69L264.36 259.386L265.07 261.28H204.15Z" fill="#263238"/>
<path opacity="0.4" d="M245.69 257.483V261.28H204.15L205.13 257.483H245.69Z" fill="black"/>
<path d="M237.54 239.311C237.595 239.772 237.551 240.239 237.414 240.681C237.276 241.123 237.047 241.529 236.742 241.874C236.437 242.218 236.063 242.492 235.645 242.677C235.227 242.862 234.776 242.953 234.32 242.946H172.2C171.229 242.924 170.298 242.544 169.582 241.875C168.867 241.206 168.414 240.295 168.31 239.311L164.62 198.826C164.58 198.43 164.607 198.031 164.7 197.645C164.872 196.934 165.277 196.304 165.848 195.858C166.418 195.412 167.121 195.177 167.84 195.191H230C230.972 195.213 231.902 195.593 232.618 196.262C233.334 196.931 233.786 197.842 233.89 198.826L237.54 239.311Z" fill="#263238"/>
<path opacity="0.4" d="M234.1 242.946H172.2C171.229 242.924 170.298 242.544 169.582 241.875C168.867 241.206 168.414 240.295 168.31 239.312L164.62 198.826C164.58 198.43 164.607 198.031 164.7 197.645H226.6C227.572 197.666 228.502 198.047 229.218 198.716C229.934 199.385 230.386 200.296 230.49 201.279L234.18 241.765C234.22 242.16 234.193 242.56 234.1 242.946V242.946Z" fill="black"/>
<path d="M191.42 218.117H204.27L200.85 255.569L221.17 258.674V261.28H178.37V258.674L187.14 255.569L191.42 218.117Z" fill="#263238"/>
<path opacity="0.1" d="M204.27 218.117L194.75 260.689L187.14 260.455L191.42 218.117H204.27Z" fill="white"/>
<path d="M204.21 424.577H198.09L187.08 268.569H195.21L204.21 424.577Z" fill="#263238"/>
<path opacity="0.4" d="M204.22 424.577H198.09L187.62 276.326L187.08 268.823H195.21L195.65 276.326L204.22 424.577Z" fill="white"/>
<path opacity="0.2" d="M195.65 275.949H187.62L187.08 268.823H195.21L195.65 275.949Z" fill="black"/>
<path d="M249.17 424.577H243.05L242.05 268.569H250.17L249.17 424.577Z" fill="#263238"/>
<path opacity="0.5" d="M250.18 268.823L250.02 293.998L249.18 424.577H243.05L242.21 293.998L242.05 268.823H250.18Z" fill="white"/>
<path opacity="0.2" d="M250.18 268.823L250.02 294.273H242.21L242.05 268.823H250.18Z" fill="black"/>
<path d="M314.21 424.577H308.09L297.08 268.569H305.21L314.21 424.577Z" fill="#263238"/>
<path opacity="0.5" d="M314.22 424.577H308.09L297.62 276.326L297.08 268.823H305.21L305.65 276.326L314.22 424.577Z" fill="white"/>
<path opacity="0.2" d="M305.65 275.949H297.62L297.08 268.823H305.21L305.65 275.949Z" fill="black"/>
<path d="M134.13 424.577H128.01L137.01 268.569H145.14L134.13 424.577Z" fill="#263238"/>
<path opacity="0.5" d="M145.14 268.823L144.6 276.326L134.13 424.577H128.01L136.57 276.326L137.01 268.823H145.14Z" fill="white"/>
<path opacity="0.2" d="M137.01 268.823H145.14L144.6 275.949H136.57L137.01 268.823Z" fill="black"/>
<path d="M130.57 264.68H311.65V270.289C311.65 270.578 311.594 270.864 311.486 271.131C311.377 271.397 311.218 271.64 311.017 271.844C310.817 272.048 310.579 272.21 310.317 272.321C310.055 272.431 309.774 272.488 309.49 272.488H132.73C132.157 272.488 131.608 272.256 131.203 271.844C130.798 271.432 130.57 270.872 130.57 270.289V264.68Z" fill="#4F46E5"/>
<path opacity="0.6" d="M130.57 264.68H311.65V270.289C311.65 270.578 311.594 270.864 311.486 271.131C311.377 271.397 311.218 271.64 311.017 271.844C310.817 272.048 310.579 272.21 310.317 272.321C310.055 272.431 309.774 272.488 309.49 272.488H132.73C132.157 272.488 131.608 272.256 131.203 271.844C130.798 271.432 130.57 270.872 130.57 270.289V264.68Z" fill="white"/>
<path opacity="0.2" d="M311.65 264.67H130.57V268.579H311.65V264.67Z" fill="black"/>
<path d="M315.45 265.698H126.77C126.197 265.698 125.648 265.466 125.243 265.054C124.838 264.642 124.61 264.082 124.61 263.499C124.61 262.915 124.837 262.355 125.242 261.941C125.647 261.527 126.196 261.293 126.77 261.29H315.45C316.024 261.293 316.573 261.527 316.978 261.941C317.383 262.355 317.61 262.915 317.61 263.499C317.61 264.082 317.383 264.642 316.977 265.054C316.572 265.466 316.023 265.698 315.45 265.698V265.698Z" fill="#4F46E5"/>
<path opacity="0.6" d="M315.45 265.698H126.77C126.197 265.698 125.648 265.466 125.243 265.054C124.838 264.642 124.61 264.082 124.61 263.499C124.61 262.915 124.837 262.355 125.242 261.941C125.647 261.527 126.196 261.293 126.77 261.29H315.45C316.024 261.293 316.573 261.527 316.978 261.941C317.383 262.355 317.61 262.915 317.61 263.499C317.61 264.082 317.383 264.642 316.977 265.054C316.572 265.466 316.023 265.698 315.45 265.698V265.698Z" fill="white"/>
<path d="M270.81 254.5L273.13 250.957C273.359 250.609 273.668 250.324 274.031 250.127C274.394 249.93 274.799 249.827 275.21 249.827H278.15C278.394 249.828 278.637 249.866 278.87 249.939L289.36 253.177C289.956 253.358 290.463 253.761 290.78 254.307L292.29 256.882L270.81 254.5Z" fill="#4F46E5"/>
<path opacity="0.2" d="M292.29 256.882L277 255.192L270.79 254.5L273.11 250.957C273.339 250.609 273.648 250.324 274.011 250.127C274.374 249.93 274.779 249.827 275.19 249.827H278.13C278.377 249.829 278.623 249.867 278.86 249.939L279.09 250.011L289.34 253.177C289.94 253.356 290.45 253.76 290.77 254.307L292.29 256.882Z" fill="black"/>
<path opacity="0.2" d="M292.29 256.882L277 255.192L279.09 250.01L289.34 253.176C289.939 253.356 290.45 253.76 290.77 254.306L292.29 256.882Z" fill="black"/>
<path d="M299.55 260.944V261.28H267.13L268.33 256.505C268.553 255.629 269.056 254.852 269.76 254.299C270.465 253.746 271.33 253.448 272.22 253.451H286.6C287.078 253.449 287.552 253.535 288 253.706L289.8 254.388L296.94 257.096C297.711 257.387 298.375 257.912 298.842 258.601C299.309 259.289 299.556 260.107 299.55 260.944Z" fill="#4F46E5"/>
<path opacity="0.2" d="M299.55 260.944V261.28H286.24L286.95 256.119C286.996 255.798 287.111 255.493 287.288 255.224C287.465 254.955 287.698 254.73 287.971 254.565C288.245 254.401 288.551 254.3 288.867 254.271C289.183 254.242 289.502 254.285 289.8 254.398L296.94 257.106C297.709 257.396 298.372 257.92 298.839 258.606C299.306 259.293 299.554 260.109 299.55 260.944Z" fill="black"/>
<path d="M288.31 257.778L292.55 244.839C292.591 244.707 292.661 244.586 292.753 244.484C292.845 244.383 292.958 244.303 293.084 244.25C293.21 244.198 293.345 244.174 293.481 244.181C293.617 244.188 293.75 244.225 293.87 244.289V244.289C294.054 244.397 294.2 244.561 294.287 244.759C294.373 244.957 294.395 245.177 294.35 245.389L290.78 259.193C290.78 259.193 288.41 260.17 288.31 257.778Z" fill="#263238"/>
<path opacity="0.2" d="M270.81 260.211H268.93L269.29 258.328H271.17L270.81 260.211Z" fill="black"/>
<path opacity="0.2" d="M273.61 260.14H271.73L272.09 258.256H273.97L273.61 260.14Z" fill="black"/>
</svg>
