<svg width="29" height="29" viewBox="0 0 29 29" fill="none" xmlns="http://www.w3.org/2000/svg">
<path d="M14.4356 4.16111L25.6939 22.1611H3.17722L14.4356 4.16111Z" fill="#404040"/>
<path fill-rule="evenodd" clip-rule="evenodd" d="M16.192 1.02293C16.0136 0.712064 15.7563 0.453789 15.4461 0.274184C15.1359 0.0945779 14.7838 0 14.4253 0C14.0669 0 13.7148 0.0945779 13.4046 0.274184C13.0944 0.453789 12.8371 0.712064 12.6586 1.02293L0.296921 22.056C-0.52695 23.4585 0.460974 25.2415 2.06365 25.2415H26.7852C28.3879 25.2415 29.3776 23.4567 28.5519 22.056L16.192 1.02293ZM14.4217 7.21368C14.1939 7.21381 13.9686 7.26167 13.7603 7.35417C13.5521 7.44667 13.3655 7.58176 13.2127 7.75075C13.0598 7.91974 12.9441 8.11887 12.8728 8.33531C12.8016 8.55176 12.7766 8.78072 12.7992 9.00745L13.4302 15.3298C13.4514 15.5782 13.565 15.8095 13.7486 15.9781C13.9322 16.1468 14.1724 16.2403 14.4217 16.2403C14.671 16.2403 14.9112 16.1468 15.0948 15.9781C15.2784 15.8095 15.392 15.5782 15.4132 15.3298L16.0442 9.00745C16.0669 8.78072 16.0418 8.55176 15.9706 8.33531C15.8994 8.11887 15.7836 7.91974 15.6308 7.75075C15.4779 7.58176 15.2914 7.44667 15.0831 7.35417C14.8749 7.26167 14.6496 7.21381 14.4217 7.21368V7.21368ZM14.4253 18.0304C13.9472 18.0304 13.4887 18.2203 13.1506 18.5584C12.8125 18.8965 12.6225 19.355 12.6225 19.8332C12.6225 20.3113 12.8125 20.7698 13.1506 21.1079C13.4887 21.446 13.9472 21.6359 14.4253 21.6359C14.9034 21.6359 15.362 21.446 15.7001 21.1079C16.0382 20.7698 16.2281 20.3113 16.2281 19.8332C16.2281 19.355 16.0382 18.8965 15.7001 18.5584C15.362 18.2203 14.9034 18.0304 14.4253 18.0304Z" fill="#FEB805"/>
</svg>
