<svg width="432" height="417" viewBox="0 0 432 417" fill="none" xmlns="http://www.w3.org/2000/svg">
<path d="M118.806 215.814C118.806 159.122 164.763 113.164 221.455 113.164C233.351 113.164 244.762 115.21 255.387 118.931C244.01 114.492 231.642 112.03 218.693 112.03C162.899 112.03 117.67 157.258 117.67 213.051C117.67 226 120.134 238.368 124.574 249.747C120.853 239.122 118.806 227.708 118.806 215.814Z" fill="#2F2C33"/>
<ellipse cx="216" cy="208.5" rx="216" ry="208.5" fill="white"/>
<path d="M303.064 263.572L232.587 209.125L162.108 263.572H171.774L232.587 216.592L293.4 263.572H303.064Z" fill="#2F2C33"/>
<path d="M223.433 243.189H231.738V234.885C227.344 235.289 223.838 238.796 223.433 243.189Z" fill="#2F2C33"/>
<path d="M231.737 253.192V244.887H223.432C223.837 249.281 227.343 252.788 231.737 253.192Z" fill="#2F2C33"/>
<path d="M233.436 253.192C237.83 252.788 241.336 249.281 241.741 244.887H233.436V253.192Z" fill="#2F2C33"/>
<path d="M233.436 234.886V243.19H241.741C241.336 238.797 237.83 235.29 233.436 234.886Z" fill="#2F2C33"/>
<path d="M250.975 151.047C250.353 151.781 250.019 152.663 249.951 153.557C249.724 153.499 249.489 153.459 249.243 153.459H246.523L246.947 149.217L250.957 144.471C252.375 144.973 253.953 144.308 254.553 142.908C254.851 142.213 254.844 141.468 254.608 140.809L258.293 142.385L250.975 151.047ZM247.159 142.864L249.344 143.799L247.059 146.504L247.159 142.864ZM241.868 153.459H238.725L239.016 150.497L240.959 145.36H242.417L242.556 149.733L241.868 153.459ZM240.245 162.205H236.419L236.472 159.197H240.539L240.245 162.205ZM312.899 193.581C307.396 166.923 290.828 144.265 268.225 130.631L262.168 137.801L258.073 136.051L264.476 128.473C263.976 128.201 263.46 127.956 262.953 127.693L256.471 135.365L249.227 132.267L252.761 128.839C252.761 128.839 253.593 129.533 254.635 128.839C255.676 128.144 256.093 127.659 256.093 127.659L258.403 125.476C257.447 125.041 256.492 124.608 255.519 124.204L253.825 125.784C253.825 125.784 252.899 125.136 251.651 125.645C251.651 125.645 253.072 125.611 253.42 127.068L248.385 131.907L247.808 131.659C247.808 131.644 247.748 130.876 247.201 130.344L251.187 126.876L251.003 126.344C251.001 126.341 250.899 125.941 251.336 125.505C252.132 124.709 252.444 124.431 252.447 124.428L253.069 123.872L252.757 123.523C252.839 123.449 252.964 123.337 253.073 123.237C252.493 123.015 251.916 122.784 251.331 122.572C251.319 122.583 251.273 122.623 251.269 122.627C250.991 122.905 250.895 123.247 250.925 123.572C250.741 123.749 250.491 123.996 250.159 124.327C249.499 124.988 249.319 125.725 249.329 126.284L245.112 129.953C243.596 130.428 244.013 132.356 244.013 132.356L244.063 132.347C243.904 132.545 243.761 132.759 243.656 133.004C243.359 133.699 243.364 134.443 243.603 135.101L238.095 132.745C236.717 132.156 235.056 132.637 234.337 133.953C233.515 135.463 234.181 137.313 235.724 137.973L237.003 138.52V140.709L234.213 153.459H232.963C231.512 153.459 230.212 154.492 230.019 155.929C229.797 157.568 230.961 158.967 232.503 159.161L232.907 162.205H223.096C211.619 168.871 216.061 185.531 219.208 188.863C222.356 192.195 235.313 206.448 235.313 206.448H239.597L238.249 202.857H242.252L243.959 206.448H245.171H248.592L247.16 202.857H250.936L252.609 206.448H255.168H256.093L254.408 202.857H257.883L260.353 206.448H262.525H265.857L261.996 197.248L263.636 165.352L260.119 162.205H256.139L257.104 157.327C257.133 157.303 257.165 157.283 257.195 157.257L275.456 141.779L300.351 167.603C302.888 170.233 305.009 173.22 306.675 176.451V194.324H304.825V223.664L300.243 231.856L305.193 255.083C307.909 249.515 310.101 243.649 311.711 237.547H310.563V223.341L314.08 217.371V225.256C314.484 222.085 314.731 218.869 314.817 215.612H310.563V194.693H309.452V183.324L312.899 193.581Z" fill="#2F2C33"/>
<path d="M58.3926 230.352L80.7179 232.237C84.8646 232.587 88.2566 235.552 89.1552 239.619L89.6166 241.703C92.9379 256.749 98.8432 270.993 107.171 284.047L108.319 285.851C110.558 289.357 110.258 293.852 107.573 297.036L103.946 301.329C121.861 299.801 140.415 298.612 159.487 297.793C132.771 279.072 115.254 248.077 115.254 213.051C115.254 156.015 161.657 109.612 218.693 109.612C275.729 109.612 322.131 156.015 322.131 213.051C322.131 247.944 304.746 278.835 278.199 297.579C297.003 298.316 315.315 299.413 333.029 300.84L329.815 297.036C327.129 293.852 326.826 289.357 329.069 285.848L330.217 284.048C338.545 270.993 344.449 256.747 347.769 241.704L348.231 239.616C349.13 235.552 352.521 232.587 356.669 232.237L378.993 230.352C383.899 229.936 387.743 225.756 387.743 220.831V205.268C387.743 200.261 383.981 196.168 378.993 195.747L356.669 193.861C352.521 193.509 349.13 190.545 348.231 186.48L347.769 184.396C344.449 169.351 338.545 155.104 330.217 142.051L329.069 140.251C326.829 136.741 327.129 132.244 329.815 129.063L344.275 111.935C347.453 108.172 347.214 102.496 343.731 99.0147L332.726 88.0107C329.186 84.4733 323.634 84.2373 319.805 87.4667L302.675 101.929C299.49 104.619 294.993 104.916 291.486 102.675L289.689 101.529C276.658 93.2107 262.413 87.304 247.346 83.972L245.262 83.5107C241.199 82.6107 238.234 79.22 237.883 75.0747L235.997 52.7507C235.574 47.7613 231.479 44 226.474 44H210.913C205.989 44 201.806 47.844 201.393 52.7493L199.503 75.0747C199.154 79.22 196.187 82.6093 192.125 83.5107L190.041 83.972C174.975 87.3027 160.729 93.2107 147.698 101.528L145.899 102.676C142.393 104.919 137.895 104.617 134.711 101.929L117.579 87.4667C113.751 84.2373 108.198 84.4747 104.659 88.0107L93.6566 99.0147C90.1726 102.496 89.9339 108.172 93.1112 111.935L107.573 129.063C110.258 132.244 110.558 136.741 108.319 140.249L107.171 142.051C98.8432 155.104 92.9379 169.349 89.6179 184.393L89.1539 186.481C88.2566 190.545 84.8646 193.509 80.7179 193.861L58.3926 195.747C53.4859 196.16 49.6419 200.343 49.6419 205.268V220.831C49.6419 225.756 53.4859 229.936 58.3926 230.352Z" fill="#F7941D"/>
<path d="M232.587 233.145C238.593 233.145 243.48 238.032 243.48 244.038C243.48 250.046 238.593 254.933 232.587 254.933C226.58 254.933 221.693 250.046 221.693 244.038C221.693 238.032 226.58 233.145 232.587 233.145ZM188.641 296.846V278.896H207.971V296.544C211.865 296.508 215.775 296.485 219.7 296.48V272.653H245.473V296.676C249.399 296.741 253.312 296.817 257.203 296.912V278.896H276.533V289.849C280.061 287.185 283.404 284.288 286.532 281.173V261.148L232.587 219.473L178.643 261.148V297.105C181.961 297.006 185.295 296.921 188.641 296.846" fill="#2F2C33"/>
<path d="M133.036 236.037H137.082V242.83H133.036V236.037ZM133.036 206.198H137.082V212.99H133.036V206.198ZM133.036 191.278H137.082V198.071H133.036V191.278ZM140.117 250.957H144.164V257.75H140.117V250.957ZM140.117 221.118H144.164V227.911H140.117V221.118ZM140.117 191.278H144.164V198.071H140.117V191.278ZM147.198 250.957H151.245V257.75H147.198V250.957ZM147.198 236.037H151.245V242.83H147.198V236.037ZM147.198 206.198H151.245V212.99H147.198V206.198ZM154.28 221.118H158.326V227.911H154.28V221.118ZM154.28 206.198H158.326V212.99H154.28V206.198ZM154.28 191.278H158.326V198.071H154.28V191.278ZM165.665 220.633H171.264V227.425H165.665V220.633ZM165.665 205.106H171.264V211.898H165.665V205.106ZM165.665 174.054H171.264V180.847H165.665V174.054ZM165.665 158.529H171.264V165.321H165.665V158.529ZM165.665 143.003H171.264V149.795H165.665V143.003ZM175.464 236.158H181.062V242.951H175.464V236.158ZM175.464 220.633H181.062V227.425H175.464V220.633ZM175.464 189.581H181.062V196.374H175.464V189.581ZM175.464 174.054H181.062V180.847H175.464V174.054ZM185.261 205.106H190.861V211.898H185.261V205.106ZM185.261 174.054H190.861V180.847H185.261V174.054ZM185.261 158.529H190.861V165.321H185.261V158.529ZM185.261 143.003H190.861V149.795H185.261V143.003ZM195.06 220.633H200.658V227.425H195.06V220.633ZM195.06 205.106H200.658V211.898H195.06V205.106ZM195.06 189.581H200.658V196.374H195.06V189.581ZM195.06 143.003H200.658V149.795H195.06V143.003ZM165.665 282.737H171.264V289.53H165.665V282.737ZM165.665 267.21H171.264V274.003H165.665V267.21ZM133.036 250.957H137.082V257.749H133.558C142.352 274.427 155.905 288.203 172.394 297.301C173.269 297.271 174.14 297.238 175.017 297.21V265.647L173.01 267.198H156.816C155.081 267.198 154.332 265.002 155.704 263.942L185.261 241.106V236.158H190.861V236.781L215.845 217.479H204.541V136.938H160.874V182.546H127.881V244.709C129.33 248.853 131.057 252.865 133.036 256.73V250.957Z" fill="#2F2C33"/>
<path d="M401 327C353.808 310.946 288.355 301 216 301C143.645 301 78.1916 310.946 31 327C78.1916 320.622 143.645 316.669 216 316.669C288.355 316.669 353.808 320.622 401 327Z" fill="#2F2C33"/>
</svg>
