<svg width="313" height="330" viewBox="0 0 313 330" fill="none" xmlns="http://www.w3.org/2000/svg">
<mask id="mask0_9_10" style="mask-type:alpha" maskUnits="userSpaceOnUse" x="50" y="105" width="223" height="148">
<rect x="50" y="105" width="223" height="148" fill="#D9D9D9"/>
</mask>
<g mask="url(#mask0_9_10)">
<path fill-rule="evenodd" clip-rule="evenodd" d="M163.077 -10.5298C162.983 -10.4348 160.748 -10.1688 158.11 -9.93777C150.787 -9.29477 146.157 -8.65577 145.715 -8.22677C145.455 -7.97477 145.806 -7.92677 146.715 -8.08977C158.556 -10.2108 186.732 -10.7608 198.315 -9.09777C199.745 -8.89177 202.895 -8.44076 205.315 -8.09576C207.735 -7.74976 210.435 -7.30677 211.315 -7.11177C212.195 -6.91777 214.445 -6.45677 216.315 -6.08877C219.72 -5.41977 223.154 -4.57377 228.651 -3.05177C231.203 -2.34477 232.471 -2.27777 231.868 -2.88077C231.675 -3.07377 223.041 -5.41777 220.715 -5.90877C219.166 -6.23577 211.64 -7.71077 208.515 -8.29977C206.134 -8.74877 198.563 -9.70077 192.715 -10.2848C188.73 -10.6838 163.44 -10.8918 163.077 -10.5298ZM141.815 -7.61877C142.31 -7.52277 143.12 -7.52277 143.615 -7.61877C144.11 -7.71377 143.705 -7.79177 142.715 -7.79177C141.725 -7.79177 141.32 -7.71377 141.815 -7.61877ZM138.415 -6.82477C138.8 -6.72477 139.43 -6.72477 139.815 -6.82477C140.2 -6.92577 139.885 -7.00777 139.115 -7.00777C138.345 -7.00777 138.03 -6.92577 138.415 -6.82477ZM135.515 -6.35577C135.515 -6.16677 135.965 -6.09777 136.515 -6.20277C137.065 -6.30777 137.515 -6.46277 137.515 -6.54777C137.515 -6.63177 137.065 -6.70077 136.515 -6.70077C135.965 -6.70077 135.515 -6.54577 135.515 -6.35577ZM130.715 -5.22677C129.725 -4.91077 128.602 -4.48376 128.22 -4.27676C127.838 -4.06976 127.191 -3.90076 126.782 -3.90076C126.104 -3.90076 124.407 -3.23777 122.62 -2.27477C122.238 -2.06877 121.757 -1.90076 121.55 -1.90076C120.481 -1.90076 114.274 1.39523 110.315 4.06423C90.6079 17.3502 91.6729 39.3032 112.604 51.2262L115.893 53.0992L115.604 55.0992C114.4 63.4272 115.829 70.2892 119.786 75.1812C122.426 78.4462 125.709 81.1112 128.853 82.5442C130.14 83.1302 130.195 83.7272 129.054 84.7372C127.955 85.7102 125.104 90.1642 124.093 92.4882C121.991 97.3192 123.372 106.335 126.982 111.353C128.704 113.747 128.727 113.699 125.875 113.699C121.956 113.699 121.22 114.215 115.321 121.103C114.004 122.641 112.831 123.989 112.715 124.099C112.599 124.209 110.365 126.782 107.751 129.817C105.138 132.852 102.771 135.282 102.491 135.217C102.212 135.152 98.5199 131.769 94.2879 127.699C83.9749 117.782 84.0529 117.832 80.6749 118.948C78.2859 119.737 55.7749 128.096 54.1869 128.784C52.4929 129.518 51.3289 131.302 51.6659 132.648C51.8299 133.299 61.7099 143.488 67.3549 148.827C67.9619 149.401 67.7259 150.097 66.4479 151.507C58.7579 159.984 49.8949 170.758 50.0009 171.499C50.1139 172.295 50.4579 172.3 118.398 172.4L186.681 172.501L195.933 161.8C201.022 155.915 205.419 151.099 205.704 151.099C205.989 151.099 210.199 154.965 215.06 159.691C225.857 170.187 224.106 169.44 231.446 166.685C233.574 165.886 235.945 164.996 236.715 164.707C237.485 164.418 239.735 163.548 241.715 162.774C246.391 160.947 252.645 158.643 253.915 158.281C259.881 156.581 259.694 156.086 249.052 145.436L240.19 136.567L243.258 132.889C244.946 130.866 247.477 127.926 248.883 126.355C254.474 120.106 257.911 115.865 257.913 115.213C257.917 113.733 257.077 113.699 220.041 113.699H183.715L182.648 112.361C179.144 107.97 165.492 105.15 156.115 106.882C149.27 108.146 145.85 109.469 142.178 112.271L140.277 113.723L135.212 113.611L130.147 113.499L128.631 111.499C122.503 103.416 122.894 93.3042 129.634 85.5062L131.009 83.9162L135.962 85.5632C138.686 86.4692 141.725 87.4052 142.715 87.6442C147.587 88.8202 150.06 89.3172 153.915 89.8932C156.225 90.2382 159.465 90.7412 161.115 91.0102C164.95 91.6352 188.88 91.6942 189.494 91.0802C189.787 90.7872 188.854 90.7672 186.414 91.0142C182.227 91.4372 168.282 91.1462 163.515 90.5372C151.309 88.9752 147.892 88.3162 140.315 86.0632C132.838 83.8382 131.699 83.2392 132.97 82.1992C134.926 80.5992 136.127 79.8222 138.848 78.4002C140.425 77.5752 141.456 76.9002 141.139 76.9002C140.341 76.8992 135.515 79.3592 135.515 79.7672C135.515 79.9502 135.333 80.0992 135.112 80.0992C134.89 80.0992 133.963 80.6392 133.052 81.2992C130.959 82.8152 131.117 82.8322 127.732 80.7232C119.486 75.5832 115.451 67.2972 116.486 57.6302C116.905 53.7172 116.855 53.7412 121.2 55.4042C136.071 61.0962 170.956 63.1192 191.715 59.4932L194.915 58.9342L191.515 59.1312C189.645 59.2402 187.215 59.4892 186.115 59.6862C179.832 60.8092 149.598 60.8202 142.715 59.7022C131.276 57.8442 125.504 56.3442 119.839 53.7582C117.284 52.5912 117.255 52.4602 118.815 49.1752C121.884 42.7112 128.984 36.1462 136.7 32.6372C137.918 32.0832 139.455 31.3852 140.115 31.0862C140.775 30.7862 142.395 30.1782 143.715 29.7332C145.035 29.2892 145.804 28.9202 145.423 28.9122C144.635 28.8972 141.874 29.8762 138.115 31.5032C128.191 35.7982 121.535 41.4872 117.936 48.7502C115.966 52.7262 116.567 52.6072 112.416 49.8452C89.7049 34.7342 92.7809 12.5592 119.378 -0.341766C122.053 -1.63877 124.44 -2.70077 124.684 -2.70077C124.927 -2.70077 125.438 -2.86277 125.82 -3.06077C126.202 -3.25877 127.595 -3.73377 128.915 -4.11677C130.235 -4.49977 131.675 -4.95977 132.115 -5.13977C132.555 -5.31977 133.365 -5.54077 133.915 -5.62977C134.757 -5.76577 134.725 -5.79277 133.715 -5.79577C133.055 -5.79777 131.705 -5.54177 130.715 -5.22677ZM177.406 23.9882C178.116 24.0762 179.376 24.0782 180.206 23.9912C181.036 23.9042 180.455 23.8322 178.915 23.8302C177.375 23.8282 176.696 23.8992 177.406 23.9882ZM182.915 24.1462C182.164 24.3082 182.958 24.4222 185.038 24.4522C194.516 24.5872 212.846 28.7782 220.515 32.5642C230.105 37.2992 228.312 45.9442 216.466 52.0912C215.185 52.7552 214.381 53.2992 214.679 53.2992C214.976 53.2992 216.631 52.5472 218.355 51.6292C229.245 45.8262 231.103 36.7522 222.313 32.2982C213.294 27.7272 189.32 22.7672 182.915 24.1462ZM168.815 24.3952C170.08 24.4742 172.15 24.4742 173.415 24.3952C174.68 24.3152 173.645 24.2502 171.115 24.2502C168.585 24.2502 167.55 24.3152 168.815 24.3952ZM162.215 25.1812C162.71 25.2772 163.52 25.2772 164.015 25.1812C164.51 25.0862 164.105 25.0082 163.115 25.0082C162.125 25.0082 161.72 25.0862 162.215 25.1812ZM155.02 26.3822C155.517 26.4782 156.237 26.4742 156.62 26.3742C157.002 26.2742 156.595 26.1952 155.715 26.2002C154.835 26.2042 154.522 26.2862 155.02 26.3822ZM207.915 55.2992C207.123 55.5532 207.082 55.6192 207.715 55.6192C208.155 55.6192 208.965 55.4752 209.515 55.2992C210.307 55.0452 210.348 54.9792 209.715 54.9792C209.275 54.9792 208.465 55.1232 207.915 55.2992ZM202.515 56.8992C201.806 57.2042 201.84 57.2462 202.815 57.2712C203.42 57.2862 203.915 57.1192 203.915 56.8992C203.915 56.4302 203.608 56.4302 202.515 56.8992ZM196.62 58.3822C197.117 58.4782 197.837 58.4742 198.22 58.3742C198.602 58.2742 198.195 58.1952 197.315 58.2002C196.435 58.2042 196.122 58.2862 196.62 58.3822ZM162.715 71.6432C161.895 71.8132 165.46 72.0402 171.315 72.1912C176.815 72.3332 182.485 72.6532 183.915 72.9012C185.345 73.1502 188.038 73.6282 189.9 73.9642C205.212 76.7232 206.209 88.1792 191.315 90.2152L190.115 90.3792L191.401 90.4392C193.542 90.5392 199.056 88.5342 200.927 86.9762C205.86 82.8672 202.377 76.1422 194.246 74.0772C186.72 72.1662 167.392 70.6742 162.715 71.6432ZM157.006 72.3882C157.716 72.4762 158.976 72.4782 159.806 72.3912C160.636 72.3042 160.055 72.2322 158.515 72.2302C156.975 72.2282 156.296 72.2992 157.006 72.3882ZM153.215 73.1752C153.6 73.2752 154.23 73.2752 154.615 73.1752C155 73.0742 154.685 72.9922 153.915 72.9922C153.145 72.9922 152.83 73.0742 153.215 73.1752ZM147.615 74.3752C148 74.4752 148.63 74.4752 149.015 74.3752C149.4 74.2742 149.085 74.1922 148.315 74.1922C147.545 74.1922 147.23 74.2742 147.615 74.3752ZM170.515 107.903C176.678 109.326 181.515 111.675 181.515 113.246C181.515 113.577 176.246 113.699 161.915 113.699C141.083 113.699 141.191 113.711 144.05 111.744C150.475 107.323 161.237 105.761 170.515 107.903ZM132.435 116.993C134.239 118.364 135.775 119.52 135.849 119.56C135.923 119.601 135.67 120.925 135.287 122.502C134.26 126.727 135.541 132.182 138.18 134.821C139.383 136.025 138.413 136.099 121.515 136.099C112.055 136.099 104.315 135.955 104.315 135.779C104.315 135.603 105.186 134.478 106.25 133.279C107.314 132.08 111.098 127.679 114.658 123.499C121.934 114.956 122.53 114.501 126.435 114.5C129.154 114.499 129.157 114.5 132.435 116.993ZM138.878 114.839C139.087 115.177 136.853 118.499 136.417 118.499C135.818 118.499 131.923 115.21 132.128 114.878C132.419 114.408 138.589 114.372 138.878 114.839ZM182.311 115.094C184.123 117.277 180.034 120.831 174.115 122.219C173.514 122.36 173.588 122.418 174.411 122.453C177.786 122.596 183.915 118.566 183.915 116.204C183.915 115.461 184.162 114.89 184.548 114.742C186.057 114.163 255.8 114.479 256.288 115.067C256.708 115.572 249.857 124.079 243.215 131.299C242.709 131.849 241.625 133.147 240.805 134.183L239.315 136.067L190.196 136.083L141.077 136.099L140.087 134.999C136.968 131.53 135.689 127.62 136.351 123.571C136.863 120.44 137.246 120.142 139.376 121.227C144.751 123.963 153.387 125.26 162.115 124.641L167.315 124.273L159.715 124.259C152.114 124.245 150.679 124.068 145.205 122.469C137.567 120.236 136.76 119.129 140.059 115.399L140.854 114.499H161.336C178.974 114.499 181.886 114.582 182.311 115.094ZM86.4499 121.999C88.0209 123.484 90.7479 126.059 92.5109 127.72C103.093 137.698 102.552 136.432 97.1149 138.49C92.7809 140.13 84.7589 143.239 83.7149 143.682C83.2749 143.868 81.7449 144.476 80.3149 145.033C78.8849 145.589 75.9149 146.767 73.7149 147.649L69.7149 149.254L67.5149 147.153C50.3309 130.741 50.3829 130.844 57.9149 128.173C59.7849 127.51 63.7449 126.04 66.7149 124.906C69.6849 123.773 73.2889 122.432 74.7249 121.928C76.1599 121.424 78.0499 120.634 78.9249 120.173C81.8889 118.61 83.2009 118.929 86.4499 121.999ZM169.615 123.188C168.9 123.277 168.315 123.53 168.315 123.751C168.315 123.972 168.656 124.045 169.073 123.912C169.491 123.78 170.616 123.517 171.573 123.329C173.43 122.964 172.159 122.873 169.615 123.188ZM142.967 138.714C147.686 141.556 154.152 142.724 161.555 142.071C167.355 141.559 170.619 140.847 165.715 141.163C158.875 141.604 152.619 141.41 150.092 140.677C147.39 139.894 143.515 138.09 143.515 137.616C143.515 137.442 164.161 137.299 189.395 137.299C214.629 137.299 235.104 137.45 234.895 137.635C234.686 137.82 233.885 138.207 233.115 138.495C232.345 138.783 231.175 139.242 230.515 139.516C229.855 139.789 227.425 140.742 225.115 141.634C222.805 142.526 217.437 144.616 213.186 146.277L205.457 149.299H154.486H103.515V145.099C103.515 141.677 103.406 140.899 102.929 140.899C102.46 140.899 102.32 141.717 102.229 144.999L102.115 149.099L87.3299 149.204C77.9389 149.271 72.6849 149.17 72.9299 148.927C73.1419 148.717 77.0949 147.09 81.7149 145.311C86.3349 143.531 90.4749 141.921 90.9149 141.732C91.3549 141.543 93.4249 140.726 95.5149 139.917C97.6049 139.108 99.8549 138.199 100.515 137.898C101.475 137.459 105.597 137.345 121.167 137.325L140.618 137.299L142.967 138.714ZM247.52 145.699C258.35 156.193 258.192 155.833 252.783 157.664C250.387 158.474 240.919 162.02 230.701 165.932C228.164 166.904 225.93 167.699 225.738 167.699C224.911 167.699 206.929 150.114 207.365 149.732C207.558 149.564 210.145 148.482 213.115 147.329C220.42 144.493 223.317 143.356 231.515 140.111C235.365 138.587 238.637 137.376 238.786 137.42C238.935 137.463 242.865 141.189 247.52 145.699ZM203.949 150.799C203.731 151.184 200.825 154.649 197.49 158.499C194.155 162.349 190.232 166.894 188.774 168.599L186.121 171.699L119.518 171.746C49.0939 171.797 51.9049 171.815 51.3619 171.293C50.9339 170.881 51.3369 170.348 56.6739 164.25C58.9609 161.637 62.6439 157.384 64.8569 154.799L68.8819 150.099H136.612C201.002 150.099 204.324 150.134 203.949 150.799ZM205.388 153.559C204.843 154.105 205.068 240.181 205.615 239.999C206.198 239.805 206.57 154.194 205.99 153.614C205.809 153.433 205.539 153.409 205.388 153.559ZM238.617 197.952L238.515 230.604L231.315 233.307C227.355 234.793 222.045 236.767 219.515 237.692C216.985 238.617 212.838 240.167 210.298 241.137L205.682 242.901L137.498 242.8L69.3149 242.699L69.2129 208.566C69.1319 181.557 69.0069 174.468 68.6129 174.6C68.2209 174.73 68.1149 182.118 68.1149 209.332V243.899L136.715 244.01L205.315 244.122L207.915 243.115C209.345 242.561 216.776 239.769 224.428 236.91C232.08 234.052 238.695 231.524 239.128 231.292C240.202 230.717 240.389 165.299 239.317 165.299C238.793 165.299 238.707 169.296 238.617 197.952ZM195.515 182.299C195.515 189.321 195.601 190.499 196.115 190.499C196.629 190.499 196.715 189.321 196.715 182.299C196.715 175.277 196.629 174.099 196.115 174.099C195.601 174.099 195.515 175.277 195.515 182.299ZM195.515 194.932C195.515 197.016 196.461 196.878 196.639 194.768C196.734 193.651 196.614 193.299 196.139 193.299C195.676 193.299 195.515 193.719 195.515 194.932ZM121.222 198.199C120.077 199.663 120.949 202.499 122.544 202.499C123.445 202.499 124.715 200.994 124.715 199.928C124.715 198.114 122.244 196.892 121.222 198.199ZM152.944 199.128C152.095 199.976 152.149 201.825 153.046 202.637C153.997 203.497 154.832 203.475 155.653 202.568C156.971 201.111 156.112 198.499 154.315 198.499C153.906 198.499 153.289 198.782 152.944 199.128ZM195.515 202.253C195.515 205.526 195.603 206.04 196.13 205.838C196.927 205.532 196.821 198.865 196.015 198.598C195.638 198.473 195.515 199.375 195.515 202.253ZM133.115 211.078C127.202 212.349 118.315 217.306 118.315 219.333C118.315 220.068 119.062 219.66 120.968 217.886C129.893 209.575 146.588 209.463 155.618 217.654C156.501 218.455 156.819 218.554 157.218 218.152C158.239 217.12 152.981 213.787 147.352 211.898C143.427 210.581 137.116 210.218 133.115 211.078Z" fill="#BEBEBE"/>
<path fill-rule="evenodd" clip-rule="evenodd" d="M161.02 -10.8178C161.517 -10.7218 162.237 -10.7258 162.62 -10.8258C163.002 -10.9258 162.595 -11.0048 161.715 -10.9998C160.835 -10.9958 160.522 -10.9138 161.02 -10.8178ZM190.82 -10.8138C191.429 -10.7218 192.329 -10.7238 192.82 -10.8188C193.312 -10.9138 192.815 -10.9898 191.715 -10.9868C190.615 -10.9838 190.212 -10.9058 190.82 -10.8138ZM166.515 -9.50077L164.515 -9.22677L166.315 -9.21077C167.305 -9.20277 168.655 -9.33277 169.315 -9.50077C170.892 -9.90177 169.44 -9.90177 166.515 -9.50077ZM186.42 -9.21377C187.029 -9.12177 187.929 -9.12377 188.42 -9.21877C188.912 -9.31377 188.415 -9.38977 187.315 -9.38677C186.215 -9.38377 185.812 -9.30577 186.42 -9.21377ZM154.42 -8.41377C155.029 -8.32177 155.929 -8.32377 156.42 -8.41877C156.912 -8.51377 156.415 -8.58977 155.315 -8.58677C154.215 -8.58377 153.812 -8.50577 154.42 -8.41377ZM106.49 8.59923L105.315 9.89923L106.615 8.72423C107.827 7.62923 108.099 7.29923 107.79 7.29923C107.721 7.29923 107.136 7.88423 106.49 8.59923ZM176.815 23.1952C178.08 23.2742 180.15 23.2742 181.415 23.1952C182.68 23.1152 181.645 23.0502 179.115 23.0502C176.585 23.0502 175.55 23.1152 176.815 23.1952ZM95.2389 26.6992C95.2409 28.0192 95.3159 28.5112 95.4049 27.7922C95.4939 27.0732 95.4919 25.9932 95.4009 25.3922C95.3099 24.7912 95.2369 25.3792 95.2389 26.6992ZM165.215 25.5862C165.82 25.6772 166.81 25.6772 167.415 25.5862C168.02 25.4942 167.525 25.4192 166.315 25.4192C165.105 25.4192 164.61 25.4942 165.215 25.5862ZM190.22 25.5822C190.717 25.6782 191.437 25.6742 191.82 25.5742C192.202 25.4742 191.795 25.3952 190.915 25.4002C190.035 25.4042 189.722 25.4862 190.22 25.5822ZM124.458 38.3752C124.61 38.5272 123.875 39.5622 122.825 40.6752L120.915 42.6992L122.997 40.7322C124.799 39.0292 125.303 38.0992 124.425 38.0992C124.291 38.0992 124.306 38.2232 124.458 38.3752ZM126.381 39.8292C125.565 40.6972 125.575 41.2992 126.405 41.2992C126.602 41.2992 126.644 41.1082 126.499 40.8742C126.355 40.6402 126.552 40.1002 126.938 39.6742C127.937 38.5702 127.432 38.7102 126.381 39.8292ZM114.455 60.4992C114.455 62.3692 114.524 63.1342 114.608 62.1992C114.692 61.2642 114.692 59.7342 114.608 58.7992C114.524 57.8642 114.455 58.6292 114.455 60.4992ZM116.849 60.4992C116.849 62.1492 116.92 62.8242 117.006 61.9992C117.093 61.1742 117.093 59.8242 117.006 58.9992C116.92 58.1742 116.849 58.8492 116.849 60.4992ZM184.615 59.1812C185.11 59.2772 185.92 59.2772 186.415 59.1812C186.91 59.0862 186.505 59.0082 185.515 59.0082C184.525 59.0082 184.12 59.0862 184.615 59.1812ZM153.406 59.9882C154.116 60.0762 155.376 60.0782 156.206 59.9912C157.036 59.9042 156.455 59.8322 154.915 59.8302C153.375 59.8282 152.696 59.8992 153.406 59.9882ZM166.815 59.9932C167.86 60.0752 169.57 60.0752 170.615 59.9932C171.66 59.9112 170.805 59.8432 168.715 59.8432C166.625 59.8432 165.77 59.9112 166.815 59.9932ZM187.215 60.7752C187.6 60.8752 188.23 60.8752 188.615 60.7752C189 60.6742 188.685 60.5922 187.915 60.5922C187.145 60.5922 186.83 60.6742 187.215 60.7752ZM148.015 61.5862C148.62 61.6772 149.61 61.6772 150.215 61.5862C150.82 61.4942 150.325 61.4192 149.115 61.4192C147.905 61.4192 147.41 61.4942 148.015 61.5862ZM173.026 61.5922C173.966 61.6772 175.406 61.6762 176.226 61.5902C177.045 61.5042 176.275 61.4352 174.515 61.4362C172.755 61.4382 172.085 61.5082 173.026 61.5922ZM158.615 61.9882C159.33 62.0772 160.5 62.0772 161.215 61.9882C161.93 61.9002 161.345 61.8272 159.915 61.8272C158.485 61.8272 157.9 61.9002 158.615 61.9882ZM168.626 70.7922C169.566 70.8772 171.006 70.8762 171.826 70.7902C172.645 70.7042 171.875 70.6352 170.115 70.6362C168.355 70.6382 167.685 70.7082 168.626 70.7922ZM161.006 71.1882C161.716 71.2762 162.976 71.2782 163.806 71.1912C164.636 71.1042 164.055 71.0322 162.515 71.0302C160.975 71.0282 160.296 71.0992 161.006 71.1882ZM175.822 71.1892C176.541 71.2782 177.621 71.2762 178.222 71.1852C178.823 71.0942 178.235 71.0212 176.915 71.0232C175.595 71.0252 175.103 71.1002 175.822 71.1892ZM153.715 72.0992C153.423 72.5722 153.814 72.5722 154.915 72.0992C155.686 71.7682 155.684 71.7542 154.839 71.7272C154.357 71.7122 153.851 71.8792 153.715 72.0992ZM163.42 72.7822C163.917 72.8782 164.637 72.8742 165.02 72.7742C165.402 72.6742 164.995 72.5952 164.115 72.6002C163.235 72.6042 162.922 72.6862 163.42 72.7822ZM175.615 90.7962C177.1 90.8732 179.53 90.8732 181.015 90.7962C182.5 90.7192 181.285 90.6562 178.315 90.6562C175.345 90.6562 174.13 90.7192 175.615 90.7962ZM179.82 92.3822C180.317 92.4782 181.037 92.4742 181.42 92.3742C181.802 92.2742 181.395 92.1952 180.515 92.2002C179.635 92.2042 179.322 92.2862 179.82 92.3822ZM122.429 97.0992C122.432 98.1992 122.51 98.6022 122.602 97.9942C122.694 97.3852 122.692 96.4852 122.597 95.9942C122.502 95.5022 122.426 95.9992 122.429 97.0992ZM124.829 99.8992C124.832 100.999 124.91 101.402 125.002 100.794C125.094 100.185 125.092 99.2852 124.997 98.7942C124.902 98.3022 124.826 98.7992 124.829 99.8992ZM160.215 107.592C161.15 107.676 162.68 107.676 163.615 107.592C164.55 107.508 163.785 107.439 161.915 107.439C160.045 107.439 159.28 107.508 160.215 107.592ZM143.261 112.986C143.155 113.158 143.888 113.299 144.891 113.299C145.894 113.299 146.715 113.228 146.715 113.141C146.715 112.827 143.45 112.68 143.261 112.986ZM125.02 113.182C125.517 113.278 126.237 113.274 126.62 113.174C127.002 113.074 126.595 112.995 125.715 113C124.835 113.004 124.522 113.086 125.02 113.182ZM134.03 113.195C135.303 113.275 137.283 113.274 138.43 113.193C139.577 113.113 138.535 113.048 136.115 113.049C133.695 113.05 132.757 113.115 134.03 113.195ZM155.815 113.198C159.39 113.265 165.24 113.265 168.815 113.198C172.39 113.132 169.465 113.078 162.315 113.078C155.165 113.078 152.24 113.132 155.815 113.198ZM201.815 113.199C211.77 113.258 228.06 113.258 238.015 113.199C247.97 113.139 239.825 113.091 219.915 113.091C200.005 113.091 191.86 113.139 201.815 113.199ZM83.4149 121.991C82.0129 122.325 84.2329 124.099 86.0519 124.099C87.0599 124.099 87.2019 123.367 86.2209 123.227C85.7009 123.153 85.3329 122.835 85.3569 122.48C85.3989 121.857 84.7109 121.683 83.4149 121.991ZM89.7929 122.985C90.1479 123.378 90.4629 123.699 90.4909 123.699C90.5199 123.699 90.5439 123.378 90.5439 122.985C90.5439 122.572 90.2489 122.27 89.8449 122.27C89.1989 122.27 89.1949 122.325 89.7929 122.985ZM87.8639 124.404C88.1279 124.896 88.5289 125.299 88.7559 125.299C88.9829 125.299 89.0589 125.644 88.9259 126.065C88.7919 126.487 88.8999 126.966 89.1669 127.131C89.4959 127.334 89.5719 127.225 89.4049 126.79C89.2699 126.439 89.3299 126.094 89.5379 126.025C89.7469 125.955 89.3469 125.361 88.6509 124.703C87.6169 123.727 87.4729 123.672 87.8639 124.404ZM68.3109 125.903C67.8999 126.399 67.9599 126.499 68.6659 126.499C69.1329 126.499 69.5149 126.33 69.5149 126.123C69.5149 125.43 68.8109 125.301 68.3109 125.903ZM155.632 125.596C157.126 125.673 159.466 125.673 160.832 125.595C162.197 125.517 160.975 125.454 158.115 125.454C155.255 125.455 154.137 125.519 155.632 125.596ZM91.2969 127.669C91.4479 127.914 91.2549 128.099 90.8499 128.099C90.2419 128.099 90.2679 128.191 91.0269 128.722C91.8529 129.301 92.7149 129.224 92.7149 128.572C92.7149 128.418 92.3359 128.055 91.8729 127.766C91.4099 127.477 91.1509 127.433 91.2969 127.669ZM95.4169 131.565C95.6939 131.676 95.7999 131.977 95.6529 132.233C95.5069 132.489 95.5379 132.561 95.7229 132.393C95.9079 132.225 96.6119 132.585 97.2869 133.193C98.3619 134.16 98.3439 134.111 97.1369 132.798C96.3779 131.974 95.5679 131.313 95.3369 131.331C95.1049 131.348 95.1409 131.453 95.4169 131.565ZM102.64 139.103C102.743 139.986 103.047 140.493 103.555 140.625C104.235 140.803 104.315 141.227 104.315 144.662V148.499H155.515C186.512 148.499 206.715 148.353 206.715 148.13C206.715 147.927 207.39 147.544 208.215 147.278C209.04 147.012 209.932 146.623 210.197 146.412C210.463 146.202 210.868 146.146 211.097 146.288C211.327 146.43 211.515 146.356 211.515 146.123C211.515 145.89 211.937 145.699 212.453 145.699C212.969 145.699 213.699 145.359 214.076 144.942C214.492 144.482 215.073 144.268 215.559 144.395C215.998 144.509 217.112 144.245 218.036 143.808C218.959 143.37 221.245 142.435 223.115 141.73C227.432 140.102 230.298 138.871 231.307 138.213C231.956 137.788 224.392 137.714 189.207 137.797C160.981 137.864 146.301 138.036 146.274 138.299C146.118 139.82 151.145 140.616 160.615 140.572C165.73 140.548 169.912 140.656 169.909 140.813C169.89 141.671 169.001 142.021 166.115 142.304C161.944 142.714 153.353 142.748 151.315 142.363C149.116 141.947 144.959 140.785 144.715 140.518C144.605 140.398 143.795 139.941 142.915 139.503C142.035 139.065 141.187 138.525 141.03 138.303C140.845 138.042 133.965 137.878 121.615 137.839L102.485 137.779L102.64 139.103ZM241.515 140.624C241.515 140.693 242.1 141.278 242.815 141.924L244.115 143.099L242.94 141.799C241.845 140.587 241.515 140.315 241.515 140.624ZM101.616 147.099C101.62 147.979 101.702 148.292 101.798 147.794C101.894 147.297 101.89 146.577 101.79 146.194C101.69 145.812 101.611 146.219 101.616 147.099ZM247.283 146.399C247.712 146.91 247.839 147.299 247.577 147.299C247.323 147.299 247.121 147.434 247.128 147.599C247.151 148.163 249.155 150.192 249.424 149.923C249.571 149.776 249.446 149.503 249.145 149.318C248.844 149.132 248.701 148.712 248.827 148.385C248.964 148.027 248.552 147.335 247.791 146.645C247.043 145.966 246.836 145.866 247.283 146.399ZM75.0599 148.605C75.2289 148.773 81.2049 148.863 88.341 148.804L101.315 148.698L88.035 148.499C80.73 148.389 74.8919 148.437 75.0599 148.605ZM250.499 150.125C250.316 150.42 250.355 150.521 250.595 150.373C251.229 149.981 252.915 152.054 252.915 153.225C252.915 153.938 253.158 154.33 253.662 154.429C254.183 154.531 254.315 154.422 254.097 154.069C253.87 153.703 253.984 153.64 254.506 153.84C255.114 154.074 255.149 154.022 254.726 153.513C254.45 153.18 254.037 153.024 253.808 153.165C253.579 153.307 253.502 153.244 253.637 153.026C253.772 152.808 253.19 151.953 252.344 151.128C251.246 150.055 250.719 149.769 250.499 150.125ZM101.015 150.799C118.23 150.857 146.4 150.857 163.615 150.799C180.83 150.741 166.745 150.694 132.315 150.694C97.8849 150.694 83.7999 150.741 101.015 150.799ZM209.515 151.899C210.261 152.669 210.962 153.299 211.072 153.299C211.182 153.299 210.661 152.669 209.915 151.899C209.169 151.129 208.468 150.499 208.358 150.499C208.248 150.499 208.769 151.129 209.515 151.899ZM204.986 152.021C204.616 152.43 204.434 152.884 204.581 153.031C204.728 153.179 204.503 153.302 204.082 153.305C203.551 153.309 203.469 153.409 203.813 153.628C204.205 153.876 204.334 163.15 204.415 196.921L204.519 239.899L204.617 196.626C204.714 153.813 204.723 153.35 205.511 153.1C206.634 152.744 207.115 153.164 207.115 154.5C207.115 155.134 207.483 156.278 207.934 157.041C208.489 157.982 208.611 158.516 208.314 158.699C207.751 159.047 208.562 160.099 209.393 160.099C209.733 160.099 209.915 160.389 209.833 160.799C209.743 161.247 210.298 161.965 211.371 162.792C213.1 164.125 214.315 166.029 214.315 167.407C214.315 167.992 214.516 168.14 215.105 167.986C215.692 167.832 216.56 168.461 218.482 170.43L221.068 173.081L224.792 173.08C228.536 173.08 229.336 172.89 233.39 171.044C234.532 170.524 235.815 170.099 236.242 170.099C236.715 170.099 237.19 169.67 237.458 168.999C237.989 167.672 237.892 164.77 237.335 165.322C237.126 165.53 236.631 165.699 236.235 165.699C235.839 165.699 235.515 165.887 235.515 166.117C235.515 166.346 235.29 166.498 235.015 166.453C234.74 166.409 234.245 166.476 233.915 166.602C233.585 166.729 232.415 167.136 231.315 167.508C230.215 167.88 228.955 168.334 228.515 168.518C224.977 169.997 224.283 169.626 216.895 162.324C211.254 156.747 210.142 155.865 208.996 156.058C208.821 156.087 208.731 155.812 208.796 155.447C208.96 154.528 208.034 154.286 207.763 155.177C207.642 155.574 207.605 155.391 207.68 154.769C207.893 152.998 205.922 150.987 204.986 152.021ZM201.626 155.799C200.871 156.775 200.579 157.431 201.019 157.158C201.254 157.013 201.523 157.03 201.615 157.197C201.708 157.363 201.72 157.251 201.643 156.948C201.565 156.645 201.706 156.15 201.957 155.848C202.208 155.546 202.323 155.299 202.213 155.299C202.103 155.299 201.839 155.524 201.626 155.799ZM64.1179 156.904C64.2519 157.121 64.0819 157.299 63.7389 157.299C63.0329 157.299 62.8919 158.314 63.5419 158.715C63.7759 158.86 64.2209 158.646 64.5289 158.239C65.2549 157.281 65.2489 157.036 64.4939 156.746C64.1379 156.61 63.9779 156.677 64.1179 156.904ZM199.679 159.099C199.53 159.694 199.142 160.099 198.721 160.099C198.331 160.099 197.766 160.404 197.464 160.776C196.996 161.352 196.998 161.402 197.478 161.113C197.91 160.853 197.99 160.968 197.823 161.607C197.454 163.02 198.609 162.189 199.4 160.472C199.793 159.618 200.34 158.915 200.615 158.909C201.328 158.895 201.237 158.099 200.523 158.099C200.197 158.099 199.817 158.549 199.679 159.099ZM60.5969 160.477C59.5779 161.621 59.5709 161.663 60.3609 161.914C61.3589 162.23 61.9069 161.788 61.1189 161.302C60.6359 161.003 60.6639 160.819 61.2929 160.123C61.7029 159.67 61.9509 159.299 61.8429 159.299C61.7349 159.299 61.1749 159.829 60.5969 160.477ZM196.415 163.587C195.814 163.802 195.741 164.899 196.328 164.899C196.74 164.899 197.346 163.778 197.064 163.537C196.982 163.466 196.69 163.489 196.415 163.587ZM240.485 198.655C240.511 227.393 240.441 231.448 239.915 231.709C238.342 232.489 237.013 233.018 233.315 234.339C231.115 235.125 228.91 235.864 228.415 235.98C227.92 236.097 227.515 236.331 227.515 236.5C227.515 236.67 227.02 236.898 226.415 237.008C225.03 237.259 222.953 238.001 221.009 238.939C220.181 239.338 218.831 239.789 218.009 239.94C217.187 240.091 216.425 240.339 216.315 240.492C216.063 240.841 210.67 242.899 210.007 242.899C209.736 242.899 209.515 243.068 209.515 243.274C209.515 243.481 208.703 243.772 207.71 243.921C206.717 244.07 205.807 244.351 205.686 244.545C205.561 244.748 176.224 244.899 136.914 244.899H68.3599L67.7379 244.01C67.2379 243.297 67.1149 241.875 67.1149 236.81C67.1149 230.2 67.0009 229.829 65.4229 231.299C64.9509 231.739 64.2529 232.099 63.8729 232.099C63.4929 232.099 63.1219 232.234 63.0479 232.399C62.9749 232.564 61.3479 233.756 59.4329 235.047C57.5179 236.339 55.6449 237.734 55.2709 238.147C54.8969 238.561 54.3859 238.899 54.1359 238.899C53.1089 238.899 50.3149 242.309 50.3149 243.564C50.3149 246.222 50.7279 247.068 52.6449 248.335C57.4269 251.495 59.2349 251.708 91.7149 252.942C103.266 253.381 158.732 253.237 169.715 252.739C171.915 252.64 180.555 252.269 188.915 251.915C207.898 251.113 214.697 250.475 218.115 249.175C218.995 248.841 220.615 248.25 221.715 247.863C225.408 246.563 229.927 244.549 230.322 244.026C230.436 243.876 231.876 243.09 233.522 242.279C237.386 240.377 239.702 239.133 241.041 238.243C241.632 237.85 242.655 237.236 243.315 236.878C248.419 234.108 251.783 231.25 252.852 228.773C254.16 225.746 254.2 225.523 253.669 224.241C252.615 221.699 247.038 218.646 242.618 218.192L240.721 217.998L240.588 191.948C240.479 170.47 240.461 171.647 240.485 198.655ZM191.719 167.295C191.089 167.953 190.65 168.555 190.744 168.633C190.838 168.711 191.428 168.173 192.054 167.437C193.469 165.776 193.26 165.687 191.719 167.295ZM56.3149 167.032C56.3149 167.362 56.1139 167.699 55.8689 167.781C55.6239 167.863 55.4889 168.249 55.5689 168.64C55.7029 169.292 55.7909 169.28 56.6359 168.489C57.5779 167.609 57.6379 166.873 56.7899 166.591C56.5289 166.504 56.3149 166.702 56.3149 167.032ZM186.727 167.958C186.184 168.234 185.625 168.784 185.487 169.18C185.246 169.866 182.581 169.908 126.675 170.1L68.1149 170.3L127.182 170.5C159.668 170.609 186.182 170.633 186.101 170.551C185.849 170.299 187.029 169.299 187.586 169.293C188.012 169.288 188.009 169.219 187.57 168.941C187.145 168.672 187.136 168.559 187.53 168.427C187.808 168.335 187.963 168.078 187.875 167.857C187.773 167.602 187.355 167.639 186.727 167.958ZM52.3039 169.91C51.2829 170.997 51.3089 171.305 52.4149 171.271C53.1939 171.247 53.2169 171.204 52.5889 170.956C51.9019 170.686 51.9079 170.629 52.6889 169.923C53.4229 169.258 53.5149 169.249 53.5149 169.837C53.5149 170.377 53.9009 170.487 55.6149 170.432C57.3429 170.376 57.4489 170.337 56.2149 170.208C55.3829 170.121 54.7149 169.832 54.7149 169.561C54.7149 168.772 53.1619 168.997 52.3039 169.91ZM59.0149 171.197C61.0499 171.27 64.3799 171.27 66.4149 171.197C68.4499 171.124 66.7849 171.065 62.7149 171.065C58.6449 171.065 56.9799 171.124 59.0149 171.197ZM181.02 171.182C181.517 171.278 182.237 171.274 182.62 171.174C183.002 171.074 182.595 170.995 181.715 171C180.835 171.004 180.522 171.086 181.02 171.182ZM65.7149 173.272C68.1349 173.397 96.3949 173.407 128.515 173.294L186.915 173.09L124.115 173.068C89.5749 173.055 63.2949 173.148 65.7149 173.272ZM68.8359 174.04C69.5219 174.31 69.5549 175.92 69.5259 208.088C69.5089 226.658 69.5819 241.766 69.6869 241.661C69.7919 241.556 69.9039 226.491 69.9359 208.184C69.9759 184.728 70.1209 174.819 70.4279 174.629C70.8969 174.339 69.7519 173.755 68.7149 173.755C68.2949 173.755 68.3309 173.84 68.8359 174.04ZM197.284 182.299C197.285 186.919 197.343 188.754 197.414 186.377C197.485 184 197.484 180.22 197.413 177.977C197.342 175.734 197.284 177.679 197.284 182.299ZM67.3039 202.499C67.3039 217.789 67.3539 224.044 67.4149 216.399C67.4759 208.754 67.4759 196.244 67.4149 188.599C67.3539 180.954 67.3039 187.209 67.3039 202.499ZM186.715 176.099C186.715 176.539 186.974 176.899 187.291 176.899C188.126 176.899 188.512 176.069 187.866 175.66C187.01 175.118 186.715 175.231 186.715 176.099ZM122.715 197.19C123.265 197.29 124.075 197.671 124.515 198.035C125.309 198.694 125.309 198.692 124.553 197.799C124.088 197.25 123.386 196.92 122.753 196.953L121.715 197.008L122.715 197.19ZM197.224 202.099C197.224 203.089 197.302 203.494 197.397 202.999C197.493 202.504 197.493 201.694 197.397 201.199C197.302 200.704 197.224 201.109 197.224 202.099ZM225.715 206.394C225.055 206.491 224.335 206.713 224.115 206.888C223.895 207.063 223.13 207.332 222.415 207.485C221.7 207.637 221.115 207.928 221.115 208.131C221.115 208.333 220.734 208.499 220.269 208.499C219.518 208.499 216.774 209.274 214.515 210.125C214.075 210.291 213.396 210.529 213.006 210.654C212.31 210.877 211.646 211.963 211.993 212.31C212.214 212.531 216.842 211.607 217.115 211.287C217.35 211.013 218.794 210.492 222.115 209.482C223.435 209.081 224.695 208.629 224.915 208.478C225.135 208.327 225.99 208.082 226.815 207.933C227.945 207.729 228.315 207.47 228.315 206.881C228.315 206.082 228.113 206.044 225.715 206.394ZM137.006 209.988C137.716 210.076 138.976 210.078 139.806 209.991C140.636 209.904 140.055 209.832 138.515 209.83C136.975 209.828 136.296 209.899 137.006 209.988ZM225.315 212.099C225.179 212.319 224.549 212.499 223.915 212.499C223.281 212.499 222.668 212.651 222.554 212.836C222.439 213.022 220.944 213.574 219.23 214.063C217.517 214.553 215.755 215.106 215.315 215.293C214.875 215.479 213.93 215.871 213.215 216.163C212.444 216.478 211.915 216.98 211.915 217.397C211.915 218.257 212.691 218.287 214.577 217.499C215.366 217.169 216.351 216.899 216.764 216.899C217.177 216.899 217.515 216.76 217.515 216.591C217.515 216.421 218.612 216.074 219.952 215.819C221.293 215.564 222.694 215.08 223.066 214.743C223.438 214.407 224.546 214.079 225.529 214.015C227.424 213.892 229.121 212.606 228.179 212.006C227.499 211.574 225.602 211.635 225.315 212.099ZM157.57 217.211C158.037 217.993 158.029 218.178 157.515 218.505C157.097 218.771 157.07 218.889 157.428 218.893C158.283 218.903 158.472 217.682 157.725 216.968C157.064 216.335 157.055 216.349 157.57 217.211ZM225.515 217.592C224.965 217.693 224.335 217.906 224.115 218.065C223.895 218.225 222.905 218.581 221.915 218.857C220.925 219.133 219.605 219.616 218.983 219.929C218.36 220.243 217.543 220.499 217.167 220.499C215.013 220.499 211.231 222.516 211.765 223.38C212.057 223.852 215.425 223.768 215.586 223.285C215.765 222.749 218.601 221.739 219.991 221.717C220.583 221.707 221.179 221.519 221.315 221.299C221.451 221.079 221.912 220.899 222.339 220.899C222.766 220.899 223.115 220.719 223.115 220.499C223.115 220.279 223.65 220.099 224.304 220.099C226.116 220.099 229.202 218.486 228.654 217.825C228.219 217.301 227.419 217.242 225.515 217.592ZM224.515 219.299C223.414 219.772 223.023 219.772 223.315 219.299C223.451 219.079 223.957 218.912 224.439 218.927C225.284 218.954 225.286 218.968 224.515 219.299ZM221.715 220.099C221.579 220.319 221.073 220.486 220.591 220.471C219.746 220.444 219.744 220.43 220.515 220.099C221.616 219.626 222.007 219.626 221.715 220.099ZM219.515 220.899C219.515 221.119 219.02 221.286 218.415 221.271C217.44 221.246 217.406 221.204 218.115 220.899C219.208 220.43 219.515 220.43 219.515 220.899ZM226.715 221.015C226.715 221.309 226.076 221.8 225.296 222.107C223.425 222.84 222.933 223.453 223.471 224.378C223.702 224.775 223.896 224.874 223.903 224.599C223.91 224.324 224.359 224.099 224.901 224.099C227.703 224.099 229.442 222.268 227.715 221.136C226.941 220.628 226.715 220.601 226.715 221.015ZM215.695 222.047C215.105 222.588 213.115 222.962 213.115 222.532C213.115 222.322 213.7 222.077 214.415 221.988C215.13 221.9 215.796 221.798 215.895 221.763C215.994 221.728 215.904 221.856 215.695 222.047ZM220.515 223.751C219.855 223.962 218.968 224.212 218.544 224.307C218.121 224.402 217.644 224.691 217.485 224.948C217.326 225.205 216.924 225.311 216.591 225.184C215.84 224.895 213.15 225.689 212.229 226.47C210.745 227.73 213.334 228.726 214.939 227.512C215.366 227.189 216.12 226.919 216.615 226.912C217.11 226.905 217.515 226.739 217.515 226.544C217.515 226.349 218.348 226.065 219.366 225.912C221.307 225.621 222.987 224.464 222.534 223.73C222.227 223.234 222.132 223.235 220.515 223.751ZM216.315 226.099C216.315 226.319 215.966 226.499 215.539 226.499C215.112 226.499 214.651 226.679 214.515 226.899C214.379 227.119 213.908 227.299 213.468 227.299C212.323 227.299 212.926 226.578 214.435 226.141C216.167 225.64 216.315 225.637 216.315 226.099ZM234.715 229.699C234.715 230.17 234.982 230.499 235.364 230.499C235.862 230.499 235.909 230.374 235.567 229.962C235.322 229.667 235.24 229.307 235.385 229.162C235.53 229.017 235.438 228.899 235.182 228.899C234.925 228.899 234.715 229.259 234.715 229.699ZM206.493 240.134C206.346 240.373 205.885 240.48 205.469 240.371C205.054 240.263 204.815 240.337 204.938 240.536C205.279 241.088 206.158 240.97 206.715 240.299C206.989 239.969 207.112 239.699 206.988 239.699C206.864 239.699 206.641 239.895 206.493 240.134Z" fill="#E4E4E6"/>
</g>
<path d="M30.88 329V326.94L25.18 317.98H25.12V329H24.02V315.9H25.1L30.82 324.96H30.88V315.9H31.98V329H30.88ZM33.8 322.32C33.8 321.28 33.8667 320.38 34 319.62C34.1333 318.86 34.3467 318.173 34.64 317.56C35.24 316.32 36.36 315.7 38 315.7C39.8667 315.713 41.0933 316.587 41.68 318.32C42.0267 319.32 42.2 320.5 42.2 321.86C42.2 323.207 42.1333 324.28 42 325.08C41.8667 325.88 41.6533 326.6 41.36 327.24C40.7467 328.547 39.6267 329.2 38 329.2C36.4 329.2 35.2867 328.547 34.66 327.24C34.0867 326.053 33.8 324.413 33.8 322.32ZM41.02 322.48C41.02 321.76 41 321.18 40.96 320.74C40.9333 320.3 40.86 319.813 40.74 319.28C40.62 318.747 40.4533 318.307 40.24 317.96C40.04 317.613 39.7467 317.327 39.36 317.1C38.9867 316.86 38.5333 316.74 38 316.74C37.4667 316.74 37.0067 316.86 36.62 317.1C36.2467 317.327 35.9533 317.613 35.74 317.96C35.54 318.307 35.38 318.747 35.26 319.28C35.0733 320.107 34.98 321.027 34.98 322.04C34.98 323.04 35.0133 323.853 35.08 324.48C35.16 325.093 35.3 325.7 35.5 326.3C35.9133 327.54 36.7467 328.16 38 328.16C39.28 328.16 40.12 327.533 40.52 326.28C40.8667 325.213 41.0333 323.947 41.02 322.48ZM54.08 329V315.9H55.18V321.98H60.82V315.9H61.92V329H60.82V323H55.18V329H54.08ZM63.34 329L67.1 315.9H69.02L72.64 329H71.46L70.64 325.98H65.34L64.5 329H63.34ZM70.38 324.98L68.22 316.9H67.88L65.62 324.98H70.38ZM78.52 323.34V329H77.44V323.34L73.58 315.9H74.9L77.96 322.2H78L81.06 315.9H82.38L78.52 323.34ZM97.32 324.2H95.48V329H94.38V315.9H97.32C98.92 315.9 100.1 316.207 100.86 316.82C101.633 317.42 102.02 318.467 102.02 319.96C102.02 321.453 101.633 322.533 100.86 323.2C100.087 323.867 98.9067 324.2 97.32 324.2ZM97.32 316.9H95.48V323.2H97.32C98.5467 323.2 99.44 322.953 100 322.46C100.573 321.967 100.86 321.14 100.86 319.98C100.86 318.82 100.58 318.02 100.02 317.58C99.46 317.127 98.56 316.9 97.32 316.9ZM108.36 323.62C107.64 323.66 107.173 323.68 106.96 323.68H105.32V329H104.22V315.9H107.16C108.787 315.9 109.98 316.18 110.74 316.74C111.5 317.3 111.88 318.287 111.88 319.7C111.88 320.647 111.687 321.407 111.3 321.98C110.927 322.553 110.32 323.02 109.48 323.38C110.387 325.1 111.213 326.973 111.96 329H110.76C110.027 327.053 109.227 325.26 108.36 323.62ZM107.12 316.9H105.32V322.68H106.92C108.147 322.68 109.087 322.46 109.74 322.02C110.393 321.567 110.72 320.793 110.72 319.7C110.72 318.607 110.427 317.867 109.84 317.48C109.267 317.093 108.36 316.9 107.12 316.9ZM113.8 322.32C113.8 321.28 113.867 320.38 114 319.62C114.133 318.86 114.347 318.173 114.64 317.56C115.24 316.32 116.36 315.7 118 315.7C119.867 315.713 121.093 316.587 121.68 318.32C122.027 319.32 122.2 320.5 122.2 321.86C122.2 323.207 122.133 324.28 122 325.08C121.867 325.88 121.653 326.6 121.36 327.24C120.747 328.547 119.627 329.2 118 329.2C116.4 329.2 115.287 328.547 114.66 327.24C114.087 326.053 113.8 324.413 113.8 322.32ZM121.02 322.48C121.02 321.76 121 321.18 120.96 320.74C120.933 320.3 120.86 319.813 120.74 319.28C120.62 318.747 120.453 318.307 120.24 317.96C120.04 317.613 119.747 317.327 119.36 317.1C118.987 316.86 118.533 316.74 118 316.74C117.467 316.74 117.007 316.86 116.62 317.1C116.247 317.327 115.953 317.613 115.74 317.96C115.54 318.307 115.38 318.747 115.26 319.28C115.073 320.107 114.98 321.027 114.98 322.04C114.98 323.04 115.013 323.853 115.08 324.48C115.16 325.093 115.3 325.7 115.5 326.3C115.913 327.54 116.747 328.16 118 328.16C119.28 328.16 120.12 327.533 120.52 326.28C120.867 325.213 121.033 323.947 121.02 322.48ZM124.2 329V315.9H126.88C127.867 315.9 128.673 316 129.3 316.2C129.94 316.387 130.48 316.727 130.92 317.22C131.36 317.713 131.673 318.387 131.86 319.24C132.06 320.08 132.16 321.153 132.16 322.46C132.16 323.753 132.053 324.833 131.84 325.7C131.627 326.553 131.287 327.22 130.82 327.7C130.353 328.18 129.807 328.52 129.18 328.72C128.553 328.907 127.773 329 126.84 329H124.2ZM129.22 327.56C129.793 327.267 130.227 326.72 130.52 325.92C130.827 325.107 130.98 323.953 130.98 322.46C130.98 320.953 130.833 319.8 130.54 319C130.247 318.187 129.82 317.633 129.26 317.34C128.7 317.047 127.907 316.9 126.88 316.9H125.3V328H126.84C127.867 328 128.66 327.853 129.22 327.56ZM134.08 325.22V315.9H135.18V325.08C135.18 327.133 136.12 328.16 138 328.16C138.947 328.16 139.653 327.88 140.12 327.32C140.587 326.747 140.82 326 140.82 325.08V315.9H141.92V325.22C141.92 326.513 141.58 327.5 140.9 328.18C140.233 328.86 139.253 329.2 137.96 329.2C136.667 329.2 135.693 328.847 135.04 328.14C134.4 327.433 134.08 326.46 134.08 325.22ZM151.52 327.64L151.78 328.66C150.607 329.007 149.553 329.18 148.62 329.18C147.087 329.18 145.947 328.653 145.2 327.6C144.467 326.533 144.1 324.82 144.1 322.46C144.1 320.1 144.46 318.387 145.18 317.32C145.9 316.24 147.053 315.7 148.64 315.7C149.613 315.7 150.627 315.907 151.68 316.32L151.36 317.32C150.4 316.92 149.493 316.72 148.64 316.72C147.453 316.72 146.593 317.173 146.06 318.08C145.54 318.973 145.28 320.42 145.28 322.42C145.28 324.42 145.56 325.873 146.12 326.78C146.68 327.687 147.52 328.14 148.64 328.14C149.387 328.14 150.347 327.973 151.52 327.64ZM153.96 316.92V315.9H162V316.92H158.52V329H157.42V316.92H153.96ZM163.8 322.32C163.8 321.28 163.867 320.38 164 319.62C164.133 318.86 164.347 318.173 164.64 317.56C165.24 316.32 166.36 315.7 168 315.7C169.867 315.713 171.093 316.587 171.68 318.32C172.027 319.32 172.2 320.5 172.2 321.86C172.2 323.207 172.133 324.28 172 325.08C171.867 325.88 171.653 326.6 171.36 327.24C170.747 328.547 169.627 329.2 168 329.2C166.4 329.2 165.287 328.547 164.66 327.24C164.087 326.053 163.8 324.413 163.8 322.32ZM171.02 322.48C171.02 321.76 171 321.18 170.96 320.74C170.933 320.3 170.86 319.813 170.74 319.28C170.62 318.747 170.453 318.307 170.24 317.96C170.04 317.613 169.747 317.327 169.36 317.1C168.987 316.86 168.533 316.74 168 316.74C167.467 316.74 167.007 316.86 166.62 317.1C166.247 317.327 165.953 317.613 165.74 317.96C165.54 318.307 165.38 318.747 165.26 319.28C165.073 320.107 164.98 321.027 164.98 322.04C164.98 323.04 165.013 323.853 165.08 324.48C165.16 325.093 165.3 325.7 165.5 326.3C165.913 327.54 166.747 328.16 168 328.16C169.28 328.16 170.12 327.533 170.52 326.28C170.867 325.213 171.033 323.947 171.02 322.48ZM177.52 322.72C176.333 322.427 175.46 322.007 174.9 321.46C174.353 320.9 174.08 320.093 174.08 319.04C174.08 317.987 174.44 317.167 175.16 316.58C175.893 315.993 176.833 315.7 177.98 315.7C179.127 315.7 180.293 315.907 181.48 316.32L181.2 317.34C180.093 316.94 179.073 316.74 178.14 316.74C177.22 316.74 176.513 316.94 176.02 317.34C175.527 317.727 175.28 318.293 175.28 319.04C175.28 319.787 175.48 320.353 175.88 320.74C176.28 321.127 177.073 321.48 178.26 321.8C179.46 322.107 180.327 322.52 180.86 323.04C181.393 323.547 181.66 324.373 181.66 325.52C181.66 326.653 181.273 327.553 180.5 328.22C179.74 328.873 178.753 329.2 177.54 329.2C176.633 329.2 175.487 329.007 174.1 328.62L174.36 327.6C175.72 327.973 176.813 328.16 177.64 328.16C178.467 328.16 179.147 327.933 179.68 327.48C180.213 327.013 180.48 326.367 180.48 325.54C180.48 324.713 180.287 324.107 179.9 323.72C179.513 323.333 178.72 323 177.52 322.72ZM193.34 329L197.1 315.9H199.02L202.64 329H201.46L200.64 325.98H195.34L194.5 329H193.34ZM200.38 324.98L198.22 316.9H197.88L195.62 324.98H200.38ZM208.32 329.2C206.773 329.2 205.627 328.667 204.88 327.6C204.133 326.533 203.76 324.82 203.76 322.46C203.76 320.087 204.127 318.367 204.86 317.3C205.593 316.233 206.787 315.7 208.44 315.7C209.52 315.7 210.653 315.913 211.84 316.34L211.56 317.36C210.347 316.947 209.307 316.74 208.44 316.74C207.187 316.74 206.287 317.187 205.74 318.08C205.207 318.96 204.94 320.407 204.94 322.42C204.94 324.42 205.22 325.88 205.78 326.8C206.34 327.707 207.187 328.16 208.32 328.16C209 328.16 209.82 328 210.78 327.68V323.68H208.52V322.7H211.88V328.46C210.507 328.953 209.32 329.2 208.32 329.2ZM218.36 323.62C217.64 323.66 217.173 323.68 216.96 323.68H215.32V329H214.22V315.9H217.16C218.787 315.9 219.98 316.18 220.74 316.74C221.5 317.3 221.88 318.287 221.88 319.7C221.88 320.647 221.687 321.407 221.3 321.98C220.927 322.553 220.32 323.02 219.48 323.38C220.387 325.1 221.213 326.973 221.96 329H220.76C220.027 327.053 219.227 325.26 218.36 323.62ZM217.12 316.9H215.32V322.68H216.92C218.147 322.68 219.087 322.46 219.74 322.02C220.393 321.567 220.72 320.793 220.72 319.7C220.72 318.607 220.427 317.867 219.84 317.48C219.267 317.093 218.36 316.9 217.12 316.9ZM224.64 329V315.9H231.46V316.88H225.74V321.84H230.92V322.82H225.74V328.02H231.52V329H224.64ZM238.32 329.2C236.773 329.2 235.627 328.667 234.88 327.6C234.133 326.533 233.76 324.82 233.76 322.46C233.76 320.087 234.127 318.367 234.86 317.3C235.593 316.233 236.787 315.7 238.44 315.7C239.52 315.7 240.653 315.913 241.84 316.34L241.56 317.36C240.347 316.947 239.307 316.74 238.44 316.74C237.187 316.74 236.287 317.187 235.74 318.08C235.207 318.96 234.94 320.407 234.94 322.42C234.94 324.42 235.22 325.88 235.78 326.8C236.34 327.707 237.187 328.16 238.32 328.16C239 328.16 239.82 328 240.78 327.68V323.68H238.52V322.7H241.88V328.46C240.507 328.953 239.32 329.2 238.32 329.2ZM243.34 329L247.1 315.9H249.02L252.64 329H251.46L250.64 325.98H245.34L244.5 329H243.34ZM250.38 324.98L248.22 316.9H247.88L245.62 324.98H250.38ZM254.2 329V315.9H256.88C257.867 315.9 258.673 316 259.3 316.2C259.94 316.387 260.48 316.727 260.92 317.22C261.36 317.713 261.673 318.387 261.86 319.24C262.06 320.08 262.16 321.153 262.16 322.46C262.16 323.753 262.053 324.833 261.84 325.7C261.627 326.553 261.287 327.22 260.82 327.7C260.353 328.18 259.807 328.52 259.18 328.72C258.553 328.907 257.773 329 256.84 329H254.2ZM259.22 327.56C259.793 327.267 260.227 326.72 260.52 325.92C260.827 325.107 260.98 323.953 260.98 322.46C260.98 320.953 260.833 319.8 260.54 319C260.247 318.187 259.82 317.633 259.26 317.34C258.7 317.047 257.907 316.9 256.88 316.9H255.3V328H256.84C257.867 328 258.66 327.853 259.22 327.56ZM263.8 322.32C263.8 321.28 263.867 320.38 264 319.62C264.133 318.86 264.347 318.173 264.64 317.56C265.24 316.32 266.36 315.7 268 315.7C269.867 315.713 271.093 316.587 271.68 318.32C272.027 319.32 272.2 320.5 272.2 321.86C272.2 323.207 272.133 324.28 272 325.08C271.867 325.88 271.653 326.6 271.36 327.24C270.747 328.547 269.627 329.2 268 329.2C266.4 329.2 265.287 328.547 264.66 327.24C264.087 326.053 263.8 324.413 263.8 322.32ZM271.02 322.48C271.02 321.76 271 321.18 270.96 320.74C270.933 320.3 270.86 319.813 270.74 319.28C270.62 318.747 270.453 318.307 270.24 317.96C270.04 317.613 269.747 317.327 269.36 317.1C268.987 316.86 268.533 316.74 268 316.74C267.467 316.74 267.007 316.86 266.62 317.1C266.247 317.327 265.953 317.613 265.74 317.96C265.54 318.307 265.38 318.747 265.26 319.28C265.073 320.107 264.98 321.027 264.98 322.04C264.98 323.04 265.013 323.853 265.08 324.48C265.16 325.093 265.3 325.7 265.5 326.3C265.913 327.54 266.747 328.16 268 328.16C269.28 328.16 270.12 327.533 270.52 326.28C270.867 325.213 271.033 323.947 271.02 322.48ZM277.52 322.72C276.333 322.427 275.46 322.007 274.9 321.46C274.353 320.9 274.08 320.093 274.08 319.04C274.08 317.987 274.44 317.167 275.16 316.58C275.893 315.993 276.833 315.7 277.98 315.7C279.127 315.7 280.293 315.907 281.48 316.32L281.2 317.34C280.093 316.94 279.073 316.74 278.14 316.74C277.22 316.74 276.513 316.94 276.02 317.34C275.527 317.727 275.28 318.293 275.28 319.04C275.28 319.787 275.48 320.353 275.88 320.74C276.28 321.127 277.073 321.48 278.26 321.8C279.46 322.107 280.327 322.52 280.86 323.04C281.393 323.547 281.66 324.373 281.66 325.52C281.66 326.653 281.273 327.553 280.5 328.22C279.74 328.873 278.753 329.2 277.54 329.2C276.633 329.2 275.487 329.007 274.1 328.62L274.36 327.6C275.72 327.973 276.813 328.16 277.64 328.16C278.467 328.16 279.147 327.933 279.68 327.48C280.213 327.013 280.48 326.367 280.48 325.54C280.48 324.713 280.287 324.107 279.9 323.72C279.513 323.333 278.72 323 277.52 322.72ZM286.9 329.12V327.4H288.42V329.12H286.9ZM287.18 325.24L287 315.24H288.32L288.14 325.24H287.18Z" fill="#B0B0B0"/>
<path d="M193.444 53.235C192.799 50.6463 191.294 48.3459 189.169 46.7014C187.044 45.0568 184.422 44.1632 181.722 44.1632C179.022 44.1632 176.401 45.0568 174.276 46.7014C172.151 48.3459 170.645 50.6463 170 53.235H193.444Z" stroke="#B6B6B6" stroke-width="1.193" stroke-linecap="round" stroke-linejoin="round"/>
<path d="M311.892 53.2351C311.183 50.2848 309.571 47.6217 307.275 45.6081C304.98 43.5946 302.112 42.3284 299.061 41.9818C300.02 36.9782 299.848 31.8271 298.556 26.8971C297.264 21.9671 294.884 17.38 291.588 13.4641C288.291 9.5482 284.158 6.40026 279.486 4.24555C274.813 2.09084 269.716 0.98263 264.559 1.00021C256.325 1.00053 248.352 3.86119 242.038 9.08137C235.724 14.3015 231.471 21.5486 230.023 29.5537C226.711 26.9965 222.738 25.4102 218.558 24.9759C214.377 24.5416 210.157 25.2769 206.379 27.0977C202.601 28.9185 199.418 31.7516 197.193 35.2734C194.968 38.7953 193.79 42.8641 193.794 47.0152C193.801 49.1287 194.111 51.2306 194.716 53.2581L311.892 53.2351Z" stroke="#B6B6B6" stroke-width="1.193" stroke-linecap="round" stroke-linejoin="round"/>
<path d="M12.9089 80.0399C12.5878 78.7191 11.8258 77.5435 10.7456 76.7025C9.66541 75.8615 8.32994 75.4042 6.95442 75.4042C5.57891 75.4042 4.24346 75.8615 3.16326 76.7025C2.08306 77.5435 1.32104 78.7191 1 80.0399H12.9089Z" stroke="#B6B6B6" stroke-width="1.193" stroke-linecap="round" stroke-linejoin="round"/>
<path d="M73.0363 80.0399C72.682 78.5339 71.8657 77.1726 70.6987 76.1419C69.5318 75.1112 68.0711 74.4612 66.5162 74.2808C67.0774 71.9571 67.1534 69.5449 66.7395 67.1913C66.3256 64.8377 65.4305 62.592 64.1088 60.5912C62.7871 58.5905 61.0666 56.8765 59.0521 55.554C57.0377 54.2314 54.7715 53.3279 52.3918 52.8987C50.0121 52.4694 47.5688 52.5234 45.2109 53.0572C42.853 53.5911 40.63 54.5937 38.6774 56.0038C36.7248 57.414 35.0835 59.2021 33.8537 61.2593C32.624 63.3164 31.8314 65.5993 31.5245 67.9688C29.8435 66.6716 27.8273 65.8668 25.7057 65.6464C23.584 65.4259 21.4424 65.7987 19.5248 66.722C17.6073 67.6454 15.9911 69.0822 14.8606 70.8688C13.73 72.6553 13.1305 74.7196 13.1305 76.8263C13.1358 77.9022 13.2928 78.9722 13.597 80.0053L73.0363 80.0399Z" stroke="#B6B6B6" stroke-width="1.193" stroke-linecap="round" stroke-linejoin="round"/>
<path d="M66.9827 98.6302C66.7816 97.7959 66.3015 97.053 65.62 96.5214C64.9385 95.9898 64.0954 95.7007 63.227 95.7007C62.3585 95.7007 61.5154 95.9898 60.8339 96.5214C60.1524 97.053 59.6723 97.7959 59.4712 98.6302H66.9827Z" stroke="#B6B6B6" stroke-width="1.193" stroke-linecap="round" stroke-linejoin="round"/>
<path d="M104.937 98.6302C104.71 97.6837 104.193 96.8295 103.456 96.1842C102.719 95.5389 101.799 95.1341 100.82 95.025C100.947 94.3527 101.009 93.6701 101.006 92.9863C100.972 90.239 99.9067 87.6019 98.0174 85.585C96.128 83.5681 93.5485 82.3145 90.7776 82.0667C88.0066 81.8188 85.241 82.5943 83.0154 84.2432C80.7898 85.892 79.2624 88.2972 78.7283 90.9936C77.6669 90.1756 76.394 89.6685 75.0549 89.5302C73.7157 89.392 72.3642 89.6281 71.1543 90.2116C69.9445 90.7952 68.925 91.7027 68.2122 92.8307C67.4994 93.9587 67.1219 95.2618 67.1227 96.5915C67.1238 97.2697 67.222 97.9445 67.4143 98.5956L104.937 98.6302Z" stroke="#B6B6B6" stroke-width="1.193" stroke-linecap="round" stroke-linejoin="round"/>
<path d="M102 270.696C102 263.964 105.048 259 111.929 259C118.81 259 122 263.843 122 270.696V294.304C122 301.036 118.929 306 111.929 306C104.929 306 102 301.157 102 294.304V270.696ZM104.976 294.522C104.976 299.559 106.929 303.24 111.929 303.24C116.929 303.24 119.071 299.559 119.071 294.522V270.502C119.071 265.489 117.071 261.785 111.929 261.785C106.786 261.785 104.976 265.489 104.976 270.502V294.522Z" fill="#9A9A9A"/>
<path d="M127 270.696C127 263.964 130.048 259 136.929 259C143.81 259 147 263.843 147 270.696V294.304C147 301.036 143.952 306 136.929 306C129.905 306 127 301.157 127 294.304V270.696ZM129.976 294.522C129.976 299.559 131.929 303.24 136.929 303.24C141.929 303.24 144.071 299.559 144.071 294.522V270.502C144.071 265.489 142.071 261.785 136.929 261.785C131.786 261.785 129.976 265.489 129.976 270.502V294.522Z" fill="#9A9A9A"/>
<path d="M161.298 259C168.272 259 171 263.555 171 270.399V275.52C171 282.906 167.679 286.649 160.516 286.649H154.894V306H152V259H161.298ZM160.516 283.842C165.758 283.842 168.011 281.38 168.011 275.717V270.202C168.011 265.106 166.327 261.807 161.298 261.807H154.894V283.965L160.516 283.842Z" fill="#9A9A9A"/>
<path d="M195.927 270.594V271.56H193.011V270.376C193.011 265.546 191.164 261.827 186.134 261.827C181.103 261.827 179.232 265.449 179.232 270.328C179.232 281.51 196 281.703 196 294.48C196 301.121 193.084 306 185.988 306C178.892 306 176 301.17 176 294.48V292.064H178.916V294.625C178.916 299.455 180.836 303.126 185.939 303.126C191.043 303.126 192.962 299.551 192.962 294.625C192.962 283.563 176.194 283.37 176.194 270.473C176.194 263.565 179.232 259.073 186.061 259.001C192.889 258.928 195.927 263.928 195.927 270.594Z" fill="#9A9A9A"/>
<path d="M204 300V306H201V300H204Z" fill="#9A9A9A"/>
<path d="M212 300V306H209V300H212Z" fill="#9A9A9A"/>
<path d="M220 300V306H217V300H220Z" fill="#9A9A9A"/>
</svg>
