<svg width="641" height="352" viewBox="0 0 641 352" fill="none" xmlns="http://www.w3.org/2000/svg">
<path d="M200.806 171.814C200.806 115.122 246.763 69.1644 303.455 69.1644C315.351 69.1644 326.762 71.2097 337.387 74.9311C326.01 70.4924 313.642 68.0298 300.693 68.0298C244.899 68.0298 199.67 113.258 199.67 169.051C199.67 182 202.134 194.368 206.574 205.747C202.853 195.122 200.806 183.708 200.806 171.814Z" fill="#2F2C33"/>
<path d="M385.064 219.572L314.587 165.126L244.108 219.572H253.774L314.587 172.592L375.4 219.572H385.064Z" fill="#2F2C33"/>
<path d="M305.433 199.189H313.738V190.885C309.344 191.289 305.838 194.796 305.433 199.189Z" fill="#2F2C33"/>
<path d="M313.737 209.192V200.887H305.432C305.837 205.281 309.343 208.788 313.737 209.192Z" fill="#2F2C33"/>
<path d="M315.436 209.192C319.83 208.788 323.336 205.281 323.741 200.887H315.436V209.192Z" fill="#2F2C33"/>
<path d="M315.436 190.886V199.19H323.741C323.336 194.797 319.83 191.29 315.436 190.886Z" fill="#2F2C33"/>
<path d="M332.975 107.047C332.353 107.781 332.019 108.663 331.951 109.557C331.724 109.499 331.489 109.459 331.243 109.459H328.523L328.947 105.217L332.957 100.471C334.375 100.973 335.953 100.308 336.553 98.9081C336.851 98.2134 336.844 97.4681 336.608 96.8094L340.293 98.3854L332.975 107.047ZM329.159 98.8641L331.344 99.7988L329.059 102.504L329.159 98.8641ZM323.868 109.459H320.725L321.016 106.497L322.959 101.36H324.417L324.556 105.733L323.868 109.459ZM322.245 118.205H318.419L318.472 115.197H322.539L322.245 118.205ZM394.899 149.581C389.396 122.923 372.828 100.265 350.225 86.6308L344.168 93.8014L340.073 92.0508L346.476 84.4734C345.976 84.2014 345.46 83.9561 344.953 83.6934L338.471 91.3654L331.227 88.2668L334.761 84.8388C334.761 84.8388 335.593 85.5334 336.635 84.8388C337.676 84.1441 338.093 83.6588 338.093 83.6588L340.403 81.4761C339.447 81.0414 338.492 80.6081 337.519 80.2041L335.825 81.7841C335.825 81.7841 334.899 81.1361 333.651 81.6454C333.651 81.6454 335.072 81.6108 335.42 83.0681L330.385 87.9068L329.808 87.6588C329.808 87.6441 329.748 86.8761 329.201 86.3441L333.187 82.8761L333.003 82.3441C333.001 82.3414 332.899 81.9414 333.336 81.5054C334.132 80.7094 334.444 80.4308 334.447 80.4281L335.069 79.8721L334.757 79.5228C334.839 79.4494 334.964 79.3374 335.073 79.2374C334.493 79.0148 333.916 78.7841 333.331 78.5721C333.319 78.5828 333.273 78.6228 333.269 78.6268C332.991 78.9054 332.895 79.2468 332.925 79.5721C332.741 79.7494 332.491 79.9961 332.159 80.3268C331.499 80.9881 331.319 81.7254 331.329 82.2841L327.112 85.9534C325.596 86.4281 326.013 88.3561 326.013 88.3561L326.063 88.3468C325.904 88.5454 325.761 88.7588 325.656 89.0041C325.359 89.6988 325.364 90.4428 325.603 91.1014L320.095 88.7454C318.717 88.1561 317.056 88.6374 316.337 89.9534C315.515 91.4628 316.181 93.3134 317.724 93.9734L319.003 94.5201V96.7094L316.213 109.459H314.963C313.512 109.459 312.212 110.492 312.019 111.929C311.797 113.568 312.961 114.967 314.503 115.161L314.907 118.205H305.096C293.619 124.871 298.061 141.531 301.208 144.863C304.356 148.195 317.313 162.448 317.313 162.448H321.597L320.249 158.857H324.252L325.959 162.448H327.171H330.592L329.16 158.857H332.936L334.609 162.448H337.168H338.093L336.408 158.857H339.883L342.353 162.448H344.525H347.857L343.996 153.248L345.636 121.352L342.119 118.205H338.139L339.104 113.327C339.133 113.303 339.165 113.283 339.195 113.257L357.456 97.7788L382.351 123.603C384.888 126.233 387.009 129.22 388.675 132.451V150.324H386.825V179.664L382.243 187.856L387.193 211.083C389.909 205.515 392.101 199.649 393.711 193.547H392.563V179.341L396.08 173.371V181.256C396.484 178.085 396.731 174.869 396.817 171.612H392.563V150.693H391.452V139.324L394.899 149.581Z" fill="#2F2C33"/>
<path d="M140.393 186.352L162.718 188.238C166.865 188.587 170.257 191.552 171.155 195.619L171.617 197.703C174.938 212.75 180.843 226.994 189.171 240.047L190.319 241.851C192.558 245.358 192.258 249.852 189.573 253.036L185.946 257.33C203.861 255.802 222.415 254.612 241.487 253.794C214.771 235.072 197.254 204.078 197.254 169.051C197.254 112.015 243.657 65.6123 300.693 65.6123C357.729 65.6123 404.131 112.015 404.131 169.051C404.131 203.944 386.746 234.835 360.199 253.579C379.003 254.316 397.315 255.414 415.029 256.84L411.815 253.036C409.129 249.852 408.826 245.358 411.069 241.848L412.216 240.048C420.544 226.994 426.448 212.747 429.768 197.704L430.231 195.616C431.13 191.552 434.52 188.587 438.668 188.238L460.992 186.352C465.899 185.936 469.743 181.756 469.743 176.831V161.268C469.743 156.262 465.98 152.168 460.992 151.747L438.668 149.862C434.52 149.51 431.13 146.546 430.231 142.48L429.768 140.396C426.448 125.351 420.544 111.104 412.216 98.0509L411.069 96.2509C408.829 92.7416 409.129 88.2442 411.815 85.0629L426.275 67.9349C429.453 64.1722 429.214 58.4963 425.731 55.0149L414.726 44.0109C411.186 40.4736 405.634 40.2376 401.805 43.4669L384.675 57.9296C381.49 60.6189 376.993 60.9163 373.486 58.6749L371.689 57.5296C358.658 49.2109 344.412 43.3042 329.346 39.9722L327.262 39.5109C323.199 38.6109 320.234 35.2202 319.883 31.0749L317.997 8.75091C317.574 3.76157 313.479 0.000236472 308.474 0.000236472H292.913C287.989 0.000236472 283.806 3.84425 283.393 8.74959L281.503 31.0749C281.154 35.2202 278.187 38.6096 274.125 39.5109L272.041 39.9722C256.975 43.3029 242.729 49.2109 229.698 57.5283L227.899 58.6762C224.393 60.9189 219.895 60.6176 216.711 57.9296L199.579 43.4669C195.751 40.2376 190.198 40.4749 186.659 44.0109L175.657 55.0149C172.173 58.4963 171.934 64.1722 175.111 67.9349L189.573 85.0629C192.258 88.2442 192.558 92.7416 190.319 96.2496L189.171 98.0509C180.843 111.104 174.938 125.35 171.618 140.394L171.154 142.482C170.257 146.546 166.865 149.51 162.718 149.862L140.393 151.747C135.486 152.16 131.642 156.343 131.642 161.268V176.831C131.642 181.756 135.486 185.936 140.393 186.352Z" fill="#F7941D"/>
<path d="M314.587 189.145C320.593 189.145 325.48 194.032 325.48 200.038C325.48 206.046 320.593 210.933 314.587 210.933C308.58 210.933 303.693 206.046 303.693 200.038C303.693 194.032 308.58 189.145 314.587 189.145ZM270.641 252.846V234.896H289.971V252.544C293.865 252.508 297.775 252.485 301.7 252.48V228.653H327.473V252.676C331.399 252.741 335.312 252.817 339.203 252.912V234.896H358.533V245.849C362.061 243.185 365.404 240.288 368.532 237.173V217.148L314.587 175.473L260.643 217.148V253.105C263.961 253.006 267.295 252.921 270.641 252.846" fill="#2F2C33"/>
<path d="M215.036 192.037H219.082V198.83H215.036V192.037ZM215.036 162.198H219.082V168.99H215.036V162.198ZM215.036 147.278H219.082V154.071H215.036V147.278ZM222.117 206.957H226.164V213.75H222.117V206.957ZM222.117 177.118H226.164V183.911H222.117V177.118ZM222.117 147.278H226.164V154.071H222.117V147.278ZM229.198 206.957H233.245V213.75H229.198V206.957ZM229.198 192.037H233.245V198.83H229.198V192.037ZM229.198 162.198H233.245V168.99H229.198V162.198ZM236.28 177.118H240.326V183.911H236.28V177.118ZM236.28 162.198H240.326V168.99H236.28V162.198ZM236.28 147.278H240.326V154.071H236.28V147.278ZM247.665 176.633H253.264V183.425H247.665V176.633ZM247.665 161.106H253.264V167.898H247.665V161.106ZM247.665 130.054H253.264V136.847H247.665V130.054ZM247.665 114.529H253.264V121.321H247.665V114.529ZM247.665 99.0035H253.264V105.795H247.665V99.0035ZM257.464 192.158H263.062V198.951H257.464V192.158ZM257.464 176.633H263.062V183.425H257.464V176.633ZM257.464 145.581H263.062V152.374H257.464V145.581ZM257.464 130.054H263.062V136.847H257.464V130.054ZM267.261 161.106H272.861V167.898H267.261V161.106ZM267.261 130.054H272.861V136.847H267.261V130.054ZM267.261 114.529H272.861V121.321H267.261V114.529ZM267.261 99.0035H272.861V105.795H267.261V99.0035ZM277.06 176.633H282.658V183.425H277.06V176.633ZM277.06 161.106H282.658V167.898H277.06V161.106ZM277.06 145.581H282.658V152.374H277.06V145.581ZM277.06 99.0035H282.658V105.795H277.06V99.0035ZM247.665 238.737H253.264V245.53H247.665V238.737ZM247.665 223.21H253.264V230.003H247.665V223.21ZM215.036 206.957H219.082V213.749H215.558C224.352 230.427 237.905 244.203 254.394 253.301C255.269 253.271 256.14 253.238 257.017 253.21V221.647L255.01 223.198H238.816C237.081 223.198 236.332 221.002 237.704 219.942L267.261 197.106V192.158H272.861V192.781L297.845 173.479H286.541V92.9381H242.874V138.546H209.881V200.709C211.33 204.853 213.057 208.865 215.036 212.73V206.957Z" fill="#2F2C33"/>
<path d="M558.911 285.899C493.747 269.654 403.365 259.588 303.456 259.588C203.545 259.588 113.164 269.654 48 285.899C113.164 279.444 203.545 275.444 303.456 275.444C403.365 275.444 493.747 279.444 558.911 285.899Z" fill="#2F2C33"/>
<path d="M10.0781 305.875V340H3.04688V305.875H10.0781ZM23.6719 320.453V325.938H8.15625V320.453H23.6719ZM25.3125 305.875V311.383H8.15625V305.875H25.3125ZM52.2891 334.516V340H34.125V334.516H52.2891ZM36.4219 305.875V340H29.3906V305.875H36.4219ZM49.9219 319.773V325.117H34.125V319.773H49.9219ZM52.2656 305.875V311.383H34.125V305.875H52.2656ZM56.3906 305.875H69.1172C71.7266 305.875 73.9688 306.266 75.8438 307.047C77.7344 307.828 79.1875 308.984 80.2031 310.516C81.2188 312.047 81.7266 313.93 81.7266 316.164C81.7266 317.992 81.4141 319.562 80.7891 320.875C80.1797 322.172 79.3125 323.258 78.1875 324.133C77.0781 324.992 75.7734 325.68 74.2734 326.195L72.0469 327.367H60.9844L60.9375 321.883H69.1641C70.3984 321.883 71.4219 321.664 72.2344 321.227C73.0469 320.789 73.6562 320.18 74.0625 319.398C74.4844 318.617 74.6953 317.711 74.6953 316.68C74.6953 315.586 74.4922 314.641 74.0859 313.844C73.6797 313.047 73.0625 312.438 72.2344 312.016C71.4062 311.594 70.3672 311.383 69.1172 311.383H63.4219V340H56.3906V305.875ZM75.4688 340L67.6875 324.789L75.1172 324.742L82.9922 339.672V340H75.4688ZM87.1406 305.875H99.8672C102.477 305.875 104.719 306.266 106.594 307.047C108.484 307.828 109.938 308.984 110.953 310.516C111.969 312.047 112.477 313.93 112.477 316.164C112.477 317.992 112.164 319.562 111.539 320.875C110.93 322.172 110.062 323.258 108.938 324.133C107.828 324.992 106.523 325.68 105.023 326.195L102.797 327.367H91.7344L91.6875 321.883H99.9141C101.148 321.883 102.172 321.664 102.984 321.227C103.797 320.789 104.406 320.18 104.812 319.398C105.234 318.617 105.445 317.711 105.445 316.68C105.445 315.586 105.242 314.641 104.836 313.844C104.43 313.047 103.812 312.438 102.984 312.016C102.156 311.594 101.117 311.383 99.8672 311.383H94.1719V340H87.1406V305.875ZM106.219 340L98.4375 324.789L105.867 324.742L113.742 339.672V340H106.219ZM140.789 334.516V340H122.625V334.516H140.789ZM124.922 305.875V340H117.891V305.875H124.922ZM138.422 319.773V325.117H122.625V319.773H138.422ZM140.766 305.875V311.383H122.625V305.875H140.766ZM160.617 305.875V340H153.609V305.875H160.617ZM171.117 305.875V311.383H143.273V305.875H171.117ZM198.023 334.516V340H179.859V334.516H198.023ZM182.156 305.875V340H175.125V305.875H182.156ZM195.656 319.773V325.117H179.859V319.773H195.656ZM198 305.875V311.383H179.859V305.875H198ZM202.125 305.875H214.852C217.461 305.875 219.703 306.266 221.578 307.047C223.469 307.828 224.922 308.984 225.938 310.516C226.953 312.047 227.461 313.93 227.461 316.164C227.461 317.992 227.148 319.562 226.523 320.875C225.914 322.172 225.047 323.258 223.922 324.133C222.812 324.992 221.508 325.68 220.008 326.195L217.781 327.367H206.719L206.672 321.883H214.898C216.133 321.883 217.156 321.664 217.969 321.227C218.781 320.789 219.391 320.18 219.797 319.398C220.219 318.617 220.43 317.711 220.43 316.68C220.43 315.586 220.227 314.641 219.82 313.844C219.414 313.047 218.797 312.438 217.969 312.016C217.141 311.594 216.102 311.383 214.852 311.383H209.156V340H202.125V305.875ZM221.203 340L213.422 324.789L220.852 324.742L228.727 339.672V340H221.203ZM240.352 305.875V340H233.344V305.875H240.352ZM233.625 303.859L238.219 296.641H245.555L239.109 303.859H233.625ZM261.234 311.711L251.953 340H244.477L257.156 305.875H261.914L261.234 311.711ZM268.945 340L259.641 311.711L258.891 305.875H263.695L276.445 340H268.945ZM268.523 327.297V332.805H250.5V327.297H268.523ZM291.117 315.344V311.852C291.117 310.836 291.312 309.789 291.703 308.711C292.094 307.633 292.609 306.617 293.25 305.664C293.891 304.695 294.594 303.875 295.359 303.203L298.5 305.031C297.938 305.969 297.453 306.977 297.047 308.055C296.641 309.133 296.438 310.398 296.438 311.852V315.344H291.117ZM299.086 315.344V311.852C299.086 310.836 299.281 309.789 299.672 308.711C300.062 307.633 300.578 306.617 301.219 305.664C301.859 304.695 302.562 303.875 303.328 303.203L306.469 305.031C305.906 305.969 305.422 306.977 305.016 308.055C304.609 309.133 304.406 310.398 304.406 311.852V315.344H299.086ZM333.82 334.516V340H315.656V334.516H333.82ZM317.953 305.875V340H310.922V305.875H317.953ZM331.453 319.773V325.117H315.656V319.773H331.453ZM333.797 305.875V311.383H315.656V305.875H333.797ZM359.859 334.516V340H342.68V334.516H359.859ZM344.953 305.875V340H337.922V305.875H344.953ZM386.32 340H378.891L378.938 334.516H386.32C388.164 334.516 389.719 334.102 390.984 333.273C392.25 332.43 393.203 331.203 393.844 329.594C394.5 327.984 394.828 326.039 394.828 323.758V322.094C394.828 320.344 394.641 318.805 394.266 317.477C393.906 316.148 393.367 315.031 392.648 314.125C391.93 313.219 391.047 312.539 390 312.086C388.953 311.617 387.75 311.383 386.391 311.383H378.75V305.875H386.391C388.672 305.875 390.758 306.266 392.648 307.047C394.555 307.812 396.203 308.914 397.594 310.352C398.984 311.789 400.055 313.508 400.805 315.508C401.57 317.492 401.953 319.703 401.953 322.141V323.758C401.953 326.18 401.57 328.391 400.805 330.391C400.055 332.391 398.984 334.109 397.594 335.547C396.219 336.969 394.57 338.07 392.648 338.852C390.742 339.617 388.633 340 386.32 340ZM382.875 305.875V340H375.844V305.875H382.875ZM429.961 334.516V340H411.797V334.516H429.961ZM414.094 305.875V340H407.062V305.875H414.094ZM427.594 319.773V325.117H411.797V319.773H427.594ZM429.938 305.875V311.383H411.797V305.875H429.938ZM451.828 331.07C451.828 330.461 451.734 329.914 451.547 329.43C451.375 328.93 451.047 328.477 450.562 328.07C450.078 327.648 449.398 327.234 448.523 326.828C447.648 326.422 446.516 326 445.125 325.562C443.578 325.062 442.109 324.5 440.719 323.875C439.344 323.25 438.125 322.523 437.062 321.695C436.016 320.852 435.188 319.875 434.578 318.766C433.984 317.656 433.688 316.367 433.688 314.898C433.688 313.477 434 312.188 434.625 311.031C435.25 309.859 436.125 308.859 437.25 308.031C438.375 307.188 439.703 306.539 441.234 306.086C442.781 305.633 444.477 305.406 446.32 305.406C448.836 305.406 451.031 305.859 452.906 306.766C454.781 307.672 456.234 308.914 457.266 310.492C458.312 312.07 458.836 313.875 458.836 315.906H451.852C451.852 314.906 451.641 314.031 451.219 313.281C450.812 312.516 450.188 311.914 449.344 311.477C448.516 311.039 447.469 310.82 446.203 310.82C444.984 310.82 443.969 311.008 443.156 311.383C442.344 311.742 441.734 312.234 441.328 312.859C440.922 313.469 440.719 314.156 440.719 314.922C440.719 315.5 440.859 316.023 441.141 316.492C441.438 316.961 441.875 317.398 442.453 317.805C443.031 318.211 443.742 318.594 444.586 318.953C445.43 319.312 446.406 319.664 447.516 320.008C449.375 320.57 451.008 321.203 452.414 321.906C453.836 322.609 455.023 323.398 455.977 324.273C456.93 325.148 457.648 326.141 458.133 327.25C458.617 328.359 458.859 329.617 458.859 331.023C458.859 332.508 458.57 333.836 457.992 335.008C457.414 336.18 456.578 337.172 455.484 337.984C454.391 338.797 453.086 339.414 451.57 339.836C450.055 340.258 448.359 340.469 446.484 340.469C444.797 340.469 443.133 340.25 441.492 339.812C439.852 339.359 438.359 338.68 437.016 337.773C435.688 336.867 434.625 335.711 433.828 334.305C433.031 332.898 432.633 331.234 432.633 329.312H439.688C439.688 330.375 439.852 331.273 440.18 332.008C440.508 332.742 440.969 333.336 441.562 333.789C442.172 334.242 442.891 334.57 443.719 334.773C444.562 334.977 445.484 335.078 446.484 335.078C447.703 335.078 448.703 334.906 449.484 334.562C450.281 334.219 450.867 333.742 451.242 333.133C451.633 332.523 451.828 331.836 451.828 331.07ZM483.422 328.68H490.43C490.289 330.977 489.656 333.016 488.531 334.797C487.422 336.578 485.867 337.969 483.867 338.969C481.883 339.969 479.492 340.469 476.695 340.469C474.508 340.469 472.547 340.094 470.812 339.344C469.078 338.578 467.594 337.484 466.359 336.062C465.141 334.641 464.211 332.922 463.57 330.906C462.93 328.891 462.609 326.633 462.609 324.133V321.766C462.609 319.266 462.938 317.008 463.594 314.992C464.266 312.961 465.219 311.234 466.453 309.812C467.703 308.391 469.195 307.297 470.93 306.531C472.664 305.766 474.602 305.383 476.742 305.383C479.586 305.383 481.984 305.898 483.938 306.93C485.906 307.961 487.43 309.383 488.508 311.195C489.602 313.008 490.258 315.07 490.477 317.383H483.445C483.367 316.008 483.094 314.844 482.625 313.891C482.156 312.922 481.445 312.195 480.492 311.711C479.555 311.211 478.305 310.961 476.742 310.961C475.57 310.961 474.547 311.18 473.672 311.617C472.797 312.055 472.062 312.719 471.469 313.609C470.875 314.5 470.43 315.625 470.133 316.984C469.852 318.328 469.711 319.906 469.711 321.719V324.133C469.711 325.898 469.844 327.453 470.109 328.797C470.375 330.125 470.781 331.25 471.328 332.172C471.891 333.078 472.609 333.766 473.484 334.234C474.375 334.688 475.445 334.914 476.695 334.914C478.164 334.914 479.375 334.68 480.328 334.211C481.281 333.742 482.008 333.047 482.508 332.125C483.023 331.203 483.328 330.055 483.422 328.68ZM508.922 311.711L499.641 340H492.164L504.844 305.875H509.602L508.922 311.711ZM516.633 340L507.328 311.711L506.578 305.875H511.383L524.133 340H516.633ZM516.211 327.297V332.805H498.188V327.297H516.211ZM555.07 305.875V340H548.039L534.328 317.125V340H527.297V305.875H534.328L548.062 328.773V305.875H555.07ZM578.953 331.07C578.953 330.461 578.859 329.914 578.672 329.43C578.5 328.93 578.172 328.477 577.688 328.07C577.203 327.648 576.523 327.234 575.648 326.828C574.773 326.422 573.641 326 572.25 325.562C570.703 325.062 569.234 324.5 567.844 323.875C566.469 323.25 565.25 322.523 564.188 321.695C563.141 320.852 562.312 319.875 561.703 318.766C561.109 317.656 560.812 316.367 560.812 314.898C560.812 313.477 561.125 312.188 561.75 311.031C562.375 309.859 563.25 308.859 564.375 308.031C565.5 307.188 566.828 306.539 568.359 306.086C569.906 305.633 571.602 305.406 573.445 305.406C575.961 305.406 578.156 305.859 580.031 306.766C581.906 307.672 583.359 308.914 584.391 310.492C585.438 312.07 585.961 313.875 585.961 315.906H578.977C578.977 314.906 578.766 314.031 578.344 313.281C577.938 312.516 577.312 311.914 576.469 311.477C575.641 311.039 574.594 310.82 573.328 310.82C572.109 310.82 571.094 311.008 570.281 311.383C569.469 311.742 568.859 312.234 568.453 312.859C568.047 313.469 567.844 314.156 567.844 314.922C567.844 315.5 567.984 316.023 568.266 316.492C568.562 316.961 569 317.398 569.578 317.805C570.156 318.211 570.867 318.594 571.711 318.953C572.555 319.312 573.531 319.664 574.641 320.008C576.5 320.57 578.133 321.203 579.539 321.906C580.961 322.609 582.148 323.398 583.102 324.273C584.055 325.148 584.773 326.141 585.258 327.25C585.742 328.359 585.984 329.617 585.984 331.023C585.984 332.508 585.695 333.836 585.117 335.008C584.539 336.18 583.703 337.172 582.609 337.984C581.516 338.797 580.211 339.414 578.695 339.836C577.18 340.258 575.484 340.469 573.609 340.469C571.922 340.469 570.258 340.25 568.617 339.812C566.977 339.359 565.484 338.68 564.141 337.773C562.812 336.867 561.75 335.711 560.953 334.305C560.156 332.898 559.758 331.234 559.758 329.312H566.812C566.812 330.375 566.977 331.273 567.305 332.008C567.633 332.742 568.094 333.336 568.688 333.789C569.297 334.242 570.016 334.57 570.844 334.773C571.688 334.977 572.609 335.078 573.609 335.078C574.828 335.078 575.828 334.906 576.609 334.562C577.406 334.219 577.992 333.742 578.367 333.133C578.758 332.523 578.953 331.836 578.953 331.07ZM618.797 322.141V323.758C618.797 326.352 618.445 328.68 617.742 330.742C617.039 332.805 616.047 334.562 614.766 336.016C613.484 337.453 611.953 338.555 610.172 339.32C608.406 340.086 606.445 340.469 604.289 340.469C602.148 340.469 600.188 340.086 598.406 339.32C596.641 338.555 595.109 337.453 593.812 336.016C592.516 334.562 591.508 332.805 590.789 330.742C590.086 328.68 589.734 326.352 589.734 323.758V322.141C589.734 319.531 590.086 317.203 590.789 315.156C591.492 313.094 592.484 311.336 593.766 309.883C595.062 308.43 596.594 307.32 598.359 306.555C600.141 305.789 602.102 305.406 604.242 305.406C606.398 305.406 608.359 305.789 610.125 306.555C611.906 307.32 613.438 308.43 614.719 309.883C616.016 311.336 617.016 313.094 617.719 315.156C618.438 317.203 618.797 319.531 618.797 322.141ZM611.695 323.758V322.094C611.695 320.281 611.531 318.688 611.203 317.312C610.875 315.938 610.391 314.781 609.75 313.844C609.109 312.906 608.328 312.203 607.406 311.734C606.484 311.25 605.43 311.008 604.242 311.008C603.055 311.008 602 311.25 601.078 311.734C600.172 312.203 599.398 312.906 598.758 313.844C598.133 314.781 597.656 315.938 597.328 317.312C597 318.688 596.836 320.281 596.836 322.094V323.758C596.836 325.555 597 327.148 597.328 328.539C597.656 329.914 598.141 331.078 598.781 332.031C599.422 332.969 600.203 333.68 601.125 334.164C602.047 334.648 603.102 334.891 604.289 334.891C605.477 334.891 606.531 334.648 607.453 334.164C608.375 333.68 609.148 332.969 609.773 332.031C610.398 331.078 610.875 329.914 611.203 328.539C611.531 327.148 611.695 325.555 611.695 323.758ZM629.906 304V307.562C629.906 308.578 629.711 309.625 629.32 310.703C628.945 311.781 628.438 312.805 627.797 313.773C627.156 314.727 626.453 315.539 625.688 316.211L622.523 314.383C623.102 313.461 623.594 312.461 624 311.383C624.406 310.289 624.609 309.023 624.609 307.586V304H629.906ZM637.992 304V307.562C637.992 308.578 637.797 309.625 637.406 310.703C637.031 311.781 636.523 312.805 635.883 313.773C635.242 314.727 634.539 315.539 633.773 316.211L630.609 314.383C631.188 313.461 631.68 312.461 632.086 311.383C632.492 310.289 632.695 309.023 632.695 307.586V304H637.992Z" fill="black"/>
</svg>
