<svg width="512" height="286" viewBox="0 0 512 286" fill="none" xmlns="http://www.w3.org/2000/svg">
<path d="M153.684 171.839C153.684 115.147 199.641 69.1902 256.333 69.1902C268.229 69.1902 279.64 71.2355 290.265 74.9568C278.888 70.5182 266.52 68.0555 253.57 68.0555C197.777 68.0555 152.548 113.283 152.548 169.077C152.548 182.026 155.012 194.394 159.452 205.773C155.73 195.147 153.684 183.734 153.684 171.839Z" fill="#2F2C33"/>
<path d="M337.942 219.598L267.465 165.151L196.986 219.598H206.652L267.465 172.618L328.278 219.598H337.942Z" fill="#2F2C33"/>
<path d="M258.311 199.215H266.616V190.911C262.221 191.315 258.716 194.822 258.311 199.215Z" fill="#2F2C33"/>
<path d="M266.615 209.218V200.912H258.31C258.715 205.307 262.221 208.814 266.615 209.218Z" fill="#2F2C33"/>
<path d="M268.313 209.218C272.708 208.814 276.213 205.307 276.619 200.912H268.313V209.218Z" fill="#2F2C33"/>
<path d="M268.313 190.912V199.216H276.619C276.213 194.822 272.708 191.316 268.313 190.912Z" fill="#2F2C33"/>
<path d="M285.852 107.073C285.231 107.807 284.896 108.689 284.828 109.583C284.602 109.525 284.367 109.485 284.12 109.485H281.4L281.824 105.243L285.835 100.497C287.252 100.999 288.831 100.334 289.431 98.934C289.728 98.2393 289.722 97.494 289.486 96.8353L293.171 98.4113L285.852 107.073ZM282.036 98.89L284.222 99.8247L281.936 102.53L282.036 98.89ZM276.746 109.485H273.603L273.894 106.523L275.836 101.386H277.295L277.434 105.759L276.746 109.485ZM275.123 118.231H271.296L271.35 115.223H275.416L275.123 118.231ZM347.776 149.607C342.274 122.949 325.706 100.291 303.103 86.6566L297.046 93.8273L292.951 92.0766L299.354 84.4993C298.854 84.2273 298.338 83.982 297.831 83.7193L291.348 91.3913L284.104 88.2926L287.639 84.8647C287.639 84.8647 288.471 85.5593 289.512 84.8647C290.554 84.17 290.971 83.6846 290.971 83.6846L293.28 81.502C292.324 81.0673 291.37 80.634 290.396 80.23L288.703 81.81C288.703 81.81 287.776 81.162 286.528 81.6713C286.528 81.6713 287.95 81.6366 288.298 83.094L283.263 87.9326L282.686 87.6846C282.686 87.67 282.626 86.902 282.079 86.37L286.064 82.902L285.88 82.37C285.879 82.3673 285.776 81.9673 286.214 81.5313C287.01 80.7353 287.322 80.4566 287.324 80.454L287.947 79.898L287.635 79.5487C287.716 79.4753 287.842 79.3633 287.951 79.2633C287.371 79.0406 286.794 78.81 286.208 78.598C286.196 78.6086 286.151 78.6487 286.147 78.6526C285.868 78.9313 285.772 79.2726 285.803 79.598C285.619 79.7753 285.368 80.022 285.036 80.3526C284.376 81.014 284.196 81.7513 284.207 82.31L279.99 85.9793C278.474 86.454 278.891 88.382 278.891 88.382L278.94 88.3727C278.782 88.5713 278.639 88.7847 278.534 89.03C278.236 89.7247 278.242 90.4687 278.48 91.1273L272.972 88.7713C271.595 88.182 269.934 88.6633 269.215 89.9793C268.392 91.4886 269.059 93.3393 270.602 93.9993L271.88 94.546V96.7353L269.091 109.485H267.84C266.39 109.485 265.09 110.518 264.896 111.955C264.675 113.594 265.839 114.993 267.38 115.187L267.784 118.231H257.974C246.496 124.897 250.939 141.557 254.086 144.889C257.234 148.221 270.191 162.474 270.191 162.474H274.475L273.127 158.883H277.13L278.836 162.474H280.048H283.47L282.038 158.883H285.814L287.487 162.474H290.046H290.971L289.286 158.883H292.76L295.231 162.474H297.403H300.735L296.874 153.274L298.514 121.378L294.996 118.231H291.016L291.982 113.353C292.011 113.329 292.043 113.309 292.072 113.283L310.334 97.8047L335.228 123.629C337.766 126.259 339.887 129.246 341.552 132.477V150.35H339.703V179.69L335.12 187.882L340.071 211.109C342.787 205.541 344.979 199.675 346.588 193.573H345.44V179.367L348.958 173.397V181.282C349.362 178.111 349.608 174.895 349.695 171.638H345.44V150.719H344.33V139.35L347.776 149.607Z" fill="#2F2C33"/>
<path d="M93.2703 186.378L115.596 188.263C119.742 188.613 123.134 191.578 124.033 195.645L124.494 197.729C127.816 212.775 133.721 227.019 142.049 240.073L143.197 241.877C145.436 245.383 145.136 249.878 142.45 253.062L138.824 257.355C156.738 255.827 175.293 254.638 194.365 253.819C167.649 235.098 150.132 204.103 150.132 169.077C150.132 112.041 196.534 65.6379 253.57 65.6379C310.606 65.6379 357.009 112.041 357.009 169.077C357.009 203.97 339.624 234.861 313.077 253.605C331.881 254.342 350.193 255.439 367.906 256.866L364.693 253.062C362.006 249.878 361.704 245.383 363.946 241.874L365.094 240.074C373.422 227.019 379.326 212.773 382.646 197.73L383.109 195.642C384.008 191.578 387.398 188.613 391.546 188.263L413.87 186.378C418.777 185.962 422.621 181.782 422.621 176.857V161.294C422.621 156.287 418.858 152.194 413.87 151.773L391.546 149.887C387.398 149.535 384.008 146.571 383.109 142.506L382.646 140.422C379.326 125.377 373.422 111.13 365.094 98.0766L363.946 96.2766C361.706 92.7672 362.006 88.2699 364.693 85.0885L379.153 67.9605C382.33 64.1979 382.092 58.5219 378.609 55.0406L367.604 44.0366C364.064 40.4992 358.512 40.2632 354.682 43.4926L337.553 57.9552C334.368 60.6445 329.87 60.9419 326.364 58.7006L324.566 57.5552C311.536 49.2365 297.29 43.3299 282.224 39.9979L280.14 39.5366C276.077 38.6366 273.112 35.2459 272.761 31.1005L270.874 8.77655C270.452 3.78722 266.357 0.0258789 261.352 0.0258789H245.79C240.866 0.0258789 236.684 3.86989 236.27 8.77522L234.381 31.1005C234.032 35.2459 231.065 38.6352 227.002 39.5366L224.918 39.9979C209.853 43.3285 195.606 49.2366 182.576 57.5539L180.777 58.7019C177.27 60.9445 172.773 60.6432 169.589 57.9552L152.457 43.4926C148.629 40.2632 143.076 40.5005 139.537 44.0366L128.534 55.0406C125.05 58.5219 124.812 64.1979 127.989 67.9605L142.45 85.0885C145.136 88.2699 145.436 92.7672 143.197 96.2752L142.049 98.0766C133.721 111.13 127.816 125.375 124.496 140.419L124.032 142.507C123.134 146.571 119.742 149.535 115.596 149.887L93.2703 151.773C88.3637 152.186 84.5197 156.369 84.5197 161.294V176.857C84.5197 181.782 88.3637 185.962 93.2703 186.378Z" fill="#F7941D"/>
<path d="M267.464 189.171C273.471 189.171 278.358 194.058 278.358 200.064C278.358 206.072 273.471 210.959 267.464 210.959C261.458 210.959 256.571 206.072 256.571 200.064C256.571 194.058 261.458 189.171 267.464 189.171ZM223.519 252.872V234.922H242.848V252.57C246.743 252.534 250.652 252.511 254.578 252.506V228.679H280.351V252.702C284.276 252.767 288.19 252.843 292.08 252.938V234.922H311.411V245.875C314.939 243.211 318.282 240.314 321.41 237.199V217.174L267.464 175.499L213.52 217.174V253.131C216.839 253.032 220.172 252.947 223.519 252.872Z" fill="#2F2C33"/>
<path d="M167.913 192.063H171.96V198.856H167.913V192.063ZM167.913 162.224H171.96V169.016H167.913V162.224ZM167.913 147.304H171.96V154.097H167.913V147.304ZM174.995 206.983H179.041V213.776H174.995V206.983ZM174.995 177.144H179.041V183.937H174.995V177.144ZM174.995 147.304H179.041V154.097H174.995V147.304ZM182.076 206.983H186.123V213.776H182.076V206.983ZM182.076 192.063H186.123V198.856H182.076V192.063ZM182.076 162.224H186.123V169.016H182.076V162.224ZM189.157 177.144H193.204V183.937H189.157V177.144ZM189.157 162.224H193.204V169.016H189.157V162.224ZM189.157 147.304H193.204V154.097H189.157V147.304ZM200.543 176.659H206.141V183.451H200.543V176.659ZM200.543 161.132H206.141V167.924H200.543V161.132ZM200.543 130.08H206.141V136.873H200.543V130.08ZM200.543 114.555H206.141V121.347H200.543V114.555ZM200.543 99.0292H206.141V105.821H200.543V99.0292ZM210.341 192.184H215.94V198.977H210.341V192.184ZM210.341 176.659H215.94V183.451H210.341V176.659ZM210.341 145.607H215.94V152.4H210.341V145.607ZM210.341 130.08H215.94V136.873H210.341V130.08ZM220.139 161.132H225.739V167.924H220.139V161.132ZM220.139 130.08H225.739V136.873H220.139V130.08ZM220.139 114.555H225.739V121.347H220.139V114.555ZM220.139 99.0292H225.739V105.821H220.139V99.0292ZM229.937 176.659H235.536V183.451H229.937V176.659ZM229.937 161.132H235.536V167.924H229.937V161.132ZM229.937 145.607H235.536V152.4H229.937V145.607ZM229.937 99.0292H235.536V105.821H229.937V99.0292ZM200.543 238.763H206.141V245.556H200.543V238.763ZM200.543 223.236H206.141V230.029H200.543V223.236ZM167.913 206.983H171.96V213.775H168.436C177.229 230.453 190.783 244.229 207.272 253.327C208.147 253.297 209.017 253.264 209.895 253.236V221.673L207.888 223.224H191.693C189.959 223.224 189.209 221.028 190.581 219.968L220.139 197.132V192.184H225.739V192.807L250.723 173.505H239.419V92.9639H195.752V138.572H162.759V200.735C164.208 204.879 165.935 208.891 167.913 212.756V206.983Z" fill="#2F2C33"/>
<path d="M511.788 285.925C446.624 269.679 356.243 259.614 256.334 259.614C156.423 259.614 66.0418 269.679 0.877808 285.925C66.0418 279.47 156.423 275.47 256.334 275.47C356.243 275.47 446.624 279.47 511.788 285.925Z" fill="#2F2C33"/>
</svg>
