<svg width="500" height="373" viewBox="0 0 500 373" fill="none" xmlns="http://www.w3.org/2000/svg">
<g clip-path="url(#clip0_7_356)">
<path d="M377.66 338.04H343.26V338.29H377.66V338.04Z" fill="#E6E6E6"/>
<path d="M251 337.58H211.76V337.83H251V337.58Z" fill="#E6E6E6"/>
<path d="M210.76 334.02H193.22V334.27H210.76V334.02Z" fill="#E6E6E6"/>
<path d="M423.03 18.6802H286.75V177.48H423.03V18.6802Z" fill="#E0E0E0"/>
<path d="M426.73 18.6802H288.48V177.48H426.73V18.6802Z" fill="#F5F5F5"/>
<path d="M423.03 177.47H286.75V186.37H423.03V177.47Z" fill="#E0E0E0"/>
<path d="M443.67 177.47H313.52V186.37H443.67V177.47Z" fill="#F5F5F5"/>
<path d="M421.55 170.74V25.4102L293.67 25.4102V170.74H421.55Z" fill="#FAFAFA"/>
<path d="M312.06 170.74L342.5 25.4102H382.4L351.96 170.74H312.06Z" fill="white"/>
<path d="M358.42 170.74L388.85 25.4102H406.87L376.44 170.74H358.42Z" fill="white"/>
<path d="M282.86 18.45V74.99H297.86C297.86 74.99 324.73 57.46 330.86 21.39C331.005 20.531 330.962 19.6507 330.732 18.8102C330.503 17.9697 330.093 17.1893 329.532 16.5232C328.97 15.857 328.27 15.3211 327.481 14.9527C326.691 14.5844 325.831 14.3923 324.96 14.39H286.96C286.424 14.386 285.892 14.4881 285.396 14.6902C284.899 14.8924 284.447 15.1906 284.066 15.5679C283.685 15.9452 283.383 16.394 283.176 16.8886C282.969 17.3832 282.861 17.9138 282.86 18.45V18.45Z" fill="#E0E0E0"/>
<path d="M282.86 165.62V79.55H297.86C297.86 79.55 306.46 96.93 315.03 116.91C317.31 122.226 318.234 128.025 317.72 133.786C317.205 139.547 315.269 145.09 312.084 149.919C308.899 154.747 304.566 158.709 299.472 161.45C294.378 164.19 288.684 165.623 282.9 165.62H282.86Z" fill="#E0E0E0"/>
<path d="M297.38 74.99H283.41C282.582 74.99 281.91 75.6616 281.91 76.49V78.05C281.91 78.8784 282.582 79.55 283.41 79.55H297.38C298.208 79.55 298.88 78.8784 298.88 78.05V76.49C298.88 75.6616 298.208 74.99 297.38 74.99Z" fill="#F5F5F5"/>
<path d="M431 18.4501V74.9901H416C416 74.9901 389.12 57.4601 383 21.3901C382.855 20.5319 382.898 19.6524 383.127 18.8127C383.356 17.9729 383.765 17.193 384.325 16.527C384.885 15.8611 385.584 15.325 386.372 14.956C387.161 14.587 388.02 14.3939 388.89 14.3901H426.89C427.427 14.3848 427.96 14.4859 428.458 14.6874C428.955 14.889 429.408 15.187 429.79 15.5644C430.172 15.9418 430.476 16.3911 430.684 16.8864C430.891 17.3816 430.999 17.9131 431 18.4501V18.4501Z" fill="#E0E0E0"/>
<path d="M431.1 165.64V79.5701H416.1C416.1 79.5701 407.5 96.9401 398.92 116.93C396.656 122.248 395.744 128.043 396.266 133.799C396.788 139.555 398.726 145.092 401.909 149.916C405.092 154.74 409.42 158.701 414.507 161.444C419.594 164.188 425.281 165.63 431.06 165.64H431.1Z" fill="#E0E0E0"/>
<path d="M416.45 79.55H430.42C431.248 79.55 431.92 78.8785 431.92 78.05V76.4901C431.92 75.6616 431.248 74.9901 430.42 74.9901H416.45C415.622 74.9901 414.95 75.6616 414.95 76.4901V78.05C414.95 78.8785 415.622 79.55 416.45 79.55Z" fill="#F5F5F5"/>
<path d="M200.89 88.6401H140.86V154.35H200.89V88.6401Z" fill="#E0E0E0"/>
<path d="M209.33 88.6401H144.11V154.35H209.33V88.6401Z" fill="#FAFAFA"/>
<path d="M202.6 147.63V95.3701H150.83V147.63H202.6Z" fill="white"/>
<path d="M163 121.5C163.003 118.226 164.305 115.088 166.621 112.774C168.937 110.46 172.076 109.16 175.35 109.16H178.13C181.402 109.163 184.539 110.464 186.853 112.777C189.166 115.091 190.467 118.228 190.47 121.5V121.5C190.47 123.121 190.151 124.725 189.531 126.222C188.911 127.72 188.002 129.08 186.856 130.226C185.71 131.372 184.349 132.281 182.852 132.901C181.355 133.521 179.751 133.84 178.13 133.84H175.35C173.729 133.841 172.123 133.523 170.625 132.904C169.126 132.284 167.765 131.375 166.618 130.229C165.471 129.083 164.561 127.723 163.94 126.225C163.32 124.727 163 123.122 163 121.5Z" fill="#F5F5F5"/>
<path d="M92.24 104.32C83.8857 104.32 75.8735 101.001 69.9661 95.0939C64.0587 89.1865 60.74 81.1744 60.74 72.8201C60.74 64.4657 64.0587 56.4536 69.9661 50.5462C75.8735 44.6388 83.8857 41.3201 92.24 41.3201H97.93V104.32H92.24Z" fill="#E0E0E0"/>
<path d="M97.93 104.32C115.316 104.32 129.41 90.226 129.41 72.8401C129.41 55.4542 115.316 41.3601 97.93 41.3601C80.5441 41.3601 66.45 55.4542 66.45 72.8401C66.45 90.226 80.5441 104.32 97.93 104.32Z" fill="#FAFAFA"/>
<path d="M97.93 96.5801C111.041 96.5801 121.67 85.9513 121.67 72.8401C121.67 59.7289 111.041 49.1001 97.93 49.1001C84.8188 49.1001 74.19 59.7289 74.19 72.8401C74.19 85.9513 84.8188 96.5801 97.93 96.5801Z" fill="white"/>
<path d="M107.71 81.7201L96.05 73.5801L99.75 55.6001L103.05 56.2801L99.8 72.0901L109.64 78.9501L107.71 81.7201Z" fill="#E0E0E0"/>
<path d="M352.34 215.05H309.43V330.99H352.34V215.05Z" fill="#E0E0E0"/>
<path d="M340.88 330.99H352.34V311.79H328.87L340.88 330.99Z" fill="#FAFAFA"/>
<path d="M95.09 215.05H52.18V330.99H95.09V215.05Z" fill="#E0E0E0"/>
<path d="M352.35 215.05H85.09V324.38H352.35V215.05Z" fill="#FAFAFA"/>
<path d="M96.55 330.99H85.09V311.79H108.56L96.55 330.99Z" fill="#FAFAFA"/>
<path d="M343.46 224.45H93.98V264.69H343.46V224.45Z" fill="#F0F0F0"/>
<path d="M343.46 274.42H93.98V314.66H343.46V274.42Z" fill="#F0F0F0"/>
<path d="M306.88 224.45H93.98V264.69H306.88V224.45Z" fill="#E0E0E0"/>
<path d="M159.54 229.88H146.59C146.59 229.88 148.84 237.65 148.84 242.22C148.84 246.79 138.99 264.7 153.07 264.7C167.15 264.7 157.29 246.79 157.29 242.22C157.29 237.65 159.54 229.88 159.54 229.88Z" fill="#FAFAFA"/>
<path d="M108.56 243.38V250.45C108.56 258.29 116.14 264.7 125.4 264.7H133.75C143.01 264.7 150.59 258.29 150.59 250.45V243.38H108.56Z" fill="#F0F0F0"/>
<path d="M306.88 274.42H93.98V314.66H306.88V274.42Z" fill="#E0E0E0"/>
<path d="M213.55 313.93H233.49V280.72H213.55V313.93Z" fill="white"/>
<path d="M230.38 314.45H231.74V281.24H230.38V314.45Z" fill="#E6E6E6"/>
<path d="M231.84 314.7H235.32C235.585 314.7 235.8 314.485 235.8 314.22V281.46C235.8 281.195 235.585 280.98 235.32 280.98H231.84C231.575 280.98 231.36 281.195 231.36 281.46V314.22C231.36 314.485 231.575 314.7 231.84 314.7Z" fill="#EBEBEB"/>
<path d="M231.36 296.56H235.8V288.68H231.36V296.56Z" fill="white"/>
<path d="M231.36 303.85H235.8V298.99H231.36V303.85Z" fill="white"/>
<path d="M212.53 314.7H230.5C230.765 314.7 230.98 314.485 230.98 314.22V281.46C230.98 281.195 230.765 280.98 230.5 280.98H212.53C212.265 280.98 212.05 281.195 212.05 281.46V314.22C212.05 314.485 212.265 314.7 212.53 314.7Z" fill="#EBEBEB"/>
<path d="M203.82 313.85H225.82V277.21H203.82V313.85Z" fill="white"/>
<path d="M222.41 314.42H223.9V277.78H222.41V314.42Z" fill="#E6E6E6"/>
<path d="M224.01 314.7H227.85C228.143 314.7 228.38 314.463 228.38 314.17V278.03C228.38 277.737 228.143 277.5 227.85 277.5H224.01C223.717 277.5 223.48 277.737 223.48 278.03V314.17C223.48 314.463 223.717 314.7 224.01 314.7Z" fill="#F0F0F0"/>
<path d="M223.48 290.62H228.38V289.35H223.48V290.62Z" fill="white"/>
<path d="M223.48 294.3H228.38V293.03H223.48V294.3Z" fill="white"/>
<path d="M223.48 297.97H228.38V296.7H223.48V297.97Z" fill="white"/>
<path d="M202.71 314.7H222.53C222.823 314.7 223.06 314.463 223.06 314.17V278.03C223.06 277.737 222.823 277.5 222.53 277.5H202.71C202.417 277.5 202.18 277.737 202.18 278.03V314.17C202.18 314.463 202.417 314.7 202.71 314.7Z" fill="#F0F0F0"/>
<path d="M176.72 301.94C176.722 303.056 176.393 304.147 175.774 305.076C175.156 306.005 174.276 306.729 173.245 307.158C172.215 307.586 171.081 307.699 169.986 307.483C168.891 307.266 167.885 306.73 167.095 305.942C166.306 305.153 165.768 304.148 165.549 303.054C165.331 301.96 165.442 300.825 165.868 299.794C166.295 298.763 167.018 297.881 167.946 297.261C168.873 296.641 169.964 296.31 171.08 296.31C172.574 296.31 174.007 296.903 175.065 297.958C176.122 299.014 176.717 300.446 176.72 301.94V301.94Z" fill="#FAFAFA"/>
<path d="M167.11 304.63C167.11 305.502 166.851 306.355 166.367 307.08C165.882 307.805 165.193 308.371 164.388 308.704C163.582 309.038 162.695 309.126 161.84 308.955C160.984 308.785 160.198 308.365 159.582 307.749C158.965 307.132 158.545 306.346 158.375 305.491C158.205 304.635 158.292 303.748 158.626 302.943C158.959 302.137 159.525 301.448 160.25 300.963C160.975 300.479 161.828 300.22 162.7 300.22C163.869 300.223 164.989 300.688 165.815 301.515C166.642 302.341 167.107 303.461 167.11 304.63V304.63Z" fill="#FAFAFA"/>
<path d="M186.37 304.63C186.37 305.746 186.039 306.836 185.419 307.764C184.8 308.691 183.919 309.414 182.888 309.841C181.858 310.268 180.724 310.379 179.63 310.162C178.536 309.944 177.531 309.407 176.742 308.618C175.953 307.83 175.416 306.825 175.198 305.731C174.981 304.636 175.092 303.502 175.519 302.472C175.946 301.441 176.669 300.56 177.597 299.941C178.524 299.321 179.614 298.99 180.73 298.99C182.225 298.993 183.658 299.588 184.715 300.645C185.772 301.702 186.367 303.135 186.37 304.63V304.63Z" fill="#FAFAFA"/>
<path d="M195.61 302.98C195.61 304.096 195.279 305.186 194.659 306.113C194.04 307.041 193.159 307.764 192.128 308.191C191.098 308.618 189.964 308.729 188.87 308.512C187.776 308.294 186.771 307.757 185.982 306.968C185.193 306.179 184.656 305.174 184.438 304.08C184.221 302.986 184.332 301.852 184.759 300.822C185.186 299.791 185.909 298.91 186.837 298.291C187.764 297.671 188.854 297.34 189.97 297.34C191.466 297.34 192.9 297.934 193.958 298.992C195.016 300.05 195.61 301.484 195.61 302.98V302.98Z" fill="#FAFAFA"/>
<path d="M147.18 303.71C147.18 303.71 147.95 314.71 177.62 314.71C207.29 314.71 208.06 303.71 208.06 303.71H147.18Z" fill="#F5F5F5"/>
<path d="M230.38 253.7C230.38 253.7 231.61 264.7 278.63 264.7C325.65 264.7 326.87 253.7 326.87 253.7H230.38Z" fill="white"/>
<path d="M250 372.61C357.082 372.61 443.89 367.542 443.89 361.29C443.89 355.038 357.082 349.97 250 349.97C142.917 349.97 56.11 355.038 56.11 361.29C56.11 367.542 142.917 372.61 250 372.61Z" fill="#F5F5F5"/>
<path d="M146.921 211.375C168.072 190.224 168.072 155.932 146.921 134.781C125.771 113.631 91.4785 113.631 70.3277 134.781C49.1769 155.932 49.1769 190.224 70.3277 211.375C91.4785 232.526 125.771 232.526 146.921 211.375Z" fill="#8F94FB"/>
<path opacity="0.4" d="M146.921 211.375C168.072 190.224 168.072 155.932 146.921 134.781C125.771 113.631 91.4785 113.631 70.3277 134.781C49.1769 155.932 49.1769 190.224 70.3277 211.375C91.4785 232.526 125.771 232.526 146.921 211.375Z" fill="black"/>
<path opacity="0.2" d="M153.461 180.726C157.685 155.966 141.037 132.47 116.276 128.246C91.5159 124.023 68.02 140.671 63.7965 165.431C59.5731 190.192 76.2214 213.688 100.982 217.911C125.742 222.135 149.238 205.486 153.461 180.726Z" fill="black"/>
<path d="M155.635 177.434C157.323 153.321 139.144 132.406 115.031 130.718C90.9184 129.03 70.0029 147.209 68.315 171.322C66.6271 195.434 84.806 216.35 108.919 218.038C133.032 219.726 153.947 201.547 155.635 177.434Z" fill="#8F94FB"/>
<path opacity="0.4" d="M155.635 177.434C157.323 153.321 139.144 132.406 115.031 130.718C90.9184 129.03 70.0029 147.209 68.315 171.322C66.6271 195.434 84.806 216.35 108.919 218.038C133.032 219.726 153.947 201.547 155.635 177.434Z" fill="black"/>
<path d="M126.61 168.91L129.46 181.26C129.581 181.731 129.603 182.223 129.523 182.703C129.444 183.184 129.266 183.642 129 184.05C128.742 184.467 128.402 184.827 128.002 185.111C127.602 185.394 127.149 185.594 126.67 185.7L115.81 188.21L117.81 196.9C117.928 197.37 117.946 197.859 117.863 198.336C117.78 198.813 117.599 199.267 117.33 199.67C117.072 200.08 116.731 200.432 116.33 200.704C115.929 200.976 115.476 201.162 115 201.25C114.523 201.369 114.027 201.392 113.54 201.316C113.054 201.241 112.588 201.069 112.17 200.81C111.753 200.565 111.392 200.235 111.11 199.843C110.827 199.45 110.63 199.003 110.53 198.53L108.53 189.74L97.76 192.23C97.2959 192.342 96.8139 192.359 96.343 192.28C95.8721 192.201 95.4221 192.027 95.02 191.77C94.6022 191.525 94.2398 191.196 93.9557 190.803C93.6717 190.411 93.4723 189.963 93.37 189.49C93.2563 189.023 93.2384 188.537 93.3175 188.063C93.3965 187.588 93.5709 187.135 93.83 186.73C94.0772 186.316 94.4074 185.957 94.7997 185.677C95.1921 185.396 95.6382 185.2 96.11 185.1L121.31 179.29L120.13 174.16L95 179.95C94.5348 180.069 94.0503 180.092 93.5759 180.018C93.1015 179.944 92.6471 179.774 92.24 179.52C91.8226 179.269 91.4621 178.935 91.1814 178.537C90.9007 178.139 90.7061 177.687 90.61 177.21L87.77 164.91C87.5514 163.964 87.7173 162.971 88.2311 162.148C88.7449 161.324 89.5646 160.739 90.51 160.52L101.23 158.05L99.23 149.35C99.114 148.89 99.0915 148.411 99.1636 147.942C99.2357 147.473 99.4011 147.024 99.65 146.62C99.9138 146.182 100.268 145.806 100.689 145.516C101.109 145.227 101.587 145.03 102.09 144.94C102.552 144.827 103.033 144.81 103.502 144.889C103.972 144.968 104.42 145.142 104.82 145.4C105.231 145.652 105.586 145.986 105.864 146.379C106.143 146.773 106.339 147.219 106.44 147.69L108.44 156.38L119.44 153.86C119.916 153.745 120.41 153.727 120.893 153.808C121.376 153.888 121.838 154.066 122.25 154.33C122.667 154.57 123.03 154.894 123.316 155.281C123.602 155.668 123.804 156.11 123.91 156.58C124.121 157.547 123.945 158.558 123.42 159.397C122.894 160.236 122.062 160.837 121.1 161.07L95.9 166.88L97 171.98L122.11 166.19C122.586 166.075 123.08 166.057 123.563 166.138C124.046 166.218 124.508 166.396 124.92 166.66C125.344 166.895 125.714 167.217 126.005 167.605C126.296 167.992 126.502 168.437 126.61 168.91V168.91Z" fill="#8F94FB"/>
<g opacity="0.7">
<path opacity="0.7" d="M126.61 168.91L129.46 181.26C129.581 181.731 129.603 182.223 129.523 182.703C129.444 183.184 129.266 183.642 129 184.05C128.742 184.467 128.402 184.827 128.002 185.111C127.602 185.394 127.149 185.594 126.67 185.7L115.81 188.21L117.81 196.9C117.928 197.37 117.946 197.859 117.863 198.336C117.78 198.813 117.599 199.267 117.33 199.67C117.072 200.08 116.731 200.432 116.33 200.704C115.929 200.976 115.476 201.162 115 201.25C114.523 201.369 114.027 201.392 113.54 201.316C113.054 201.241 112.588 201.069 112.17 200.81C111.753 200.565 111.392 200.235 111.11 199.843C110.827 199.45 110.63 199.003 110.53 198.53L108.53 189.74L97.76 192.23C97.2959 192.342 96.8139 192.359 96.343 192.28C95.8721 192.201 95.4221 192.027 95.02 191.77C94.6022 191.525 94.2398 191.196 93.9557 190.803C93.6717 190.411 93.4723 189.963 93.37 189.49C93.2563 189.023 93.2384 188.537 93.3175 188.063C93.3965 187.588 93.5709 187.135 93.83 186.73C94.0772 186.316 94.4074 185.957 94.7997 185.677C95.1921 185.396 95.6382 185.2 96.11 185.1L121.31 179.29L120.13 174.16L95 179.95C94.5348 180.069 94.0503 180.092 93.5759 180.018C93.1015 179.944 92.6471 179.774 92.24 179.52C91.8226 179.269 91.4621 178.935 91.1814 178.537C90.9007 178.139 90.7061 177.687 90.61 177.21L87.77 164.91C87.5514 163.964 87.7173 162.971 88.2311 162.148C88.7449 161.324 89.5646 160.739 90.51 160.52L101.23 158.05L99.23 149.35C99.114 148.89 99.0915 148.411 99.1636 147.942C99.2357 147.473 99.4011 147.024 99.65 146.62C99.9138 146.182 100.268 145.806 100.689 145.516C101.109 145.227 101.587 145.03 102.09 144.94C102.552 144.827 103.033 144.81 103.502 144.889C103.972 144.968 104.42 145.142 104.82 145.4C105.231 145.652 105.586 145.986 105.864 146.379C106.143 146.773 106.339 147.219 106.44 147.69L108.44 156.38L119.44 153.86C119.916 153.745 120.41 153.727 120.893 153.808C121.376 153.888 121.838 154.066 122.25 154.33C122.667 154.57 123.03 154.894 123.316 155.281C123.602 155.668 123.804 156.11 123.91 156.58C124.121 157.547 123.945 158.558 123.42 159.397C122.894 160.236 122.062 160.837 121.1 161.07L95.9 166.88L97 171.98L122.11 166.19C122.586 166.075 123.08 166.057 123.563 166.138C124.046 166.218 124.508 166.396 124.92 166.66C125.344 166.895 125.714 167.217 126.005 167.605C126.296 167.992 126.502 168.437 126.61 168.91V168.91Z" fill="white"/>
</g>
<path d="M224.199 130.008C237.673 114.062 235.671 90.2126 219.725 76.7378C203.78 63.263 179.93 65.2657 166.456 81.211C152.981 97.1563 154.983 121.006 170.929 134.481C186.874 147.956 210.724 145.953 224.199 130.008Z" fill="#8F94FB"/>
<path opacity="0.4" d="M224.199 130.008C237.673 114.062 235.671 90.2126 219.725 76.7378C203.78 63.263 179.93 65.2657 166.456 81.211C152.981 97.1563 154.983 121.006 170.929 134.481C186.874 147.956 210.724 145.953 224.199 130.008Z" fill="black"/>
<path opacity="0.2" d="M219.793 125.804C230.962 112.294 229.063 92.2868 215.553 81.1178C202.042 69.9488 182.035 71.847 170.866 85.3576C159.697 98.8683 161.595 118.875 175.106 130.044C188.617 141.213 208.624 139.315 219.793 125.804Z" fill="black"/>
<path d="M220.751 126.136C230.969 112.766 228.414 93.6429 215.044 83.4243C201.674 73.2056 182.551 75.7605 172.333 89.1308C162.114 102.501 164.669 121.624 178.039 131.842C191.409 142.061 210.532 139.506 220.751 126.136Z" fill="#8F94FB"/>
<path opacity="0.4" d="M220.751 126.136C230.969 112.766 228.414 93.6429 215.044 83.4243C201.674 73.2056 182.551 75.7605 172.333 89.1308C162.114 102.501 164.669 121.624 178.039 131.842C191.409 142.061 210.532 139.506 220.751 126.136Z" fill="black"/>
<path d="M207.82 108.71L205.67 117.29C205.592 117.616 205.447 117.923 205.244 118.19C205.04 118.456 204.784 118.678 204.49 118.84C204.193 119.02 203.863 119.139 203.52 119.189C203.176 119.239 202.826 119.219 202.49 119.13L195 117.24L193.48 123.24C193.403 123.568 193.258 123.876 193.055 124.145C192.851 124.413 192.594 124.636 192.3 124.8C192.016 124.976 191.7 125.093 191.37 125.142C191.04 125.192 190.703 125.174 190.38 125.09C190.047 125.012 189.734 124.868 189.457 124.667C189.181 124.466 188.947 124.212 188.77 123.92C188.59 123.635 188.47 123.315 188.418 122.981C188.366 122.647 188.384 122.307 188.47 121.98L190 115.88L182.5 114.05C182.175 113.972 181.869 113.829 181.601 113.63C181.333 113.431 181.108 113.179 180.94 112.89C180.759 112.607 180.639 112.289 180.588 111.956C180.536 111.624 180.554 111.285 180.64 110.96C180.715 110.631 180.856 110.321 181.056 110.049C181.255 109.778 181.509 109.55 181.8 109.38C182.088 109.205 182.408 109.089 182.741 109.041C183.075 108.993 183.415 109.013 183.74 109.1L201.24 113.49L202.14 109.93L184.69 105.55C184.363 105.477 184.055 105.337 183.785 105.139C183.515 104.941 183.288 104.69 183.12 104.4C182.939 104.115 182.82 103.794 182.772 103.46C182.724 103.126 182.747 102.785 182.84 102.46L184.98 93.91C185.061 93.5841 185.205 93.2774 185.405 93.0077C185.605 92.7379 185.856 92.5105 186.144 92.3384C186.432 92.1664 186.752 92.0532 187.084 92.0054C187.416 91.9576 187.755 91.9762 188.08 92.06L195.5 93.92L197.02 87.92C197.094 87.5813 197.236 87.2616 197.44 86.9808C197.643 86.7001 197.902 86.4644 198.201 86.2888C198.499 86.1131 198.831 86.0012 199.175 85.9601C199.519 85.919 199.868 85.9496 200.2 86.05C200.522 86.1247 200.826 86.2654 201.091 86.4634C201.356 86.6613 201.577 86.9122 201.74 87.2C201.917 87.4851 202.034 87.8033 202.084 88.1352C202.134 88.467 202.115 88.8055 202.03 89.13L200.51 95.13L208.11 97.04C208.443 97.1196 208.757 97.2662 209.032 97.4707C209.307 97.6753 209.538 97.9336 209.71 98.23C209.892 98.5109 210.015 98.8264 210.07 99.1567C210.125 99.487 210.111 99.8252 210.03 100.15C209.947 100.483 209.797 100.796 209.591 101.071C209.385 101.346 209.126 101.577 208.83 101.75C208.535 101.934 208.205 102.055 207.861 102.107C207.517 102.158 207.166 102.139 206.83 102.05L189.32 97.66L188.44 101.2L205.88 105.57C206.213 105.65 206.527 105.796 206.802 106.001C207.077 106.205 207.308 106.464 207.48 106.76C207.673 107.042 207.803 107.362 207.861 107.698C207.92 108.035 207.906 108.38 207.82 108.71V108.71Z" fill="#8F94FB"/>
<g opacity="0.7">
<path opacity="0.7" d="M207.82 108.71L205.67 117.29C205.592 117.616 205.447 117.923 205.244 118.19C205.04 118.456 204.784 118.678 204.49 118.84C204.193 119.02 203.863 119.139 203.52 119.189C203.176 119.239 202.826 119.219 202.49 119.13L195 117.24L193.48 123.24C193.403 123.568 193.258 123.876 193.055 124.145C192.851 124.413 192.594 124.636 192.3 124.8C192.016 124.976 191.7 125.093 191.37 125.142C191.04 125.192 190.703 125.174 190.38 125.09C190.047 125.012 189.734 124.868 189.457 124.667C189.181 124.466 188.947 124.212 188.77 123.92C188.59 123.635 188.47 123.315 188.418 122.981C188.366 122.647 188.384 122.307 188.47 121.98L190 115.88L182.5 114.05C182.175 113.972 181.869 113.829 181.601 113.63C181.333 113.431 181.108 113.179 180.94 112.89C180.759 112.607 180.639 112.289 180.588 111.956C180.536 111.624 180.554 111.285 180.64 110.96C180.715 110.631 180.856 110.321 181.056 110.049C181.255 109.778 181.509 109.55 181.8 109.38C182.088 109.205 182.408 109.089 182.741 109.041C183.075 108.993 183.415 109.013 183.74 109.1L201.24 113.49L202.14 109.93L184.69 105.55C184.363 105.477 184.055 105.337 183.785 105.139C183.515 104.941 183.288 104.69 183.12 104.4C182.939 104.115 182.82 103.794 182.772 103.46C182.724 103.126 182.747 102.785 182.84 102.46L184.98 93.91C185.061 93.5841 185.205 93.2774 185.405 93.0077C185.605 92.7379 185.856 92.5105 186.144 92.3384C186.432 92.1664 186.752 92.0532 187.084 92.0054C187.416 91.9576 187.755 91.9762 188.08 92.06L195.5 93.92L197.02 87.92C197.094 87.5813 197.236 87.2616 197.44 86.9808C197.643 86.7001 197.902 86.4644 198.201 86.2888C198.499 86.1131 198.831 86.0012 199.175 85.9601C199.519 85.919 199.868 85.9496 200.2 86.05C200.522 86.1247 200.826 86.2654 201.091 86.4634C201.356 86.6613 201.577 86.9122 201.74 87.2C201.917 87.4851 202.034 87.8033 202.084 88.1352C202.134 88.467 202.115 88.8055 202.03 89.13L200.51 95.13L208.11 97.04C208.443 97.1196 208.757 97.2662 209.032 97.4707C209.307 97.6753 209.538 97.9336 209.71 98.23C209.892 98.5109 210.015 98.8264 210.07 99.1567C210.125 99.487 210.111 99.8252 210.03 100.15C209.947 100.483 209.797 100.796 209.591 101.071C209.385 101.346 209.126 101.577 208.83 101.75C208.535 101.934 208.205 102.055 207.861 102.107C207.517 102.158 207.166 102.139 206.83 102.05L189.32 97.66L188.44 101.2L205.88 105.57C206.213 105.65 206.527 105.796 206.802 106.001C207.077 106.205 207.308 106.464 207.48 106.76C207.673 107.042 207.803 107.362 207.861 107.698C207.92 108.035 207.906 108.38 207.82 108.71V108.71Z" fill="white"/>
</g>
<path d="M103.26 334.02H102.26V345.31H103.26V334.02Z" fill="#8F94FB"/>
<path d="M397.74 244.57H396.74V260.04H397.74V244.57Z" fill="#8F94FB"/>
<path d="M397.74 268.16H396.74V276.55H397.74V268.16Z" fill="#8F94FB"/>
<path d="M379.2 177.49H120.81C112.498 177.49 105.76 184.228 105.76 192.54V343.79C105.76 352.102 112.498 358.84 120.81 358.84H379.2C387.512 358.84 394.25 352.102 394.25 343.79V192.54C394.25 184.228 387.512 177.49 379.2 177.49Z" fill="#8F94FB"/>
<path opacity="0.2" d="M379.2 177.49H120.81C112.498 177.49 105.76 184.228 105.76 192.54V343.79C105.76 352.102 112.498 358.84 120.81 358.84H379.2C387.512 358.84 394.25 352.102 394.25 343.79V192.54C394.25 184.228 387.512 177.49 379.2 177.49Z" fill="black"/>
<path d="M347.55 240.64C352.502 240.64 357.25 238.673 360.752 235.172C364.253 231.67 366.22 226.922 366.22 221.97C366.22 217.018 364.253 212.27 360.752 208.768C357.25 205.267 352.502 203.3 347.55 203.3H323.45C318.498 203.3 313.75 205.267 310.248 208.768C306.747 212.27 304.78 217.018 304.78 221.97C304.78 226.922 306.747 231.67 310.248 235.172C313.75 238.673 318.498 240.64 323.45 240.64H347.55Z" fill="#8F94FB"/>
<path d="M184.74 240.63H140.27C136.691 240.63 133.79 243.531 133.79 247.11V276.18C133.79 279.759 136.691 282.66 140.27 282.66H184.74C188.319 282.66 191.22 279.759 191.22 276.18V247.11C191.22 243.531 188.319 240.63 184.74 240.63Z" fill="#8F94FB"/>
<path opacity="0.3" d="M184.74 240.63H140.27C136.691 240.63 133.79 243.531 133.79 247.11V276.18C133.79 279.759 136.691 282.66 140.27 282.66H184.74C188.319 282.66 191.22 279.759 191.22 276.18V247.11C191.22 243.531 188.319 240.63 184.74 240.63Z" fill="white"/>
<path d="M215.51 198.71H138.38C135.845 198.71 133.79 200.763 133.79 203.295C133.79 205.827 135.845 207.88 138.38 207.88H215.51C218.045 207.88 220.1 205.827 220.1 203.295C220.1 200.763 218.045 198.71 215.51 198.71Z" fill="#8F94FB"/>
<path opacity="0.3" d="M215.51 198.71H138.38C135.845 198.71 133.79 200.763 133.79 203.295C133.79 205.827 135.845 207.88 138.38 207.88H215.51C218.045 207.88 220.1 205.827 220.1 203.295C220.1 200.763 218.045 198.71 215.51 198.71Z" fill="white"/>
<path d="M175.21 303.52H140.52C136.803 303.52 133.79 306.533 133.79 310.25V316.54C133.79 320.257 136.803 323.27 140.52 323.27H175.21C178.927 323.27 181.94 320.257 181.94 316.54V310.25C181.94 306.533 178.927 303.52 175.21 303.52Z" fill="#8F94FB"/>
<path opacity="0.3" d="M175.21 303.52H140.52C136.803 303.52 133.79 306.533 133.79 310.25V316.54C133.79 320.257 136.803 323.27 140.52 323.27H175.21C178.927 323.27 181.94 320.257 181.94 316.54V310.25C181.94 306.533 178.927 303.52 175.21 303.52Z" fill="white"/>
<path d="M236.63 303.52H201.94C198.223 303.52 195.21 306.533 195.21 310.25V316.54C195.21 320.257 198.223 323.27 201.94 323.27H236.63C240.347 323.27 243.36 320.257 243.36 316.54V310.25C243.36 306.533 240.347 303.52 236.63 303.52Z" fill="#8F94FB"/>
<path opacity="0.3" d="M236.63 303.52H201.94C198.223 303.52 195.21 306.533 195.21 310.25V316.54C195.21 320.257 198.223 323.27 201.94 323.27H236.63C240.347 323.27 243.36 320.257 243.36 316.54V310.25C243.36 306.533 240.347 303.52 236.63 303.52Z" fill="white"/>
<path d="M298.06 303.52H263.37C259.653 303.52 256.64 306.533 256.64 310.25V316.54C256.64 320.257 259.653 323.27 263.37 323.27H298.06C301.777 323.27 304.79 320.257 304.79 316.54V310.25C304.79 306.533 301.777 303.52 298.06 303.52Z" fill="#8F94FB"/>
<path opacity="0.3" d="M298.06 303.52H263.37C259.653 303.52 256.64 306.533 256.64 310.25V316.54C256.64 320.257 259.653 323.27 263.37 323.27H298.06C301.777 323.27 304.79 320.257 304.79 316.54V310.25C304.79 306.533 301.777 303.52 298.06 303.52Z" fill="white"/>
<path d="M359.48 303.52H324.79C321.073 303.52 318.06 306.533 318.06 310.25V316.54C318.06 320.257 321.073 323.27 324.79 323.27H359.48C363.197 323.27 366.21 320.257 366.21 316.54V310.25C366.21 306.533 363.197 303.52 359.48 303.52Z" fill="#8F94FB"/>
<path opacity="0.3" d="M359.48 303.52H324.79C321.073 303.52 318.06 306.533 318.06 310.25V316.54C318.06 320.257 321.073 323.27 324.79 323.27H359.48C363.197 323.27 366.21 320.257 366.21 316.54V310.25C366.21 306.533 363.197 303.52 359.48 303.52Z" fill="white"/>
<path d="M293 111.87C290.63 118.56 288 125.03 285.21 131.5C282.386 138.079 279.146 144.472 275.51 150.64C275.02 151.43 274.51 152.22 273.98 153.01L273.59 153.6L273.06 154.33C272.7 154.79 272.36 155.19 272.06 155.58C270.8 156.985 269.465 158.32 268.06 159.58C265.39 162.05 262.67 164.29 259.92 166.5C254.4 170.88 248.76 174.98 242.92 178.87L239.43 174.54L254.13 160.05C256.56 157.64 258.97 155.21 261.22 152.78C262.33 151.57 263.41 150.33 264.3 149.19C264.52 148.91 264.71 148.63 264.88 148.39L265.09 148.05L265.38 147.53C265.77 146.84 266.18 146.17 266.56 145.46C269.62 139.71 272.32 133.46 274.92 127.12C277.52 120.78 280.02 114.39 282.42 108.05L293 111.87Z" fill="#E4897B"/>
<path d="M295.81 107.05C298.08 113.69 284.74 133.22 284.74 133.22L272 126.13C274.171 120.036 276.736 114.09 279.68 108.33C284.14 99.8899 293.32 99.7599 295.81 107.05Z" fill="#8F94FB"/>
<path opacity="0.7" d="M295.81 107.05C298.08 113.69 284.74 133.22 284.74 133.22L272 126.13C274.171 120.036 276.736 114.09 279.68 108.33C284.14 99.8899 293.32 99.7599 295.81 107.05Z" fill="white"/>
<path opacity="0.31" d="M296 107.88C293.14 106.51 289.85 107.66 286.38 113.14C282.91 118.62 279.96 127.77 279.64 130.38L284.75 133.21C284.75 133.21 297.06 115.17 296 107.88Z" fill="#8F94FB"/>
<path d="M287.18 101.97C287.18 101.97 277.66 124.36 284.52 166.05H324.17C324.66 159.96 321.86 130.27 328.73 101.59C324.365 100.74 319.949 100.179 315.51 99.9098C309.898 99.5896 304.272 99.5896 298.66 99.9098C294.786 100.303 290.949 100.992 287.18 101.97V101.97Z" fill="#8F94FB"/>
<path opacity="0.7" d="M287.18 101.97C287.18 101.97 277.66 124.36 284.52 166.05H324.17C324.66 159.96 321.86 130.27 328.73 101.59C324.365 100.74 319.949 100.179 315.51 99.9098C309.898 99.5896 304.272 99.5896 298.66 99.9098C294.786 100.303 290.949 100.992 287.18 101.97V101.97Z" fill="white"/>
<path d="M338.21 343.67L332.34 348.93L321.15 337.29L327.03 332.03L338.21 343.67Z" fill="#E4897B"/>
<path d="M318.08 354.62H310.67L309.71 337.45H317.12L318.08 354.62Z" fill="#E4897B"/>
<path d="M321.16 337.29L326.92 343.29L332.8 338.03L327.04 332.03L321.16 337.29Z" fill="#CE6F64"/>
<path d="M317.12 337.46H309.71L310.21 346.31H317.62L317.12 337.46Z" fill="#CE6F64"/>
<path d="M284.52 166.05C284.52 166.05 276.71 220.11 274.05 249.53C271.91 273.14 322.96 343.53 322.96 343.53L332.83 334.24C332.83 334.24 295.55 271.13 298.42 244.85C301.2 219.4 310.62 166.02 310.62 166.02L284.52 166.05Z" fill="#8F94FB"/>
<path opacity="0.7" d="M284.52 166.05C284.52 166.05 276.71 220.11 274.05 249.53C271.91 273.14 322.96 343.53 322.96 343.53L332.83 334.24C332.83 334.24 295.55 271.13 298.42 244.85C301.2 219.4 310.62 166.02 310.62 166.02L284.52 166.05Z" fill="black"/>
<path opacity="0.2" d="M298.42 244.88C299.85 231.77 303.05 211.23 305.8 194.41C304.36 191.59 300.32 185.88 300.32 185.88C296.7 198.39 288.83 245.55 300.06 309.24C311.76 328.1 322.96 343.56 322.96 343.56L324.49 319.24C313.68 298.9 296.43 263.05 298.42 244.88Z" fill="black"/>
<path d="M298.62 166.05C298.62 166.05 297.92 222.7 299.12 243.93C300.43 267.17 307.03 344.17 307.03 344.17H320.61C320.61 344.17 320.2 269.05 321 246.05C321.89 221.05 324.19 166.05 324.19 166.05H298.62Z" fill="#8F94FB"/>
<path opacity="0.7" d="M298.62 166.05C298.62 166.05 297.92 222.7 299.12 243.93C300.43 267.17 307.03 344.17 307.03 344.17H320.61C320.61 344.17 320.2 269.05 321 246.05C321.89 221.05 324.19 166.05 324.19 166.05H298.62Z" fill="black"/>
<path d="M310.28 353.77H318.61C318.749 353.764 318.884 353.814 318.987 353.907C319.09 354.001 319.152 354.131 319.16 354.27L319.57 360.86C319.571 361.032 319.539 361.203 319.474 361.362C319.409 361.521 319.314 361.667 319.193 361.789C319.073 361.912 318.929 362.009 318.771 362.076C318.612 362.143 318.442 362.179 318.27 362.18C315.37 362.13 313.98 361.96 310.32 361.96C308.07 361.96 298.49 362.2 295.38 362.2C292.27 362.2 292.38 359.12 293.67 358.84C299.58 357.59 306.91 355.84 309.01 354.22C309.372 353.934 309.819 353.776 310.28 353.77V353.77Z" fill="#263238"/>
<path d="M330.72 346.83L337.86 342.02C337.977 341.928 338.121 341.877 338.27 341.877C338.419 341.877 338.563 341.928 338.68 342.02L344.14 347.53C344.247 347.651 344.325 347.794 344.37 347.949C344.415 348.104 344.426 348.267 344.401 348.426C344.376 348.585 344.317 348.737 344.227 348.871C344.137 349.005 344.018 349.117 343.88 349.2C339.32 352.71 336.03 355.36 333.43 358.28C330.43 361.69 328.81 362.18 321.81 362.18C318.57 362.18 316.74 359.45 318.06 359.03C329.72 355.34 326.6 353.73 329.44 348.32C329.736 347.725 330.176 347.213 330.72 346.83Z" fill="#263238"/>
<path d="M241.11 173.61L233.38 173.88L235 179.94C235 179.94 243.08 180.66 243.8 178.22L241.11 173.61Z" fill="#E4897B"/>
<path d="M225.04 177.49L230.46 180.65L235 179.94L233.38 173.88L225.04 177.49Z" fill="#E4897B"/>
<path opacity="0.31" d="M319.87 108.67C319.05 113.39 320.14 124.67 324.19 137.73C324.507 126.541 325.809 115.401 328.08 104.44V104.38C325.48 104.12 320.66 104.24 319.87 108.67Z" fill="#8F94FB"/>
<path d="M314.5 80.9299C313.25 86.3499 311.84 96.2899 315.5 99.9299C315.5 99.9299 313.92 104.42 303.84 104.42C292.76 104.42 298.65 99.9299 298.65 99.9299C304.75 98.4899 304.75 93.9999 303.84 89.7899L314.5 80.9299Z" fill="#E4897B"/>
<path d="M303.56 104.4L300.56 107.59L302.03 110.67L304.42 110.78L306.46 107.84L303.56 104.4Z" fill="#8F94FB"/>
<path d="M310.16 84.54L303.85 89.76C304.077 90.7459 304.218 91.7497 304.27 92.76C306.59 92.43 309.85 89.89 310.18 87.47C310.357 86.5007 310.35 85.5069 310.16 84.54V84.54Z" fill="#CE6F64"/>
<path d="M301.35 62.55C297.56 63.84 294.53 73.89 298.95 76.55C303.37 79.21 308.55 60.1 301.35 62.55Z" fill="#263238"/>
<path d="M316.87 75.2501C314.61 82.2501 313.65 86.4801 309.09 89.3501C307.619 90.2955 305.917 90.8208 304.169 90.869C302.421 90.9172 300.693 90.4866 299.172 89.6237C297.652 88.7607 296.396 87.4984 295.54 85.9731C294.685 84.4479 294.263 82.7178 294.32 80.9701C294.41 74.2401 298.09 63.8801 305.84 62.5801C307.51 62.2576 309.236 62.3797 310.844 62.934C312.453 63.4883 313.887 64.4554 315.004 65.7384C316.121 67.0215 316.881 68.5754 317.209 70.2447C317.536 71.914 317.419 73.6401 316.87 75.2501V75.2501Z" fill="#E4897B"/>
<path d="M322.47 63.5499C320.21 69.0099 325.47 64.4499 324.11 70.9299C323.23 75.1499 315.61 85.2599 312.67 84.3399C309.73 83.4199 309.76 76.2499 313.51 71.1799C315.67 68.2699 311 64.9699 300.51 65.3199C290.02 65.6699 283.68 59.7699 297.62 55.4399C297.62 55.4399 292.48 58.4399 295.53 59.4399C299.85 61.0499 327 52.6099 322.47 63.5499Z" fill="#263238"/>
<path d="M320.47 66.05C320.36 66.05 322.82 65.44 324.13 61.05C324.13 61.12 323.7 67.59 320.47 66.05Z" fill="#263238"/>
<path d="M300.84 56.4099C294.39 58.4099 297.06 60.6599 299.73 61.2199L305.85 58.8199C296.55 60.0499 300.84 56.4099 300.84 56.4099Z" fill="#263238"/>
<path d="M318.11 83.8C316.769 85.1033 314.98 85.844 313.11 85.87C310.64 85.87 310.11 83.53 311.44 81.57C312.62 79.81 315.32 77.69 317.5 78.64C319.68 79.59 319.75 82.19 318.11 83.8Z" fill="#E4897B"/>
<path d="M305.48 74.8599C305.33 75.4399 304.9 75.8599 304.48 75.7599C304.06 75.6599 303.91 75.1299 304.06 74.5499C304.21 73.9699 304.64 73.5499 305.06 73.6599C305.48 73.7699 305.63 74.2799 305.48 74.8599Z" fill="#263238"/>
<path d="M298.88 73.4098C298.73 73.9898 298.3 74.4098 297.88 74.3098C297.46 74.2098 297.31 73.6898 297.46 73.1098C297.61 72.5298 298.03 72.1098 298.46 72.2098C298.89 72.3098 299 72.8298 298.88 73.4098Z" fill="#263238"/>
<path d="M300.9 74.1599C299.763 75.779 298.418 77.2415 296.9 78.5099C297.234 78.881 297.645 79.1745 298.105 79.3697C298.564 79.5649 299.061 79.6571 299.56 79.6399L300.9 74.1599Z" fill="#DE5753"/>
<path d="M302 81.75C301.586 81.7495 301.173 81.7025 300.77 81.61C300.726 81.5981 300.687 81.5698 300.663 81.5308C300.639 81.4917 300.631 81.4449 300.64 81.4C300.652 81.3556 300.68 81.3174 300.719 81.2933C300.758 81.2691 300.805 81.2608 300.85 81.27C301.586 81.434 302.35 81.4292 303.085 81.256C303.819 81.0828 304.504 80.7457 305.09 80.27C305.124 80.2376 305.168 80.2195 305.215 80.2195C305.262 80.2195 305.306 80.2376 305.34 80.27C305.372 80.3035 305.39 80.3483 305.39 80.395C305.39 80.4416 305.372 80.4864 305.34 80.52C304.411 81.3193 303.225 81.7562 302 81.75V81.75Z" fill="#263238"/>
<path d="M308.1 73.19C308.032 73.1912 307.965 73.1718 307.908 73.1343C307.851 73.0969 307.806 73.0431 307.78 72.98C307.616 72.5788 307.357 72.2231 307.027 71.9429C306.696 71.6626 306.303 71.4661 305.88 71.37C305.834 71.3639 305.789 71.3486 305.749 71.3251C305.709 71.3016 305.674 71.2703 305.646 71.233C305.618 71.1958 305.598 71.1533 305.586 71.1082C305.575 71.063 305.573 71.016 305.58 70.97C305.595 70.8779 305.645 70.7952 305.719 70.7392C305.794 70.6833 305.887 70.6585 305.98 70.67C306.519 70.7798 307.022 71.0193 307.448 71.3679C307.873 71.7164 308.207 72.1633 308.42 72.67C308.44 72.7118 308.451 72.7572 308.452 72.8034C308.454 72.8497 308.446 72.8957 308.429 72.9388C308.412 72.9818 308.387 73.021 308.354 73.0539C308.322 73.0867 308.283 73.1127 308.24 73.13C308.198 73.16 308.15 73.1805 308.1 73.19Z" fill="#263238"/>
<path d="M296.65 70.54C296.57 70.5393 296.492 70.5111 296.43 70.46C296.358 70.3996 296.313 70.3135 296.303 70.2201C296.294 70.1267 296.321 70.0334 296.38 69.96C296.732 69.5216 297.181 69.1701 297.69 68.9326C298.2 68.695 298.758 68.5778 299.32 68.59C299.366 68.5937 299.411 68.6066 299.452 68.6278C299.493 68.6489 299.529 68.678 299.559 68.7134C299.589 68.7487 299.611 68.7895 299.625 68.8336C299.639 68.8776 299.644 68.924 299.64 68.97C299.638 69.0165 299.626 69.062 299.605 69.1037C299.584 69.1454 299.555 69.1824 299.519 69.2125C299.484 69.2425 299.442 69.2648 299.398 69.2782C299.353 69.2915 299.306 69.2955 299.26 69.29C298.81 69.2852 298.365 69.3837 297.96 69.5779C297.554 69.7721 297.198 70.0567 296.92 70.41C296.888 70.4508 296.847 70.4838 296.8 70.5063C296.753 70.5289 296.702 70.5404 296.65 70.54V70.54Z" fill="#263238"/>
<path d="M330.65 106.7C331.43 107.91 332.08 108.98 332.74 110.14C333.4 111.3 334.03 112.42 334.65 113.58C335.87 115.89 337.02 118.25 338.07 120.66C340.272 125.594 341.926 130.755 343 136.05L343.1 136.56L343.15 136.81L343.22 137.23C343.305 137.789 343.348 138.354 343.35 138.92C343.34 139.867 343.24 140.812 343.05 141.74C342.711 143.271 342.222 144.765 341.59 146.2C340.467 148.714 339.129 151.127 337.59 153.41C334.681 157.752 331.373 161.813 327.71 165.54L323.36 162.05C325.78 157.83 328.19 153.45 330.21 149.16C331.203 147.108 332.052 144.99 332.75 142.82C333.035 141.915 333.23 140.984 333.33 140.04C333.365 139.731 333.365 139.419 333.33 139.11C333.33 139.02 333.33 138.94 333.27 138.93C333.21 138.92 333.27 138.93 333.27 138.88L333.21 138.68L333.09 138.27C332.458 136.064 331.707 133.894 330.84 131.77C329.96 129.6 328.98 127.44 327.95 125.29C326.92 123.14 325.81 121.02 324.67 118.9C324.11 117.84 323.52 116.79 322.93 115.75L321.17 112.75L330.65 106.7Z" fill="#E4897B"/>
<path d="M307.66 355.05C307.161 355.1 306.661 354.961 306.26 354.66C306.147 354.535 306.068 354.383 306.029 354.218C305.991 354.054 305.994 353.882 306.04 353.72C306.062 353.611 306.111 353.508 306.183 353.423C306.254 353.337 306.346 353.271 306.45 353.23C307.36 352.87 309.45 354.31 309.69 354.47C309.72 354.488 309.743 354.516 309.755 354.548C309.768 354.581 309.77 354.616 309.76 354.65C309.755 354.684 309.74 354.715 309.717 354.74C309.693 354.765 309.663 354.782 309.63 354.79C308.984 354.945 308.324 355.032 307.66 355.05V355.05ZM306.79 353.52C306.72 353.509 306.65 353.509 306.58 353.52C306.529 353.538 306.484 353.57 306.451 353.613C306.417 353.655 306.396 353.706 306.39 353.76C306.354 353.865 306.346 353.977 306.367 354.086C306.388 354.195 306.437 354.296 306.51 354.38C306.85 354.72 307.82 354.76 309.15 354.5C308.443 354.009 307.638 353.679 306.79 353.53V353.52Z" fill="white"/>
<path d="M309.59 354.8H309.5C308.76 354.36 307.66 352.8 307.83 352C307.859 351.853 307.938 351.721 308.052 351.625C308.167 351.528 308.31 351.474 308.46 351.47C308.592 351.453 308.726 351.466 308.852 351.507C308.979 351.549 309.094 351.618 309.19 351.71C309.94 352.44 309.77 354.57 309.77 354.66C309.766 354.69 309.755 354.718 309.738 354.743C309.72 354.767 309.697 354.787 309.67 354.8H309.59ZM308.59 351.8H308.51C308.26 351.8 308.2 351.95 308.18 352.05C308.07 352.58 308.8 353.75 309.44 354.29C309.532 353.479 309.364 352.659 308.96 351.95C308.91 351.901 308.85 351.863 308.785 351.837C308.72 351.811 308.65 351.799 308.58 351.8H308.59Z" fill="white"/>
<path d="M325.92 350.85C325.735 350.855 325.551 350.821 325.38 350.75C325.248 350.697 325.131 350.613 325.039 350.505C324.947 350.397 324.882 350.268 324.85 350.13C324.825 350.046 324.821 349.956 324.841 349.87C324.86 349.785 324.901 349.705 324.96 349.64C325.63 348.83 329.14 349.07 329.54 349.1C329.577 349.101 329.613 349.114 329.642 349.138C329.671 349.161 329.691 349.194 329.7 349.23C329.708 349.266 329.704 349.304 329.69 349.338C329.676 349.371 329.651 349.4 329.62 349.42C328.503 350.156 327.242 350.644 325.92 350.85V350.85ZM328.04 349.39C326.81 349.39 325.52 349.51 325.23 349.86C325.213 349.887 325.204 349.918 325.204 349.95C325.204 349.982 325.213 350.013 325.23 350.04C325.247 350.126 325.285 350.207 325.341 350.275C325.397 350.344 325.468 350.397 325.55 350.43C326.11 350.66 327.37 350.28 328.96 349.43L328.04 349.39Z" fill="white"/>
<path d="M329.53 349.45C328.53 349.45 326.28 348.68 326.11 347.88C326.11 347.68 326.11 347.4 326.59 347.17C328.31 346.36 329.64 349.08 329.7 349.17C329.712 349.198 329.718 349.229 329.718 349.26C329.718 349.291 329.712 349.322 329.7 349.35C329.684 349.381 329.659 349.406 329.629 349.424C329.599 349.441 329.565 349.45 329.53 349.45V349.45ZM327.22 347.38C327.05 347.378 326.883 347.416 326.73 347.49C326.52 347.59 326.42 347.7 326.44 347.8C326.54 348.27 328.16 348.93 329.22 349.07C328.9 348.53 328.13 347.38 327.22 347.38V347.38Z" fill="white"/>
<path d="M325.34 160.43L318 159.14L321.79 167.69C321.79 167.69 328.52 167.69 328.22 164.17L325.34 160.43Z" fill="#E4897B"/>
<path d="M312.45 163.43L315.92 170.34L321.75 167.68L317.96 159.14L312.45 163.43Z" fill="#E4897B"/>
<path d="M333.43 333.7L322.36 344.13L318.79 340.3L331.46 328.76L333.43 333.7Z" fill="#8F94FB"/>
<path opacity="0.6" d="M333.43 333.7L322.36 344.13L318.79 340.3L331.46 328.76L333.43 333.7Z" fill="white"/>
<path d="M321.15 344.17H306.48L305.67 339.02L321.86 339.82L321.15 344.17Z" fill="#8F94FB"/>
<path opacity="0.6" d="M321.15 344.17H306.48L305.67 339.02L321.86 339.82L321.15 344.17Z" fill="white"/>
<path d="M328.73 101.59C335.73 102.59 342.9 126.91 342.9 126.91L327.9 135.23C327.9 135.23 321.81 123.67 318.9 115.09C315.85 106.1 321.24 100.49 328.73 101.59Z" fill="#8F94FB"/>
<path opacity="0.7" d="M328.73 101.59C335.73 102.59 342.9 126.91 342.9 126.91L327.9 135.23C327.9 135.23 321.81 123.67 318.9 115.09C315.85 106.1 321.24 100.49 328.73 101.59Z" fill="white"/>
<path opacity="0.2" d="M303.56 104.4L300.56 107.59L302.03 110.67L304.42 110.78L306.46 107.84L303.56 104.4Z" fill="black"/>
<path d="M302.29 110.12C302.29 110.12 296.6 133.69 296.38 138.59C296.07 145.33 298.89 156.84 298.89 156.84C298.89 156.84 302.89 147.27 303.71 138.38C304.53 129.49 303.92 115.11 304.29 110.12H302.29Z" fill="#8F94FB"/>
<path opacity="0.2" d="M302.29 110.12C302.29 110.12 296.6 133.69 296.38 138.59C296.07 145.33 298.89 156.84 298.89 156.84C298.89 156.84 302.89 147.27 303.71 138.38C304.53 129.49 303.92 115.11 304.29 110.12H302.29Z" fill="black"/>
<path d="M303.56 104.4C304.7 106.245 305.36 108.345 305.48 110.51C305.48 110.51 317.96 106.11 317.37 99.66C317.37 99.66 315.6 98.61 314.48 97.76C314.48 97.76 314.06 101.82 303.56 104.4Z" fill="#8F94FB"/>
<path opacity="0.6" d="M303.56 104.4C304.7 106.245 305.36 108.345 305.48 110.51C305.48 110.51 317.96 106.11 317.37 99.66C317.37 99.66 315.6 98.61 314.48 97.76C314.48 97.76 314.06 101.82 303.56 104.4Z" fill="white"/>
<path d="M303.56 104.4C302.413 106.146 301.587 108.083 301.12 110.12C301.12 110.12 295.47 106.3 297.17 99.9299C298.205 99.5127 299.272 99.1783 300.36 98.9299C300.36 98.9299 299.62 103.05 303.56 104.4Z" fill="#8F94FB"/>
<path opacity="0.6" d="M303.56 104.4C302.413 106.146 301.587 108.083 301.12 110.12C301.12 110.12 295.47 106.3 297.17 99.9299C298.205 99.5127 299.272 99.1783 300.36 98.9299C300.36 98.9299 299.62 103.05 303.56 104.4Z" fill="white"/>
</g>
<defs>
<clipPath id="clip0_7_356">
<rect width="500" height="372.61" fill="white"/>
</clipPath>
</defs>
</svg>
