<svg width="500" height="500" viewBox="0 0 500 500" fill="none" xmlns="http://www.w3.org/2000/svg">
<path d="M331.22 401.21H322.53V401.46H331.22V401.21Z" fill="#EBEBEB"/>
<path d="M378.27 319.65V333.85L384.27 338.21H356.27L365.21 334.89V320.64L378.27 319.65Z" fill="#E0E0E0"/>
<path d="M302.74 337.8V382.53H427.74V337.8H302.74ZM304.99 340.7H402.83V355.32H305L304.99 340.7Z" fill="#E0E0E0"/>
<path d="M302.74 337.8V382.53H405.84V337.8H302.74ZM304.99 340.7H402.83V355.32H305L304.99 340.7Z" fill="#EBEBEB"/>
<path d="M304.99 355.32H325.15V340.7H304.99V355.32Z" fill="#E0E0E0"/>
<path d="M377.88 355.32H402.83V348.01H377.88V355.32Z" fill="#E0E0E0"/>
<path d="M357.26 355.32H376.04V350.98H357.26V355.32Z" fill="#E0E0E0"/>
<path d="M335.03 355.32H352.92V346.44H335.03V355.32Z" fill="#E0E0E0"/>
<path d="M385.1 358.5L385.63 360.25H392.81L393.35 358.5H402.83V377.91H371.36V358.5H385.1Z" fill="#E0E0E0"/>
<path d="M347.7 358.5L348.24 360.25H355.42L355.96 358.5H369.69V377.91H338.22V358.5H347.7Z" fill="#E0E0E0"/>
<path d="M318.82 358.5L319.35 360.25H326.53L327.07 358.5H336.55V377.91H305.08V358.5H318.82Z" fill="#E0E0E0"/>
<path d="M321.02 328.14H414.01C415.96 328.14 417.54 326.559 417.54 324.61V271.22C417.54 269.27 415.96 267.69 414.01 267.69H321.02C319.07 267.69 317.49 269.27 317.49 271.22V324.61C317.49 326.559 319.07 328.14 321.02 328.14Z" fill="#E0E0E0"/>
<path d="M318.67 328.14H411.66C413.61 328.14 415.19 326.559 415.19 324.61V271.22C415.19 269.27 413.61 267.69 411.66 267.69H318.67C316.72 267.69 315.14 269.27 315.14 271.22V324.61C315.14 326.559 316.72 328.14 318.67 328.14Z" fill="#E6E6E6"/>
<path d="M412.25 325.2V270.62H318.08V325.2H412.25Z" fill="#F0F0F0"/>
<path d="M191.14 107.64H72.51V230.22H191.14V107.64Z" fill="#EBEBEB"/>
<path d="M195.29 107.64H76.66V230.22H195.29V107.64Z" fill="#F0F0F0"/>
<path d="M192.15 110.55H79.65V227.38H192.15V110.55Z" fill="#E0E0E0"/>
<path d="M189.34 110.55H79.65V227.38H189.34V110.55Z" fill="#F5F5F5"/>
<path d="M135.63 110.55H133.4V227.38H135.63V110.55Z" fill="#EBEBEB"/>
<path d="M148.41 110.55L179.67 227.37H182.67L151.41 110.55H148.41Z" fill="white"/>
<path d="M136.58 108.75H134.67V229.62H136.58V108.75Z" fill="#F0F0F0"/>
<path d="M159.75 110.55L189.34 221.11V160.34L176.02 110.55H159.75Z" fill="white"/>
<path d="M79.65 121.15V132.36L105.08 227.37H108.08L79.65 121.15Z" fill="white"/>
<path d="M79.65 143.79V204.56L85.75 227.37H102.01L79.65 143.79Z" fill="white"/>
<path d="M399.55 114.63H327.72V202.03H399.55V114.63Z" fill="#E6E6E6"/>
<path d="M383.11 180.38L345.37 143.28L386.2 136.54L383.11 180.38Z" fill="#E0E0E0"/>
<path d="M346.28 171.59L344.41 143.14L372.83 150.12L374.89 171.88L346.28 171.59Z" fill="#F0F0F0"/>
<path d="M391.568 139.663C396.047 135.184 396.047 127.922 391.568 123.442C387.088 118.963 379.826 118.963 375.347 123.442C370.867 127.922 370.867 135.184 375.347 139.663C379.826 144.143 387.088 144.143 391.568 139.663Z" fill="#FAFAFA"/>
<path d="M350 181.73C350.002 180.627 349.677 179.549 349.065 178.632C348.454 177.714 347.584 176.999 346.566 176.576C345.548 176.153 344.427 176.042 343.346 176.256C342.264 176.471 341.271 177.002 340.491 177.781C339.712 178.561 339.181 179.554 338.967 180.636C338.752 181.717 338.863 182.838 339.286 183.856C339.709 184.874 340.424 185.744 341.342 186.355C342.259 186.967 343.338 187.292 344.44 187.29C345.914 187.287 347.326 186.701 348.369 185.658C349.411 184.616 349.997 183.204 350 181.73V181.73Z" fill="#E0E0E0"/>
<path d="M345.75 191.51L361.81 181.73L348.31 170.6L345.75 191.51Z" fill="#F5F5F5"/>
<path d="M364.73 195.54H367.89V125.75H364.73V195.54Z" fill="#E0E0E0"/>
<path d="M334.46 192.45H338.55V125.75H334.46V192.45Z" fill="#EBEBEB"/>
<path d="M371.45 192.77H392.33V171.89H371.45V192.77Z" fill="#EBEBEB"/>
<path d="M132.9 338.57L119.68 300.47C119.68 300.47 138 314.06 137.9 299C137.8 283.94 129.54 295.64 126.69 290.07C123.84 284.5 134.82 284.56 130.96 276.12C127.1 267.68 116.15 280.65 114.21 273.17C112.27 265.69 109.21 261.89 101.21 262.56C101.21 262.56 96.9 272.4 102.21 279.51C107.52 286.62 89.1 280.91 91 288.06C92.9 295.21 99 301.45 101.71 296.42C104.42 291.39 107.83 301.03 103.22 303.52C98.61 306.01 109.22 316.77 111.59 311.12C113.218 307.367 115.229 303.791 117.59 300.45L129.78 341.22L132.9 338.57Z" fill="#EBEBEB"/>
<path d="M146.53 338.91L161.43 314.54C161.43 314.54 146.69 321.18 149.05 310.77C151.41 300.36 155.34 309.7 158.16 306.28C160.98 302.86 153.36 301.28 157.31 295.98C161.26 290.68 166.88 301.35 169.31 296.47C171.74 291.59 174.48 289.42 179.91 291.09C179.91 291.09 181.41 298.55 176.67 302.67C171.93 306.79 185.51 305.67 183.14 310.29C180.77 314.91 175.58 318.35 174.47 314.46C173.36 310.57 169.53 316.73 172.35 319.14C175.17 321.55 166.17 327.4 165.41 323.14C164.849 320.297 163.998 317.519 162.87 314.85L148.28 341.22L146.53 338.91Z" fill="#E6E6E6"/>
<path d="M136.49 339.14L143.31 299.89C143.31 299.89 127.6 316.06 125.31 301.35C123.02 286.64 132.92 296.74 134.82 290.85C136.72 284.96 126.01 286.78 128.43 277.93C130.85 269.08 143.6 279.99 144.3 272.39C145 264.79 147.4 260.59 155.3 259.98C155.3 259.98 161.07 268.88 157.04 276.66C153.01 284.44 170.04 275.95 169.34 283.22C168.64 290.49 163.67 297.55 160.24 293.07C156.81 288.59 155 298.55 159.89 300.23C164.78 301.91 156.12 314.11 152.94 308.98C150.757 305.581 148.226 302.417 145.39 299.54L140 341.22L136.49 339.14Z" fill="#F5F5F5"/>
<path d="M128 383.27H151.42C152.21 383.271 152.971 382.971 153.548 382.43C154.124 381.889 154.472 381.149 154.52 380.36L157 340C157.026 339.578 156.965 339.155 156.822 338.758C156.678 338.36 156.455 337.996 156.165 337.688C155.876 337.38 155.527 337.134 155.139 336.966C154.751 336.798 154.333 336.711 153.91 336.71H125.51C125.087 336.711 124.669 336.798 124.281 336.966C123.893 337.134 123.544 337.38 123.255 337.688C122.965 337.996 122.742 338.36 122.598 338.758C122.455 339.155 122.394 339.578 122.42 340L124.9 380.41C124.961 381.19 125.314 381.918 125.889 382.448C126.464 382.979 127.218 383.272 128 383.27V383.27Z" fill="#EBEBEB"/>
<path d="M122.75 341.22H157C157.762 341.22 158.496 340.94 159.064 340.432C159.633 339.925 159.994 339.227 160.08 338.47V338.47C160.132 338.035 160.092 337.593 159.961 337.175C159.83 336.756 159.612 336.37 159.321 336.042C159.03 335.714 158.672 335.452 158.272 335.272C157.872 335.092 157.439 335 157 335H122.75C122.313 335 121.882 335.092 121.483 335.271C121.085 335.449 120.728 335.71 120.438 336.035C120.147 336.361 119.928 336.745 119.796 337.161C119.664 337.577 119.621 338.016 119.67 338.45V338.45C119.751 339.21 120.111 339.914 120.679 340.425C121.248 340.936 121.985 341.219 122.75 341.22V341.22Z" fill="#F5F5F5"/>
<path d="M250 427.56C357.082 427.56 443.89 422.492 443.89 416.24C443.89 409.988 357.082 404.92 250 404.92C142.917 404.92 56.11 409.988 56.11 416.24C56.11 422.492 142.917 427.56 250 427.56Z" fill="#F5F5F5"/>
<path d="M356.33 119.63V401.1C356.33 401.682 356.214 402.259 355.989 402.796C355.764 403.334 355.435 403.821 355.02 404.229C354.604 404.638 354.112 404.96 353.571 405.176C353.031 405.393 352.452 405.499 351.87 405.49H200.63C200.102 405.498 199.579 405.4 199.09 405.202C198.601 405.004 198.157 404.71 197.784 404.336C197.41 403.963 197.116 403.519 196.918 403.03C196.72 402.541 196.622 402.018 196.63 401.49V119.27C196.611 118.803 196.685 118.337 196.847 117.898C197.009 117.46 197.256 117.057 197.573 116.715C197.891 116.372 198.274 116.095 198.699 115.9C199.124 115.706 199.583 115.597 200.05 115.58H236C236.555 115.591 237.094 115.767 237.548 116.086C238.002 116.405 238.351 116.852 238.55 117.37L240.2 121.37C240.403 121.886 240.754 122.33 241.21 122.645C241.666 122.96 242.206 123.133 242.76 123.14H310.37C310.92 123.136 311.456 122.968 311.91 122.658C312.364 122.348 312.716 121.91 312.92 121.4L314.57 117.33C314.768 116.811 315.117 116.362 315.571 116.042C316.025 115.721 316.564 115.543 317.12 115.53H352.46C353.516 115.564 354.515 116.014 355.24 116.782C355.965 117.55 356.357 118.574 356.33 119.63Z" fill="#263238"/>
<path d="M356.34 134.36H196.65V385.53H356.34V134.36Z" fill="#8F94FB"/>
<path opacity="0.7" d="M356.34 134.36H196.65V385.53H356.34V134.36Z" fill="white"/>
<path opacity="0.6" d="M215.51 127.69H217.58V124.94H215.51V127.69Z" fill="white"/>
<path opacity="0.6" d="M212.14 127.69H214.21V124.02H212.14V127.69Z" fill="white"/>
<path opacity="0.6" d="M208.77 127.69H210.84V123.1H208.77V127.69Z" fill="white"/>
<path opacity="0.6" d="M205.4 127.69H207.47V122.18H205.4V127.69Z" fill="white"/>
<path opacity="0.6" d="M337.83 123.93H336.61V126.68H337.83V123.93Z" fill="white"/>
<path opacity="0.6" d="M338.67 127.69H348.43V122.92H338.67V127.69Z" fill="white"/>
<path d="M268.59 159.3H321.14C321.297 159.315 321.455 159.297 321.604 159.247C321.753 159.197 321.89 159.117 322.007 159.011C322.123 158.905 322.216 158.776 322.28 158.632C322.343 158.488 322.376 158.332 322.376 158.175C322.376 158.018 322.343 157.862 322.28 157.718C322.216 157.574 322.123 157.445 322.007 157.339C321.89 157.233 321.753 157.153 321.604 157.103C321.455 157.053 321.297 157.035 321.14 157.05H268.59C268.31 157.076 268.05 157.206 267.86 157.414C267.671 157.622 267.566 157.894 267.566 158.175C267.566 158.456 267.671 158.727 267.86 158.935C268.05 159.144 268.31 159.273 268.59 159.3Z" fill="#263238"/>
<path d="M333.1 163.47H268.3C268.184 163.457 268.067 163.469 267.956 163.505C267.844 163.54 267.742 163.599 267.655 163.677C267.568 163.755 267.499 163.85 267.451 163.957C267.404 164.063 267.379 164.178 267.379 164.295C267.379 164.412 267.404 164.527 267.451 164.634C267.499 164.74 267.568 164.835 267.655 164.913C267.742 164.991 267.844 165.05 267.956 165.085C268.067 165.121 268.184 165.133 268.3 165.12H333.1C333.303 165.098 333.491 165.001 333.627 164.849C333.764 164.697 333.839 164.499 333.839 164.295C333.839 164.091 333.764 163.894 333.627 163.741C333.491 163.589 333.303 163.492 333.1 163.47V163.47Z" fill="#263238"/>
<path d="M314.09 168.2H268.3C268.184 168.187 268.067 168.199 267.956 168.235C267.844 168.27 267.742 168.329 267.655 168.407C267.568 168.485 267.499 168.58 267.451 168.687C267.404 168.793 267.379 168.908 267.379 169.025C267.379 169.142 267.404 169.257 267.451 169.364C267.499 169.47 267.568 169.565 267.655 169.643C267.742 169.721 267.844 169.78 267.956 169.815C268.067 169.851 268.184 169.863 268.3 169.85H314.09C314.293 169.828 314.481 169.731 314.617 169.579C314.754 169.427 314.829 169.229 314.829 169.025C314.829 168.821 314.754 168.623 314.617 168.471C314.481 168.319 314.293 168.222 314.09 168.2Z" fill="#263238"/>
<path d="M354.43 198.8H198.55V354.68H354.43V198.8Z" fill="#8F94FB"/>
<path d="M349.41 371.54L345.02 367.75L340.62 371.54V361.12H349.41V371.54Z" fill="#8F94FB"/>
<path d="M333.55 361.12H326.93C326.495 361.12 326.078 361.293 325.77 361.6C325.463 361.908 325.29 362.325 325.29 362.76V367.28C325.29 367.715 325.463 368.132 325.77 368.44C326.078 368.747 326.495 368.92 326.93 368.92H329.18V371.54L330.89 368.92H333.55C333.766 368.921 333.98 368.88 334.179 368.798C334.379 368.716 334.56 368.595 334.713 368.443C334.865 368.29 334.986 368.109 335.068 367.909C335.15 367.71 335.191 367.496 335.19 367.28V362.76C335.191 362.544 335.15 362.331 335.068 362.131C334.986 361.931 334.865 361.75 334.713 361.598C334.56 361.445 334.379 361.324 334.179 361.242C333.98 361.16 333.766 361.119 333.55 361.12Z" fill="#8F94FB"/>
<path d="M320.28 362.36C319.06 360.36 316.7 361.11 315.48 362.66C314.27 361.1 311.92 360.31 310.67 362.31C308.58 365.67 312.84 368.82 314.86 370.06L315.43 370.41L316.01 370.06C318 368.85 322.34 365.75 320.28 362.36Z" fill="#8F94FB"/>
<g opacity="0.3">
<path opacity="0.7" d="M322.6 211.92H328.5L325.55 219.57L322.6 211.92Z" fill="white"/>
<path opacity="0.7" d="M341.61 250L343.4 255.62L335.22 255.12L341.61 250Z" fill="white"/>
<path opacity="0.3" d="M339.31 225.34L336.51 232.21L345.02 235.18V229.62L339.31 225.34Z" fill="white"/>
<path opacity="0.3" d="M228.97 210.08H233.3L228.97 215.75V210.08Z" fill="white"/>
<path opacity="0.3" d="M212.69 238.03L217.59 236.91L218.96 241.12L213.31 243.09L212.69 238.03Z" fill="white"/>
<path opacity="0.3" d="M262.27 215.75C263.325 215.75 264.18 214.895 264.18 213.84C264.18 212.785 263.325 211.93 262.27 211.93C261.215 211.93 260.36 212.785 260.36 213.84C260.36 214.895 261.215 215.75 262.27 215.75Z" fill="white"/>
<path opacity="0.3" d="M234.44 341.91C234.44 342.66 234.217 343.393 233.801 344.017C233.384 344.64 232.791 345.126 232.098 345.413C231.405 345.699 230.642 345.774 229.907 345.627C229.171 345.48 228.496 345.118 227.967 344.587C227.437 344.055 227.077 343.379 226.932 342.643C226.786 341.908 226.863 341.145 227.151 340.453C227.44 339.76 227.927 339.169 228.552 338.754C229.176 338.339 229.91 338.118 230.66 338.12C231.157 338.12 231.65 338.218 232.109 338.409C232.568 338.599 232.985 338.879 233.336 339.231C233.688 339.583 233.966 340.001 234.155 340.461C234.344 340.92 234.441 341.413 234.44 341.91Z" fill="white"/>
<path opacity="0.3" d="M216.19 308.98L217.59 311.35L210.82 314.25L209.28 312.67L216.19 308.98Z" fill="white"/>
<path opacity="0.3" d="M260.36 347.78L259.04 344.43H264.19L260.36 347.78Z" fill="white"/>
<path opacity="0.3" d="M315.07 344.43L315.47 340.7L322.53 342.56V348.01L315.07 344.43Z" fill="white"/>
<path opacity="0.3" d="M330.24 325.2H336.55L333.4 328.93L330.24 325.2Z" fill="white"/>
<path opacity="0.3" d="M340.62 286.82L339.31 294.74L340.76 296.06L342.12 286.82H340.62Z" fill="white"/>
<path opacity="0.3" d="M205.23 263.62L210.82 267.68L206.82 270.62L205.23 263.62Z" fill="white"/>
<path opacity="0.3" d="M230.03 231.48C230.378 231.48 230.66 231.198 230.66 230.85C230.66 230.502 230.378 230.22 230.03 230.22C229.682 230.22 229.4 230.502 229.4 230.85C229.4 231.198 229.682 231.48 230.03 231.48Z" fill="white"/>
<path opacity="0.3" d="M310.99 223.97C311.476 223.97 311.87 223.576 311.87 223.09C311.87 222.604 311.476 222.21 310.99 222.21C310.504 222.21 310.11 222.604 310.11 223.09C310.11 223.576 310.504 223.97 310.99 223.97Z" fill="white"/>
<path opacity="0.3" d="M287.37 343.71C287.37 343.898 287.295 344.079 287.162 344.212C287.029 344.345 286.848 344.42 286.66 344.42C286.472 344.42 286.291 344.345 286.158 344.212C286.025 344.079 285.95 343.898 285.95 343.71C285.95 343.522 286.025 343.341 286.158 343.208C286.291 343.075 286.472 343 286.66 343C286.848 343 287.029 343.075 287.162 343.208C287.295 343.341 287.37 343.522 287.37 343.71Z" fill="white"/>
<path opacity="0.3" d="M295.7 206.65L302.74 205.59V209.02L295.7 210.08V206.65Z" fill="white"/>
<path opacity="0.3" d="M342.12 210.08H344.43L343.27 212.91L342.12 210.08Z" fill="white"/>
<path opacity="0.3" d="M209.28 213.84H212.69L210.98 215.75L209.28 213.84Z" fill="white"/>
<path opacity="0.3" d="M338.55 347.78L338.22 341.22L343.27 343L338.55 347.78Z" fill="white"/>
<path opacity="0.3" d="M343.4 310.03L340.76 307.92V310.03L343.4 311.62V310.03Z" fill="white"/>
<path opacity="0.3" d="M208.02 288.93L210.98 291.44L209.5 293.68L205.58 290.54L208.02 288.93Z" fill="white"/>
<path opacity="0.3" d="M205.58 230.22H209.28L205.23 231.48L205.58 230.22Z" fill="white"/>
</g>
<path d="M270.07 224.23L276.76 217.94L283.38 224.29L291.42 219.86L296.26 227.66L305.15 225.38L307.89 234.13H317.07L317.56 243.29L326.45 245.57L324.63 254.57L332.68 258.99L328.69 267.25L335.38 273.53L329.46 280.54L334.38 288.29L326.9 293.61L329.74 302.33L321.18 305.62L321.76 314.78L312.64 315.84L310.93 324.86L301.83 323.61L297.93 331.92L289.43 328.45L283.58 335.53L276.21 330.06L268.79 335.46L263.01 328.33L254.48 331.71L250.66 323.37L241.56 324.52L239.93 315.49L230.82 314.34L231.49 305.19L222.96 301.82L225.88 293.12L218.45 287.73L223.45 280.03L217.59 272.96L224.35 266.75L220.44 258.44L228.53 254.1L226.8 245.09L235.71 242.9L236.28 233.74L245.46 233.83L248.29 225.1L257.16 227.47L262.07 219.72L270.07 224.23Z" fill="#8F94FB"/>
<path opacity="0.4" d="M330.46 282.54L336.38 275.54L329.69 269.26L333.69 261L325.64 256.58L327.46 247.58L318.57 245.3L318.08 236.14H308.9L306.16 227.39L297.27 229.67L292.43 221.87L284.43 226.3L277.81 219.95L271.12 226.24L263.12 221.73L258.21 229.49L249.34 227.11L246.51 235.84L237.33 235.75L236.76 244.91L227.85 247.1L229.58 256.1L221.49 260.44L225.4 268.75L218.59 275L224.45 282.07L219.45 289.77L226.88 295.16L223.96 303.86L232.49 307.23L231.82 316.38L240.93 317.53L242.55 326.53L251.66 325.38L255.48 333.72L264.01 330.34L269.79 337.47L277.21 332.07L284.58 337.54L290.43 330.46L298.93 333.93L302.83 325.62L311.92 326.87L313.64 317.87L322.76 316.81L322.17 307.65L330.74 304.36L327.9 295.63L335.38 290.32L330.46 282.54ZM328.62 289L322.01 293.7L324.52 301.41L316.95 304.31L317.47 312.4L309.41 313.34L307.9 321.34L299.9 320.24L296.45 327.58L288.95 324.52L283.78 330.76L277.27 325.93L270.72 330.7L265.62 324.4L258.08 327.4L254.71 320.03L246.66 321.03L245.23 313.03L237.23 312.03L237.83 303.95L230.29 300.95L232.87 293.27L226.31 288.51L230.73 281.71L225.55 275.47L231.55 269.98L228 262.6L235.15 258.77L233.62 250.77L241.5 248.84L242 240.75L250.1 240.83L252.6 233.12L260.43 235.22L264.77 228.37L271.84 232.37L277.74 226.81L283.59 232.42L290.69 228.51L294.97 235.4L302.82 233.4L305.24 241.14H313.35L313.78 249.24L321.63 251.24L320.03 259.18L327.13 263.08L323.61 270.38L329.52 275.93L324.29 282.12L328.62 289Z" fill="black"/>
<path opacity="0.4" d="M270.07 224.23L276.76 217.94L283.38 224.29L291.42 219.86L296.26 227.66L305.15 225.38L307.89 234.13H317.07L317.56 243.29L326.45 245.57L324.63 254.57L332.68 258.99L328.69 267.25L335.38 273.53L329.46 280.54L334.38 288.29L326.9 293.61L329.74 302.33L321.18 305.62L321.76 314.78L312.64 315.84L310.93 324.86L301.83 323.61L297.93 331.92L289.43 328.45L283.58 335.53L276.21 330.06L268.79 335.46L263.01 328.33L254.48 331.71L250.66 323.37L241.56 324.52L239.93 315.49L230.82 314.34L231.49 305.19L222.96 301.82L225.88 293.12L218.45 287.73L223.45 280.03L217.59 272.96L224.35 266.75L220.44 258.44L228.53 254.1L226.8 245.09L235.71 242.9L236.28 233.74L245.46 233.83L248.29 225.1L257.16 227.47L262.07 219.72L270.07 224.23Z" fill="black"/>
<path d="M329.46 280.54L335.38 273.54L328.69 267.26L332.69 259L324.64 254.58L326.46 245.58L317.57 243.3L317.08 234.14H307.9L305.16 225.39L296.27 227.67L291.43 219.87L283.43 224.3L276.81 217.95L270.12 224.24L262.12 219.73L257.21 227.49L248.34 225.11L245.51 233.84L236.33 233.75L235.76 242.91L226.85 245.1L228.58 254.1L220.49 258.44L224.4 266.75L217.59 273L223.45 280.07L218.45 287.77L225.88 293.16L222.96 301.86L231.49 305.23L230.82 314.38L239.93 315.53L241.55 324.53L250.66 323.38L254.48 331.72L263.01 328.34L268.79 335.47L276.21 330.07L283.58 335.54L289.43 328.46L297.93 331.93L301.83 323.62L310.92 324.87L312.64 315.87L321.76 314.81L321.17 305.65L329.74 302.36L326.9 293.63L334.38 288.32L329.46 280.54ZM327.62 287L321.01 291.7L323.52 299.41L315.95 302.31L316.47 310.4L308.41 311.34L306.9 319.34L298.9 318.24L295.45 325.58L287.95 322.52L282.78 328.76L276.27 323.93L269.72 328.7L264.62 322.4L257.08 325.4L253.71 318.03L245.66 319.03L244.23 311.03L236.23 310.03L236.83 301.95L229.29 298.95L231.87 291.27L225.31 286.51L229.73 279.71L224.55 273.47L230.55 267.98L227 260.6L234.15 256.77L232.62 248.77L240.5 246.84L241 238.75L249.1 238.83L251.6 231.12L259.43 233.22L263.77 226.37L270.84 230.37L276.74 224.81L282.59 230.42L289.69 226.51L293.97 233.4L301.82 231.4L304.24 239.14H312.35L312.78 247.24L320.63 249.24L319.03 257.18L326.13 261.08L322.61 268.38L328.52 273.93L323.29 280.12L327.62 287Z" fill="#8F94FB"/>
<path opacity="0.6" d="M329.46 280.54L335.38 273.54L328.69 267.26L332.69 259L324.64 254.58L326.46 245.58L317.57 243.3L317.08 234.14H307.9L305.16 225.39L296.27 227.67L291.43 219.87L283.43 224.3L276.81 217.95L270.12 224.24L262.12 219.73L257.21 227.49L248.34 225.11L245.51 233.84L236.33 233.75L235.76 242.91L226.85 245.1L228.58 254.1L220.49 258.44L224.4 266.75L217.59 273L223.45 280.07L218.45 287.77L225.88 293.16L222.96 301.86L231.49 305.23L230.82 314.38L239.93 315.53L241.55 324.53L250.66 323.38L254.48 331.72L263.01 328.34L268.79 335.47L276.21 330.07L283.58 335.54L289.43 328.46L297.93 331.93L301.83 323.62L310.92 324.87L312.64 315.87L321.76 314.81L321.17 305.65L329.74 302.36L326.9 293.63L334.38 288.32L329.46 280.54ZM327.62 287L321.01 291.7L323.52 299.41L315.95 302.31L316.47 310.4L308.41 311.34L306.9 319.34L298.9 318.24L295.45 325.58L287.95 322.52L282.78 328.76L276.27 323.93L269.72 328.7L264.62 322.4L257.08 325.4L253.71 318.03L245.66 319.03L244.23 311.03L236.23 310.03L236.83 301.95L229.29 298.95L231.87 291.27L225.31 286.51L229.73 279.71L224.55 273.47L230.55 267.98L227 260.6L234.15 256.77L232.62 248.77L240.5 246.84L241 238.75L249.1 238.83L251.6 231.12L259.43 233.22L263.77 226.37L270.84 230.37L276.74 224.81L282.59 230.42L289.69 226.51L293.97 233.4L301.82 231.4L304.24 239.14H312.35L312.78 247.24L320.63 249.24L319.03 257.18L326.13 261.08L322.61 268.38L328.52 273.93L323.29 280.12L327.62 287Z" fill="white"/>
<path opacity="0.4" d="M247.1 273.81C247.1 273.81 252.2 272.93 254.71 273.81C257.22 274.69 267.84 292.81 267.84 292.81C267.84 292.81 288.44 264.47 304.91 252.08C304.91 252.08 283.54 271.22 271.15 303.35C271.15 303.35 266.98 305.19 264.03 301.9C263.18 300.9 253.61 284.59 251.76 283.98C250.31 283.49 245.63 283.73 245.63 283.73L247.1 273.81Z" fill="black"/>
<path d="M246.1 272.81C246.1 272.81 251.2 271.93 253.71 272.81C256.22 273.69 266.84 291.81 266.84 291.81C266.84 291.81 287.44 263.47 303.91 251.08C303.91 251.08 282.54 270.22 270.15 302.35C270.15 302.35 265.98 304.19 263.03 300.9C262.18 299.9 252.61 283.59 250.76 282.98C249.31 282.49 244.63 282.73 244.63 282.73L246.1 272.81Z" fill="white"/>
<path d="M253.79 168.15C253.811 172.249 252.778 176.285 250.79 179.87L250.35 180.62C248.921 182.991 247.09 185.096 244.94 186.84L244.82 186.94C242.784 188.581 240.494 189.878 238.04 190.78V190.78C235.388 191.752 232.585 192.246 229.76 192.24C228.861 192.246 227.963 192.195 227.07 192.09C225.571 191.931 224.09 191.626 222.65 191.18C219.142 190.102 215.932 188.226 213.27 185.7V185.7C210.359 182.962 208.175 179.543 206.913 175.751C205.651 171.958 205.352 167.912 206.042 163.976C206.732 160.039 208.39 156.336 210.867 153.199C213.343 150.063 216.561 147.591 220.23 146.006C223.898 144.421 227.904 143.773 231.885 144.121C235.866 144.468 239.699 145.799 243.038 147.995C246.377 150.191 249.118 153.183 251.014 156.701C252.91 160.219 253.902 164.154 253.9 168.15H253.79Z" fill="#8F94FB"/>
<path d="M250.75 179.87L250.31 180.62C244.797 180.534 239.295 181.156 233.94 182.47L232.15 182.91L230.93 183.23C229.4 183.64 227.93 184.07 226.68 184.48L226.11 184.67L225.7 184.8C224.21 185.3 222.94 185.75 221.97 186.12C220.52 186.67 219.69 187.03 219.69 187.03C219.216 186.419 218.782 185.777 218.39 185.11L218.33 185C216.16 181.36 212.33 173 214.13 161C216.13 147.65 227.2 148.5 231.13 149.24C231.6 149.318 232.064 149.425 232.52 149.56C232.52 149.56 244.91 152.48 245.37 160.2C245.435 161.234 245.562 162.262 245.75 163.28C246.915 168.949 248.588 174.502 250.75 179.87V179.87Z" fill="#263238"/>
<path d="M238 190.78C235.348 191.752 232.545 192.246 229.72 192.24C228.821 192.246 227.923 192.195 227.03 192.09C225.531 191.931 224.05 191.626 222.61 191.18L221.84 184.89L221.47 181.89L237.96 184.23V185.64L238.01 189.78V190.78H238Z" fill="#8F94FB"/>
<path d="M244.78 186.94C242.744 188.581 240.454 189.878 238 190.78C235.348 191.752 232.545 192.246 229.72 192.24C228.821 192.246 227.923 192.195 227.03 192.09C225.531 191.931 224.05 191.626 222.61 191.18C219.102 190.102 215.892 188.226 213.23 185.7C213.99 185.58 214.76 185.49 215.53 185.39H215.72C216.63 185.29 217.54 185.2 218.45 185.13C219.53 185.04 220.6 184.97 221.68 184.93H221.87L223.19 184.88H224.76H226.6C228.6 184.88 230.627 184.953 232.68 185.1L234.75 185.27L235.84 185.38L237.42 185.62L237.77 185.67H238.01L239.87 185.99C240.16 186.04 240.45 186.11 240.74 186.15L241.29 186.26L241.88 186.37L242.88 186.57L243.58 186.71L244.78 186.94Z" fill="#263238"/>
<path d="M233.78 191C226.91 189.83 224.95 186.79 224.95 186.79C227.89 184.25 227.54 180.3 226.95 177.79C226.761 177.007 226.507 176.241 226.19 175.5L234.44 177.4C234.201 178.547 234.044 179.71 233.97 180.88C233.907 181.745 233.951 182.615 234.1 183.47C234.56 185.97 235.98 186.07 235.98 186.07C237.29 188.92 233.78 191 233.78 191Z" fill="#E4897B"/>
<path opacity="0.2" d="M233.94 180.94C233.877 181.805 233.921 182.675 234.07 183.53C230.79 182.95 228.39 180.21 226.92 177.85C226.731 177.067 226.477 176.301 226.16 175.56L234.41 177.46C234.171 178.607 234.014 179.77 233.94 180.94Z" fill="black"/>
<path d="M232.82 153.82C240.63 154.16 242.97 158.45 243.19 166.52C243.48 176.6 240.94 183.65 231.27 181.09C218.13 177.6 219.85 153.26 232.82 153.82Z" fill="#E4897B"/>
<path d="M238.16 165.86C238.737 167.055 239.456 168.176 240.3 169.2C240.056 169.512 239.731 169.751 239.361 169.892C238.991 170.032 238.59 170.07 238.2 170L238.16 165.86Z" fill="#DE5753"/>
<path d="M230.13 161C230.042 161.001 229.956 160.969 229.89 160.91C229.855 160.877 229.827 160.838 229.808 160.794C229.79 160.75 229.78 160.703 229.78 160.655C229.78 160.607 229.79 160.56 229.808 160.516C229.827 160.472 229.855 160.433 229.89 160.4C230.384 159.926 230.983 159.576 231.638 159.376C232.293 159.176 232.985 159.133 233.66 159.25C233.707 159.259 233.751 159.276 233.791 159.302C233.831 159.327 233.865 159.361 233.892 159.4C233.919 159.439 233.938 159.483 233.948 159.529C233.958 159.576 233.959 159.623 233.95 159.67C233.942 159.717 233.924 159.761 233.898 159.801C233.873 159.841 233.839 159.875 233.8 159.902C233.761 159.929 233.717 159.948 233.671 159.958C233.625 159.968 233.577 159.969 233.53 159.96C232.977 159.872 232.412 159.91 231.876 160.069C231.339 160.228 230.845 160.505 230.43 160.88C230.393 160.922 230.346 160.955 230.294 160.976C230.242 160.996 230.186 161.005 230.13 161V161Z" fill="#263238"/>
<path d="M242.34 160.68C242.265 160.678 242.192 160.654 242.13 160.61C241.753 160.291 241.31 160.06 240.832 159.933C240.355 159.807 239.855 159.789 239.37 159.88C239.325 159.896 239.277 159.902 239.229 159.899C239.181 159.896 239.135 159.883 239.092 159.862C239.049 159.84 239.011 159.811 238.98 159.774C238.948 159.738 238.925 159.696 238.91 159.65C238.881 159.559 238.889 159.459 238.932 159.374C238.975 159.288 239.049 159.222 239.14 159.19C239.734 159.06 240.35 159.067 240.941 159.211C241.532 159.355 242.082 159.632 242.55 160.02C242.627 160.078 242.679 160.164 242.694 160.259C242.709 160.354 242.686 160.451 242.63 160.53C242.596 160.575 242.552 160.612 242.502 160.638C242.452 160.664 242.396 160.678 242.34 160.68V160.68Z" fill="#263238"/>
<path d="M223.72 166.62C223.72 166.62 227.65 160.36 227.31 155.38C227.31 155.38 243.06 149.72 243.15 165.46C243.15 165.46 245.26 151.58 231.85 150.69C218.44 149.8 217.65 169.45 224.33 175.6C224.33 175.6 221.29 170.53 223.72 166.62Z" fill="#263238"/>
<path d="M224.93 168.32C224.891 167.415 224.496 166.561 223.831 165.945C223.167 165.329 222.286 165 221.38 165.03C218.94 165.19 217.58 170.11 223.55 171.56C224.4 171.77 224.92 171 224.93 168.32Z" fill="#E4897B"/>
<path d="M238.35 172.3C237.819 173.092 237.344 173.921 236.93 174.78L236.44 174.64C234.26 173.96 233.44 172.93 233.25 171.99C233.154 171.526 233.171 171.046 233.3 170.59C233.364 170.33 233.465 170.081 233.6 169.85C234.76 170.864 236.124 171.617 237.6 172.06C238.06 172.22 238.35 172.3 238.35 172.3Z" fill="#263238"/>
<path d="M237.61 172.06L237.17 172.78C235.17 172.14 233.75 171.42 233.3 170.59C233.364 170.33 233.465 170.081 233.6 169.85C234.763 170.865 236.131 171.619 237.61 172.06V172.06Z" fill="white"/>
<path d="M236.44 174.64C234.26 173.96 233.44 172.93 233.25 171.99C234.078 172.26 234.85 172.677 235.53 173.22C235.979 173.582 236.299 174.08 236.44 174.64V174.64Z" fill="#DE5753"/>
<path d="M232.64 154.4C232.64 154.4 228.94 167.12 220.86 166.61C212.78 166.1 225.96 150.36 225.96 150.36C225.96 150.36 239.37 145.95 245.59 153.24C251.81 160.53 243.15 165.46 243.15 165.46C243.15 165.46 244.07 155.53 232.64 154.4Z" fill="#263238"/>
<path d="M226.64 165.36C226.59 165.359 226.541 165.344 226.5 165.315C226.459 165.287 226.428 165.247 226.41 165.2C226.386 165.14 226.387 165.074 226.411 165.014C226.435 164.954 226.481 164.906 226.54 164.88C232.84 162.18 232.35 153.59 232.35 153.5C232.347 153.435 232.37 153.372 232.413 153.324C232.455 153.275 232.515 153.245 232.58 153.24C232.646 153.237 232.71 153.259 232.76 153.302C232.81 153.345 232.842 153.405 232.85 153.47C232.85 153.56 233.36 162.47 226.74 165.34L226.64 165.36Z" fill="#263238"/>
<path d="M233.56 165.42C233.63 166.02 233.36 166.55 232.96 166.6C232.56 166.65 232.17 166.19 232.1 165.6C232.03 165.01 232.3 164.47 232.7 164.42C233.1 164.37 233.49 164.81 233.56 165.42Z" fill="#263238"/>
<path d="M232.53 164.46L233.79 163.79C233.79 163.79 233.26 165 232.53 164.46Z" fill="#263238"/>
<path d="M241.05 164.4C241.12 165 240.85 165.53 240.45 165.58C240.05 165.63 239.66 165.18 239.59 164.58C239.52 163.98 239.79 163.45 240.19 163.4C240.59 163.35 241 163.8 241.05 164.4Z" fill="#263238"/>
<path d="M240 163.44L241.25 162.77C241.25 162.77 240.76 164 240 163.44Z" fill="#263238"/>
<path d="M244.9 186.84L244.78 186.94C242.744 188.581 240.454 189.878 238 190.78V190.07V189.76L236.69 187.11L237.36 185.53L237.93 184.21L238.51 185.47L244.9 186.84Z" fill="#8F94FB"/>
<path opacity="0.6" d="M244.9 186.84L244.78 186.94C242.744 188.581 240.454 189.878 238 190.78V190.07V189.76L236.69 187.11L237.36 185.53L237.93 184.21L238.51 185.47L244.9 186.84Z" fill="white"/>
<path d="M229.87 186.91L227.14 190.34L227 192.1C225.501 191.941 224.02 191.636 222.58 191.19C219.072 190.112 215.862 188.236 213.2 185.71L215.47 185.39H215.66L220.47 184.71L221.47 181.9L226.37 184.82L229.9 186.93L229.87 186.91Z" fill="#8F94FB"/>
<path opacity="0.6" d="M229.86 186.91L227.14 190.34L227 192.1C225.501 191.941 224.02 191.636 222.58 191.19C219.072 190.112 215.862 188.236 213.2 185.71L215.66 185.37L220.47 184.7L221.47 181.89L226.37 184.81L229.86 186.91Z" fill="white"/>
<path d="M255.44 188.53C255.44 189.825 255.056 191.092 254.336 192.169C253.616 193.246 252.593 194.086 251.397 194.581C250.2 195.077 248.883 195.207 247.612 194.954C246.342 194.701 245.174 194.078 244.258 193.162C243.342 192.245 242.719 191.078 242.466 189.808C242.213 188.537 242.343 187.22 242.839 186.023C243.334 184.827 244.174 183.804 245.251 183.084C246.328 182.364 247.595 181.98 248.89 181.98C250.627 181.98 252.293 182.67 253.522 183.898C254.75 185.127 255.44 186.793 255.44 188.53V188.53Z" fill="white"/>
<path d="M254.48 188.53C254.48 189.636 254.152 190.717 253.538 191.636C252.924 192.555 252.051 193.272 251.029 193.695C250.008 194.118 248.884 194.228 247.799 194.013C246.715 193.797 245.719 193.265 244.937 192.483C244.155 191.701 243.623 190.705 243.407 189.621C243.192 188.536 243.302 187.412 243.726 186.391C244.149 185.37 244.865 184.497 245.784 183.882C246.704 183.268 247.784 182.94 248.89 182.94C250.373 182.94 251.794 183.529 252.843 184.577C253.891 185.626 254.48 187.048 254.48 188.53Z" fill="#263238"/>
<path d="M248.67 191.44L245.69 188.81L246.35 188.06L248.51 189.96L251.35 186.06L252.16 186.65L248.67 191.44Z" fill="white"/>
<path d="M388.08 388.55C388.08 388.55 382.25 375.84 388.91 363.31C395.57 350.78 397.49 347.83 393.25 345.26C389.01 342.69 387.06 355.26 387.06 355.26C387.06 355.26 383.48 346.59 386.44 337.53C389.4 328.47 391.24 313.7 387.21 312.11C383.18 310.52 386.44 330.53 382.94 337.35C381.157 332.564 380.007 327.565 379.52 322.48C379.03 315.2 379.79 303.57 376.6 300.59C373.41 297.61 371.38 299.67 374.51 315.74C376.391 325.341 377.429 335.088 377.61 344.87C377.61 344.87 370.7 323.79 366.06 323.18C361.42 322.57 361.43 329.39 365.4 335.31C369.37 341.23 377.03 351.84 378.29 357.31C378.29 357.31 370.7 341.45 363.87 346.31C357.04 351.17 369.81 360.75 375.5 364.22C381.19 367.69 385.15 389.38 385.15 389.38L388.08 388.55Z" fill="#8F94FB"/>
<path opacity="0.2" d="M388.08 388.55C388.08 388.55 382.25 375.84 388.91 363.31C395.57 350.78 397.49 347.83 393.25 345.26C389.01 342.69 387.06 355.26 387.06 355.26C387.06 355.26 383.48 346.59 386.44 337.53C389.4 328.47 391.24 313.7 387.21 312.11C383.18 310.52 386.44 330.53 382.94 337.35C381.157 332.564 380.007 327.565 379.52 322.48C379.03 315.2 379.79 303.57 376.6 300.59C373.41 297.61 371.38 299.67 374.51 315.74C376.391 325.341 377.429 335.088 377.61 344.87C377.61 344.87 370.7 323.79 366.06 323.18C361.42 322.57 361.43 329.39 365.4 335.31C369.37 341.23 377.03 351.84 378.29 357.31C378.29 357.31 370.7 341.45 363.87 346.31C357.04 351.17 369.81 360.75 375.5 364.22C381.19 367.69 385.15 389.38 385.15 389.38L388.08 388.55Z" fill="black"/>
<path d="M383.48 393.77C383.48 393.77 389.15 380.97 382.34 368.54C375.53 356.11 373.57 353.19 377.79 350.54C382.01 347.89 384.1 360.47 384.1 360.47C384.1 360.47 387.57 351.75 384.51 342.73C381.45 333.71 379.42 318.97 383.43 317.33C387.44 315.69 384.43 335.74 388 342.5C389.727 337.689 390.819 332.673 391.25 327.58C391.64 320.29 390.75 308.68 393.9 305.65C397.05 302.62 399.11 304.65 396.17 320.77C394.405 330.415 393.485 340.195 393.42 350C393.42 350 400.08 328.82 404.71 328.14C409.34 327.46 409.42 334.28 405.52 340.26C401.62 346.24 394.08 356.96 392.89 362.43C392.89 362.43 400.29 346.43 407.17 351.22C414.05 356.01 401.41 365.75 395.76 369.29C390.11 372.83 386.42 394.6 386.42 394.6L383.48 393.77Z" fill="#8F94FB"/>
<path d="M409.64 384.64H362.78L366.57 418.18H405.85L409.64 384.64Z" fill="#263238"/>
<path d="M99.15 395.44L128 392.61V357.11H139.42V392.59L168.35 395.44C169.736 395.574 171.023 396.22 171.958 397.252C172.894 398.284 173.411 399.627 173.41 401.02V405.35H94.09V401C94.0934 399.611 94.6132 398.272 95.5483 397.245C96.4834 396.217 97.7671 395.574 99.15 395.44V395.44Z" fill="#263238"/>
<path opacity="0.1" d="M99.15 395.44L128 392.61V357.11H139.42V392.59L168.35 395.44C169.736 395.574 171.023 396.22 171.958 397.252C172.894 398.284 173.411 399.627 173.41 401.02V405.35H94.09V401C94.0934 399.611 94.6132 398.272 95.5483 397.245C96.4834 396.217 97.7671 395.574 99.15 395.44V395.44Z" fill="white"/>
<path d="M171.543 418.076C175.615 417.415 178.38 413.578 177.719 409.506C177.058 405.433 173.221 402.668 169.149 403.329C165.077 403.99 162.311 407.827 162.972 411.899C163.633 415.972 167.47 418.737 171.543 418.076Z" fill="#263238"/>
<path d="M104.512 411.928C105.173 407.856 102.407 404.019 98.335 403.358C94.2627 402.697 90.4256 405.462 89.7646 409.534C89.1036 413.607 91.8689 417.444 95.9412 418.105C100.013 418.766 103.851 416.001 104.512 411.928Z" fill="#263238"/>
<path d="M137.22 365.82H130.13C129.035 365.82 127.984 365.385 127.21 364.61C126.435 363.836 126 362.785 126 361.69V329.76H141.35V361.69C141.35 362.785 140.915 363.836 140.14 364.61C139.366 365.385 138.315 365.82 137.22 365.82Z" fill="#263238"/>
<path opacity="0.2" d="M137.22 365.82H130.13C129.035 365.82 127.984 365.385 127.21 364.61C126.435 363.836 126 362.785 126 361.69V329.76H141.35V361.69C141.35 362.785 140.915 363.836 140.14 364.61C139.366 365.385 138.315 365.82 137.22 365.82Z" fill="white"/>
<path d="M93.8 267.14C93.8 267.14 102.35 320.55 119.23 329.75H102.07C102.07 329.75 85.12 311.55 80 267.14H93.8Z" fill="#263238"/>
<path opacity="0.1" d="M93.8 267.14C93.8 267.14 102.35 320.55 119.23 329.75H102.07C102.07 329.75 85.12 311.55 80 267.14H93.8Z" fill="white"/>
<path d="M101.23 322.2H168.15C169.476 322.2 170.748 322.727 171.686 323.664C172.623 324.602 173.15 325.874 173.15 327.2V333.89H96.23V327.2C96.23 325.874 96.7568 324.602 97.6944 323.664C98.6321 322.727 99.9039 322.2 101.23 322.2V322.2Z" fill="#8F94FB"/>
<path d="M174.34 328.04H95.03C93.9199 328.04 93.02 328.94 93.02 330.05V331.87C93.02 332.98 93.9199 333.88 95.03 333.88H174.34C175.45 333.88 176.35 332.98 176.35 331.87V330.05C176.35 328.94 175.45 328.04 174.34 328.04Z" fill="#263238"/>
<path opacity="0.6" d="M174.34 328.04H95.03C93.9199 328.04 93.02 328.94 93.02 330.05V331.87C93.02 332.98 93.9199 333.88 95.03 333.88H174.34C175.45 333.88 176.35 332.98 176.35 331.87V330.05C176.35 328.94 175.45 328.04 174.34 328.04Z" fill="white"/>
<path d="M77.92 278H105.42C113.42 278 118.71 271.54 117.1 263.57L115 252.93C113.4 244.93 105.57 238.51 97.52 238.51H70C62 238.51 56.71 244.97 58.32 252.93L60.45 263.57C62 271.54 69.87 278 77.92 278Z" fill="#8F94FB"/>
<path d="M103.81 225.34H121.33L122.94 235.79L107.36 238.51L103.81 225.34Z" fill="#8F94FB"/>
<path d="M220.15 370.51L213.86 372.97L209.34 364.44L205.23 356.69L212.2 352.51L216.41 362.03L220.15 370.51Z" fill="#E4897B"/>
<path opacity="0.2" d="M216.41 362.03L209.34 364.44L205.23 356.69L212.2 352.51L216.41 362.03Z" fill="black"/>
<path d="M215.11 357.38L206.55 362C206.55 362 174.22 305.16 169.25 305.63C164.28 306.1 117.12 336.13 102.74 325C88.36 313.87 102.35 280.49 102.35 280.49C102.35 280.49 130.45 269.81 133.68 276.34C135.097 278.985 136.359 281.709 137.46 284.5C138.09 286.5 138.57 288.27 138.57 288.27C139.48 287.9 168.86 275.85 181.98 282.27C195.32 288.9 215.11 357.38 215.11 357.38Z" fill="#8F94FB"/>
<path opacity="0.3" d="M215.11 357.38L206.55 362C206.55 362 174.22 305.16 169.25 305.63C164.28 306.1 117.12 336.13 102.74 325C88.36 313.87 102.35 280.49 102.35 280.49C102.35 280.49 130.45 269.81 133.68 276.34C135.097 278.985 136.359 281.709 137.46 284.5C138.09 286.5 138.57 288.27 138.57 288.27C139.48 287.9 168.86 275.85 181.98 282.27C195.32 288.9 215.11 357.38 215.11 357.38Z" fill="white"/>
<path d="M168.63 403.73L161.92 402.96L161.89 393.5L161.88 384.81L169.99 384.43L169.27 394.65L168.63 403.73Z" fill="#E4897B"/>
<path opacity="0.2" d="M169.25 394.86L161.87 393.68V384.91L169.98 384.48L169.25 394.86Z" fill="black"/>
<path d="M202.37 359.15L214.89 352.88L216.19 358.18L206.71 363.07L202.37 359.15Z" fill="#263238"/>
<path d="M125 325.12C125 325.12 127.06 324.89 158.68 319.03C158.68 319.03 159.4 359.48 160.9 389.62L170.64 389.94C170.64 389.94 184.64 323.02 182.97 312.94C181.3 302.86 169.3 301.47 169.3 301.47C169.3 301.47 148.39 317.67 125 325.12Z" fill="#8F94FB"/>
<path opacity="0.4" d="M125 325.12C125 325.12 127.06 324.89 158.68 319.03C158.68 319.03 159.4 359.48 160.9 389.62L170.64 389.94C170.64 389.94 184.64 323.02 182.97 312.94C181.3 302.86 169.3 301.47 169.3 301.47C169.3 301.47 148.39 317.67 125 325.12Z" fill="white"/>
<path opacity="0.3" d="M125 325.12C125 325.12 127.06 324.89 158.68 319.03C158.68 319.03 159.4 359.48 160.9 389.62L170.64 389.94C170.64 389.94 184.64 323.02 182.97 312.94C181.3 302.86 169.3 301.47 169.3 301.47C169.3 301.47 148.39 317.67 125 325.12Z" fill="black"/>
<path d="M159.07 386.93L172.35 386.62L170.54 392.09L159.76 392.19L159.07 386.93Z" fill="#263238"/>
<path opacity="0.3" d="M138.57 288.3L121.33 294.44C121.33 294.44 130.4 287.67 137.46 284.53C138.09 286.57 138.57 288.3 138.57 288.3Z" fill="black"/>
<path d="M101.24 278.12L100.99 283.24L133.3 276.39L132.55 270.74L101.24 278.12Z" fill="#263238"/>
<path opacity="0.2" d="M101.24 278.12L100.99 283.24L133.3 276.39L132.55 270.74L101.24 278.12Z" fill="black"/>
<path d="M111.059 274.988L109.446 275.288L110.966 283.478L112.578 283.179L111.059 274.988Z" fill="#8F94FB"/>
<path d="M125.158 272.908L118.104 274.497L119.309 279.843L126.362 278.254L125.158 272.908Z" fill="white"/>
<path d="M130.682 270.155L129.069 270.454L130.587 278.644L132.2 278.345L130.682 270.155Z" fill="#8F94FB"/>
<path opacity="0.3" d="M111.059 274.988L109.446 275.288L110.966 283.478L112.578 283.179L111.059 274.988Z" fill="white"/>
<path opacity="0.3" d="M130.682 270.155L129.069 270.454L130.587 278.644L132.2 278.345L130.682 270.155Z" fill="white"/>
<path d="M232.65 381.66C231.599 381.337 230.497 381.212 229.4 381.29V381.29C229.4 381.29 225.35 379.6 220.4 371.52L216.21 372.07C215.504 372.177 214.849 372.498 214.332 372.99C213.815 373.482 213.462 374.121 213.32 374.82C213.285 375.015 213.285 375.215 213.32 375.41C213.496 376.425 213.74 377.428 214.05 378.41C215.124 381.657 216.393 384.836 217.85 387.93L218.54 387.65L216.39 381.58C215.67 379.52 218.18 381.26 219.51 383.26C220.84 385.26 222.72 387.19 227.2 385.5C232.41 383.47 234.47 382.39 232.65 381.66Z" fill="#8F94FB"/>
<path d="M219.38 369.38C219.38 369.38 226.11 379.59 229.38 381.29C229.38 381.29 225.68 384.29 220.74 379.47C214.36 373.3 213.3 375.41 213.3 375.41C213.243 374.201 213.3 372.989 213.47 371.79C214 369.45 219.38 369.38 219.38 369.38Z" fill="#E4897B"/>
<path d="M178.67 415.63C177.723 415.072 176.683 414.69 175.6 414.5V414.5C175.6 414.5 172.06 411.89 169.21 402.89L165.01 402.43C164.296 402.364 163.579 402.521 162.957 402.879C162.336 403.237 161.841 403.779 161.54 404.43C161.45 404.609 161.39 404.802 161.36 405C161.295 406.019 161.295 407.041 161.36 408.06C161.637 411.466 162.118 414.852 162.8 418.2L163.53 418.09L162.88 411.69C162.67 409.51 164.7 411.8 165.52 414.06C166.34 416.32 167.7 418.64 172.45 418.06C178 417.33 180.26 416.77 178.67 415.63Z" fill="#8F94FB"/>
<path d="M168.68 400.55C168.68 400.55 172.8 412.07 175.6 414.5C175.6 414.5 171.3 416.5 167.6 410.69C162.86 403.17 161.32 404.98 161.32 404.98C161.545 403.792 161.88 402.627 162.32 401.5C163.44 399.34 168.68 400.55 168.68 400.55Z" fill="#E4897B"/>
<path d="M119.27 190C119.27 190 103.48 182.33 98.27 198.85C93.06 215.37 99.74 226.77 99.74 226.77C99.74 226.77 118.01 222.09 133.39 225.36C133.39 225.36 130.07 211.28 130.87 203.2C131.67 195.12 119.27 190 119.27 190Z" fill="#263238"/>
<path d="M131.59 227.39C135.06 227.54 149.59 247.07 149.59 247.07L154.99 240.07C154.99 240.07 163.31 256.24 159.19 263.94C155.07 271.64 133.37 250.6 133.37 250.6L131.59 227.39Z" fill="#8F94FB"/>
<path opacity="0.6" d="M131.58 227.39L133 243L133.36 250.61C133.36 250.61 136.93 254.07 141.44 257.67C148.07 262.96 156.73 268.54 159.18 263.96C163.3 256.27 154.97 240.09 154.97 240.09L149.58 247.09V247.03C148.74 245.83 134.94 227.54 131.58 227.39Z" fill="white"/>
<path opacity="0.2" d="M133 243L133.36 250.61C133.36 250.61 136.93 254.07 141.44 257.67C141.87 248.53 133.36 235.22 133.36 235.22L133 243Z" fill="black"/>
<path opacity="0.2" d="M149.6 247.07L148.82 248.56L151.08 257.36C151.08 257.36 144.84 251.68 148.82 246.12L149.6 247.07Z" fill="black"/>
<path d="M133.41 244.81C133.41 245.05 133.41 245.3 133.41 245.55C133.41 246.63 133.41 247.77 133.34 248.98C133.34 249.08 133.34 249.18 133.34 249.29C133.34 249.94 133.34 250.61 133.34 251.29C133.34 251.41 133.34 251.52 133.34 251.64C133.34 252.64 133.27 253.64 133.23 254.64C133.23 254.78 133.23 254.92 133.23 255.06C133.23 256.42 133.12 257.85 133.05 259.36C132.89 262.75 132.7 266.51 132.46 270.68L132.01 270.79L101.46 278.03H101.34C101.34 278.03 102.57 261.69 100.46 252.44C100.445 252.359 100.425 252.279 100.4 252.2C100.4 252.06 100.34 251.92 100.3 251.78C100.26 251.64 100.16 251.26 100.1 250.99C100.04 250.72 99.96 250.45 99.88 250.17C99.61 249.17 99.32 248.17 99.01 247.07C98.81 246.35 98.59 245.61 98.36 244.85L98.24 244.47C97.97 243.57 97.68 242.64 97.38 241.68C97.29 241.4 97.21 241.13 97.12 240.84C96.68 239.47 96.21 238.02 95.7 236.5C95.14 234.787 94.5267 232.97 93.86 231.05C97.3634 229.933 100.934 229.038 104.55 228.37L106.1 228.09L107.74 227.82C110.48 227.38 113.25 227.07 116.02 226.87C117.133 226.79 118.243 226.73 119.35 226.69C120.02 226.69 120.71 226.69 121.35 226.69H121.63L123.63 226.75H124.56H125.15H125.79L126.79 226.81H127.55L128.92 226.9L129.46 226.95H129.94H130.38H130.74L131.61 227.03C131.61 227.03 131.61 227.03 131.69 227.03L131.76 227.1C131.827 227.18 131.884 227.267 131.93 227.36C132.237 228.011 132.456 228.701 132.58 229.41C132.58 229.61 132.66 229.83 132.71 230.07C132.76 230.31 132.83 230.82 132.9 231.26C132.97 231.7 132.99 231.9 133.03 232.26C133.07 232.62 133.1 232.91 133.13 233.26C133.426 237.102 133.519 240.958 133.41 244.81V244.81Z" fill="#263238"/>
<path d="M116.82 233.31C109.54 232.38 107.36 229.26 107.36 229.26C110.36 226.46 109.79 222.33 109.03 219.75C108.801 218.932 108.5 218.135 108.13 217.37L116.89 219.01C116.686 220.227 116.573 221.457 116.55 222.69C116.517 223.6 116.601 224.511 116.8 225.4C117.39 228.02 118.88 228.06 118.88 228.06C120.42 230.93 116.82 233.31 116.82 233.31Z" fill="#E4897B"/>
<path opacity="0.2" d="M116.55 222.69C116.517 223.6 116.601 224.511 116.8 225.4C113.32 224.95 110.69 222.16 109.03 219.75C108.801 218.932 108.5 218.135 108.13 217.37L116.89 219.01C116.686 220.227 116.573 221.457 116.55 222.69V222.69Z" fill="black"/>
<path d="M118.88 194.44C126.94 196.08 128.65 200.93 127.55 209.35C126.17 219.88 122.37 226.78 112.74 222.51C99.68 216.71 105.5 191.71 118.88 194.44Z" fill="#E4897B"/>
<path d="M122.43 207.84C122.831 209.176 123.392 210.458 124.1 211.66C123.795 211.942 123.418 212.136 123.011 212.218C122.603 212.301 122.181 212.271 121.79 212.13L122.43 207.84Z" fill="#DE5753"/>
<path d="M115 201.46C114.947 201.46 114.894 201.448 114.846 201.426C114.797 201.403 114.755 201.371 114.72 201.33C114.685 201.297 114.657 201.258 114.638 201.214C114.62 201.17 114.61 201.123 114.61 201.075C114.61 201.027 114.62 200.98 114.638 200.936C114.657 200.892 114.685 200.853 114.72 200.82C115.309 200.411 115.986 200.146 116.697 200.047C117.407 199.948 118.131 200.017 118.81 200.25C118.855 200.266 118.896 200.29 118.931 200.322C118.966 200.353 118.995 200.392 119.015 200.434C119.036 200.477 119.048 200.523 119.05 200.571C119.053 200.618 119.046 200.665 119.03 200.71C119.014 200.755 118.99 200.796 118.958 200.831C118.927 200.866 118.888 200.895 118.846 200.915C118.803 200.936 118.757 200.947 118.709 200.95C118.662 200.953 118.615 200.946 118.57 200.93C118.007 200.75 117.411 200.697 116.824 200.774C116.238 200.852 115.677 201.059 115.18 201.38C115.128 201.421 115.066 201.449 115 201.46V201.46Z" fill="#263238"/>
<path d="M127.69 203.13C127.595 203.128 127.506 203.088 127.44 203.02C127.096 202.626 126.67 202.312 126.191 202.101C125.712 201.89 125.193 201.787 124.67 201.8C124.623 201.808 124.575 201.807 124.529 201.797C124.483 201.786 124.439 201.766 124.4 201.738C124.362 201.71 124.33 201.674 124.306 201.633C124.282 201.593 124.266 201.547 124.26 201.5C124.251 201.453 124.253 201.405 124.263 201.359C124.274 201.313 124.294 201.269 124.322 201.23C124.35 201.192 124.385 201.16 124.426 201.136C124.467 201.112 124.513 201.096 124.56 201.09C125.196 201.052 125.832 201.16 126.42 201.406C127.007 201.652 127.531 202.03 127.95 202.51C127.984 202.543 128.01 202.583 128.028 202.627C128.046 202.671 128.056 202.718 128.056 202.765C128.056 202.812 128.046 202.859 128.028 202.903C128.01 202.947 127.984 202.987 127.95 203.02C127.881 203.089 127.788 203.128 127.69 203.13V203.13Z" fill="#263238"/>
<path d="M107.31 206.22C107.31 206.22 112.43 200.37 112.9 195.14C112.9 195.14 130.19 191.88 127.68 208.25C127.68 208.25 132.17 194.17 118.39 191.03C104.61 187.89 100.53 208.16 106.45 215.65C106.45 215.65 104.13 209.89 107.31 206.22Z" fill="#263238"/>
<path d="M108.28 208.19C108.336 207.72 108.299 207.245 108.171 206.789C108.042 206.334 107.826 205.909 107.533 205.537C107.241 205.166 106.878 204.856 106.466 204.625C106.053 204.393 105.599 204.246 105.13 204.19C102.58 203.95 100.34 208.83 106.3 211.33C107.16 211.69 107.84 210.92 108.28 208.19Z" fill="#E4897B"/>
<path d="M121.56 214.55C120.875 215.287 120.243 216.073 119.67 216.9L119.19 216.66C117.03 215.6 116.38 214.4 116.31 213.39C116.292 212.891 116.392 212.394 116.6 211.94C116.71 211.682 116.855 211.439 117.03 211.22C118.065 212.482 119.362 213.506 120.83 214.22C121.28 214.42 121.56 214.55 121.56 214.55Z" fill="#263238"/>
<path d="M120.83 214.18L120.26 214.86C118.26 213.86 116.93 212.86 116.6 211.94C116.71 211.682 116.855 211.439 117.03 211.22C118.07 212.468 119.366 213.477 120.83 214.18V214.18Z" fill="white"/>
<path d="M119.19 216.66C117.03 215.6 116.38 214.4 116.31 213.39C117.129 213.801 117.865 214.36 118.48 215.04C118.882 215.491 119.131 216.059 119.19 216.66Z" fill="#DE5753"/>
<path d="M118.59 195C118.59 195 112.59 207.6 104.33 205.73C96.07 203.86 112.33 189.73 112.33 189.73C112.33 189.73 127 187.34 132.24 196C137.48 204.66 127.68 208.3 127.68 208.3C127.68 208.3 130.28 198.08 118.59 195Z" fill="#263238"/>
<path d="M110.59 205.39C110.535 205.388 110.482 205.368 110.439 205.334C110.396 205.3 110.365 205.253 110.35 205.2C110.341 205.168 110.339 205.135 110.343 205.103C110.347 205.07 110.358 205.039 110.375 205.011C110.392 204.983 110.414 204.959 110.441 204.94C110.468 204.92 110.498 204.907 110.53 204.9C117.53 203.13 118.45 194.12 118.46 194.03C118.468 193.965 118.5 193.906 118.55 193.865C118.601 193.824 118.665 193.804 118.73 193.81C118.763 193.811 118.795 193.819 118.825 193.834C118.855 193.848 118.881 193.869 118.902 193.895C118.923 193.92 118.938 193.95 118.946 193.982C118.954 194.014 118.956 194.047 118.95 194.08C118.95 194.17 117.95 203.53 110.65 205.38L110.59 205.39Z" fill="#263238"/>
<path d="M117.72 206.61C117.72 207.25 117.33 207.75 116.91 207.74C116.49 207.73 116.15 207.19 116.18 206.55C116.21 205.91 116.57 205.4 117 205.42C117.43 205.44 117.75 206 117.72 206.61Z" fill="#263238"/>
<path d="M116.82 205.44L118.23 204.95C118.23 204.95 117.49 206.1 116.82 205.44Z" fill="#263238"/>
<path d="M125.68 206.79C125.68 207.43 125.28 207.94 124.86 207.92C124.44 207.9 124.11 207.37 124.13 206.73C124.15 206.09 124.52 205.59 124.95 205.61C125.38 205.63 125.7 206.15 125.68 206.79Z" fill="#263238"/>
<path d="M124.77 205.63L126.18 205.14C126.18 205.14 125.44 206.28 124.77 205.63Z" fill="#263238"/>
<path d="M136.88 240.28C136.865 240.387 136.874 240.496 136.906 240.599C136.938 240.702 136.992 240.797 137.064 240.877C137.137 240.957 137.226 241.02 137.325 241.062C137.425 241.104 137.532 241.124 137.64 241.12H146C146.231 241.111 146.452 241.023 146.625 240.87C146.798 240.717 146.913 240.508 146.95 240.28L148.81 223.78C148.835 223.664 148.834 223.544 148.809 223.429C148.783 223.313 148.733 223.204 148.662 223.11C148.591 223.015 148.501 222.937 148.397 222.88C148.293 222.823 148.178 222.789 148.06 222.78H139.7C139.45 222.81 139.218 222.926 139.045 223.109C138.871 223.291 138.767 223.529 138.75 223.78L136.88 240.28Z" fill="#263238"/>
<path opacity="0.5" d="M139.68 223.67L137.78 240.33C137.756 240.427 137.756 240.529 137.779 240.626C137.801 240.724 137.846 240.815 137.911 240.892C137.975 240.968 138.056 241.029 138.148 241.069C138.24 241.108 138.34 241.126 138.44 241.12H145.53C146.01 241.12 146.88 240.86 146.93 240.39L148.83 223.67C148.83 223.2 148.07 222.82 147.59 222.82H140.5C140.281 222.83 140.073 222.924 139.921 223.082C139.768 223.24 139.682 223.45 139.68 223.67V223.67Z" fill="white"/>
<path d="M154.4 241.66L150.04 234.26C150.074 232.652 149.95 231.044 149.67 229.46C149.29 228.54 145.02 226.46 144.18 226.78C143.34 227.1 143.04 234.72 143.8 235.78C144.56 236.84 147.23 237.95 147.23 237.95L147.05 239.4L149.6 247.1L154.4 241.66Z" fill="#E4897B"/>
<path d="M156.15 240.82L154.71 239.37L147.84 247.07L148.82 250.12L156.15 240.82Z" fill="#8F94FB"/>
<path d="M121.33 225.34L120.46 228.54L122.23 231.14L126.15 267.7L136.88 266.12C136.14 237.63 135.88 237.48 131.74 227.23L122.13 226.56L121.33 225.34Z" fill="#8F94FB"/>
<path opacity="0.6" d="M121.33 225.34L120.46 228.54L122.23 231.14L126.15 267.7L136.88 266.12C136.14 237.63 135.88 237.48 131.74 227.23L122.13 226.56L121.33 225.34Z" fill="white"/>
<path d="M103.81 225.34L113.34 229.34L111 233.34L113.31 270.77L98.87 275C98.87 275 88.39 247.5 93.76 231.18L103.22 228.45L103.81 225.34Z" fill="#8F94FB"/>
<path opacity="0.6" d="M112.94 264.81L113.31 270.74L106.87 272.62L98.87 274.96C95.9142 266.827 93.8488 258.398 92.71 249.82C91.94 243.31 91.96 236.6 93.76 231.14L103.22 228.41L103.81 225.34L113.34 229.34L111 233.34L111.92 248.2L112.94 264.81Z" fill="white"/>
<path opacity="0.2" d="M121.39 253.12C121.39 253.12 117.8 258.35 112.94 264.81C111.06 267.31 108.94 269.99 106.87 272.62L98.87 274.96C95.9142 266.827 93.8488 258.398 92.71 249.82C96.63 245.89 101.43 241.13 101.43 241.13C101.43 241.13 103.63 247.93 102.66 253.84L111.92 248.17L114.8 246.41L121.39 253.12Z" fill="black"/>
<path d="M113.57 248.9L123.48 241.12C124.054 239.437 124.759 237.802 125.59 236.23C126.19 235.5 134.88 232.3 135.59 232.23C136.3 232.16 135.59 239.35 134.5 240.57C133.41 241.79 126.42 244.21 126.42 244.21L116.06 254L113.57 248.9Z" fill="#E4897B"/>
<path d="M93.76 231.14C87.94 234.06 85.35 266.92 95.46 272.59C105.57 278.26 120.66 252.59 120.66 252.59L114.79 246.36C114.79 246.36 102.49 256.66 101.01 255.71C99.53 254.76 101.21 244.71 101.21 244.71C101.21 244.71 102.94 241.71 99.3 236.88C95.66 232.05 93.76 231.14 93.76 231.14Z" fill="#8F94FB"/>
<path opacity="0.6" d="M93.76 231.14C87.94 234.06 85.35 266.92 95.46 272.59C105.57 278.26 120.66 252.59 120.66 252.59L114.79 246.36C114.79 246.36 102.49 256.66 101.01 255.71C99.53 254.76 101.21 244.71 101.21 244.71C101.21 244.71 102.94 241.71 99.3 236.88C95.66 232.05 93.76 231.14 93.76 231.14Z" fill="white"/>
<path d="M120.77 254.91L122.53 253.85L115.94 244.19L113.52 245.54L120.77 254.91Z" fill="#8F94FB"/>
</svg>
